%TF.GenerationSoftware,KiCad,Pcbnew,9.0.0*%
%TF.CreationDate,2025-10-26T20:42:14-07:00*%
%TF.ProjectId,Control_Dock,436f6e74-726f-46c5-9f44-6f636b2e6b69,1.0*%
%TF.SameCoordinates,Original*%
%TF.FileFunction,Copper,L1,Top*%
%TF.FilePolarity,Positive*%
%FSLAX46Y46*%
G04 Gerber Fmt 4.6, Leading zero omitted, Abs format (unit mm)*
G04 Created by KiCad (PCBNEW 9.0.0) date 2025-10-26 20:42:14*
%MOMM*%
%LPD*%
G01*
G04 APERTURE LIST*
G04 Aperture macros list*
%AMRoundRect*
0 Rectangle with rounded corners*
0 $1 Rounding radius*
0 $2 $3 $4 $5 $6 $7 $8 $9 X,Y pos of 4 corners*
0 Add a 4 corners polygon primitive as box body*
4,1,4,$2,$3,$4,$5,$6,$7,$8,$9,$2,$3,0*
0 Add four circle primitives for the rounded corners*
1,1,$1+$1,$2,$3*
1,1,$1+$1,$4,$5*
1,1,$1+$1,$6,$7*
1,1,$1+$1,$8,$9*
0 Add four rect primitives between the rounded corners*
20,1,$1+$1,$2,$3,$4,$5,0*
20,1,$1+$1,$4,$5,$6,$7,0*
20,1,$1+$1,$6,$7,$8,$9,0*
20,1,$1+$1,$8,$9,$2,$3,0*%
G04 Aperture macros list end*
%TA.AperFunction,SMDPad,CuDef*%
%ADD10RoundRect,0.300000X-1.200000X-0.700000X1.200000X-0.700000X1.200000X0.700000X-1.200000X0.700000X0*%
%TD*%
%TA.AperFunction,SMDPad,CuDef*%
%ADD11RoundRect,0.250000X-0.450000X0.262500X-0.450000X-0.262500X0.450000X-0.262500X0.450000X0.262500X0*%
%TD*%
%TA.AperFunction,SMDPad,CuDef*%
%ADD12RoundRect,0.250000X-0.250000X-0.475000X0.250000X-0.475000X0.250000X0.475000X-0.250000X0.475000X0*%
%TD*%
%TA.AperFunction,SMDPad,CuDef*%
%ADD13RoundRect,0.250000X-0.262500X-0.450000X0.262500X-0.450000X0.262500X0.450000X-0.262500X0.450000X0*%
%TD*%
%TA.AperFunction,SMDPad,CuDef*%
%ADD14RoundRect,0.250000X0.262500X0.450000X-0.262500X0.450000X-0.262500X-0.450000X0.262500X-0.450000X0*%
%TD*%
%TA.AperFunction,ComponentPad*%
%ADD15R,1.800000X1.800000*%
%TD*%
%TA.AperFunction,ComponentPad*%
%ADD16C,1.800000*%
%TD*%
%TA.AperFunction,SMDPad,CuDef*%
%ADD17RoundRect,0.250000X-0.475000X0.250000X-0.475000X-0.250000X0.475000X-0.250000X0.475000X0.250000X0*%
%TD*%
%TA.AperFunction,SMDPad,CuDef*%
%ADD18RoundRect,0.285750X1.714250X-0.666750X1.714250X0.666750X-1.714250X0.666750X-1.714250X-0.666750X0*%
%TD*%
%TA.AperFunction,ComponentPad*%
%ADD19R,2.000000X2.000000*%
%TD*%
%TA.AperFunction,ComponentPad*%
%ADD20C,2.000000*%
%TD*%
%TA.AperFunction,ComponentPad*%
%ADD21R,2.000000X3.200000*%
%TD*%
%TA.AperFunction,ComponentPad*%
%ADD22R,1.600000X1.600000*%
%TD*%
%TA.AperFunction,ComponentPad*%
%ADD23O,1.600000X1.600000*%
%TD*%
%TA.AperFunction,ViaPad*%
%ADD24C,0.600000*%
%TD*%
%TA.AperFunction,Conductor*%
%ADD25C,1.000000*%
%TD*%
%TA.AperFunction,Conductor*%
%ADD26C,0.200000*%
%TD*%
%TA.AperFunction,Conductor*%
%ADD27C,0.300000*%
%TD*%
%TA.AperFunction,Conductor*%
%ADD28C,0.400000*%
%TD*%
G04 APERTURE END LIST*
D10*
%TO.P,SW2,1,1*%
%TO.N,+3.3V*%
X144780000Y-119380000D03*
%TO.P,SW2,2,2*%
%TO.N,/a1*%
X149860000Y-119380000D03*
%TD*%
D11*
%TO.P,R9,1*%
%TO.N,/a3*%
X170180000Y-123687500D03*
%TO.P,R9,2*%
%TO.N,GND*%
X170180000Y-125512500D03*
%TD*%
D12*
%TO.P,C3,1*%
%TO.N,ROT1_Sw*%
X162050000Y-77500000D03*
%TO.P,C3,2*%
%TO.N,GND*%
X163950000Y-77500000D03*
%TD*%
D13*
%TO.P,R6,1*%
%TO.N,+3.3V*%
X156275000Y-77500000D03*
%TO.P,R6,2*%
%TO.N,ROT1_Sw*%
X158100000Y-77500000D03*
%TD*%
D14*
%TO.P,R1,1*%
%TO.N,Net-(D1-K)*%
X142612500Y-113400000D03*
%TO.P,R1,2*%
%TO.N,GND*%
X140787500Y-113400000D03*
%TD*%
D15*
%TO.P,D1,1,K*%
%TO.N,Net-(D1-K)*%
X144880000Y-108850000D03*
D16*
%TO.P,D1,2,A*%
%TO.N,/L3*%
X144880000Y-106310000D03*
%TD*%
D14*
%TO.P,R2,1*%
%TO.N,Net-(D2-K)*%
X155012500Y-113600000D03*
%TO.P,R2,2*%
%TO.N,GND*%
X153187500Y-113600000D03*
%TD*%
D11*
%TO.P,R4,1*%
%TO.N,+3.3V*%
X148000000Y-93175000D03*
%TO.P,R4,2*%
%TO.N,ROT1_A*%
X148000000Y-95000000D03*
%TD*%
D10*
%TO.P,SW4,1,1*%
%TO.N,+3.3V*%
X165100000Y-119380000D03*
%TO.P,SW4,2,2*%
%TO.N,/a3*%
X170180000Y-119380000D03*
%TD*%
D17*
%TO.P,C2,1*%
%TO.N,ROT1_A*%
X148000000Y-96750000D03*
%TO.P,C2,2*%
%TO.N,GND*%
X148000000Y-98650000D03*
%TD*%
D15*
%TO.P,D3,1,K*%
%TO.N,Net-(D3-K)*%
X170180000Y-109220000D03*
D16*
%TO.P,D3,2,A*%
%TO.N,/L1*%
X170180000Y-106680000D03*
%TD*%
D10*
%TO.P,BT1,1,+*%
%TO.N,Net-(BT1-+)*%
X50800000Y-129540000D03*
%TO.P,BT1,2,-*%
%TO.N,GND*%
X55880000Y-129540000D03*
%TD*%
D17*
%TO.P,C1,1*%
%TO.N,ROT1_B*%
X166900000Y-96650000D03*
%TO.P,C1,2*%
%TO.N,GND*%
X166900000Y-98550000D03*
%TD*%
D15*
%TO.P,D2,1,K*%
%TO.N,Net-(D2-K)*%
X157280000Y-109080000D03*
D16*
%TO.P,D2,2,A*%
%TO.N,/L2*%
X157280000Y-106540000D03*
%TD*%
D14*
%TO.P,R3,1*%
%TO.N,Net-(D3-K)*%
X167912500Y-113800000D03*
%TO.P,R3,2*%
%TO.N,GND*%
X166087500Y-113800000D03*
%TD*%
D11*
%TO.P,R5,1*%
%TO.N,+3.3V*%
X166900000Y-93075000D03*
%TO.P,R5,2*%
%TO.N,ROT1_B*%
X166900000Y-94900000D03*
%TD*%
D18*
%TO.P,SW1,1,C*%
%TO.N,Net-(BT1-+)*%
X50800000Y-78580000D03*
%TO.P,SW1,2,B*%
%TO.N,+12V*%
X50800000Y-73580000D03*
%TO.P,SW1,3,A*%
%TO.N,GND*%
X50800000Y-68580000D03*
%TD*%
D13*
%TO.P,ROT1,2*%
%TO.N,GND*%
X174312500Y-113800000D03*
D19*
%TO.P,ROT1,A,A*%
%TO.N,ROT1_A*%
X154940000Y-95780000D03*
D20*
%TO.P,ROT1,B,B*%
%TO.N,ROT1_B*%
X159940000Y-95780000D03*
%TO.P,ROT1,C,C*%
%TO.N,GND*%
X157440000Y-95780000D03*
D21*
%TO.P,ROT1,MP,MP*%
X151840000Y-88280000D03*
X163040000Y-88280000D03*
D20*
%TO.P,ROT1,S1,S1*%
%TO.N,ROT1_Sw*%
X159940000Y-81280000D03*
%TO.P,ROT1,S2,S2*%
%TO.N,GND*%
X154940000Y-81280000D03*
%TD*%
D10*
%TO.P,SW3,1,1*%
%TO.N,+3.3V*%
X154940000Y-119380000D03*
%TO.P,SW3,2,2*%
%TO.N,/a2*%
X160020000Y-119380000D03*
%TD*%
D11*
%TO.P,R7,1*%
%TO.N,/a1*%
X149860000Y-123640000D03*
%TO.P,R7,2*%
%TO.N,GND*%
X149860000Y-125465000D03*
%TD*%
D22*
%TO.P,Processor1,1,D1/TX*%
%TO.N,unconnected-(Processor1-D1{slash}TX-Pad1)*%
X139700000Y-71120000D03*
D23*
%TO.P,Processor1,2,D0/RX*%
%TO.N,unconnected-(Processor1-D0{slash}RX-Pad2)*%
X142240000Y-71120000D03*
%TO.P,Processor1,3,~{RESET}*%
%TO.N,unconnected-(Processor1-~{RESET}-Pad3)*%
X144780000Y-71120000D03*
%TO.P,Processor1,4,GND*%
%TO.N,GND*%
X147320000Y-71120000D03*
%TO.P,Processor1,5,D2*%
%TO.N,/L1*%
X149860000Y-71120000D03*
%TO.P,Processor1,6,D3*%
%TO.N,/L2*%
X152400000Y-71120000D03*
%TO.P,Processor1,7,D4*%
%TO.N,/L3*%
X154940000Y-71120000D03*
%TO.P,Processor1,8,D5*%
%TO.N,ROT1_Sw*%
X157480000Y-71120000D03*
%TO.P,Processor1,9,D6*%
%TO.N,unconnected-(Processor1-D6-Pad9)*%
X160020000Y-71120000D03*
%TO.P,Processor1,10,D7*%
%TO.N,unconnected-(Processor1-D7-Pad10)*%
X162560000Y-71120000D03*
%TO.P,Processor1,11,D8*%
%TO.N,ROT1_A*%
X165100000Y-71120000D03*
%TO.P,Processor1,12,D9*%
%TO.N,ROT1_B*%
X167640000Y-71120000D03*
%TO.P,Processor1,13,D10/CS*%
%TO.N,unconnected-(Processor1-D10{slash}CS-Pad13)*%
X170180000Y-71120000D03*
%TO.P,Processor1,14,D11/COPI*%
%TO.N,unconnected-(Processor1-D11{slash}COPI-Pad14)*%
X172720000Y-71120000D03*
%TO.P,Processor1,15,D12/CIPO*%
%TO.N,unconnected-(Processor1-D12{slash}CIPO-Pad15)*%
X175260000Y-71120000D03*
%TO.P,Processor1,16,D13/SCK*%
%TO.N,unconnected-(Processor1-D13{slash}SCK-Pad16)*%
X175260000Y-55880000D03*
%TO.P,Processor1,17,3V3*%
%TO.N,+3.3V*%
X172720000Y-55880000D03*
%TO.P,Processor1,18,B0*%
%TO.N,unconnected-(Processor1-B0-Pad18)*%
X170180000Y-55880000D03*
%TO.P,Processor1,19,A0*%
%TO.N,unconnected-(Processor1-A0-Pad19)*%
X167640000Y-55880000D03*
%TO.P,Processor1,20,A1*%
%TO.N,/a1*%
X165100000Y-55880000D03*
%TO.P,Processor1,21,A2*%
%TO.N,/a2*%
X162560000Y-55880000D03*
%TO.P,Processor1,22,A3*%
%TO.N,/a3*%
X160020000Y-55880000D03*
%TO.P,Processor1,23,SDA/A4*%
%TO.N,unconnected-(Processor1-SDA{slash}A4-Pad23)*%
X157480000Y-55880000D03*
%TO.P,Processor1,24,SCL/A5*%
%TO.N,unconnected-(Processor1-SCL{slash}A5-Pad24)*%
X154940000Y-55880000D03*
%TO.P,Processor1,25,A6*%
%TO.N,unconnected-(Processor1-A6-Pad25)*%
X152400000Y-55880000D03*
%TO.P,Processor1,26,A7*%
%TO.N,unconnected-(Processor1-A7-Pad26)*%
X149860000Y-55880000D03*
%TO.P,Processor1,27,VUSB/5V*%
%TO.N,unconnected-(Processor1-VUSB{slash}5V-Pad27)*%
X147320000Y-55880000D03*
%TO.P,Processor1,28,B1*%
%TO.N,unconnected-(Processor1-B1-Pad28)*%
X144780000Y-55880000D03*
%TO.P,Processor1,29,GND*%
%TO.N,GND*%
X142240000Y-55880000D03*
%TO.P,Processor1,30,VIN*%
%TO.N,+12V*%
X139700000Y-55880000D03*
%TD*%
D11*
%TO.P,R8,1*%
%TO.N,/a2*%
X160020000Y-123675000D03*
%TO.P,R8,2*%
%TO.N,GND*%
X160020000Y-125500000D03*
%TD*%
D24*
%TO.N,GND*%
X176500000Y-52100000D03*
X169700000Y-52000000D03*
X159700000Y-52000000D03*
X152200000Y-52000000D03*
X142200000Y-52000000D03*
X181600000Y-102500000D03*
X181600000Y-112500000D03*
X55000000Y-55000000D03*
X55000000Y-65000000D03*
X55000000Y-75000000D03*
X55000000Y-85000000D03*
X55000000Y-95000000D03*
X55000000Y-105000000D03*
X55000000Y-115000000D03*
X55000000Y-125000000D03*
X180000000Y-55000000D03*
X180000000Y-60000000D03*
X180000000Y-75000000D03*
X180000000Y-85000000D03*
X180000000Y-95000000D03*
X180000000Y-120000000D03*
X175000000Y-125000000D03*
X170000000Y-130000000D03*
X160000000Y-130000000D03*
X150000000Y-130000000D03*
X140000000Y-130000000D03*
X130000000Y-130000000D03*
X120000000Y-130000000D03*
X110000000Y-130000000D03*
X100000000Y-130000000D03*
X90000000Y-130000000D03*
X80000000Y-130000000D03*
X70000000Y-130000000D03*
X60000000Y-130000000D03*
X160300000Y-78100000D03*
X150700000Y-77300000D03*
X152700000Y-79200000D03*
X160600000Y-97500000D03*
X153800000Y-97500000D03*
X169400000Y-121300000D03*
X159200000Y-121400000D03*
X149200000Y-121100000D03*
%TO.N,ROT1_B*%
X161500000Y-97300000D03*
%TO.N,ROT1_A*%
X152800000Y-97400000D03*
%TO.N,ROT1_Sw*%
X159950000Y-79050000D03*
X151450000Y-76900000D03*
X153550000Y-79000000D03*
%TO.N,/a3*%
X168500000Y-121100000D03*
%TO.N,/a2*%
X158100000Y-121300000D03*
%TO.N,/a1*%
X148000000Y-121200000D03*
%TD*%
D25*
%TO.N,+12V*%
X53320000Y-73580000D02*
X50800000Y-73580000D01*
X56800000Y-70100000D02*
X53320000Y-73580000D01*
X56800000Y-54300000D02*
X56800000Y-70100000D01*
X57400000Y-53700000D02*
X56800000Y-54300000D01*
X139200000Y-53700000D02*
X57400000Y-53700000D01*
X139700000Y-55880000D02*
X139700000Y-54200000D01*
X139700000Y-54200000D02*
X139200000Y-53700000D01*
D26*
%TO.N,ROT1_B*%
X159940000Y-95780000D02*
X161460000Y-97300000D01*
X161460000Y-97300000D02*
X161500000Y-97300000D01*
X165000000Y-95780000D02*
X165100000Y-95780000D01*
X166020000Y-95780000D02*
X166900000Y-94900000D01*
X165970000Y-96650000D02*
X166900000Y-96650000D01*
X165100000Y-95780000D02*
X165970000Y-96650000D01*
X165000000Y-95780000D02*
X166020000Y-95780000D01*
X159940000Y-95780000D02*
X165000000Y-95780000D01*
%TO.N,ROT1_A*%
X154940000Y-95780000D02*
X154420000Y-95780000D01*
X154420000Y-95780000D02*
X152800000Y-97400000D01*
X154940000Y-95780000D02*
X150300000Y-95780000D01*
X150300000Y-95780000D02*
X148970000Y-95780000D01*
X150300000Y-95780000D02*
X149520000Y-95000000D01*
X149520000Y-95000000D02*
X148000000Y-95000000D01*
X148970000Y-95780000D02*
X148000000Y-96750000D01*
%TO.N,ROT1_Sw*%
X158100000Y-79440000D02*
X158100000Y-77500000D01*
X162050000Y-79150000D02*
X162050000Y-77500000D01*
X162050000Y-77500000D02*
X160500000Y-79050000D01*
X153550000Y-79000000D02*
X151450000Y-76900000D01*
X159940000Y-81280000D02*
X158100000Y-79440000D01*
X159940000Y-81280000D02*
X159940000Y-81260000D01*
X160500000Y-79050000D02*
X159950000Y-79050000D01*
X159940000Y-81260000D02*
X162050000Y-79150000D01*
D27*
%TO.N,/L3*%
X136750000Y-73050000D02*
X136750000Y-69150000D01*
X151220000Y-67400000D02*
X154940000Y-71120000D01*
X136750000Y-69150000D02*
X138500000Y-67400000D01*
X144280000Y-105710000D02*
X144280000Y-80580000D01*
X144280000Y-80580000D02*
X136750000Y-73050000D01*
X138500000Y-67400000D02*
X151220000Y-67400000D01*
D28*
X144880000Y-106310000D02*
X144280000Y-105710000D01*
D26*
%TO.N,Net-(D1-K)*%
X144880000Y-108850000D02*
X144880000Y-111132500D01*
X144880000Y-111132500D02*
X142612500Y-113400000D01*
D27*
%TO.N,/L2*%
X144800000Y-99475000D02*
X144800000Y-80400000D01*
X137250000Y-72850000D02*
X137250000Y-69350000D01*
D26*
X157280000Y-106540000D02*
X151865000Y-106540000D01*
D27*
X137250000Y-69350000D02*
X138750000Y-67850000D01*
X149130000Y-67850000D02*
X152400000Y-71120000D01*
X138750000Y-67850000D02*
X149130000Y-67850000D01*
X151865000Y-106540000D02*
X144800000Y-99475000D01*
X144800000Y-80400000D02*
X137250000Y-72850000D01*
D26*
%TO.N,Net-(D2-K)*%
X157280000Y-111332500D02*
X155012500Y-113600000D01*
X157280000Y-109080000D02*
X157280000Y-111332500D01*
D27*
%TO.N,/L1*%
X165700000Y-102200000D02*
X148400000Y-102200000D01*
X145400000Y-99200000D02*
X145400000Y-75580000D01*
X170180000Y-106680000D02*
X165700000Y-102200000D01*
X145400000Y-75580000D02*
X149860000Y-71120000D01*
X148400000Y-102200000D02*
X145400000Y-99200000D01*
D26*
%TO.N,Net-(D3-K)*%
X170180000Y-109220000D02*
X170180000Y-111532500D01*
X170180000Y-111532500D02*
X167912500Y-113800000D01*
%TO.N,/a3*%
X170180000Y-119380000D02*
X168500000Y-121060000D01*
X170180000Y-119380000D02*
X170180000Y-123687500D01*
X168500000Y-121060000D02*
X168500000Y-121100000D01*
%TO.N,/a2*%
X160020000Y-119380000D02*
X160020000Y-123675000D01*
X160020000Y-119380000D02*
X158100000Y-121300000D01*
D25*
%TO.N,+3.3V*%
X144780000Y-116680000D02*
X144780000Y-119380000D01*
X166900000Y-89500000D02*
X166900000Y-76900000D01*
X154900000Y-116500000D02*
X144960000Y-116500000D01*
X179900000Y-113800000D02*
X178600000Y-115100000D01*
X172720000Y-57420000D02*
X179700000Y-64400000D01*
X179900000Y-100900000D02*
X179900000Y-102000000D01*
X148000000Y-76500000D02*
X149400000Y-75100000D01*
X179700000Y-64400000D02*
X179700000Y-72600000D01*
X148000000Y-93175000D02*
X148000000Y-76500000D01*
X178600000Y-115100000D02*
X177200000Y-116500000D01*
X171200000Y-92200000D02*
X179900000Y-100900000D01*
X172720000Y-55880000D02*
X172720000Y-57420000D01*
X166900000Y-89500000D02*
X168500000Y-89500000D01*
X166900000Y-93075000D02*
X166900000Y-89500000D01*
X166900000Y-76900000D02*
X168700000Y-75100000D01*
X154900000Y-116500000D02*
X154940000Y-116540000D01*
X177200000Y-75100000D02*
X168700000Y-75100000D01*
X177200000Y-116500000D02*
X165100000Y-116500000D01*
X144960000Y-116500000D02*
X144780000Y-116680000D01*
D26*
X156275000Y-77500000D02*
X156275000Y-75725000D01*
D25*
X179700000Y-72600000D02*
X177200000Y-75100000D01*
X168500000Y-89500000D02*
X171200000Y-92200000D01*
X179900000Y-102000000D02*
X179900000Y-113800000D01*
X154940000Y-116540000D02*
X154940000Y-119380000D01*
X165100000Y-116500000D02*
X165100000Y-119380000D01*
D26*
X156275000Y-75725000D02*
X156900000Y-75100000D01*
D25*
X156900000Y-75100000D02*
X154300000Y-75100000D01*
X168700000Y-75100000D02*
X156900000Y-75100000D01*
X165100000Y-116500000D02*
X154900000Y-116500000D01*
X154300000Y-75100000D02*
X149400000Y-75100000D01*
D26*
%TO.N,/a1*%
X148040000Y-121200000D02*
X148000000Y-121200000D01*
X149860000Y-119380000D02*
X148040000Y-121200000D01*
X149860000Y-119380000D02*
X149860000Y-123640000D01*
D25*
%TO.N,Net-(BT1-+)*%
X50800000Y-78580000D02*
X50800000Y-129540000D01*
%TD*%
%TA.AperFunction,Conductor*%
%TO.N,GND*%
G36*
X180974418Y-50585816D02*
G01*
X181174561Y-50600130D01*
X181192063Y-50602647D01*
X181383797Y-50644355D01*
X181400755Y-50649334D01*
X181584609Y-50717909D01*
X181600701Y-50725259D01*
X181772904Y-50819288D01*
X181787784Y-50828849D01*
X181944867Y-50946441D01*
X181958237Y-50958027D01*
X182096972Y-51096762D01*
X182108558Y-51110132D01*
X182226146Y-51267210D01*
X182235711Y-51282095D01*
X182329740Y-51454298D01*
X182337090Y-51470390D01*
X182405662Y-51654236D01*
X182410646Y-51671212D01*
X182452351Y-51862931D01*
X182454869Y-51880442D01*
X182469184Y-52080580D01*
X182469500Y-52089427D01*
X182469500Y-129670572D01*
X182469184Y-129679419D01*
X182454869Y-129879557D01*
X182452351Y-129897068D01*
X182410646Y-130088787D01*
X182405662Y-130105763D01*
X182337090Y-130289609D01*
X182329740Y-130305701D01*
X182235711Y-130477904D01*
X182226146Y-130492789D01*
X182108558Y-130649867D01*
X182096972Y-130663237D01*
X181958237Y-130801972D01*
X181944867Y-130813558D01*
X181787789Y-130931146D01*
X181772904Y-130940711D01*
X181600701Y-131034740D01*
X181584609Y-131042090D01*
X181400763Y-131110662D01*
X181383787Y-131115646D01*
X181192068Y-131157351D01*
X181174557Y-131159869D01*
X180993779Y-131172799D01*
X180974417Y-131174184D01*
X180965572Y-131174500D01*
X57156315Y-131174500D01*
X57089276Y-131154815D01*
X57043521Y-131102011D01*
X57035974Y-131049525D01*
X55880000Y-129893552D01*
X54723319Y-131050231D01*
X54725715Y-131072516D01*
X54694440Y-131134995D01*
X54634352Y-131170648D01*
X54603685Y-131174500D01*
X49952428Y-131174500D01*
X49943582Y-131174184D01*
X49921622Y-131172613D01*
X49743442Y-131159869D01*
X49725931Y-131157351D01*
X49534212Y-131115646D01*
X49517236Y-131110662D01*
X49333390Y-131042090D01*
X49317298Y-131034740D01*
X49145095Y-130940711D01*
X49130210Y-130931146D01*
X48973132Y-130813558D01*
X48959762Y-130801972D01*
X48821027Y-130663237D01*
X48809441Y-130649867D01*
X48691849Y-130492784D01*
X48682288Y-130477904D01*
X48588259Y-130305701D01*
X48580909Y-130289609D01*
X48580263Y-130287876D01*
X48512334Y-130105755D01*
X48507355Y-130088797D01*
X48465647Y-129897063D01*
X48463130Y-129879556D01*
X48461377Y-129855051D01*
X48448816Y-129679418D01*
X48448500Y-129670572D01*
X48448500Y-79579437D01*
X48468185Y-79512398D01*
X48520989Y-79466643D01*
X48590147Y-79456699D01*
X48653703Y-79485724D01*
X48671764Y-79505123D01*
X48738384Y-79594116D01*
X48850319Y-79677910D01*
X48850321Y-79677911D01*
X48893988Y-79694197D01*
X48981327Y-79726773D01*
X49039245Y-79733000D01*
X49975500Y-79732999D01*
X50042539Y-79752683D01*
X50088294Y-79805487D01*
X50099500Y-79856999D01*
X50099500Y-128215500D01*
X50079815Y-128282539D01*
X50027011Y-128328294D01*
X49975500Y-128339500D01*
X49552129Y-128339500D01*
X49552123Y-128339501D01*
X49492516Y-128345908D01*
X49357671Y-128396202D01*
X49357664Y-128396206D01*
X49242455Y-128482452D01*
X49242452Y-128482455D01*
X49156206Y-128597664D01*
X49156202Y-128597671D01*
X49105908Y-128732517D01*
X49099501Y-128792116D01*
X49099501Y-128792123D01*
X49099500Y-128792135D01*
X49099500Y-130287870D01*
X49099501Y-130287876D01*
X49105908Y-130347483D01*
X49156202Y-130482328D01*
X49156206Y-130482335D01*
X49242452Y-130597544D01*
X49242455Y-130597547D01*
X49357664Y-130683793D01*
X49357671Y-130683797D01*
X49492517Y-130734091D01*
X49492516Y-130734091D01*
X49499444Y-130734835D01*
X49552127Y-130740500D01*
X52047872Y-130740499D01*
X52107483Y-130734091D01*
X52242331Y-130683796D01*
X52357546Y-130597546D01*
X52443796Y-130482331D01*
X52494091Y-130347483D01*
X52500500Y-130287873D01*
X52500499Y-128795069D01*
X53880000Y-128795069D01*
X53880000Y-130284930D01*
X53895122Y-130419141D01*
X53954663Y-130589301D01*
X54050577Y-130741948D01*
X54178049Y-130869420D01*
X54178053Y-130869423D01*
X54189702Y-130876743D01*
X54189704Y-130876743D01*
X55526448Y-129540000D01*
X55526447Y-129539999D01*
X56233552Y-129539999D01*
X56233552Y-129540000D01*
X57570294Y-130876743D01*
X57581947Y-130869423D01*
X57581950Y-130869420D01*
X57709423Y-130741946D01*
X57805336Y-130589301D01*
X57864877Y-130419141D01*
X57879999Y-130284930D01*
X57880000Y-130284930D01*
X57880000Y-128795070D01*
X57879999Y-128795069D01*
X57864877Y-128660856D01*
X57864877Y-128660855D01*
X57854012Y-128629807D01*
X57854008Y-128629795D01*
X57841382Y-128593713D01*
X178649500Y-128593713D01*
X178649500Y-128806287D01*
X178682754Y-129016243D01*
X178738057Y-129186448D01*
X178748444Y-129218414D01*
X178844951Y-129407820D01*
X178969890Y-129579786D01*
X179120213Y-129730109D01*
X179292179Y-129855048D01*
X179292181Y-129855049D01*
X179292184Y-129855051D01*
X179481588Y-129951557D01*
X179683757Y-130017246D01*
X179893713Y-130050500D01*
X179893714Y-130050500D01*
X180106286Y-130050500D01*
X180106287Y-130050500D01*
X180316243Y-130017246D01*
X180518412Y-129951557D01*
X180707816Y-129855051D01*
X180747455Y-129826252D01*
X180879786Y-129730109D01*
X180879788Y-129730106D01*
X180879792Y-129730104D01*
X181030104Y-129579792D01*
X181030106Y-129579788D01*
X181030109Y-129579786D01*
X181155048Y-129407820D01*
X181155047Y-129407820D01*
X181155051Y-129407816D01*
X181251557Y-129218412D01*
X181317246Y-129016243D01*
X181350500Y-128806287D01*
X181350500Y-128593713D01*
X181317246Y-128383757D01*
X181251557Y-128181588D01*
X181155051Y-127992184D01*
X181155049Y-127992181D01*
X181155048Y-127992179D01*
X181030109Y-127820213D01*
X180879786Y-127669890D01*
X180707820Y-127544951D01*
X180518414Y-127448444D01*
X180518413Y-127448443D01*
X180518412Y-127448443D01*
X180316243Y-127382754D01*
X180316241Y-127382753D01*
X180316240Y-127382753D01*
X180154957Y-127357208D01*
X180106287Y-127349500D01*
X179893713Y-127349500D01*
X179845042Y-127357208D01*
X179683760Y-127382753D01*
X179481585Y-127448444D01*
X179292179Y-127544951D01*
X179120213Y-127669890D01*
X178969890Y-127820213D01*
X178844951Y-127992179D01*
X178748444Y-128181585D01*
X178682753Y-128383760D01*
X178665816Y-128490698D01*
X178649500Y-128593713D01*
X57841382Y-128593713D01*
X57805336Y-128490698D01*
X57709423Y-128338053D01*
X57581948Y-128210577D01*
X57570296Y-128203255D01*
X57570295Y-128203255D01*
X56233552Y-129539999D01*
X55526447Y-129539999D01*
X54189703Y-128203255D01*
X54189702Y-128203255D01*
X54178052Y-128210576D01*
X54050576Y-128338053D01*
X53954663Y-128490698D01*
X53895122Y-128660858D01*
X53880000Y-128795069D01*
X52500499Y-128795069D01*
X52500499Y-128792128D01*
X52494091Y-128732517D01*
X52467363Y-128660856D01*
X52443797Y-128597671D01*
X52443793Y-128597664D01*
X52357547Y-128482455D01*
X52357544Y-128482452D01*
X52242335Y-128396206D01*
X52242328Y-128396202D01*
X52107482Y-128345908D01*
X52107483Y-128345908D01*
X52047883Y-128339501D01*
X52047881Y-128339500D01*
X52047873Y-128339500D01*
X52047865Y-128339500D01*
X51624500Y-128339500D01*
X51615814Y-128336949D01*
X51606853Y-128338238D01*
X51582812Y-128327259D01*
X51557461Y-128319815D01*
X51551533Y-128312974D01*
X51543297Y-128309213D01*
X51529007Y-128286978D01*
X51511706Y-128267011D01*
X51509418Y-128256496D01*
X51505523Y-128250435D01*
X51500500Y-128215500D01*
X51500500Y-128040000D01*
X54733551Y-128040000D01*
X55880000Y-129186448D01*
X57026448Y-128040000D01*
X54733551Y-128040000D01*
X51500500Y-128040000D01*
X51500500Y-79856999D01*
X51520185Y-79789960D01*
X51572989Y-79744205D01*
X51624500Y-79732999D01*
X52560753Y-79732999D01*
X52560754Y-79732999D01*
X52618673Y-79726773D01*
X52749681Y-79677910D01*
X52861616Y-79594116D01*
X52945410Y-79482181D01*
X52994273Y-79351173D01*
X53000500Y-79293255D01*
X53000499Y-77866746D01*
X52994273Y-77808827D01*
X52945410Y-77677819D01*
X52861616Y-77565884D01*
X52749681Y-77482090D01*
X52749680Y-77482089D01*
X52749678Y-77482088D01*
X52618676Y-77433228D01*
X52618675Y-77433227D01*
X52618673Y-77433227D01*
X52560755Y-77427000D01*
X52560745Y-77427000D01*
X49039247Y-77427000D01*
X49039241Y-77427001D01*
X48981326Y-77433226D01*
X48850321Y-77482088D01*
X48850319Y-77482089D01*
X48775833Y-77537849D01*
X48738384Y-77565884D01*
X48738383Y-77565885D01*
X48738382Y-77565886D01*
X48671766Y-77654873D01*
X48615832Y-77696744D01*
X48546141Y-77701728D01*
X48484818Y-77668242D01*
X48451334Y-77606919D01*
X48448500Y-77580562D01*
X48448500Y-74579437D01*
X48468185Y-74512398D01*
X48520989Y-74466643D01*
X48590147Y-74456699D01*
X48653703Y-74485724D01*
X48671764Y-74505123D01*
X48738384Y-74594116D01*
X48850319Y-74677910D01*
X48850321Y-74677911D01*
X48893988Y-74694197D01*
X48981327Y-74726773D01*
X49039245Y-74733000D01*
X52560754Y-74732999D01*
X52618673Y-74726773D01*
X52749681Y-74677910D01*
X52861616Y-74594116D01*
X52945410Y-74482181D01*
X52966208Y-74426420D01*
X52990546Y-74361167D01*
X53032417Y-74305233D01*
X53097882Y-74280816D01*
X53106728Y-74280500D01*
X53388996Y-74280500D01*
X53480040Y-74262389D01*
X53524328Y-74253580D01*
X53588069Y-74227177D01*
X53651807Y-74200777D01*
X53651808Y-74200776D01*
X53651811Y-74200775D01*
X53766543Y-74124114D01*
X57344114Y-70546543D01*
X57420775Y-70431811D01*
X57473580Y-70304329D01*
X57487695Y-70233368D01*
X57497350Y-70184829D01*
X57500500Y-70168995D01*
X57500500Y-56014108D01*
X58039500Y-56014108D01*
X58039500Y-126765891D01*
X58073608Y-126893187D01*
X58106554Y-126950250D01*
X58139500Y-127007314D01*
X58232686Y-127100500D01*
X58346814Y-127166392D01*
X58474108Y-127200500D01*
X58474110Y-127200500D01*
X129725890Y-127200500D01*
X129725892Y-127200500D01*
X129853186Y-127166392D01*
X129967314Y-127100500D01*
X130060500Y-127007314D01*
X130126392Y-126893186D01*
X130160500Y-126765892D01*
X130160500Y-125777486D01*
X148660001Y-125777486D01*
X148670494Y-125880197D01*
X148725641Y-126046619D01*
X148725643Y-126046624D01*
X148817684Y-126195845D01*
X148941654Y-126319815D01*
X149090875Y-126411856D01*
X149090880Y-126411858D01*
X149257302Y-126467005D01*
X149257309Y-126467006D01*
X149360019Y-126477499D01*
X149609999Y-126477499D01*
X150110000Y-126477499D01*
X150359972Y-126477499D01*
X150359986Y-126477498D01*
X150462697Y-126467005D01*
X150629119Y-126411858D01*
X150629124Y-126411856D01*
X150778345Y-126319815D01*
X150902315Y-126195845D01*
X150994356Y-126046624D01*
X150994358Y-126046619D01*
X151049505Y-125880197D01*
X151049506Y-125880190D01*
X151056423Y-125812486D01*
X158820001Y-125812486D01*
X158830494Y-125915197D01*
X158885641Y-126081619D01*
X158885643Y-126081624D01*
X158977684Y-126230845D01*
X159101654Y-126354815D01*
X159250875Y-126446856D01*
X159250880Y-126446858D01*
X159417302Y-126502005D01*
X159417309Y-126502006D01*
X159520019Y-126512499D01*
X159769999Y-126512499D01*
X160270000Y-126512499D01*
X160519972Y-126512499D01*
X160519986Y-126512498D01*
X160622697Y-126502005D01*
X160789119Y-126446858D01*
X160789124Y-126446856D01*
X160938345Y-126354815D01*
X161062315Y-126230845D01*
X161154356Y-126081624D01*
X161154358Y-126081619D01*
X161209505Y-125915197D01*
X161209506Y-125915190D01*
X161218722Y-125824986D01*
X168980001Y-125824986D01*
X168990494Y-125927697D01*
X169045641Y-126094119D01*
X169045643Y-126094124D01*
X169137684Y-126243345D01*
X169261654Y-126367315D01*
X169410875Y-126459356D01*
X169410880Y-126459358D01*
X169577302Y-126514505D01*
X169577309Y-126514506D01*
X169680019Y-126524999D01*
X169929999Y-126524999D01*
X170430000Y-126524999D01*
X170679972Y-126524999D01*
X170679986Y-126524998D01*
X170782697Y-126514505D01*
X170949119Y-126459358D01*
X170949124Y-126459356D01*
X171098345Y-126367315D01*
X171222315Y-126243345D01*
X171314356Y-126094124D01*
X171314358Y-126094119D01*
X171369505Y-125927697D01*
X171369506Y-125927690D01*
X171379999Y-125824986D01*
X171380000Y-125824973D01*
X171380000Y-125762500D01*
X170430000Y-125762500D01*
X170430000Y-126524999D01*
X169929999Y-126524999D01*
X169930000Y-126524998D01*
X169930000Y-125762500D01*
X168980001Y-125762500D01*
X168980001Y-125824986D01*
X161218722Y-125824986D01*
X161219999Y-125812486D01*
X161220000Y-125812473D01*
X161220000Y-125750000D01*
X160270000Y-125750000D01*
X160270000Y-126512499D01*
X159769999Y-126512499D01*
X159770000Y-126512498D01*
X159770000Y-125750000D01*
X158820001Y-125750000D01*
X158820001Y-125812486D01*
X151056423Y-125812486D01*
X151059999Y-125777486D01*
X151060000Y-125777473D01*
X151060000Y-125715000D01*
X150110000Y-125715000D01*
X150110000Y-126477499D01*
X149609999Y-126477499D01*
X149610000Y-126477498D01*
X149610000Y-125715000D01*
X148660001Y-125715000D01*
X148660001Y-125777486D01*
X130160500Y-125777486D01*
X130160500Y-121134108D01*
X147499500Y-121134108D01*
X147499500Y-121265892D01*
X147506813Y-121293186D01*
X147533608Y-121393187D01*
X147541766Y-121407316D01*
X147599500Y-121507314D01*
X147692686Y-121600500D01*
X147806814Y-121666392D01*
X147934108Y-121700500D01*
X147934110Y-121700500D01*
X148065890Y-121700500D01*
X148065892Y-121700500D01*
X148193186Y-121666392D01*
X148307314Y-121600500D01*
X148400500Y-121507314D01*
X148466392Y-121393186D01*
X148500500Y-121265892D01*
X148500500Y-121215832D01*
X148520185Y-121148793D01*
X148536815Y-121128155D01*
X149048152Y-120616817D01*
X149109475Y-120583333D01*
X149135833Y-120580499D01*
X149435500Y-120580499D01*
X149502539Y-120600184D01*
X149548294Y-120652988D01*
X149559500Y-120704499D01*
X149559500Y-122803000D01*
X149539815Y-122870039D01*
X149487011Y-122915794D01*
X149435500Y-122927000D01*
X149355730Y-122927000D01*
X149325300Y-122929853D01*
X149325298Y-122929853D01*
X149197119Y-122974706D01*
X149197117Y-122974707D01*
X149087850Y-123055350D01*
X149007207Y-123164617D01*
X149007206Y-123164619D01*
X148962353Y-123292798D01*
X148962353Y-123292800D01*
X148959500Y-123323230D01*
X148959500Y-123956769D01*
X148962353Y-123987199D01*
X148962353Y-123987201D01*
X149007206Y-124115380D01*
X149007207Y-124115382D01*
X149042263Y-124162882D01*
X149087851Y-124224651D01*
X149170601Y-124285723D01*
X149212852Y-124341370D01*
X149218311Y-124411026D01*
X149185244Y-124472576D01*
X149135974Y-124503198D01*
X149090883Y-124518140D01*
X149090875Y-124518143D01*
X148941654Y-124610184D01*
X148817684Y-124734154D01*
X148725643Y-124883375D01*
X148725641Y-124883380D01*
X148670494Y-125049802D01*
X148670493Y-125049809D01*
X148660000Y-125152513D01*
X148660000Y-125215000D01*
X151059999Y-125215000D01*
X151059999Y-125152528D01*
X151059998Y-125152513D01*
X151049505Y-125049802D01*
X150994358Y-124883380D01*
X150994356Y-124883375D01*
X150902315Y-124734154D01*
X150778345Y-124610184D01*
X150629124Y-124518143D01*
X150629121Y-124518142D01*
X150584026Y-124503199D01*
X150526582Y-124463426D01*
X150499759Y-124398910D01*
X150512074Y-124330134D01*
X150549394Y-124285725D01*
X150632150Y-124224650D01*
X150712793Y-124115382D01*
X150735219Y-124051290D01*
X150757646Y-123987201D01*
X150757646Y-123987199D01*
X150760500Y-123956769D01*
X150760500Y-123323230D01*
X150757646Y-123292800D01*
X150757646Y-123292798D01*
X150712793Y-123164619D01*
X150712792Y-123164617D01*
X150667206Y-123102850D01*
X150632150Y-123055350D01*
X150522882Y-122974707D01*
X150522880Y-122974706D01*
X150394700Y-122929853D01*
X150364270Y-122927000D01*
X150364266Y-122927000D01*
X150284500Y-122927000D01*
X150217461Y-122907315D01*
X150171706Y-122854511D01*
X150160500Y-122803000D01*
X150160500Y-121234108D01*
X157599500Y-121234108D01*
X157599500Y-121365892D01*
X157616554Y-121429539D01*
X157633608Y-121493187D01*
X157641766Y-121507316D01*
X157699500Y-121607314D01*
X157792686Y-121700500D01*
X157906814Y-121766392D01*
X158034108Y-121800500D01*
X158034110Y-121800500D01*
X158165890Y-121800500D01*
X158165892Y-121800500D01*
X158293186Y-121766392D01*
X158407314Y-121700500D01*
X158500500Y-121607314D01*
X158566392Y-121493186D01*
X158600500Y-121365892D01*
X158600500Y-121275832D01*
X158620185Y-121208793D01*
X158636819Y-121188151D01*
X159208152Y-120616818D01*
X159269475Y-120583333D01*
X159295833Y-120580499D01*
X159595500Y-120580499D01*
X159662539Y-120600184D01*
X159708294Y-120652988D01*
X159719500Y-120704499D01*
X159719500Y-122838000D01*
X159699815Y-122905039D01*
X159647011Y-122950794D01*
X159595500Y-122962000D01*
X159515730Y-122962000D01*
X159485300Y-122964853D01*
X159485298Y-122964853D01*
X159357119Y-123009706D01*
X159357117Y-123009707D01*
X159247850Y-123090350D01*
X159167207Y-123199617D01*
X159167206Y-123199619D01*
X159122353Y-123327798D01*
X159122353Y-123327800D01*
X159119500Y-123358230D01*
X159119500Y-123991769D01*
X159122353Y-124022199D01*
X159122353Y-124022201D01*
X159167206Y-124150380D01*
X159167207Y-124150382D01*
X159222017Y-124224648D01*
X159247851Y-124259651D01*
X159330601Y-124320723D01*
X159372852Y-124376370D01*
X159378311Y-124446026D01*
X159345244Y-124507576D01*
X159295974Y-124538198D01*
X159250883Y-124553140D01*
X159250875Y-124553143D01*
X159101654Y-124645184D01*
X158977684Y-124769154D01*
X158885643Y-124918375D01*
X158885641Y-124918380D01*
X158830494Y-125084802D01*
X158830493Y-125084809D01*
X158820000Y-125187513D01*
X158820000Y-125250000D01*
X161219999Y-125250000D01*
X161219999Y-125187528D01*
X161219998Y-125187513D01*
X161209505Y-125084802D01*
X161154358Y-124918380D01*
X161154356Y-124918375D01*
X161062315Y-124769154D01*
X160938345Y-124645184D01*
X160789124Y-124553143D01*
X160789121Y-124553142D01*
X160744026Y-124538199D01*
X160686582Y-124498426D01*
X160659759Y-124433910D01*
X160672074Y-124365134D01*
X160709394Y-124320725D01*
X160792150Y-124259650D01*
X160872793Y-124150382D01*
X160895219Y-124086290D01*
X160917646Y-124022201D01*
X160917646Y-124022199D01*
X160920500Y-123991769D01*
X160920500Y-123358230D01*
X160917646Y-123327800D01*
X160917646Y-123327798D01*
X160877167Y-123212118D01*
X160872793Y-123199618D01*
X160792150Y-123090350D01*
X160682882Y-123009707D01*
X160682880Y-123009706D01*
X160554700Y-122964853D01*
X160524270Y-122962000D01*
X160524266Y-122962000D01*
X160444500Y-122962000D01*
X160377461Y-122942315D01*
X160331706Y-122889511D01*
X160320500Y-122838000D01*
X160320500Y-121034108D01*
X167999500Y-121034108D01*
X167999500Y-121165891D01*
X168033608Y-121293187D01*
X168066554Y-121350250D01*
X168099500Y-121407314D01*
X168192686Y-121500500D01*
X168306814Y-121566392D01*
X168434108Y-121600500D01*
X168434110Y-121600500D01*
X168565890Y-121600500D01*
X168565892Y-121600500D01*
X168693186Y-121566392D01*
X168807314Y-121500500D01*
X168900500Y-121407314D01*
X168966392Y-121293186D01*
X169000500Y-121165892D01*
X169000500Y-121035832D01*
X169020185Y-120968793D01*
X169036819Y-120948151D01*
X169368152Y-120616818D01*
X169429475Y-120583333D01*
X169455833Y-120580499D01*
X169755500Y-120580499D01*
X169822539Y-120600184D01*
X169868294Y-120652988D01*
X169879500Y-120704499D01*
X169879500Y-122850500D01*
X169859815Y-122917539D01*
X169807011Y-122963294D01*
X169755500Y-122974500D01*
X169675730Y-122974500D01*
X169645300Y-122977353D01*
X169645298Y-122977353D01*
X169517119Y-123022206D01*
X169517117Y-123022207D01*
X169407850Y-123102850D01*
X169327207Y-123212117D01*
X169327206Y-123212119D01*
X169282353Y-123340298D01*
X169282353Y-123340300D01*
X169279500Y-123370730D01*
X169279500Y-124004269D01*
X169282353Y-124034699D01*
X169282353Y-124034701D01*
X169322832Y-124150380D01*
X169327207Y-124162882D01*
X169398625Y-124259651D01*
X169407851Y-124272151D01*
X169490601Y-124333223D01*
X169532852Y-124388870D01*
X169538311Y-124458526D01*
X169505244Y-124520076D01*
X169455974Y-124550698D01*
X169410883Y-124565640D01*
X169410875Y-124565643D01*
X169261654Y-124657684D01*
X169137684Y-124781654D01*
X169045643Y-124930875D01*
X169045641Y-124930880D01*
X168990494Y-125097302D01*
X168990493Y-125097309D01*
X168980000Y-125200013D01*
X168980000Y-125262500D01*
X171379999Y-125262500D01*
X171379999Y-125200028D01*
X171379998Y-125200013D01*
X171369505Y-125097302D01*
X171314358Y-124930880D01*
X171314356Y-124930875D01*
X171222315Y-124781654D01*
X171098345Y-124657684D01*
X170949124Y-124565643D01*
X170949121Y-124565642D01*
X170904026Y-124550699D01*
X170846582Y-124510926D01*
X170819759Y-124446410D01*
X170832074Y-124377634D01*
X170869394Y-124333225D01*
X170952150Y-124272150D01*
X171032793Y-124162882D01*
X171055219Y-124098790D01*
X171077646Y-124034701D01*
X171077646Y-124034699D01*
X171080500Y-124004269D01*
X171080500Y-123370730D01*
X171077646Y-123340300D01*
X171077646Y-123340298D01*
X171032793Y-123212119D01*
X171032792Y-123212117D01*
X171023568Y-123199619D01*
X170952150Y-123102850D01*
X170842882Y-123022207D01*
X170842880Y-123022206D01*
X170714700Y-122977353D01*
X170684270Y-122974500D01*
X170684266Y-122974500D01*
X170604500Y-122974500D01*
X170537461Y-122954815D01*
X170491706Y-122902011D01*
X170480500Y-122850500D01*
X170480500Y-120704499D01*
X170500185Y-120637460D01*
X170552989Y-120591705D01*
X170604500Y-120580499D01*
X171427871Y-120580499D01*
X171427872Y-120580499D01*
X171487483Y-120574091D01*
X171622331Y-120523796D01*
X171737546Y-120437546D01*
X171823796Y-120322331D01*
X171874091Y-120187483D01*
X171880500Y-120127873D01*
X171880499Y-118632128D01*
X171874091Y-118572517D01*
X171823796Y-118437669D01*
X171823795Y-118437668D01*
X171823793Y-118437664D01*
X171737547Y-118322455D01*
X171737544Y-118322452D01*
X171622335Y-118236206D01*
X171622328Y-118236202D01*
X171487482Y-118185908D01*
X171487483Y-118185908D01*
X171427883Y-118179501D01*
X171427881Y-118179500D01*
X171427873Y-118179500D01*
X171427864Y-118179500D01*
X168932129Y-118179500D01*
X168932123Y-118179501D01*
X168872516Y-118185908D01*
X168737671Y-118236202D01*
X168737664Y-118236206D01*
X168622455Y-118322452D01*
X168622452Y-118322455D01*
X168536206Y-118437664D01*
X168536202Y-118437671D01*
X168485908Y-118572517D01*
X168479501Y-118632116D01*
X168479501Y-118632123D01*
X168479500Y-118632135D01*
X168479500Y-120127870D01*
X168479501Y-120127876D01*
X168485908Y-120187483D01*
X168536202Y-120322328D01*
X168536204Y-120322331D01*
X168590183Y-120394438D01*
X168598255Y-120416081D01*
X168614599Y-120459894D01*
X168614598Y-120459897D01*
X168614600Y-120459903D01*
X168608527Y-120487819D01*
X168599753Y-120528168D01*
X168599748Y-120528174D01*
X168599748Y-120528176D01*
X168578604Y-120556424D01*
X168571854Y-120563175D01*
X168510533Y-120596664D01*
X168484166Y-120599500D01*
X168434108Y-120599500D01*
X168306812Y-120633608D01*
X168192686Y-120699500D01*
X168192683Y-120699502D01*
X168099502Y-120792683D01*
X168099500Y-120792686D01*
X168033608Y-120906812D01*
X167999500Y-121034108D01*
X160320500Y-121034108D01*
X160320500Y-120704499D01*
X160340185Y-120637460D01*
X160392989Y-120591705D01*
X160444500Y-120580499D01*
X161267871Y-120580499D01*
X161267872Y-120580499D01*
X161327483Y-120574091D01*
X161462331Y-120523796D01*
X161577546Y-120437546D01*
X161663796Y-120322331D01*
X161714091Y-120187483D01*
X161720500Y-120127873D01*
X161720499Y-118632128D01*
X161714091Y-118572517D01*
X161663796Y-118437669D01*
X161663795Y-118437668D01*
X161663793Y-118437664D01*
X161577547Y-118322455D01*
X161577544Y-118322452D01*
X161462335Y-118236206D01*
X161462328Y-118236202D01*
X161327482Y-118185908D01*
X161327483Y-118185908D01*
X161267883Y-118179501D01*
X161267881Y-118179500D01*
X161267873Y-118179500D01*
X161267864Y-118179500D01*
X158772129Y-118179500D01*
X158772123Y-118179501D01*
X158712516Y-118185908D01*
X158577671Y-118236202D01*
X158577664Y-118236206D01*
X158462455Y-118322452D01*
X158462452Y-118322455D01*
X158376206Y-118437664D01*
X158376202Y-118437671D01*
X158325908Y-118572517D01*
X158319501Y-118632116D01*
X158319501Y-118632123D01*
X158319500Y-118632135D01*
X158319500Y-120127870D01*
X158319501Y-120127876D01*
X158325908Y-120187483D01*
X158376202Y-120322328D01*
X158376204Y-120322331D01*
X158430183Y-120394438D01*
X158454600Y-120459903D01*
X158439748Y-120528176D01*
X158418597Y-120556430D01*
X158211847Y-120763181D01*
X158150524Y-120796666D01*
X158124166Y-120799500D01*
X158034108Y-120799500D01*
X157906812Y-120833608D01*
X157792686Y-120899500D01*
X157792683Y-120899502D01*
X157699502Y-120992683D01*
X157699500Y-120992686D01*
X157633608Y-121106812D01*
X157617778Y-121165892D01*
X157599500Y-121234108D01*
X150160500Y-121234108D01*
X150160500Y-120704499D01*
X150180185Y-120637460D01*
X150232989Y-120591705D01*
X150284500Y-120580499D01*
X151107871Y-120580499D01*
X151107872Y-120580499D01*
X151167483Y-120574091D01*
X151302331Y-120523796D01*
X151417546Y-120437546D01*
X151503796Y-120322331D01*
X151554091Y-120187483D01*
X151560500Y-120127873D01*
X151560499Y-118632128D01*
X151554091Y-118572517D01*
X151503796Y-118437669D01*
X151503795Y-118437668D01*
X151503793Y-118437664D01*
X151417547Y-118322455D01*
X151417544Y-118322452D01*
X151302335Y-118236206D01*
X151302328Y-118236202D01*
X151167482Y-118185908D01*
X151167483Y-118185908D01*
X151107883Y-118179501D01*
X151107881Y-118179500D01*
X151107873Y-118179500D01*
X151107864Y-118179500D01*
X148612129Y-118179500D01*
X148612123Y-118179501D01*
X148552516Y-118185908D01*
X148417671Y-118236202D01*
X148417664Y-118236206D01*
X148302455Y-118322452D01*
X148302452Y-118322455D01*
X148216206Y-118437664D01*
X148216202Y-118437671D01*
X148165908Y-118572517D01*
X148159501Y-118632116D01*
X148159501Y-118632123D01*
X148159500Y-118632135D01*
X148159500Y-120127870D01*
X148159501Y-120127876D01*
X148165908Y-120187483D01*
X148216202Y-120322328D01*
X148216204Y-120322331D01*
X148270183Y-120394438D01*
X148288600Y-120443817D01*
X148294600Y-120459903D01*
X148279748Y-120528176D01*
X148258602Y-120556424D01*
X148258598Y-120556430D01*
X148151845Y-120663182D01*
X148090525Y-120696666D01*
X148064166Y-120699500D01*
X147934108Y-120699500D01*
X147806812Y-120733608D01*
X147692686Y-120799500D01*
X147692683Y-120799502D01*
X147599502Y-120892683D01*
X147599500Y-120892686D01*
X147533608Y-121006812D01*
X147506814Y-121106812D01*
X147499500Y-121134108D01*
X130160500Y-121134108D01*
X130160500Y-118632135D01*
X143079500Y-118632135D01*
X143079500Y-120127870D01*
X143079501Y-120127876D01*
X143085908Y-120187483D01*
X143136202Y-120322328D01*
X143136206Y-120322335D01*
X143222452Y-120437544D01*
X143222455Y-120437547D01*
X143337664Y-120523793D01*
X143337671Y-120523797D01*
X143472517Y-120574091D01*
X143472516Y-120574091D01*
X143479444Y-120574835D01*
X143532127Y-120580500D01*
X146027872Y-120580499D01*
X146087483Y-120574091D01*
X146222331Y-120523796D01*
X146337546Y-120437546D01*
X146423796Y-120322331D01*
X146474091Y-120187483D01*
X146480500Y-120127873D01*
X146480499Y-118632128D01*
X146474091Y-118572517D01*
X146423796Y-118437669D01*
X146423795Y-118437668D01*
X146423793Y-118437664D01*
X146337547Y-118322455D01*
X146337544Y-118322452D01*
X146222335Y-118236206D01*
X146222328Y-118236202D01*
X146087482Y-118185908D01*
X146087483Y-118185908D01*
X146027883Y-118179501D01*
X146027881Y-118179500D01*
X146027873Y-118179500D01*
X146027865Y-118179500D01*
X145604500Y-118179500D01*
X145537461Y-118159815D01*
X145491706Y-118107011D01*
X145480500Y-118055500D01*
X145480500Y-117324500D01*
X145500185Y-117257461D01*
X145552989Y-117211706D01*
X145604500Y-117200500D01*
X154115500Y-117200500D01*
X154182539Y-117220185D01*
X154228294Y-117272989D01*
X154239500Y-117324500D01*
X154239500Y-118055500D01*
X154219815Y-118122539D01*
X154167011Y-118168294D01*
X154115500Y-118179500D01*
X153692129Y-118179500D01*
X153692123Y-118179501D01*
X153632516Y-118185908D01*
X153497671Y-118236202D01*
X153497664Y-118236206D01*
X153382455Y-118322452D01*
X153382452Y-118322455D01*
X153296206Y-118437664D01*
X153296202Y-118437671D01*
X153245908Y-118572517D01*
X153239501Y-118632116D01*
X153239501Y-118632123D01*
X153239500Y-118632135D01*
X153239500Y-120127870D01*
X153239501Y-120127876D01*
X153245908Y-120187483D01*
X153296202Y-120322328D01*
X153296206Y-120322335D01*
X153382452Y-120437544D01*
X153382455Y-120437547D01*
X153497664Y-120523793D01*
X153497671Y-120523797D01*
X153632517Y-120574091D01*
X153632516Y-120574091D01*
X153639444Y-120574835D01*
X153692127Y-120580500D01*
X156187872Y-120580499D01*
X156247483Y-120574091D01*
X156382331Y-120523796D01*
X156497546Y-120437546D01*
X156583796Y-120322331D01*
X156634091Y-120187483D01*
X156640500Y-120127873D01*
X156640499Y-118632128D01*
X156634091Y-118572517D01*
X156583796Y-118437669D01*
X156583795Y-118437668D01*
X156583793Y-118437664D01*
X156497547Y-118322455D01*
X156497544Y-118322452D01*
X156382335Y-118236206D01*
X156382328Y-118236202D01*
X156247482Y-118185908D01*
X156247483Y-118185908D01*
X156187883Y-118179501D01*
X156187881Y-118179500D01*
X156187873Y-118179500D01*
X156187865Y-118179500D01*
X155764500Y-118179500D01*
X155697461Y-118159815D01*
X155651706Y-118107011D01*
X155640500Y-118055500D01*
X155640500Y-117324500D01*
X155660185Y-117257461D01*
X155712989Y-117211706D01*
X155764500Y-117200500D01*
X164275500Y-117200500D01*
X164342539Y-117220185D01*
X164388294Y-117272989D01*
X164399500Y-117324500D01*
X164399500Y-118055500D01*
X164379815Y-118122539D01*
X164327011Y-118168294D01*
X164275500Y-118179500D01*
X163852129Y-118179500D01*
X163852123Y-118179501D01*
X163792516Y-118185908D01*
X163657671Y-118236202D01*
X163657664Y-118236206D01*
X163542455Y-118322452D01*
X163542452Y-118322455D01*
X163456206Y-118437664D01*
X163456202Y-118437671D01*
X163405908Y-118572517D01*
X163399501Y-118632116D01*
X163399501Y-118632123D01*
X163399500Y-118632135D01*
X163399500Y-120127870D01*
X163399501Y-120127876D01*
X163405908Y-120187483D01*
X163456202Y-120322328D01*
X163456206Y-120322335D01*
X163542452Y-120437544D01*
X163542455Y-120437547D01*
X163657664Y-120523793D01*
X163657671Y-120523797D01*
X163792517Y-120574091D01*
X163792516Y-120574091D01*
X163799444Y-120574835D01*
X163852127Y-120580500D01*
X166347872Y-120580499D01*
X166407483Y-120574091D01*
X166542331Y-120523796D01*
X166657546Y-120437546D01*
X166743796Y-120322331D01*
X166794091Y-120187483D01*
X166800500Y-120127873D01*
X166800499Y-118632128D01*
X166794091Y-118572517D01*
X166743796Y-118437669D01*
X166743795Y-118437668D01*
X166743793Y-118437664D01*
X166657547Y-118322455D01*
X166657544Y-118322452D01*
X166542335Y-118236206D01*
X166542328Y-118236202D01*
X166407482Y-118185908D01*
X166407483Y-118185908D01*
X166347883Y-118179501D01*
X166347881Y-118179500D01*
X166347873Y-118179500D01*
X166347865Y-118179500D01*
X165924500Y-118179500D01*
X165857461Y-118159815D01*
X165811706Y-118107011D01*
X165800500Y-118055500D01*
X165800500Y-117324500D01*
X165820185Y-117257461D01*
X165872989Y-117211706D01*
X165924500Y-117200500D01*
X177268996Y-117200500D01*
X177360040Y-117182389D01*
X177404328Y-117173580D01*
X177468069Y-117147177D01*
X177531807Y-117120777D01*
X177531808Y-117120776D01*
X177531811Y-117120775D01*
X177646543Y-117044114D01*
X179144114Y-115546543D01*
X180444114Y-114246543D01*
X180520775Y-114131811D01*
X180532185Y-114104266D01*
X180573578Y-114004332D01*
X180573580Y-114004328D01*
X180587430Y-113934699D01*
X180600500Y-113868996D01*
X180600500Y-100831004D01*
X180573581Y-100695677D01*
X180573580Y-100695676D01*
X180573580Y-100695672D01*
X180573578Y-100695667D01*
X180520777Y-100568192D01*
X180444112Y-100453454D01*
X180444111Y-100453453D01*
X171646543Y-91655886D01*
X168946546Y-88955888D01*
X168946545Y-88955887D01*
X168831807Y-88879222D01*
X168704332Y-88826421D01*
X168704322Y-88826418D01*
X168568996Y-88799500D01*
X168568994Y-88799500D01*
X168568993Y-88799500D01*
X167724500Y-88799500D01*
X167657461Y-88779815D01*
X167611706Y-88727011D01*
X167600500Y-88675500D01*
X167600500Y-77241518D01*
X167620185Y-77174479D01*
X167636819Y-77153837D01*
X168953837Y-75836819D01*
X169015160Y-75803334D01*
X169041518Y-75800500D01*
X177268996Y-75800500D01*
X177389432Y-75776543D01*
X177404328Y-75773580D01*
X177521172Y-75725182D01*
X177531807Y-75720777D01*
X177531808Y-75720776D01*
X177531811Y-75720775D01*
X177646543Y-75644114D01*
X180244114Y-73046543D01*
X180320775Y-72931811D01*
X180373580Y-72804328D01*
X180400500Y-72668994D01*
X180400500Y-72531006D01*
X180400500Y-64331007D01*
X180400500Y-64331004D01*
X180373581Y-64195677D01*
X180373580Y-64195676D01*
X180373580Y-64195672D01*
X180373578Y-64195667D01*
X180320777Y-64068192D01*
X180244112Y-63953454D01*
X173456819Y-57166161D01*
X173423334Y-57104838D01*
X173420500Y-57078480D01*
X173420500Y-56645783D01*
X173440185Y-56578744D01*
X173456820Y-56558101D01*
X173497136Y-56517785D01*
X173497139Y-56517782D01*
X173606632Y-56353914D01*
X173682051Y-56171835D01*
X173718034Y-55990938D01*
X173720500Y-55978543D01*
X174259499Y-55978543D01*
X174297947Y-56171829D01*
X174297950Y-56171839D01*
X174373364Y-56353907D01*
X174373371Y-56353920D01*
X174482860Y-56517781D01*
X174482863Y-56517785D01*
X174622214Y-56657136D01*
X174622218Y-56657139D01*
X174786079Y-56766628D01*
X174786092Y-56766635D01*
X174968160Y-56842049D01*
X174968165Y-56842051D01*
X174968169Y-56842051D01*
X174968170Y-56842052D01*
X175161456Y-56880500D01*
X175161459Y-56880500D01*
X175358543Y-56880500D01*
X175488582Y-56854632D01*
X175551835Y-56842051D01*
X175733914Y-56766632D01*
X175897782Y-56657139D01*
X176037139Y-56517782D01*
X176146632Y-56353914D01*
X176222051Y-56171835D01*
X176258034Y-55990938D01*
X176260500Y-55978543D01*
X176260500Y-55781456D01*
X176222052Y-55588170D01*
X176222051Y-55588169D01*
X176222051Y-55588165D01*
X176177207Y-55479901D01*
X176146635Y-55406092D01*
X176146628Y-55406079D01*
X176037139Y-55242218D01*
X176037136Y-55242214D01*
X175897785Y-55102863D01*
X175897781Y-55102860D01*
X175733920Y-54993371D01*
X175733907Y-54993364D01*
X175551839Y-54917950D01*
X175551829Y-54917947D01*
X175358543Y-54879500D01*
X175358541Y-54879500D01*
X175161459Y-54879500D01*
X175161457Y-54879500D01*
X174968170Y-54917947D01*
X174968160Y-54917950D01*
X174786092Y-54993364D01*
X174786079Y-54993371D01*
X174622218Y-55102860D01*
X174622214Y-55102863D01*
X174482863Y-55242214D01*
X174482860Y-55242218D01*
X174373371Y-55406079D01*
X174373364Y-55406092D01*
X174297950Y-55588160D01*
X174297947Y-55588170D01*
X174259500Y-55781456D01*
X174259500Y-55781459D01*
X174259500Y-55978541D01*
X174259500Y-55978543D01*
X174259499Y-55978543D01*
X173720500Y-55978543D01*
X173720500Y-55781456D01*
X173682052Y-55588170D01*
X173682051Y-55588169D01*
X173682051Y-55588165D01*
X173637207Y-55479901D01*
X173606635Y-55406092D01*
X173606628Y-55406079D01*
X173497139Y-55242218D01*
X173497136Y-55242214D01*
X173357785Y-55102863D01*
X173357781Y-55102860D01*
X173193920Y-54993371D01*
X173193907Y-54993364D01*
X173011839Y-54917950D01*
X173011829Y-54917947D01*
X172818543Y-54879500D01*
X172818541Y-54879500D01*
X172621459Y-54879500D01*
X172621457Y-54879500D01*
X172428170Y-54917947D01*
X172428160Y-54917950D01*
X172246092Y-54993364D01*
X172246079Y-54993371D01*
X172082218Y-55102860D01*
X172082214Y-55102863D01*
X171942863Y-55242214D01*
X171942860Y-55242218D01*
X171833371Y-55406079D01*
X171833364Y-55406092D01*
X171757950Y-55588160D01*
X171757947Y-55588170D01*
X171719500Y-55781456D01*
X171719500Y-55781459D01*
X171719500Y-55978541D01*
X171719500Y-55978543D01*
X171719499Y-55978543D01*
X171757947Y-56171829D01*
X171757950Y-56171839D01*
X171833364Y-56353907D01*
X171833371Y-56353920D01*
X171942860Y-56517781D01*
X171942863Y-56517785D01*
X171983180Y-56558101D01*
X172016666Y-56619424D01*
X172019500Y-56645783D01*
X172019500Y-57351006D01*
X172019500Y-57488994D01*
X172019500Y-57488996D01*
X172019499Y-57488996D01*
X172046418Y-57624322D01*
X172046421Y-57624332D01*
X172099222Y-57751807D01*
X172175887Y-57866545D01*
X172175888Y-57866546D01*
X178963181Y-64653838D01*
X178996666Y-64715161D01*
X178999500Y-64741519D01*
X178999500Y-72258481D01*
X178979815Y-72325520D01*
X178963181Y-72346162D01*
X176946162Y-74363181D01*
X176884839Y-74396666D01*
X176858481Y-74399500D01*
X149331004Y-74399500D01*
X149195677Y-74426418D01*
X149195667Y-74426421D01*
X149068192Y-74479222D01*
X148953454Y-74555887D01*
X147455887Y-76053454D01*
X147379222Y-76168192D01*
X147326421Y-76295667D01*
X147326418Y-76295677D01*
X147299500Y-76431004D01*
X147299500Y-92474872D01*
X147279815Y-92541911D01*
X147249134Y-92574642D01*
X147227850Y-92590350D01*
X147147207Y-92699617D01*
X147147206Y-92699619D01*
X147102353Y-92827798D01*
X147102353Y-92827800D01*
X147099500Y-92858230D01*
X147099500Y-93491769D01*
X147102353Y-93522199D01*
X147102353Y-93522201D01*
X147147206Y-93650380D01*
X147147207Y-93650382D01*
X147227850Y-93759650D01*
X147337118Y-93840293D01*
X147379845Y-93855244D01*
X147465299Y-93885146D01*
X147495730Y-93888000D01*
X147495734Y-93888000D01*
X148504270Y-93888000D01*
X148534699Y-93885146D01*
X148534701Y-93885146D01*
X148598790Y-93862719D01*
X148662882Y-93840293D01*
X148772150Y-93759650D01*
X148852793Y-93650382D01*
X148878262Y-93577596D01*
X148897646Y-93522201D01*
X148897646Y-93522199D01*
X148900500Y-93491769D01*
X148900500Y-92858230D01*
X148897646Y-92827800D01*
X148897646Y-92827798D01*
X148852793Y-92699619D01*
X148852792Y-92699617D01*
X148772150Y-92590350D01*
X148750865Y-92574641D01*
X148747843Y-92570661D01*
X148743297Y-92568585D01*
X148726926Y-92543111D01*
X148708615Y-92518994D01*
X148707487Y-92512863D01*
X148705523Y-92509807D01*
X148700500Y-92474872D01*
X148700500Y-86632155D01*
X150340000Y-86632155D01*
X150340000Y-88030000D01*
X151090000Y-88030000D01*
X151090000Y-88530000D01*
X150340000Y-88530000D01*
X150340000Y-89927844D01*
X150346401Y-89987372D01*
X150346403Y-89987379D01*
X150396645Y-90122086D01*
X150396649Y-90122093D01*
X150482809Y-90237187D01*
X150482812Y-90237190D01*
X150597906Y-90323350D01*
X150597913Y-90323354D01*
X150732620Y-90373596D01*
X150732627Y-90373598D01*
X150792155Y-90379999D01*
X150792172Y-90380000D01*
X151590000Y-90380000D01*
X151590000Y-89638240D01*
X151621233Y-89651178D01*
X151766131Y-89680000D01*
X151913869Y-89680000D01*
X152058767Y-89651178D01*
X152090000Y-89638240D01*
X152090000Y-90380000D01*
X152887828Y-90380000D01*
X152887844Y-90379999D01*
X152947372Y-90373598D01*
X152947379Y-90373596D01*
X153082086Y-90323354D01*
X153082093Y-90323350D01*
X153197187Y-90237190D01*
X153197190Y-90237187D01*
X153283350Y-90122093D01*
X153283354Y-90122086D01*
X153333596Y-89987379D01*
X153333598Y-89987372D01*
X153339999Y-89927844D01*
X153340000Y-89927827D01*
X153340000Y-88530000D01*
X152590000Y-88530000D01*
X152590000Y-88177648D01*
X156139500Y-88177648D01*
X156139500Y-88382351D01*
X156171522Y-88584534D01*
X156234781Y-88779223D01*
X156298691Y-88904653D01*
X156324797Y-88955888D01*
X156327715Y-88961613D01*
X156448028Y-89127213D01*
X156592786Y-89271971D01*
X156747749Y-89384556D01*
X156758390Y-89392287D01*
X156874607Y-89451503D01*
X156940776Y-89485218D01*
X156940778Y-89485218D01*
X156940781Y-89485220D01*
X157024934Y-89512563D01*
X157135465Y-89548477D01*
X157236557Y-89564488D01*
X157337648Y-89580500D01*
X157337649Y-89580500D01*
X157542351Y-89580500D01*
X157542352Y-89580500D01*
X157744534Y-89548477D01*
X157939219Y-89485220D01*
X158121610Y-89392287D01*
X158214590Y-89324732D01*
X158287213Y-89271971D01*
X158287215Y-89271968D01*
X158287219Y-89271966D01*
X158431966Y-89127219D01*
X158431968Y-89127215D01*
X158431971Y-89127213D01*
X158521584Y-89003869D01*
X158552287Y-88961610D01*
X158645220Y-88779219D01*
X158708477Y-88584534D01*
X158728322Y-88459240D01*
X158740500Y-88382351D01*
X158740500Y-88177648D01*
X158708477Y-87975465D01*
X158645218Y-87780776D01*
X158611503Y-87714607D01*
X158552287Y-87598390D01*
X158544556Y-87587749D01*
X158431971Y-87432786D01*
X158287213Y-87288028D01*
X158121613Y-87167715D01*
X158121612Y-87167714D01*
X158121610Y-87167713D01*
X158064653Y-87138691D01*
X157939223Y-87074781D01*
X157744534Y-87011522D01*
X157569995Y-86983878D01*
X157542352Y-86979500D01*
X157337648Y-86979500D01*
X157313329Y-86983351D01*
X157135465Y-87011522D01*
X156940776Y-87074781D01*
X156758386Y-87167715D01*
X156592786Y-87288028D01*
X156448028Y-87432786D01*
X156327715Y-87598386D01*
X156234781Y-87780776D01*
X156171522Y-87975465D01*
X156139500Y-88177648D01*
X152590000Y-88177648D01*
X152590000Y-88030000D01*
X153340000Y-88030000D01*
X153340000Y-86632172D01*
X153339999Y-86632155D01*
X161540000Y-86632155D01*
X161540000Y-88030000D01*
X162290000Y-88030000D01*
X162290000Y-88530000D01*
X161540000Y-88530000D01*
X161540000Y-89927844D01*
X161546401Y-89987372D01*
X161546403Y-89987379D01*
X161596645Y-90122086D01*
X161596649Y-90122093D01*
X161682809Y-90237187D01*
X161682812Y-90237190D01*
X161797906Y-90323350D01*
X161797913Y-90323354D01*
X161932620Y-90373596D01*
X161932627Y-90373598D01*
X161992155Y-90379999D01*
X161992172Y-90380000D01*
X162790000Y-90380000D01*
X162790000Y-89638240D01*
X162821233Y-89651178D01*
X162966131Y-89680000D01*
X163113869Y-89680000D01*
X163258767Y-89651178D01*
X163290000Y-89638240D01*
X163290000Y-90380000D01*
X164087828Y-90380000D01*
X164087844Y-90379999D01*
X164147372Y-90373598D01*
X164147379Y-90373596D01*
X164282086Y-90323354D01*
X164282093Y-90323350D01*
X164397187Y-90237190D01*
X164397190Y-90237187D01*
X164483350Y-90122093D01*
X164483354Y-90122086D01*
X164533596Y-89987379D01*
X164533598Y-89987372D01*
X164539999Y-89927844D01*
X164540000Y-89927827D01*
X164540000Y-88530000D01*
X163790000Y-88530000D01*
X163790000Y-88030000D01*
X164540000Y-88030000D01*
X164540000Y-86632172D01*
X164539999Y-86632155D01*
X164533598Y-86572627D01*
X164533596Y-86572620D01*
X164483354Y-86437913D01*
X164483350Y-86437906D01*
X164397190Y-86322812D01*
X164397187Y-86322809D01*
X164282093Y-86236649D01*
X164282086Y-86236645D01*
X164147379Y-86186403D01*
X164147372Y-86186401D01*
X164087844Y-86180000D01*
X163290000Y-86180000D01*
X163290000Y-86921759D01*
X163258767Y-86908822D01*
X163113869Y-86880000D01*
X162966131Y-86880000D01*
X162821233Y-86908822D01*
X162790000Y-86921759D01*
X162790000Y-86180000D01*
X161992155Y-86180000D01*
X161932627Y-86186401D01*
X161932620Y-86186403D01*
X161797913Y-86236645D01*
X161797906Y-86236649D01*
X161682812Y-86322809D01*
X161682809Y-86322812D01*
X161596649Y-86437906D01*
X161596645Y-86437913D01*
X161546403Y-86572620D01*
X161546401Y-86572627D01*
X161540000Y-86632155D01*
X153339999Y-86632155D01*
X153333598Y-86572627D01*
X153333596Y-86572620D01*
X153283354Y-86437913D01*
X153283350Y-86437906D01*
X153197190Y-86322812D01*
X153197187Y-86322809D01*
X153082093Y-86236649D01*
X153082086Y-86236645D01*
X152947379Y-86186403D01*
X152947372Y-86186401D01*
X152887844Y-86180000D01*
X152090000Y-86180000D01*
X152090000Y-86921759D01*
X152058767Y-86908822D01*
X151913869Y-86880000D01*
X151766131Y-86880000D01*
X151621233Y-86908822D01*
X151590000Y-86921759D01*
X151590000Y-86180000D01*
X150792155Y-86180000D01*
X150732627Y-86186401D01*
X150732620Y-86186403D01*
X150597913Y-86236645D01*
X150597906Y-86236649D01*
X150482812Y-86322809D01*
X150482809Y-86322812D01*
X150396649Y-86437906D01*
X150396645Y-86437913D01*
X150346403Y-86572620D01*
X150346401Y-86572627D01*
X150340000Y-86632155D01*
X148700500Y-86632155D01*
X148700500Y-81161947D01*
X153440000Y-81161947D01*
X153440000Y-81398052D01*
X153476934Y-81631247D01*
X153549897Y-81855802D01*
X153657087Y-82066174D01*
X153717338Y-82149104D01*
X153717340Y-82149105D01*
X154457037Y-81409408D01*
X154474075Y-81472993D01*
X154539901Y-81587007D01*
X154632993Y-81680099D01*
X154747007Y-81745925D01*
X154810590Y-81762962D01*
X154070893Y-82502658D01*
X154153828Y-82562914D01*
X154364197Y-82670102D01*
X154588752Y-82743065D01*
X154588751Y-82743065D01*
X154821948Y-82780000D01*
X155058052Y-82780000D01*
X155291247Y-82743065D01*
X155515802Y-82670102D01*
X155726163Y-82562918D01*
X155726169Y-82562914D01*
X155809104Y-82502658D01*
X155809105Y-82502658D01*
X155069408Y-81762962D01*
X155132993Y-81745925D01*
X155247007Y-81680099D01*
X155340099Y-81587007D01*
X155405925Y-81472993D01*
X155422962Y-81409408D01*
X156162658Y-82149105D01*
X156162658Y-82149104D01*
X156222914Y-82066169D01*
X156222918Y-82066163D01*
X156330102Y-81855802D01*
X156403065Y-81631247D01*
X156440000Y-81398052D01*
X156440000Y-81161947D01*
X156403065Y-80928752D01*
X156330102Y-80704197D01*
X156222914Y-80493828D01*
X156162658Y-80410894D01*
X156162658Y-80410893D01*
X155422962Y-81150590D01*
X155405925Y-81087007D01*
X155340099Y-80972993D01*
X155247007Y-80879901D01*
X155132993Y-80814075D01*
X155069409Y-80797037D01*
X155809105Y-80057340D01*
X155809104Y-80057338D01*
X155726174Y-79997087D01*
X155515802Y-79889897D01*
X155291247Y-79816934D01*
X155291248Y-79816934D01*
X155058052Y-79780000D01*
X154821948Y-79780000D01*
X154588752Y-79816934D01*
X154364197Y-79889897D01*
X154153830Y-79997084D01*
X154070894Y-80057340D01*
X154810591Y-80797037D01*
X154747007Y-80814075D01*
X154632993Y-80879901D01*
X154539901Y-80972993D01*
X154474075Y-81087007D01*
X154457037Y-81150591D01*
X153717340Y-80410894D01*
X153657084Y-80493830D01*
X153549897Y-80704197D01*
X153476934Y-80928752D01*
X153440000Y-81161947D01*
X148700500Y-81161947D01*
X148700500Y-76841519D01*
X148702676Y-76834108D01*
X150949500Y-76834108D01*
X150949500Y-76965892D01*
X150951944Y-76975013D01*
X150983608Y-77093187D01*
X151016554Y-77150250D01*
X151049500Y-77207314D01*
X151142686Y-77300500D01*
X151256814Y-77366392D01*
X151384108Y-77400500D01*
X151384110Y-77400500D01*
X151474167Y-77400500D01*
X151541206Y-77420185D01*
X151561848Y-77436819D01*
X153013181Y-78888152D01*
X153046666Y-78949475D01*
X153049500Y-78975833D01*
X153049500Y-79065891D01*
X153083608Y-79193187D01*
X153107467Y-79234511D01*
X153149500Y-79307314D01*
X153242686Y-79400500D01*
X153356814Y-79466392D01*
X153484108Y-79500500D01*
X153484110Y-79500500D01*
X153615890Y-79500500D01*
X153615892Y-79500500D01*
X153743186Y-79466392D01*
X153857314Y-79400500D01*
X153950500Y-79307314D01*
X154016392Y-79193186D01*
X154050500Y-79065892D01*
X154050500Y-78934108D01*
X154016392Y-78806814D01*
X153950500Y-78692686D01*
X153857314Y-78599500D01*
X153770712Y-78549500D01*
X153743187Y-78533608D01*
X153677419Y-78515986D01*
X153615892Y-78499500D01*
X153525833Y-78499500D01*
X153458794Y-78479815D01*
X153438152Y-78463181D01*
X151986819Y-77011848D01*
X151953334Y-76950525D01*
X151950500Y-76924167D01*
X151950500Y-76834110D01*
X151950500Y-76834108D01*
X151916392Y-76706814D01*
X151850500Y-76592686D01*
X151757314Y-76499500D01*
X151700250Y-76466554D01*
X151643187Y-76433608D01*
X151579539Y-76416554D01*
X151515892Y-76399500D01*
X151384108Y-76399500D01*
X151256812Y-76433608D01*
X151142686Y-76499500D01*
X151142683Y-76499502D01*
X151049502Y-76592683D01*
X151049500Y-76592686D01*
X150983608Y-76706812D01*
X150955403Y-76812078D01*
X150949500Y-76834108D01*
X148702676Y-76834108D01*
X148709144Y-76812078D01*
X148715668Y-76782092D01*
X148719422Y-76777076D01*
X148720185Y-76774480D01*
X148736819Y-76753838D01*
X149653838Y-75836819D01*
X149715161Y-75803334D01*
X149741519Y-75800500D01*
X154231007Y-75800500D01*
X155850500Y-75800500D01*
X155917539Y-75820185D01*
X155963294Y-75872989D01*
X155974500Y-75924500D01*
X155974500Y-76498030D01*
X155954815Y-76565069D01*
X155902011Y-76610824D01*
X155891456Y-76615071D01*
X155799617Y-76647207D01*
X155690350Y-76727850D01*
X155609707Y-76837117D01*
X155609706Y-76837119D01*
X155564853Y-76965298D01*
X155564853Y-76965300D01*
X155562000Y-76995730D01*
X155562000Y-78004269D01*
X155564853Y-78034699D01*
X155564853Y-78034701D01*
X155597395Y-78127697D01*
X155609707Y-78162882D01*
X155690350Y-78272150D01*
X155799618Y-78352793D01*
X155842345Y-78367744D01*
X155927799Y-78397646D01*
X155958230Y-78400500D01*
X155958234Y-78400500D01*
X156591770Y-78400500D01*
X156622199Y-78397646D01*
X156622201Y-78397646D01*
X156686290Y-78375219D01*
X156750382Y-78352793D01*
X156859650Y-78272150D01*
X156940293Y-78162882D01*
X156962719Y-78098790D01*
X156985146Y-78034701D01*
X156985146Y-78034699D01*
X156988000Y-78004269D01*
X156988000Y-76995730D01*
X157387000Y-76995730D01*
X157387000Y-78004269D01*
X157389853Y-78034699D01*
X157389853Y-78034701D01*
X157422395Y-78127697D01*
X157434707Y-78162882D01*
X157515350Y-78272150D01*
X157624618Y-78352793D01*
X157716457Y-78384929D01*
X157773231Y-78425649D01*
X157798978Y-78490602D01*
X157799500Y-78501969D01*
X157799500Y-79479562D01*
X157806350Y-79505126D01*
X157819978Y-79555987D01*
X157841992Y-79594117D01*
X157859538Y-79624508D01*
X157859542Y-79624513D01*
X158840283Y-80605254D01*
X158873768Y-80666577D01*
X158868784Y-80736269D01*
X158863087Y-80749229D01*
X158827455Y-80819160D01*
X158769059Y-80998881D01*
X158739500Y-81185513D01*
X158739500Y-81374486D01*
X158769059Y-81561118D01*
X158827454Y-81740836D01*
X158886033Y-81855802D01*
X158913240Y-81909199D01*
X159024310Y-82062073D01*
X159157927Y-82195690D01*
X159310801Y-82306760D01*
X159390347Y-82347290D01*
X159479163Y-82392545D01*
X159479165Y-82392545D01*
X159479168Y-82392547D01*
X159575497Y-82423846D01*
X159658881Y-82450940D01*
X159845514Y-82480500D01*
X159845519Y-82480500D01*
X160034486Y-82480500D01*
X160221118Y-82450940D01*
X160400832Y-82392547D01*
X160569199Y-82306760D01*
X160722073Y-82195690D01*
X160855690Y-82062073D01*
X160966760Y-81909199D01*
X161052547Y-81740832D01*
X161110940Y-81561118D01*
X161140500Y-81374486D01*
X161140500Y-81185513D01*
X161110940Y-80998881D01*
X161052545Y-80819163D01*
X161010161Y-80735980D01*
X160997265Y-80667310D01*
X161023542Y-80602570D01*
X161032956Y-80592013D01*
X162290460Y-79334511D01*
X162330022Y-79265988D01*
X162350500Y-79189562D01*
X162350500Y-79110438D01*
X162350500Y-78522595D01*
X162370185Y-78455556D01*
X162422989Y-78409801D01*
X162433523Y-78405561D01*
X162512882Y-78377793D01*
X162622150Y-78297150D01*
X162702793Y-78187882D01*
X162725158Y-78123964D01*
X162765877Y-78067192D01*
X162830830Y-78041444D01*
X162899392Y-78054900D01*
X162949795Y-78103287D01*
X162959904Y-78125917D01*
X163015642Y-78294121D01*
X163015643Y-78294124D01*
X163107684Y-78443345D01*
X163231654Y-78567315D01*
X163380875Y-78659356D01*
X163380880Y-78659358D01*
X163547302Y-78714505D01*
X163547309Y-78714506D01*
X163650019Y-78724999D01*
X164200000Y-78724999D01*
X164249972Y-78724999D01*
X164249986Y-78724998D01*
X164352697Y-78714505D01*
X164519119Y-78659358D01*
X164519124Y-78659356D01*
X164668345Y-78567315D01*
X164792315Y-78443345D01*
X164884356Y-78294124D01*
X164884358Y-78294119D01*
X164939505Y-78127697D01*
X164939506Y-78127690D01*
X164949999Y-78024986D01*
X164950000Y-78024973D01*
X164950000Y-77750000D01*
X164200000Y-77750000D01*
X164200000Y-78724999D01*
X163650019Y-78724999D01*
X163699999Y-78724998D01*
X163700000Y-78724998D01*
X163700000Y-77250000D01*
X164200000Y-77250000D01*
X164949999Y-77250000D01*
X164949999Y-76975028D01*
X164949998Y-76975013D01*
X164939505Y-76872302D01*
X164884358Y-76705880D01*
X164884356Y-76705875D01*
X164792315Y-76556654D01*
X164668345Y-76432684D01*
X164519124Y-76340643D01*
X164519119Y-76340641D01*
X164352697Y-76285494D01*
X164352690Y-76285493D01*
X164249986Y-76275000D01*
X164200000Y-76275000D01*
X164200000Y-77250000D01*
X163700000Y-77250000D01*
X163700000Y-76275000D01*
X163699999Y-76274999D01*
X163650029Y-76275000D01*
X163650011Y-76275001D01*
X163547302Y-76285494D01*
X163380880Y-76340641D01*
X163380875Y-76340643D01*
X163231654Y-76432684D01*
X163107684Y-76556654D01*
X163015643Y-76705875D01*
X163015641Y-76705880D01*
X162959905Y-76874082D01*
X162920132Y-76931527D01*
X162855617Y-76958350D01*
X162786841Y-76946035D01*
X162735641Y-76898492D01*
X162725158Y-76876033D01*
X162710488Y-76834110D01*
X162702793Y-76812118D01*
X162622150Y-76702850D01*
X162512882Y-76622207D01*
X162512880Y-76622206D01*
X162384700Y-76577353D01*
X162354270Y-76574500D01*
X162354266Y-76574500D01*
X161745734Y-76574500D01*
X161745730Y-76574500D01*
X161715300Y-76577353D01*
X161715298Y-76577353D01*
X161587119Y-76622206D01*
X161587117Y-76622207D01*
X161477850Y-76702850D01*
X161397207Y-76812117D01*
X161397206Y-76812119D01*
X161352353Y-76940298D01*
X161352353Y-76940300D01*
X161349500Y-76970730D01*
X161349500Y-77724167D01*
X161329815Y-77791206D01*
X161313181Y-77811848D01*
X160454102Y-78670926D01*
X160392779Y-78704411D01*
X160323087Y-78699427D01*
X160278740Y-78670926D01*
X160257316Y-78649502D01*
X160257314Y-78649500D01*
X160200250Y-78616554D01*
X160143187Y-78583608D01*
X160079539Y-78566554D01*
X160015892Y-78549500D01*
X159884108Y-78549500D01*
X159756812Y-78583608D01*
X159642686Y-78649500D01*
X159642683Y-78649502D01*
X159549502Y-78742683D01*
X159549500Y-78742686D01*
X159483608Y-78856812D01*
X159449500Y-78984108D01*
X159449500Y-79115891D01*
X159483608Y-79243187D01*
X159510902Y-79290460D01*
X159549500Y-79357314D01*
X159642686Y-79450500D01*
X159756814Y-79516392D01*
X159884108Y-79550500D01*
X159884110Y-79550500D01*
X160015890Y-79550500D01*
X160015892Y-79550500D01*
X160143186Y-79516392D01*
X160257314Y-79450500D01*
X160320995Y-79386819D01*
X160382318Y-79353334D01*
X160408676Y-79350500D01*
X160539560Y-79350500D01*
X160539562Y-79350500D01*
X160615989Y-79330021D01*
X160684511Y-79290460D01*
X160740460Y-79234511D01*
X161537819Y-78437150D01*
X161599142Y-78403666D01*
X161668833Y-78408650D01*
X161724767Y-78450522D01*
X161749184Y-78515986D01*
X161749500Y-78524832D01*
X161749500Y-78974166D01*
X161729815Y-79041205D01*
X161713181Y-79061847D01*
X160601495Y-80173532D01*
X160540172Y-80207017D01*
X160470480Y-80202033D01*
X160457520Y-80196336D01*
X160400839Y-80167455D01*
X160221118Y-80109059D01*
X160034486Y-80079500D01*
X160034481Y-80079500D01*
X159845519Y-80079500D01*
X159845514Y-80079500D01*
X159658881Y-80109059D01*
X159479160Y-80167455D01*
X159409229Y-80203087D01*
X159340559Y-80215983D01*
X159275819Y-80189706D01*
X159265254Y-80180283D01*
X158436819Y-79351848D01*
X158403334Y-79290525D01*
X158400500Y-79264167D01*
X158400500Y-78501969D01*
X158420185Y-78434930D01*
X158472989Y-78389175D01*
X158483525Y-78384934D01*
X158575382Y-78352793D01*
X158684650Y-78272150D01*
X158765293Y-78162882D01*
X158787719Y-78098790D01*
X158810146Y-78034701D01*
X158810146Y-78034699D01*
X158813000Y-78004269D01*
X158813000Y-76995730D01*
X158810146Y-76965300D01*
X158810146Y-76965298D01*
X158765293Y-76837119D01*
X158765292Y-76837117D01*
X158763073Y-76834110D01*
X158684650Y-76727850D01*
X158575382Y-76647207D01*
X158575380Y-76647206D01*
X158447200Y-76602353D01*
X158416770Y-76599500D01*
X158416766Y-76599500D01*
X157783234Y-76599500D01*
X157783230Y-76599500D01*
X157752800Y-76602353D01*
X157752798Y-76602353D01*
X157624619Y-76647206D01*
X157624617Y-76647207D01*
X157515350Y-76727850D01*
X157434707Y-76837117D01*
X157434706Y-76837119D01*
X157389853Y-76965298D01*
X157389853Y-76965300D01*
X157387000Y-76995730D01*
X156988000Y-76995730D01*
X156985146Y-76965300D01*
X156985146Y-76965298D01*
X156940293Y-76837119D01*
X156940292Y-76837117D01*
X156938073Y-76834110D01*
X156859650Y-76727850D01*
X156750382Y-76647207D01*
X156750379Y-76647206D01*
X156658544Y-76615071D01*
X156601769Y-76574349D01*
X156576022Y-76509396D01*
X156575500Y-76498030D01*
X156575500Y-75924500D01*
X156595185Y-75857461D01*
X156647989Y-75811706D01*
X156699500Y-75800500D01*
X156831007Y-75800500D01*
X166709481Y-75800500D01*
X166776520Y-75820185D01*
X166822275Y-75872989D01*
X166832219Y-75942147D01*
X166803194Y-76005703D01*
X166797162Y-76012181D01*
X166355890Y-76453451D01*
X166355887Y-76453454D01*
X166306885Y-76526793D01*
X166306884Y-76526794D01*
X166279229Y-76568180D01*
X166279221Y-76568195D01*
X166226421Y-76695667D01*
X166226418Y-76695677D01*
X166199500Y-76831004D01*
X166199500Y-92374872D01*
X166179815Y-92441911D01*
X166149134Y-92474642D01*
X166127850Y-92490350D01*
X166047207Y-92599617D01*
X166047206Y-92599619D01*
X166002353Y-92727798D01*
X166002353Y-92727800D01*
X165999500Y-92758230D01*
X165999500Y-93391769D01*
X166002353Y-93422199D01*
X166002353Y-93422201D01*
X166047206Y-93550380D01*
X166047207Y-93550382D01*
X166127850Y-93659650D01*
X166237118Y-93740293D01*
X166263879Y-93749657D01*
X166365299Y-93785146D01*
X166395730Y-93788000D01*
X166395734Y-93788000D01*
X167404270Y-93788000D01*
X167434699Y-93785146D01*
X167434701Y-93785146D01*
X167498790Y-93762719D01*
X167562882Y-93740293D01*
X167672150Y-93659650D01*
X167752793Y-93550382D01*
X167775219Y-93486290D01*
X167797646Y-93422201D01*
X167797646Y-93422199D01*
X167800500Y-93391769D01*
X167800500Y-92758230D01*
X167797646Y-92727800D01*
X167797646Y-92727798D01*
X167752793Y-92599619D01*
X167752792Y-92599617D01*
X167734360Y-92574642D01*
X167672150Y-92490350D01*
X167650865Y-92474641D01*
X167608615Y-92418994D01*
X167600500Y-92374872D01*
X167600500Y-90324500D01*
X167620185Y-90257461D01*
X167672989Y-90211706D01*
X167724500Y-90200500D01*
X168158481Y-90200500D01*
X168225520Y-90220185D01*
X168246162Y-90236819D01*
X179163181Y-101153838D01*
X179196666Y-101215161D01*
X179199500Y-101241519D01*
X179199500Y-113458481D01*
X179179815Y-113525520D01*
X179163181Y-113546162D01*
X176946162Y-115763181D01*
X176884839Y-115796666D01*
X176858481Y-115799500D01*
X144891003Y-115799500D01*
X144782590Y-115821065D01*
X144782589Y-115821065D01*
X144766379Y-115824289D01*
X144755669Y-115826420D01*
X144724093Y-115839500D01*
X144628188Y-115879225D01*
X144628188Y-115879226D01*
X144513456Y-115955886D01*
X144513453Y-115955889D01*
X144235890Y-116233451D01*
X144235889Y-116233452D01*
X144194317Y-116295671D01*
X144194316Y-116295672D01*
X144159223Y-116348191D01*
X144159222Y-116348193D01*
X144106421Y-116475667D01*
X144106418Y-116475677D01*
X144079500Y-116611004D01*
X144079500Y-118055500D01*
X144059815Y-118122539D01*
X144007011Y-118168294D01*
X143955500Y-118179500D01*
X143532129Y-118179500D01*
X143532123Y-118179501D01*
X143472516Y-118185908D01*
X143337671Y-118236202D01*
X143337664Y-118236206D01*
X143222455Y-118322452D01*
X143222452Y-118322455D01*
X143136206Y-118437664D01*
X143136202Y-118437671D01*
X143085908Y-118572517D01*
X143079501Y-118632116D01*
X143079501Y-118632123D01*
X143079500Y-118632135D01*
X130160500Y-118632135D01*
X130160500Y-113899986D01*
X139775001Y-113899986D01*
X139785494Y-114002697D01*
X139840641Y-114169119D01*
X139840643Y-114169124D01*
X139932684Y-114318345D01*
X140056654Y-114442315D01*
X140205875Y-114534356D01*
X140205880Y-114534358D01*
X140372302Y-114589505D01*
X140372309Y-114589506D01*
X140475019Y-114599999D01*
X140537499Y-114599998D01*
X140537500Y-114599998D01*
X140537500Y-113650000D01*
X139775001Y-113650000D01*
X139775001Y-113899986D01*
X130160500Y-113899986D01*
X130160500Y-112900013D01*
X139775000Y-112900013D01*
X139775000Y-113150000D01*
X140537500Y-113150000D01*
X140537500Y-112200000D01*
X141037500Y-112200000D01*
X141037500Y-114599999D01*
X141099972Y-114599999D01*
X141099986Y-114599998D01*
X141202697Y-114589505D01*
X141369119Y-114534358D01*
X141369124Y-114534356D01*
X141518345Y-114442315D01*
X141642315Y-114318345D01*
X141734356Y-114169124D01*
X141734359Y-114169117D01*
X141749300Y-114124028D01*
X141789072Y-114066583D01*
X141853587Y-114039759D01*
X141922363Y-114052073D01*
X141966775Y-114089396D01*
X142027850Y-114172150D01*
X142137118Y-114252793D01*
X142165945Y-114262880D01*
X142265299Y-114297646D01*
X142295730Y-114300500D01*
X142295734Y-114300500D01*
X142929270Y-114300500D01*
X142959699Y-114297646D01*
X142959701Y-114297646D01*
X143048472Y-114266583D01*
X143087882Y-114252793D01*
X143197150Y-114172150D01*
X143250409Y-114099986D01*
X152175001Y-114099986D01*
X152185494Y-114202697D01*
X152240641Y-114369119D01*
X152240643Y-114369124D01*
X152332684Y-114518345D01*
X152456654Y-114642315D01*
X152605875Y-114734356D01*
X152605880Y-114734358D01*
X152772302Y-114789505D01*
X152772309Y-114789506D01*
X152875019Y-114799999D01*
X152937499Y-114799998D01*
X152937500Y-114799998D01*
X152937500Y-113850000D01*
X152175001Y-113850000D01*
X152175001Y-114099986D01*
X143250409Y-114099986D01*
X143277793Y-114062882D01*
X143300219Y-113998790D01*
X143322646Y-113934701D01*
X143322646Y-113934699D01*
X143325500Y-113904269D01*
X143325500Y-113163333D01*
X143334144Y-113133892D01*
X143340668Y-113103906D01*
X143343582Y-113100013D01*
X152175000Y-113100013D01*
X152175000Y-113350000D01*
X152937500Y-113350000D01*
X152937500Y-112400000D01*
X153437500Y-112400000D01*
X153437500Y-114799999D01*
X153499972Y-114799999D01*
X153499986Y-114799998D01*
X153602697Y-114789505D01*
X153769119Y-114734358D01*
X153769124Y-114734356D01*
X153918345Y-114642315D01*
X154042315Y-114518345D01*
X154134356Y-114369124D01*
X154134359Y-114369117D01*
X154149300Y-114324028D01*
X154189072Y-114266583D01*
X154253587Y-114239759D01*
X154322363Y-114252073D01*
X154366775Y-114289396D01*
X154427850Y-114372150D01*
X154537118Y-114452793D01*
X154565945Y-114462880D01*
X154665299Y-114497646D01*
X154695730Y-114500500D01*
X154695734Y-114500500D01*
X155329270Y-114500500D01*
X155359699Y-114497646D01*
X155359701Y-114497646D01*
X155448472Y-114466583D01*
X155487882Y-114452793D01*
X155597150Y-114372150D01*
X155650409Y-114299986D01*
X165075001Y-114299986D01*
X165085494Y-114402697D01*
X165140641Y-114569119D01*
X165140643Y-114569124D01*
X165232684Y-114718345D01*
X165356654Y-114842315D01*
X165505875Y-114934356D01*
X165505880Y-114934358D01*
X165672302Y-114989505D01*
X165672309Y-114989506D01*
X165775019Y-114999999D01*
X165837499Y-114999998D01*
X165837500Y-114999998D01*
X165837500Y-114050000D01*
X165075001Y-114050000D01*
X165075001Y-114299986D01*
X155650409Y-114299986D01*
X155677793Y-114262882D01*
X155700219Y-114198790D01*
X155722646Y-114134701D01*
X155722646Y-114134699D01*
X155725500Y-114104269D01*
X155725500Y-113363333D01*
X155734144Y-113333892D01*
X155740668Y-113303906D01*
X155743582Y-113300013D01*
X165075000Y-113300013D01*
X165075000Y-113550000D01*
X165837500Y-113550000D01*
X165837500Y-112600000D01*
X166337500Y-112600000D01*
X166337500Y-114999999D01*
X166399972Y-114999999D01*
X166399986Y-114999998D01*
X166502697Y-114989505D01*
X166669119Y-114934358D01*
X166669124Y-114934356D01*
X166818345Y-114842315D01*
X166942315Y-114718345D01*
X167034356Y-114569124D01*
X167034359Y-114569117D01*
X167049300Y-114524028D01*
X167089072Y-114466583D01*
X167153587Y-114439759D01*
X167222363Y-114452073D01*
X167266775Y-114489396D01*
X167327850Y-114572150D01*
X167437118Y-114652793D01*
X167479845Y-114667744D01*
X167565299Y-114697646D01*
X167595730Y-114700500D01*
X167595734Y-114700500D01*
X168229270Y-114700500D01*
X168259699Y-114697646D01*
X168259701Y-114697646D01*
X168323790Y-114675219D01*
X168387882Y-114652793D01*
X168497150Y-114572150D01*
X168577793Y-114462882D01*
X168600219Y-114398790D01*
X168622646Y-114334701D01*
X168622646Y-114334699D01*
X168625500Y-114304269D01*
X168625500Y-114299986D01*
X173300001Y-114299986D01*
X173310494Y-114402697D01*
X173365641Y-114569119D01*
X173365643Y-114569124D01*
X173457684Y-114718345D01*
X173581654Y-114842315D01*
X173730875Y-114934356D01*
X173730880Y-114934358D01*
X173897302Y-114989505D01*
X173897309Y-114989506D01*
X174000019Y-114999999D01*
X174562500Y-114999999D01*
X174624972Y-114999999D01*
X174624986Y-114999998D01*
X174727697Y-114989505D01*
X174894119Y-114934358D01*
X174894124Y-114934356D01*
X175043345Y-114842315D01*
X175167315Y-114718345D01*
X175259356Y-114569124D01*
X175259358Y-114569119D01*
X175314505Y-114402697D01*
X175314506Y-114402690D01*
X175324999Y-114299986D01*
X175325000Y-114299973D01*
X175325000Y-114050000D01*
X174562500Y-114050000D01*
X174562500Y-114999999D01*
X174000019Y-114999999D01*
X174062499Y-114999998D01*
X174062500Y-114999998D01*
X174062500Y-114050000D01*
X173300001Y-114050000D01*
X173300001Y-114299986D01*
X168625500Y-114299986D01*
X168625500Y-113563333D01*
X168645185Y-113496294D01*
X168661819Y-113475652D01*
X168837458Y-113300013D01*
X173300000Y-113300013D01*
X173300000Y-113550000D01*
X174062500Y-113550000D01*
X174562500Y-113550000D01*
X175324999Y-113550000D01*
X175324999Y-113300028D01*
X175324998Y-113300013D01*
X175314505Y-113197302D01*
X175259358Y-113030880D01*
X175259356Y-113030875D01*
X175167315Y-112881654D01*
X175043345Y-112757684D01*
X174894124Y-112665643D01*
X174894119Y-112665641D01*
X174727697Y-112610494D01*
X174727690Y-112610493D01*
X174624986Y-112600000D01*
X174562500Y-112600000D01*
X174562500Y-113550000D01*
X174062500Y-113550000D01*
X174062500Y-112600000D01*
X174062499Y-112599999D01*
X174000028Y-112600000D01*
X174000011Y-112600001D01*
X173897302Y-112610494D01*
X173730880Y-112665641D01*
X173730875Y-112665643D01*
X173581654Y-112757684D01*
X173457684Y-112881654D01*
X173365643Y-113030875D01*
X173365641Y-113030880D01*
X173310494Y-113197302D01*
X173310493Y-113197309D01*
X173300000Y-113300013D01*
X168837458Y-113300013D01*
X168928288Y-113209183D01*
X169671830Y-112465641D01*
X170420460Y-111717011D01*
X170460021Y-111648489D01*
X170480500Y-111572062D01*
X170480500Y-110444500D01*
X170500185Y-110377461D01*
X170552989Y-110331706D01*
X170604500Y-110320500D01*
X171099750Y-110320500D01*
X171099751Y-110320499D01*
X171114568Y-110317552D01*
X171158229Y-110308868D01*
X171158229Y-110308867D01*
X171158231Y-110308867D01*
X171224552Y-110264552D01*
X171268867Y-110198231D01*
X171268867Y-110198229D01*
X171268868Y-110198229D01*
X171280499Y-110139752D01*
X171280500Y-110139750D01*
X171280500Y-108300249D01*
X171280499Y-108300247D01*
X171268868Y-108241770D01*
X171268867Y-108241769D01*
X171224552Y-108175447D01*
X171158230Y-108131132D01*
X171158229Y-108131131D01*
X171099752Y-108119500D01*
X171099748Y-108119500D01*
X169260252Y-108119500D01*
X169260247Y-108119500D01*
X169201770Y-108131131D01*
X169201769Y-108131132D01*
X169135447Y-108175447D01*
X169091132Y-108241769D01*
X169091131Y-108241770D01*
X169079500Y-108300247D01*
X169079500Y-110139752D01*
X169091131Y-110198229D01*
X169091132Y-110198230D01*
X169135447Y-110264552D01*
X169201769Y-110308867D01*
X169201770Y-110308868D01*
X169260247Y-110320499D01*
X169260250Y-110320500D01*
X169260252Y-110320500D01*
X169755500Y-110320500D01*
X169822539Y-110340185D01*
X169868294Y-110392989D01*
X169879500Y-110444500D01*
X169879500Y-111356666D01*
X169859815Y-111423705D01*
X169843181Y-111444347D01*
X168407743Y-112879784D01*
X168346420Y-112913269D01*
X168279110Y-112909145D01*
X168259704Y-112902355D01*
X168259694Y-112902353D01*
X168229270Y-112899500D01*
X168229266Y-112899500D01*
X167595734Y-112899500D01*
X167595730Y-112899500D01*
X167565300Y-112902353D01*
X167565298Y-112902353D01*
X167437119Y-112947206D01*
X167437117Y-112947207D01*
X167327850Y-113027850D01*
X167266776Y-113110602D01*
X167211128Y-113152853D01*
X167141472Y-113158311D01*
X167079923Y-113125243D01*
X167049300Y-113075972D01*
X167034358Y-113030880D01*
X167034356Y-113030875D01*
X166942315Y-112881654D01*
X166818345Y-112757684D01*
X166669124Y-112665643D01*
X166669119Y-112665641D01*
X166502697Y-112610494D01*
X166502690Y-112610493D01*
X166399986Y-112600000D01*
X166337500Y-112600000D01*
X165837500Y-112600000D01*
X165837499Y-112599999D01*
X165775028Y-112600000D01*
X165775011Y-112600001D01*
X165672302Y-112610494D01*
X165505880Y-112665641D01*
X165505875Y-112665643D01*
X165356654Y-112757684D01*
X165232684Y-112881654D01*
X165140643Y-113030875D01*
X165140641Y-113030880D01*
X165085494Y-113197302D01*
X165085493Y-113197309D01*
X165075000Y-113300013D01*
X155743582Y-113300013D01*
X155744422Y-113298890D01*
X155745185Y-113296294D01*
X155761819Y-113275652D01*
X157520456Y-111517015D01*
X157520460Y-111517011D01*
X157534358Y-111492938D01*
X157560021Y-111448489D01*
X157580500Y-111372062D01*
X157580500Y-110304500D01*
X157600185Y-110237461D01*
X157652989Y-110191706D01*
X157704500Y-110180500D01*
X158199750Y-110180500D01*
X158199751Y-110180499D01*
X158214568Y-110177552D01*
X158258229Y-110168868D01*
X158258229Y-110168867D01*
X158258231Y-110168867D01*
X158324552Y-110124552D01*
X158368867Y-110058231D01*
X158368867Y-110058229D01*
X158368868Y-110058229D01*
X158380499Y-109999752D01*
X158380500Y-109999750D01*
X158380500Y-108160249D01*
X158380499Y-108160247D01*
X158368868Y-108101770D01*
X158368867Y-108101769D01*
X158324552Y-108035447D01*
X158258230Y-107991132D01*
X158258229Y-107991131D01*
X158199752Y-107979500D01*
X158199748Y-107979500D01*
X156360252Y-107979500D01*
X156360247Y-107979500D01*
X156301770Y-107991131D01*
X156301769Y-107991132D01*
X156235447Y-108035447D01*
X156191132Y-108101769D01*
X156191131Y-108101770D01*
X156179500Y-108160247D01*
X156179500Y-109999752D01*
X156191131Y-110058229D01*
X156191132Y-110058230D01*
X156235447Y-110124552D01*
X156301769Y-110168867D01*
X156301770Y-110168868D01*
X156360247Y-110180499D01*
X156360250Y-110180500D01*
X156360252Y-110180500D01*
X156855500Y-110180500D01*
X156922539Y-110200185D01*
X156968294Y-110252989D01*
X156979500Y-110304500D01*
X156979500Y-111156666D01*
X156959815Y-111223705D01*
X156943181Y-111244347D01*
X155507743Y-112679784D01*
X155446420Y-112713269D01*
X155379110Y-112709145D01*
X155359704Y-112702355D01*
X155359694Y-112702353D01*
X155329270Y-112699500D01*
X155329266Y-112699500D01*
X154695734Y-112699500D01*
X154695730Y-112699500D01*
X154665300Y-112702353D01*
X154665298Y-112702353D01*
X154537119Y-112747206D01*
X154537117Y-112747207D01*
X154427850Y-112827850D01*
X154366776Y-112910602D01*
X154311128Y-112952853D01*
X154241472Y-112958311D01*
X154179923Y-112925243D01*
X154149300Y-112875972D01*
X154134358Y-112830880D01*
X154134356Y-112830875D01*
X154042315Y-112681654D01*
X153918345Y-112557684D01*
X153769124Y-112465643D01*
X153769119Y-112465641D01*
X153602697Y-112410494D01*
X153602690Y-112410493D01*
X153499986Y-112400000D01*
X153437500Y-112400000D01*
X152937500Y-112400000D01*
X152937499Y-112399999D01*
X152875028Y-112400000D01*
X152875011Y-112400001D01*
X152772302Y-112410494D01*
X152605880Y-112465641D01*
X152605875Y-112465643D01*
X152456654Y-112557684D01*
X152332684Y-112681654D01*
X152240643Y-112830875D01*
X152240641Y-112830880D01*
X152185494Y-112997302D01*
X152185493Y-112997309D01*
X152175000Y-113100013D01*
X143343582Y-113100013D01*
X143344422Y-113098890D01*
X143345185Y-113096294D01*
X143361819Y-113075652D01*
X143428288Y-113009183D01*
X144237472Y-112199999D01*
X145120460Y-111317011D01*
X145132879Y-111295500D01*
X145157713Y-111252487D01*
X145157716Y-111252481D01*
X145157988Y-111252008D01*
X145160021Y-111248489D01*
X145180500Y-111172062D01*
X145180500Y-110074500D01*
X145200185Y-110007461D01*
X145252989Y-109961706D01*
X145304500Y-109950500D01*
X145799750Y-109950500D01*
X145799751Y-109950499D01*
X145814568Y-109947552D01*
X145858229Y-109938868D01*
X145858229Y-109938867D01*
X145858231Y-109938867D01*
X145924552Y-109894552D01*
X145968867Y-109828231D01*
X145968867Y-109828229D01*
X145968868Y-109828229D01*
X145980499Y-109769752D01*
X145980500Y-109769750D01*
X145980500Y-107930249D01*
X145980499Y-107930247D01*
X145968868Y-107871770D01*
X145968867Y-107871769D01*
X145924552Y-107805447D01*
X145858230Y-107761132D01*
X145858229Y-107761131D01*
X145799752Y-107749500D01*
X145799748Y-107749500D01*
X143960252Y-107749500D01*
X143960247Y-107749500D01*
X143901770Y-107761131D01*
X143901769Y-107761132D01*
X143835447Y-107805447D01*
X143791132Y-107871769D01*
X143791131Y-107871770D01*
X143779500Y-107930247D01*
X143779500Y-109769752D01*
X143791131Y-109828229D01*
X143791132Y-109828230D01*
X143835447Y-109894552D01*
X143901769Y-109938867D01*
X143901770Y-109938868D01*
X143960247Y-109950499D01*
X143960250Y-109950500D01*
X143960252Y-109950500D01*
X144455500Y-109950500D01*
X144522539Y-109970185D01*
X144568294Y-110022989D01*
X144579500Y-110074500D01*
X144579500Y-110956666D01*
X144559815Y-111023705D01*
X144543181Y-111044347D01*
X143107743Y-112479784D01*
X143046420Y-112513269D01*
X142979110Y-112509145D01*
X142959704Y-112502355D01*
X142959694Y-112502353D01*
X142929270Y-112499500D01*
X142929266Y-112499500D01*
X142295734Y-112499500D01*
X142295730Y-112499500D01*
X142265300Y-112502353D01*
X142265298Y-112502353D01*
X142137119Y-112547206D01*
X142137117Y-112547207D01*
X142027850Y-112627850D01*
X141966776Y-112710602D01*
X141911128Y-112752853D01*
X141841472Y-112758311D01*
X141779923Y-112725243D01*
X141749300Y-112675972D01*
X141734358Y-112630880D01*
X141734356Y-112630875D01*
X141642315Y-112481654D01*
X141518345Y-112357684D01*
X141369124Y-112265643D01*
X141369119Y-112265641D01*
X141202697Y-112210494D01*
X141202690Y-112210493D01*
X141099986Y-112200000D01*
X141037500Y-112200000D01*
X140537500Y-112200000D01*
X140537499Y-112199999D01*
X140475028Y-112200000D01*
X140475011Y-112200001D01*
X140372302Y-112210494D01*
X140205880Y-112265641D01*
X140205875Y-112265643D01*
X140056654Y-112357684D01*
X139932684Y-112481654D01*
X139840643Y-112630875D01*
X139840641Y-112630880D01*
X139785494Y-112797302D01*
X139785493Y-112797309D01*
X139775000Y-112900013D01*
X130160500Y-112900013D01*
X130160500Y-69103856D01*
X136399500Y-69103856D01*
X136399500Y-69114591D01*
X136399500Y-73096143D01*
X136421062Y-73176615D01*
X136421062Y-73176616D01*
X136423385Y-73185286D01*
X136469527Y-73265208D01*
X136469531Y-73265213D01*
X143893181Y-80688863D01*
X143926666Y-80750186D01*
X143929500Y-80776544D01*
X143929500Y-105482856D01*
X143912888Y-105544854D01*
X143906795Y-105555407D01*
X143906793Y-105555410D01*
X143906793Y-105555412D01*
X143893078Y-105606598D01*
X143879500Y-105657273D01*
X143879500Y-105762728D01*
X143882424Y-105773640D01*
X143880761Y-105843490D01*
X143873135Y-105862025D01*
X143860128Y-105887551D01*
X143860126Y-105887557D01*
X143806597Y-106052302D01*
X143785049Y-106188352D01*
X143779500Y-106223389D01*
X143779500Y-106396611D01*
X143806598Y-106567701D01*
X143860127Y-106732445D01*
X143938768Y-106886788D01*
X144040586Y-107026928D01*
X144163072Y-107149414D01*
X144303212Y-107251232D01*
X144457555Y-107329873D01*
X144622299Y-107383402D01*
X144793389Y-107410500D01*
X144793390Y-107410500D01*
X144966610Y-107410500D01*
X144966611Y-107410500D01*
X145137701Y-107383402D01*
X145302445Y-107329873D01*
X145456788Y-107251232D01*
X145596928Y-107149414D01*
X145719414Y-107026928D01*
X145821232Y-106886788D01*
X145899873Y-106732445D01*
X145953402Y-106567701D01*
X145980500Y-106396611D01*
X145980500Y-106223389D01*
X145953402Y-106052299D01*
X145899873Y-105887555D01*
X145821232Y-105733212D01*
X145719414Y-105593072D01*
X145596928Y-105470586D01*
X145456788Y-105368768D01*
X145302445Y-105290127D01*
X145137701Y-105236598D01*
X145137699Y-105236597D01*
X145137698Y-105236597D01*
X145006271Y-105215781D01*
X144966611Y-105209500D01*
X144793389Y-105209500D01*
X144773897Y-105212587D01*
X144704603Y-105203631D01*
X144651152Y-105158634D01*
X144630513Y-105091883D01*
X144630500Y-105090113D01*
X144630500Y-100100544D01*
X144650185Y-100033505D01*
X144702989Y-99987750D01*
X144772147Y-99977806D01*
X144835703Y-100006831D01*
X144842181Y-100012863D01*
X151649788Y-106820470D01*
X151729712Y-106866614D01*
X151818856Y-106890500D01*
X151818858Y-106890500D01*
X151911142Y-106890500D01*
X151911144Y-106890500D01*
X152000288Y-106866614D01*
X152016745Y-106857112D01*
X152078744Y-106840500D01*
X156130413Y-106840500D01*
X156197452Y-106860185D01*
X156243207Y-106912989D01*
X156248343Y-106926180D01*
X156260126Y-106962445D01*
X156292983Y-107026930D01*
X156338768Y-107116788D01*
X156440586Y-107256928D01*
X156563072Y-107379414D01*
X156703212Y-107481232D01*
X156857555Y-107559873D01*
X157022299Y-107613402D01*
X157193389Y-107640500D01*
X157193390Y-107640500D01*
X157366610Y-107640500D01*
X157366611Y-107640500D01*
X157537701Y-107613402D01*
X157702445Y-107559873D01*
X157856788Y-107481232D01*
X157996928Y-107379414D01*
X158119414Y-107256928D01*
X158221232Y-107116788D01*
X158299873Y-106962445D01*
X158353402Y-106797701D01*
X158380500Y-106626611D01*
X158380500Y-106453389D01*
X158353402Y-106282299D01*
X158299873Y-106117555D01*
X158221232Y-105963212D01*
X158119414Y-105823072D01*
X157996928Y-105700586D01*
X157856788Y-105598768D01*
X157702445Y-105520127D01*
X157537701Y-105466598D01*
X157537699Y-105466597D01*
X157537698Y-105466597D01*
X157406271Y-105445781D01*
X157366611Y-105439500D01*
X157193389Y-105439500D01*
X157153728Y-105445781D01*
X157022302Y-105466597D01*
X156857552Y-105520128D01*
X156703211Y-105598768D01*
X156658371Y-105631347D01*
X156563072Y-105700586D01*
X156563070Y-105700588D01*
X156563069Y-105700588D01*
X156440588Y-105823069D01*
X156440588Y-105823070D01*
X156440586Y-105823072D01*
X156412285Y-105862025D01*
X156338768Y-105963211D01*
X156260126Y-106117554D01*
X156248343Y-106153820D01*
X156208905Y-106211495D01*
X156144546Y-106238692D01*
X156130413Y-106239500D01*
X152111544Y-106239500D01*
X152044505Y-106219815D01*
X152023863Y-106203181D01*
X148582863Y-102762181D01*
X148549378Y-102700858D01*
X148554362Y-102631166D01*
X148596234Y-102575233D01*
X148661698Y-102550816D01*
X148670544Y-102550500D01*
X165503456Y-102550500D01*
X165570495Y-102570185D01*
X165591137Y-102586819D01*
X169131347Y-106127029D01*
X169164832Y-106188352D01*
X169161597Y-106253028D01*
X169106597Y-106422301D01*
X169079500Y-106593389D01*
X169079500Y-106766610D01*
X169095338Y-106866612D01*
X169106598Y-106937701D01*
X169160127Y-107102445D01*
X169238768Y-107256788D01*
X169340586Y-107396928D01*
X169463072Y-107519414D01*
X169603212Y-107621232D01*
X169757555Y-107699873D01*
X169922299Y-107753402D01*
X170093389Y-107780500D01*
X170093390Y-107780500D01*
X170266610Y-107780500D01*
X170266611Y-107780500D01*
X170437701Y-107753402D01*
X170602445Y-107699873D01*
X170756788Y-107621232D01*
X170896928Y-107519414D01*
X171019414Y-107396928D01*
X171121232Y-107256788D01*
X171199873Y-107102445D01*
X171253402Y-106937701D01*
X171280500Y-106766611D01*
X171280500Y-106593389D01*
X171253402Y-106422299D01*
X171199873Y-106257555D01*
X171121232Y-106103212D01*
X171019414Y-105963072D01*
X170896928Y-105840586D01*
X170756788Y-105738768D01*
X170602445Y-105660127D01*
X170437701Y-105606598D01*
X170437699Y-105606597D01*
X170437698Y-105606597D01*
X170306271Y-105585781D01*
X170266611Y-105579500D01*
X170093389Y-105579500D01*
X170061192Y-105584599D01*
X169922301Y-105606597D01*
X169753028Y-105661597D01*
X169683186Y-105663592D01*
X169627029Y-105631347D01*
X165915213Y-101919531D01*
X165915208Y-101919527D01*
X165835290Y-101873387D01*
X165835289Y-101873386D01*
X165835288Y-101873386D01*
X165746144Y-101849500D01*
X165746143Y-101849500D01*
X148596544Y-101849500D01*
X148529505Y-101829815D01*
X148508863Y-101813181D01*
X145786819Y-99091137D01*
X145772115Y-99064209D01*
X145755523Y-99038391D01*
X145754631Y-99032190D01*
X145753334Y-99029814D01*
X145750500Y-99003456D01*
X145750500Y-98949986D01*
X146775001Y-98949986D01*
X146785494Y-99052697D01*
X146840641Y-99219119D01*
X146840643Y-99219124D01*
X146932684Y-99368345D01*
X147056654Y-99492315D01*
X147205875Y-99584356D01*
X147205880Y-99584358D01*
X147372302Y-99639505D01*
X147372309Y-99639506D01*
X147475019Y-99649999D01*
X147749999Y-99649999D01*
X148250000Y-99649999D01*
X148524972Y-99649999D01*
X148524986Y-99649998D01*
X148627697Y-99639505D01*
X148794119Y-99584358D01*
X148794124Y-99584356D01*
X148943345Y-99492315D01*
X149067315Y-99368345D01*
X149159356Y-99219124D01*
X149159358Y-99219119D01*
X149214505Y-99052697D01*
X149214506Y-99052690D01*
X149224999Y-98949986D01*
X149225000Y-98949973D01*
X149225000Y-98900000D01*
X148250000Y-98900000D01*
X148250000Y-99649999D01*
X147749999Y-99649999D01*
X147750000Y-99649998D01*
X147750000Y-98900000D01*
X146775001Y-98900000D01*
X146775001Y-98949986D01*
X145750500Y-98949986D01*
X145750500Y-98849986D01*
X165675001Y-98849986D01*
X165685494Y-98952697D01*
X165740641Y-99119119D01*
X165740643Y-99119124D01*
X165832684Y-99268345D01*
X165956654Y-99392315D01*
X166105875Y-99484356D01*
X166105880Y-99484358D01*
X166272302Y-99539505D01*
X166272309Y-99539506D01*
X166375019Y-99549999D01*
X166649999Y-99549999D01*
X167150000Y-99549999D01*
X167424972Y-99549999D01*
X167424986Y-99549998D01*
X167527697Y-99539505D01*
X167694119Y-99484358D01*
X167694124Y-99484356D01*
X167843345Y-99392315D01*
X167967315Y-99268345D01*
X168059356Y-99119124D01*
X168059358Y-99119119D01*
X168114505Y-98952697D01*
X168114506Y-98952690D01*
X168124999Y-98849986D01*
X168125000Y-98849973D01*
X168125000Y-98800000D01*
X167150000Y-98800000D01*
X167150000Y-99549999D01*
X166649999Y-99549999D01*
X166650000Y-99549998D01*
X166650000Y-98800000D01*
X165675001Y-98800000D01*
X165675001Y-98849986D01*
X145750500Y-98849986D01*
X145750500Y-98350013D01*
X146775000Y-98350013D01*
X146775000Y-98400000D01*
X149224999Y-98400000D01*
X149224999Y-98350028D01*
X149224998Y-98350013D01*
X149214505Y-98247302D01*
X149159358Y-98080880D01*
X149159356Y-98080875D01*
X149067315Y-97931654D01*
X148943345Y-97807684D01*
X148794124Y-97715643D01*
X148794119Y-97715641D01*
X148625917Y-97659905D01*
X148568472Y-97620133D01*
X148541649Y-97555617D01*
X148553964Y-97486841D01*
X148601507Y-97435641D01*
X148623966Y-97425158D01*
X148623972Y-97425156D01*
X148687882Y-97402793D01*
X148797150Y-97322150D01*
X148877793Y-97212882D01*
X148900219Y-97148790D01*
X148922646Y-97084701D01*
X148922646Y-97084699D01*
X148925500Y-97054269D01*
X148925500Y-96445730D01*
X148922647Y-96415310D01*
X148922646Y-96415308D01*
X148922646Y-96415301D01*
X148906132Y-96368109D01*
X148905287Y-96351545D01*
X148899490Y-96336002D01*
X148903542Y-96317374D01*
X148902570Y-96298334D01*
X148910939Y-96283372D01*
X148914342Y-96267729D01*
X148935486Y-96239483D01*
X149058153Y-96116817D01*
X149119476Y-96083334D01*
X149145833Y-96080500D01*
X150260438Y-96080500D01*
X150339562Y-96080500D01*
X153395167Y-96080500D01*
X153462206Y-96100185D01*
X153507961Y-96152989D01*
X153517905Y-96222147D01*
X153488880Y-96285703D01*
X153482851Y-96292177D01*
X153125924Y-96649104D01*
X152911847Y-96863181D01*
X152850524Y-96896666D01*
X152824166Y-96899500D01*
X152734108Y-96899500D01*
X152606812Y-96933608D01*
X152492686Y-96999500D01*
X152492683Y-96999502D01*
X152399502Y-97092683D01*
X152399500Y-97092686D01*
X152333608Y-97206812D01*
X152299500Y-97334108D01*
X152299500Y-97465891D01*
X152333608Y-97593187D01*
X152349166Y-97620133D01*
X152399500Y-97707314D01*
X152492686Y-97800500D01*
X152606814Y-97866392D01*
X152734108Y-97900500D01*
X152734110Y-97900500D01*
X152865890Y-97900500D01*
X152865892Y-97900500D01*
X152993186Y-97866392D01*
X153107314Y-97800500D01*
X153200500Y-97707314D01*
X153266392Y-97593186D01*
X153300500Y-97465892D01*
X153300500Y-97375832D01*
X153320185Y-97308793D01*
X153336819Y-97288151D01*
X153454868Y-97170102D01*
X153666525Y-96958444D01*
X153727846Y-96924961D01*
X153797537Y-96929945D01*
X153823096Y-96943026D01*
X153861768Y-96968867D01*
X153861770Y-96968868D01*
X153920247Y-96980499D01*
X153920250Y-96980500D01*
X153920252Y-96980500D01*
X155959750Y-96980500D01*
X155959751Y-96980499D01*
X155974568Y-96977552D01*
X156018229Y-96968868D01*
X156018229Y-96968867D01*
X156018231Y-96968867D01*
X156084552Y-96924552D01*
X156128867Y-96858231D01*
X156140500Y-96799748D01*
X156140500Y-96759666D01*
X156145362Y-96742819D01*
X156155082Y-96727537D01*
X156160185Y-96710161D01*
X156173443Y-96698672D01*
X156178350Y-96690958D01*
X156176919Y-96689527D01*
X156957037Y-95909408D01*
X156974075Y-95972993D01*
X157039901Y-96087007D01*
X157132993Y-96180099D01*
X157247007Y-96245925D01*
X157310590Y-96262962D01*
X156570893Y-97002658D01*
X156653828Y-97062914D01*
X156864197Y-97170102D01*
X157088752Y-97243065D01*
X157088751Y-97243065D01*
X157321948Y-97280000D01*
X157558052Y-97280000D01*
X157791247Y-97243065D01*
X158015802Y-97170102D01*
X158226163Y-97062918D01*
X158226169Y-97062914D01*
X158309104Y-97002658D01*
X158309105Y-97002658D01*
X157569408Y-96262962D01*
X157632993Y-96245925D01*
X157747007Y-96180099D01*
X157840099Y-96087007D01*
X157905925Y-95972993D01*
X157922962Y-95909409D01*
X158662658Y-96649105D01*
X158662658Y-96649104D01*
X158722914Y-96566169D01*
X158722921Y-96566159D01*
X158756516Y-96500224D01*
X158804489Y-96449428D01*
X158872310Y-96432632D01*
X158938445Y-96455169D01*
X158967319Y-96483632D01*
X159024310Y-96562073D01*
X159157927Y-96695690D01*
X159310801Y-96806760D01*
X159365266Y-96834511D01*
X159479163Y-96892545D01*
X159479165Y-96892545D01*
X159479168Y-96892547D01*
X159575497Y-96923846D01*
X159658881Y-96950940D01*
X159845514Y-96980500D01*
X159845519Y-96980500D01*
X160034486Y-96980500D01*
X160221118Y-96950940D01*
X160242877Y-96943870D01*
X160400832Y-96892547D01*
X160470769Y-96856911D01*
X160539436Y-96844015D01*
X160604177Y-96870291D01*
X160614744Y-96879715D01*
X160963181Y-97228152D01*
X160996666Y-97289475D01*
X160999500Y-97315833D01*
X160999500Y-97365892D01*
X161015380Y-97425156D01*
X161033608Y-97493187D01*
X161037191Y-97499392D01*
X161099500Y-97607314D01*
X161192686Y-97700500D01*
X161306814Y-97766392D01*
X161434108Y-97800500D01*
X161434110Y-97800500D01*
X161565890Y-97800500D01*
X161565892Y-97800500D01*
X161693186Y-97766392D01*
X161807314Y-97700500D01*
X161900500Y-97607314D01*
X161966392Y-97493186D01*
X162000500Y-97365892D01*
X162000500Y-97234108D01*
X161966392Y-97106814D01*
X161900500Y-96992686D01*
X161807314Y-96899500D01*
X161733550Y-96856912D01*
X161693187Y-96833608D01*
X161627512Y-96816011D01*
X161565892Y-96799500D01*
X161435833Y-96799500D01*
X161368794Y-96779815D01*
X161348152Y-96763181D01*
X161039715Y-96454744D01*
X161030134Y-96437198D01*
X161016512Y-96422567D01*
X161013732Y-96407160D01*
X161006230Y-96393421D01*
X161007656Y-96373479D01*
X161004107Y-96353807D01*
X161010631Y-96331877D01*
X161011214Y-96323729D01*
X161012835Y-96319610D01*
X161014695Y-96315119D01*
X161052547Y-96240832D01*
X161078309Y-96161544D01*
X161080172Y-96157047D01*
X161099160Y-96133484D01*
X161116240Y-96108506D01*
X161120863Y-96106551D01*
X161124014Y-96102643D01*
X161152723Y-96093087D01*
X161180598Y-96081308D01*
X161189676Y-96080789D01*
X161190308Y-96080579D01*
X161190864Y-96080721D01*
X161194733Y-96080500D01*
X164924167Y-96080500D01*
X164991206Y-96100185D01*
X165011847Y-96116818D01*
X165729540Y-96834511D01*
X165785489Y-96890460D01*
X165785491Y-96890461D01*
X165785495Y-96890464D01*
X165844538Y-96924552D01*
X165854011Y-96930021D01*
X165905702Y-96943871D01*
X165965359Y-96980234D01*
X165990647Y-97022690D01*
X166022206Y-97112880D01*
X166022207Y-97112882D01*
X166102850Y-97222150D01*
X166212118Y-97302793D01*
X166276033Y-97325158D01*
X166332807Y-97365878D01*
X166358555Y-97430830D01*
X166345099Y-97499392D01*
X166296712Y-97549795D01*
X166274082Y-97559904D01*
X166105878Y-97615642D01*
X166105875Y-97615643D01*
X165956654Y-97707684D01*
X165832684Y-97831654D01*
X165740643Y-97980875D01*
X165740641Y-97980880D01*
X165685494Y-98147302D01*
X165685493Y-98147309D01*
X165675000Y-98250013D01*
X165675000Y-98300000D01*
X168124999Y-98300000D01*
X168124999Y-98250028D01*
X168124998Y-98250013D01*
X168114505Y-98147302D01*
X168059358Y-97980880D01*
X168059356Y-97980875D01*
X167967315Y-97831654D01*
X167843345Y-97707684D01*
X167694124Y-97615643D01*
X167694119Y-97615641D01*
X167525917Y-97559905D01*
X167468472Y-97520133D01*
X167441649Y-97455617D01*
X167453964Y-97386841D01*
X167501507Y-97335641D01*
X167523966Y-97325158D01*
X167523972Y-97325156D01*
X167587882Y-97302793D01*
X167697150Y-97222150D01*
X167777793Y-97112882D01*
X167800219Y-97048790D01*
X167822646Y-96984701D01*
X167822646Y-96984699D01*
X167825500Y-96954269D01*
X167825500Y-96345730D01*
X167822646Y-96315300D01*
X167822646Y-96315298D01*
X167777793Y-96187119D01*
X167777792Y-96187117D01*
X167697150Y-96077850D01*
X167587882Y-95997207D01*
X167587880Y-95997206D01*
X167459700Y-95952353D01*
X167429270Y-95949500D01*
X167429266Y-95949500D01*
X166574833Y-95949500D01*
X166553587Y-95943261D01*
X166531499Y-95941682D01*
X166520715Y-95933609D01*
X166507794Y-95929815D01*
X166493294Y-95913081D01*
X166475566Y-95899810D01*
X166470858Y-95887189D01*
X166462039Y-95877011D01*
X166458887Y-95855093D01*
X166451149Y-95834346D01*
X166454011Y-95821185D01*
X166452095Y-95807853D01*
X166461294Y-95787709D01*
X166466001Y-95766073D01*
X166479269Y-95748347D01*
X166481120Y-95744297D01*
X166487152Y-95737819D01*
X166575652Y-95649319D01*
X166636975Y-95615834D01*
X166663333Y-95613000D01*
X167404270Y-95613000D01*
X167434699Y-95610146D01*
X167434701Y-95610146D01*
X167500827Y-95587007D01*
X167562882Y-95565293D01*
X167672150Y-95484650D01*
X167752793Y-95375382D01*
X167785058Y-95283174D01*
X167797646Y-95247201D01*
X167797646Y-95247199D01*
X167800500Y-95216769D01*
X167800500Y-94583230D01*
X167797646Y-94552800D01*
X167797646Y-94552798D01*
X167752793Y-94424619D01*
X167752792Y-94424617D01*
X167745953Y-94415350D01*
X167672150Y-94315350D01*
X167562882Y-94234707D01*
X167562880Y-94234706D01*
X167434700Y-94189853D01*
X167404270Y-94187000D01*
X167404266Y-94187000D01*
X166395734Y-94187000D01*
X166395730Y-94187000D01*
X166365300Y-94189853D01*
X166365298Y-94189853D01*
X166237119Y-94234706D01*
X166237117Y-94234707D01*
X166127850Y-94315350D01*
X166047207Y-94424617D01*
X166047206Y-94424619D01*
X166002353Y-94552798D01*
X166002353Y-94552800D01*
X165999500Y-94583230D01*
X165999500Y-95216769D01*
X166002353Y-95247194D01*
X166002355Y-95247204D01*
X166009145Y-95266610D01*
X166009990Y-95283174D01*
X166015787Y-95298715D01*
X166011734Y-95317346D01*
X166012706Y-95336389D01*
X166004337Y-95351348D01*
X166000936Y-95366988D01*
X165979785Y-95395242D01*
X165931848Y-95443180D01*
X165870525Y-95476666D01*
X165844166Y-95479500D01*
X161194734Y-95479500D01*
X161127695Y-95459815D01*
X161081940Y-95407011D01*
X161076803Y-95393818D01*
X161052548Y-95319170D01*
X161025767Y-95266610D01*
X160966760Y-95150801D01*
X160855690Y-94997927D01*
X160722073Y-94864310D01*
X160569199Y-94753240D01*
X160400836Y-94667454D01*
X160221118Y-94609059D01*
X160034486Y-94579500D01*
X160034481Y-94579500D01*
X159845519Y-94579500D01*
X159845514Y-94579500D01*
X159658881Y-94609059D01*
X159479163Y-94667454D01*
X159310800Y-94753240D01*
X159270118Y-94782798D01*
X159157927Y-94864310D01*
X159157925Y-94864312D01*
X159157924Y-94864312D01*
X159024309Y-94997927D01*
X158967318Y-95076368D01*
X158911988Y-95119033D01*
X158842374Y-95125011D01*
X158780580Y-95092404D01*
X158756516Y-95059775D01*
X158722916Y-94993830D01*
X158662658Y-94910894D01*
X158662658Y-94910893D01*
X157922962Y-95650590D01*
X157905925Y-95587007D01*
X157840099Y-95472993D01*
X157747007Y-95379901D01*
X157632993Y-95314075D01*
X157569409Y-95297037D01*
X158309105Y-94557340D01*
X158309104Y-94557338D01*
X158226174Y-94497087D01*
X158015802Y-94389897D01*
X157791248Y-94316934D01*
X157787307Y-94315988D01*
X157726718Y-94281194D01*
X157694558Y-94219165D01*
X157701038Y-94149597D01*
X157744101Y-94094576D01*
X157768805Y-94080857D01*
X157882188Y-94033892D01*
X157937594Y-94010943D01*
X157937595Y-94010942D01*
X157937598Y-94010941D01*
X158109655Y-93895977D01*
X158255977Y-93749655D01*
X158370941Y-93577598D01*
X158450130Y-93386420D01*
X158490500Y-93183465D01*
X158490500Y-92376535D01*
X158450130Y-92173580D01*
X158370941Y-91982402D01*
X158255977Y-91810345D01*
X158255975Y-91810342D01*
X158109657Y-91664024D01*
X158023626Y-91606541D01*
X157937598Y-91549059D01*
X157746420Y-91469870D01*
X157746412Y-91469868D01*
X157543469Y-91429500D01*
X157543465Y-91429500D01*
X157336535Y-91429500D01*
X157336530Y-91429500D01*
X157133587Y-91469868D01*
X157133579Y-91469870D01*
X156942403Y-91549058D01*
X156770342Y-91664024D01*
X156624024Y-91810342D01*
X156509058Y-91982403D01*
X156429870Y-92173579D01*
X156429868Y-92173587D01*
X156389500Y-92376530D01*
X156389500Y-93183469D01*
X156429868Y-93386412D01*
X156429870Y-93386420D01*
X156509058Y-93577596D01*
X156624024Y-93749657D01*
X156770342Y-93895975D01*
X156942405Y-94010943D01*
X157064693Y-94061595D01*
X157111189Y-94080855D01*
X157165593Y-94124696D01*
X157187658Y-94190990D01*
X157170379Y-94258689D01*
X157119242Y-94306300D01*
X157092695Y-94315987D01*
X157088756Y-94316932D01*
X156864197Y-94389897D01*
X156653830Y-94497084D01*
X156570894Y-94557340D01*
X157310591Y-95297037D01*
X157247007Y-95314075D01*
X157132993Y-95379901D01*
X157039901Y-95472993D01*
X156974075Y-95587007D01*
X156957037Y-95650591D01*
X156176918Y-94870472D01*
X156180416Y-94866973D01*
X156155620Y-94842137D01*
X156140500Y-94782798D01*
X156140500Y-94760249D01*
X156140499Y-94760247D01*
X156128868Y-94701770D01*
X156128867Y-94701769D01*
X156084552Y-94635447D01*
X156018230Y-94591132D01*
X156018229Y-94591131D01*
X155959752Y-94579500D01*
X155959748Y-94579500D01*
X153920252Y-94579500D01*
X153920247Y-94579500D01*
X153861770Y-94591131D01*
X153861769Y-94591132D01*
X153795447Y-94635447D01*
X153751132Y-94701769D01*
X153751131Y-94701770D01*
X153739500Y-94760247D01*
X153739500Y-95355500D01*
X153719815Y-95422539D01*
X153667011Y-95468294D01*
X153615500Y-95479500D01*
X150475833Y-95479500D01*
X150408794Y-95459815D01*
X150388152Y-95443181D01*
X149704512Y-94759541D01*
X149704507Y-94759537D01*
X149693601Y-94753241D01*
X149693599Y-94753240D01*
X149635991Y-94719980D01*
X149635990Y-94719979D01*
X149610513Y-94713152D01*
X149559562Y-94699500D01*
X149559560Y-94699500D01*
X149001970Y-94699500D01*
X148934931Y-94679815D01*
X148889176Y-94627011D01*
X148884929Y-94616456D01*
X148864242Y-94557338D01*
X148852793Y-94524618D01*
X148772150Y-94415350D01*
X148662882Y-94334707D01*
X148662880Y-94334706D01*
X148534700Y-94289853D01*
X148504270Y-94287000D01*
X148504266Y-94287000D01*
X147495734Y-94287000D01*
X147495730Y-94287000D01*
X147465300Y-94289853D01*
X147465298Y-94289853D01*
X147337119Y-94334706D01*
X147337117Y-94334707D01*
X147227850Y-94415350D01*
X147147207Y-94524617D01*
X147147206Y-94524619D01*
X147102353Y-94652798D01*
X147102353Y-94652800D01*
X147099500Y-94683230D01*
X147099500Y-95316769D01*
X147102353Y-95347199D01*
X147102353Y-95347201D01*
X147146371Y-95472993D01*
X147147207Y-95475382D01*
X147227850Y-95584650D01*
X147337118Y-95665293D01*
X147379845Y-95680244D01*
X147465299Y-95710146D01*
X147495730Y-95713000D01*
X148312667Y-95713000D01*
X148333912Y-95719238D01*
X148356001Y-95720818D01*
X148366784Y-95728890D01*
X148379706Y-95732685D01*
X148394205Y-95749418D01*
X148411934Y-95762690D01*
X148416641Y-95775310D01*
X148425461Y-95785489D01*
X148428612Y-95807406D01*
X148436351Y-95828154D01*
X148433488Y-95841314D01*
X148435405Y-95854647D01*
X148426205Y-95874790D01*
X148421499Y-95896427D01*
X148408230Y-95914152D01*
X148406380Y-95918203D01*
X148400348Y-95924681D01*
X148311848Y-96013181D01*
X148250525Y-96046666D01*
X148224167Y-96049500D01*
X147470730Y-96049500D01*
X147440300Y-96052353D01*
X147440298Y-96052353D01*
X147312119Y-96097206D01*
X147312117Y-96097207D01*
X147202850Y-96177850D01*
X147122207Y-96287117D01*
X147122206Y-96287119D01*
X147077353Y-96415298D01*
X147077353Y-96415300D01*
X147074500Y-96445730D01*
X147074500Y-97054269D01*
X147077353Y-97084699D01*
X147077353Y-97084701D01*
X147122206Y-97212880D01*
X147122207Y-97212882D01*
X147202850Y-97322150D01*
X147312118Y-97402793D01*
X147376033Y-97425158D01*
X147432807Y-97465878D01*
X147458555Y-97530830D01*
X147445099Y-97599392D01*
X147396712Y-97649795D01*
X147374082Y-97659904D01*
X147205878Y-97715642D01*
X147205875Y-97715643D01*
X147056654Y-97807684D01*
X146932684Y-97931654D01*
X146840643Y-98080875D01*
X146840641Y-98080880D01*
X146785494Y-98247302D01*
X146785493Y-98247309D01*
X146775000Y-98350013D01*
X145750500Y-98350013D01*
X145750500Y-75776543D01*
X145770185Y-75709504D01*
X145786814Y-75688867D01*
X149386165Y-72089515D01*
X149447486Y-72056032D01*
X149517178Y-72061016D01*
X149521244Y-72062615D01*
X149568165Y-72082051D01*
X149568169Y-72082051D01*
X149568170Y-72082052D01*
X149761456Y-72120500D01*
X149761459Y-72120500D01*
X149958543Y-72120500D01*
X150114301Y-72089517D01*
X150151835Y-72082051D01*
X150333914Y-72006632D01*
X150497782Y-71897139D01*
X150637139Y-71757782D01*
X150746632Y-71593914D01*
X150822051Y-71411835D01*
X150858034Y-71230938D01*
X150860500Y-71218543D01*
X150860500Y-71021456D01*
X150822052Y-70828170D01*
X150822051Y-70828166D01*
X150822051Y-70828165D01*
X150772064Y-70707485D01*
X150746635Y-70646092D01*
X150746628Y-70646079D01*
X150637139Y-70482218D01*
X150637136Y-70482214D01*
X150497785Y-70342863D01*
X150497781Y-70342860D01*
X150333916Y-70233369D01*
X150333907Y-70233364D01*
X150151839Y-70157950D01*
X150151829Y-70157947D01*
X149958543Y-70119500D01*
X149958541Y-70119500D01*
X149761459Y-70119500D01*
X149761457Y-70119500D01*
X149568170Y-70157947D01*
X149568160Y-70157950D01*
X149386092Y-70233364D01*
X149386084Y-70233369D01*
X149222218Y-70342860D01*
X149222214Y-70342863D01*
X149082863Y-70482214D01*
X149082860Y-70482218D01*
X148973371Y-70646079D01*
X148973364Y-70646092D01*
X148897950Y-70828160D01*
X148897947Y-70828170D01*
X148861965Y-71009062D01*
X148829580Y-71070973D01*
X148768864Y-71105547D01*
X148699094Y-71101806D01*
X148642423Y-71060940D01*
X148617875Y-71004268D01*
X148587990Y-70815582D01*
X148524755Y-70620968D01*
X148431859Y-70438650D01*
X148311582Y-70273105D01*
X148311582Y-70273104D01*
X148166895Y-70128417D01*
X148001349Y-70008140D01*
X147819029Y-69915244D01*
X147624413Y-69852009D01*
X147570000Y-69843390D01*
X147570000Y-70686988D01*
X147512993Y-70654075D01*
X147385826Y-70620000D01*
X147254174Y-70620000D01*
X147127007Y-70654075D01*
X147070000Y-70686988D01*
X147070000Y-69843390D01*
X147015586Y-69852009D01*
X146820970Y-69915244D01*
X146638650Y-70008140D01*
X146473105Y-70128417D01*
X146473104Y-70128417D01*
X146328417Y-70273104D01*
X146328417Y-70273105D01*
X146208140Y-70438650D01*
X146115244Y-70620968D01*
X146052010Y-70815581D01*
X146022124Y-71004269D01*
X145992194Y-71067403D01*
X145932883Y-71104334D01*
X145863020Y-71103336D01*
X145804788Y-71064726D01*
X145778034Y-71009061D01*
X145742052Y-70828172D01*
X145742052Y-70828170D01*
X145742051Y-70828165D01*
X145692064Y-70707485D01*
X145666635Y-70646092D01*
X145666628Y-70646079D01*
X145557139Y-70482218D01*
X145557136Y-70482214D01*
X145417785Y-70342863D01*
X145417781Y-70342860D01*
X145253916Y-70233369D01*
X145253907Y-70233364D01*
X145071839Y-70157950D01*
X145071829Y-70157947D01*
X144878543Y-70119500D01*
X144878541Y-70119500D01*
X144681459Y-70119500D01*
X144681457Y-70119500D01*
X144488170Y-70157947D01*
X144488160Y-70157950D01*
X144306092Y-70233364D01*
X144306084Y-70233369D01*
X144142218Y-70342860D01*
X144142214Y-70342863D01*
X144002863Y-70482214D01*
X144002860Y-70482218D01*
X143893371Y-70646079D01*
X143893364Y-70646092D01*
X143817950Y-70828160D01*
X143817947Y-70828170D01*
X143779500Y-71021456D01*
X143779500Y-71021459D01*
X143779500Y-71218541D01*
X143779500Y-71218543D01*
X143779499Y-71218543D01*
X143817947Y-71411829D01*
X143817950Y-71411839D01*
X143893364Y-71593907D01*
X143893371Y-71593920D01*
X144002860Y-71757781D01*
X144002863Y-71757785D01*
X144142214Y-71897136D01*
X144142218Y-71897139D01*
X144306079Y-72006628D01*
X144306092Y-72006635D01*
X144441295Y-72062637D01*
X144488165Y-72082051D01*
X144488169Y-72082051D01*
X144488170Y-72082052D01*
X144681456Y-72120500D01*
X144681459Y-72120500D01*
X144878543Y-72120500D01*
X145034301Y-72089517D01*
X145071835Y-72082051D01*
X145253914Y-72006632D01*
X145417782Y-71897139D01*
X145557139Y-71757782D01*
X145666632Y-71593914D01*
X145742051Y-71411835D01*
X145778034Y-71230937D01*
X145810419Y-71169027D01*
X145871134Y-71134453D01*
X145940904Y-71138192D01*
X145997576Y-71179059D01*
X146022124Y-71235731D01*
X146052009Y-71424417D01*
X146115244Y-71619031D01*
X146208140Y-71801349D01*
X146328417Y-71966894D01*
X146328417Y-71966895D01*
X146473104Y-72111582D01*
X146638650Y-72231859D01*
X146820968Y-72324754D01*
X147015578Y-72387988D01*
X147070000Y-72396607D01*
X147070000Y-71553012D01*
X147127007Y-71585925D01*
X147254174Y-71620000D01*
X147385826Y-71620000D01*
X147512993Y-71585925D01*
X147570000Y-71553012D01*
X147570000Y-72396606D01*
X147624421Y-72387988D01*
X147819037Y-72324752D01*
X147823536Y-72322890D01*
X147824340Y-72324831D01*
X147884332Y-72313524D01*
X147949090Y-72339756D01*
X147989386Y-72396835D01*
X147992425Y-72466639D01*
X147959722Y-72524594D01*
X145119531Y-75364786D01*
X145119529Y-75364788D01*
X145098560Y-75401108D01*
X145080834Y-75431812D01*
X145073386Y-75444712D01*
X145073385Y-75444714D01*
X145049500Y-75533856D01*
X145049500Y-79854456D01*
X145029815Y-79921495D01*
X144977011Y-79967250D01*
X144907853Y-79977194D01*
X144844297Y-79948169D01*
X144837819Y-79942137D01*
X137636819Y-72741137D01*
X137603334Y-72679814D01*
X137600500Y-72653456D01*
X137600500Y-70300247D01*
X138699500Y-70300247D01*
X138699500Y-71939752D01*
X138711131Y-71998229D01*
X138711132Y-71998230D01*
X138755447Y-72064552D01*
X138821769Y-72108867D01*
X138821770Y-72108868D01*
X138880247Y-72120499D01*
X138880250Y-72120500D01*
X138880252Y-72120500D01*
X140519750Y-72120500D01*
X140519751Y-72120499D01*
X140534568Y-72117552D01*
X140578229Y-72108868D01*
X140578229Y-72108867D01*
X140578231Y-72108867D01*
X140644552Y-72064552D01*
X140688867Y-71998231D01*
X140688867Y-71998229D01*
X140688868Y-71998229D01*
X140700499Y-71939752D01*
X140700500Y-71939750D01*
X140700500Y-71218543D01*
X141239499Y-71218543D01*
X141277947Y-71411829D01*
X141277950Y-71411839D01*
X141353364Y-71593907D01*
X141353371Y-71593920D01*
X141462860Y-71757781D01*
X141462863Y-71757785D01*
X141602214Y-71897136D01*
X141602218Y-71897139D01*
X141766079Y-72006628D01*
X141766092Y-72006635D01*
X141901295Y-72062637D01*
X141948165Y-72082051D01*
X141948169Y-72082051D01*
X141948170Y-72082052D01*
X142141456Y-72120500D01*
X142141459Y-72120500D01*
X142338543Y-72120500D01*
X142494301Y-72089517D01*
X142531835Y-72082051D01*
X142713914Y-72006632D01*
X142877782Y-71897139D01*
X143017139Y-71757782D01*
X143126632Y-71593914D01*
X143202051Y-71411835D01*
X143238034Y-71230938D01*
X143240500Y-71218543D01*
X143240500Y-71021456D01*
X143202052Y-70828170D01*
X143202051Y-70828166D01*
X143202051Y-70828165D01*
X143152064Y-70707485D01*
X143126635Y-70646092D01*
X143126628Y-70646079D01*
X143017139Y-70482218D01*
X143017136Y-70482214D01*
X142877785Y-70342863D01*
X142877781Y-70342860D01*
X142713916Y-70233369D01*
X142713907Y-70233364D01*
X142531839Y-70157950D01*
X142531829Y-70157947D01*
X142338543Y-70119500D01*
X142338541Y-70119500D01*
X142141459Y-70119500D01*
X142141457Y-70119500D01*
X141948170Y-70157947D01*
X141948160Y-70157950D01*
X141766092Y-70233364D01*
X141766084Y-70233369D01*
X141602218Y-70342860D01*
X141602214Y-70342863D01*
X141462863Y-70482214D01*
X141462860Y-70482218D01*
X141353371Y-70646079D01*
X141353364Y-70646092D01*
X141277950Y-70828160D01*
X141277947Y-70828170D01*
X141239500Y-71021456D01*
X141239500Y-71021459D01*
X141239500Y-71218541D01*
X141239500Y-71218543D01*
X141239499Y-71218543D01*
X140700500Y-71218543D01*
X140700500Y-70300249D01*
X140700499Y-70300247D01*
X140688868Y-70241770D01*
X140688867Y-70241769D01*
X140644552Y-70175447D01*
X140578230Y-70131132D01*
X140578229Y-70131131D01*
X140519752Y-70119500D01*
X140519748Y-70119500D01*
X138880252Y-70119500D01*
X138880247Y-70119500D01*
X138821770Y-70131131D01*
X138821769Y-70131132D01*
X138755447Y-70175447D01*
X138711132Y-70241769D01*
X138711131Y-70241770D01*
X138699500Y-70300247D01*
X137600500Y-70300247D01*
X137600500Y-69546543D01*
X137620185Y-69479504D01*
X137636819Y-69458862D01*
X138858862Y-68236819D01*
X138920185Y-68203334D01*
X138946543Y-68200500D01*
X148933456Y-68200500D01*
X149000495Y-68220185D01*
X149021137Y-68236819D01*
X151430481Y-70646162D01*
X151463966Y-70707485D01*
X151458982Y-70777177D01*
X151457362Y-70781293D01*
X151437950Y-70828159D01*
X151437948Y-70828166D01*
X151399500Y-71021456D01*
X151399500Y-71021459D01*
X151399500Y-71218541D01*
X151399500Y-71218543D01*
X151399499Y-71218543D01*
X151437947Y-71411829D01*
X151437950Y-71411839D01*
X151513364Y-71593907D01*
X151513371Y-71593920D01*
X151622860Y-71757781D01*
X151622863Y-71757785D01*
X151762214Y-71897136D01*
X151762218Y-71897139D01*
X151926079Y-72006628D01*
X151926092Y-72006635D01*
X152061295Y-72062637D01*
X152108165Y-72082051D01*
X152108169Y-72082051D01*
X152108170Y-72082052D01*
X152301456Y-72120500D01*
X152301459Y-72120500D01*
X152498543Y-72120500D01*
X152654301Y-72089517D01*
X152691835Y-72082051D01*
X152873914Y-72006632D01*
X153037782Y-71897139D01*
X153177139Y-71757782D01*
X153286632Y-71593914D01*
X153362051Y-71411835D01*
X153398034Y-71230938D01*
X153400500Y-71218543D01*
X153400500Y-71021456D01*
X153362052Y-70828170D01*
X153362051Y-70828166D01*
X153362051Y-70828165D01*
X153312064Y-70707485D01*
X153286635Y-70646092D01*
X153286628Y-70646079D01*
X153177139Y-70482218D01*
X153177136Y-70482214D01*
X153037785Y-70342863D01*
X153037781Y-70342860D01*
X152873916Y-70233369D01*
X152873907Y-70233364D01*
X152691839Y-70157950D01*
X152691829Y-70157947D01*
X152498543Y-70119500D01*
X152498541Y-70119500D01*
X152301459Y-70119500D01*
X152301457Y-70119500D01*
X152108166Y-70157948D01*
X152108159Y-70157950D01*
X152061293Y-70177362D01*
X151991824Y-70184829D01*
X151929345Y-70153553D01*
X151926162Y-70150481D01*
X149737863Y-67962181D01*
X149704378Y-67900858D01*
X149709362Y-67831166D01*
X149751234Y-67775233D01*
X149816698Y-67750816D01*
X149825544Y-67750500D01*
X151023456Y-67750500D01*
X151090495Y-67770185D01*
X151111137Y-67786819D01*
X153970482Y-70646164D01*
X154003967Y-70707487D01*
X153998983Y-70777179D01*
X153997362Y-70781297D01*
X153977949Y-70828163D01*
X153977947Y-70828171D01*
X153939500Y-71021456D01*
X153939500Y-71021459D01*
X153939500Y-71218541D01*
X153939500Y-71218543D01*
X153939499Y-71218543D01*
X153977947Y-71411829D01*
X153977950Y-71411839D01*
X154053364Y-71593907D01*
X154053371Y-71593920D01*
X154162860Y-71757781D01*
X154162863Y-71757785D01*
X154302214Y-71897136D01*
X154302218Y-71897139D01*
X154466079Y-72006628D01*
X154466092Y-72006635D01*
X154601295Y-72062637D01*
X154648165Y-72082051D01*
X154648169Y-72082051D01*
X154648170Y-72082052D01*
X154841456Y-72120500D01*
X154841459Y-72120500D01*
X155038543Y-72120500D01*
X155194301Y-72089517D01*
X155231835Y-72082051D01*
X155413914Y-72006632D01*
X155577782Y-71897139D01*
X155717139Y-71757782D01*
X155826632Y-71593914D01*
X155902051Y-71411835D01*
X155938034Y-71230938D01*
X155940500Y-71218543D01*
X156479499Y-71218543D01*
X156517947Y-71411829D01*
X156517950Y-71411839D01*
X156593364Y-71593907D01*
X156593371Y-71593920D01*
X156702860Y-71757781D01*
X156702863Y-71757785D01*
X156842214Y-71897136D01*
X156842218Y-71897139D01*
X157006079Y-72006628D01*
X157006092Y-72006635D01*
X157141295Y-72062637D01*
X157188165Y-72082051D01*
X157188169Y-72082051D01*
X157188170Y-72082052D01*
X157381456Y-72120500D01*
X157381459Y-72120500D01*
X157578543Y-72120500D01*
X157734301Y-72089517D01*
X157771835Y-72082051D01*
X157953914Y-72006632D01*
X158117782Y-71897139D01*
X158257139Y-71757782D01*
X158366632Y-71593914D01*
X158442051Y-71411835D01*
X158478034Y-71230938D01*
X158480500Y-71218543D01*
X159019499Y-71218543D01*
X159057947Y-71411829D01*
X159057950Y-71411839D01*
X159133364Y-71593907D01*
X159133371Y-71593920D01*
X159242860Y-71757781D01*
X159242863Y-71757785D01*
X159382214Y-71897136D01*
X159382218Y-71897139D01*
X159546079Y-72006628D01*
X159546092Y-72006635D01*
X159681295Y-72062637D01*
X159728165Y-72082051D01*
X159728169Y-72082051D01*
X159728170Y-72082052D01*
X159921456Y-72120500D01*
X159921459Y-72120500D01*
X160118543Y-72120500D01*
X160274301Y-72089517D01*
X160311835Y-72082051D01*
X160493914Y-72006632D01*
X160657782Y-71897139D01*
X160797139Y-71757782D01*
X160906632Y-71593914D01*
X160982051Y-71411835D01*
X161018034Y-71230938D01*
X161020500Y-71218543D01*
X161559499Y-71218543D01*
X161597947Y-71411829D01*
X161597950Y-71411839D01*
X161673364Y-71593907D01*
X161673371Y-71593920D01*
X161782860Y-71757781D01*
X161782863Y-71757785D01*
X161922214Y-71897136D01*
X161922218Y-71897139D01*
X162086079Y-72006628D01*
X162086092Y-72006635D01*
X162221295Y-72062637D01*
X162268165Y-72082051D01*
X162268169Y-72082051D01*
X162268170Y-72082052D01*
X162461456Y-72120500D01*
X162461459Y-72120500D01*
X162658543Y-72120500D01*
X162814301Y-72089517D01*
X162851835Y-72082051D01*
X163033914Y-72006632D01*
X163197782Y-71897139D01*
X163337139Y-71757782D01*
X163446632Y-71593914D01*
X163522051Y-71411835D01*
X163558034Y-71230938D01*
X163560500Y-71218543D01*
X164099499Y-71218543D01*
X164137947Y-71411829D01*
X164137950Y-71411839D01*
X164213364Y-71593907D01*
X164213371Y-71593920D01*
X164322860Y-71757781D01*
X164322863Y-71757785D01*
X164462214Y-71897136D01*
X164462218Y-71897139D01*
X164626079Y-72006628D01*
X164626092Y-72006635D01*
X164761295Y-72062637D01*
X164808165Y-72082051D01*
X164808169Y-72082051D01*
X164808170Y-72082052D01*
X165001456Y-72120500D01*
X165001459Y-72120500D01*
X165198543Y-72120500D01*
X165354301Y-72089517D01*
X165391835Y-72082051D01*
X165573914Y-72006632D01*
X165737782Y-71897139D01*
X165877139Y-71757782D01*
X165986632Y-71593914D01*
X166062051Y-71411835D01*
X166098034Y-71230938D01*
X166100500Y-71218543D01*
X166639499Y-71218543D01*
X166677947Y-71411829D01*
X166677950Y-71411839D01*
X166753364Y-71593907D01*
X166753371Y-71593920D01*
X166862860Y-71757781D01*
X166862863Y-71757785D01*
X167002214Y-71897136D01*
X167002218Y-71897139D01*
X167166079Y-72006628D01*
X167166092Y-72006635D01*
X167301295Y-72062637D01*
X167348165Y-72082051D01*
X167348169Y-72082051D01*
X167348170Y-72082052D01*
X167541456Y-72120500D01*
X167541459Y-72120500D01*
X167738543Y-72120500D01*
X167894301Y-72089517D01*
X167931835Y-72082051D01*
X168113914Y-72006632D01*
X168277782Y-71897139D01*
X168417139Y-71757782D01*
X168526632Y-71593914D01*
X168602051Y-71411835D01*
X168638034Y-71230938D01*
X168640500Y-71218543D01*
X169179499Y-71218543D01*
X169217947Y-71411829D01*
X169217950Y-71411839D01*
X169293364Y-71593907D01*
X169293371Y-71593920D01*
X169402860Y-71757781D01*
X169402863Y-71757785D01*
X169542214Y-71897136D01*
X169542218Y-71897139D01*
X169706079Y-72006628D01*
X169706092Y-72006635D01*
X169841295Y-72062637D01*
X169888165Y-72082051D01*
X169888169Y-72082051D01*
X169888170Y-72082052D01*
X170081456Y-72120500D01*
X170081459Y-72120500D01*
X170278543Y-72120500D01*
X170434301Y-72089517D01*
X170471835Y-72082051D01*
X170653914Y-72006632D01*
X170817782Y-71897139D01*
X170957139Y-71757782D01*
X171066632Y-71593914D01*
X171142051Y-71411835D01*
X171178034Y-71230938D01*
X171180500Y-71218543D01*
X171719499Y-71218543D01*
X171757947Y-71411829D01*
X171757950Y-71411839D01*
X171833364Y-71593907D01*
X171833371Y-71593920D01*
X171942860Y-71757781D01*
X171942863Y-71757785D01*
X172082214Y-71897136D01*
X172082218Y-71897139D01*
X172246079Y-72006628D01*
X172246092Y-72006635D01*
X172381295Y-72062637D01*
X172428165Y-72082051D01*
X172428169Y-72082051D01*
X172428170Y-72082052D01*
X172621456Y-72120500D01*
X172621459Y-72120500D01*
X172818543Y-72120500D01*
X172974301Y-72089517D01*
X173011835Y-72082051D01*
X173193914Y-72006632D01*
X173357782Y-71897139D01*
X173497139Y-71757782D01*
X173606632Y-71593914D01*
X173682051Y-71411835D01*
X173718034Y-71230938D01*
X173720500Y-71218543D01*
X174259499Y-71218543D01*
X174297947Y-71411829D01*
X174297950Y-71411839D01*
X174373364Y-71593907D01*
X174373371Y-71593920D01*
X174482860Y-71757781D01*
X174482863Y-71757785D01*
X174622214Y-71897136D01*
X174622218Y-71897139D01*
X174786079Y-72006628D01*
X174786092Y-72006635D01*
X174921295Y-72062637D01*
X174968165Y-72082051D01*
X174968169Y-72082051D01*
X174968170Y-72082052D01*
X175161456Y-72120500D01*
X175161459Y-72120500D01*
X175358543Y-72120500D01*
X175514301Y-72089517D01*
X175551835Y-72082051D01*
X175733914Y-72006632D01*
X175897782Y-71897139D01*
X176037139Y-71757782D01*
X176146632Y-71593914D01*
X176222051Y-71411835D01*
X176258034Y-71230938D01*
X176260500Y-71218543D01*
X176260500Y-71021456D01*
X176222052Y-70828170D01*
X176222051Y-70828166D01*
X176222051Y-70828165D01*
X176172064Y-70707485D01*
X176146635Y-70646092D01*
X176146628Y-70646079D01*
X176037139Y-70482218D01*
X176037136Y-70482214D01*
X175897785Y-70342863D01*
X175897781Y-70342860D01*
X175733916Y-70233369D01*
X175733907Y-70233364D01*
X175551839Y-70157950D01*
X175551829Y-70157947D01*
X175358543Y-70119500D01*
X175358541Y-70119500D01*
X175161459Y-70119500D01*
X175161457Y-70119500D01*
X174968170Y-70157947D01*
X174968160Y-70157950D01*
X174786092Y-70233364D01*
X174786084Y-70233369D01*
X174622218Y-70342860D01*
X174622214Y-70342863D01*
X174482863Y-70482214D01*
X174482860Y-70482218D01*
X174373371Y-70646079D01*
X174373364Y-70646092D01*
X174297950Y-70828160D01*
X174297947Y-70828170D01*
X174259500Y-71021456D01*
X174259500Y-71021459D01*
X174259500Y-71218541D01*
X174259500Y-71218543D01*
X174259499Y-71218543D01*
X173720500Y-71218543D01*
X173720500Y-71021456D01*
X173682052Y-70828170D01*
X173682051Y-70828166D01*
X173682051Y-70828165D01*
X173632064Y-70707485D01*
X173606635Y-70646092D01*
X173606628Y-70646079D01*
X173497139Y-70482218D01*
X173497136Y-70482214D01*
X173357785Y-70342863D01*
X173357781Y-70342860D01*
X173193916Y-70233369D01*
X173193907Y-70233364D01*
X173011839Y-70157950D01*
X173011829Y-70157947D01*
X172818543Y-70119500D01*
X172818541Y-70119500D01*
X172621459Y-70119500D01*
X172621457Y-70119500D01*
X172428170Y-70157947D01*
X172428160Y-70157950D01*
X172246092Y-70233364D01*
X172246084Y-70233369D01*
X172082218Y-70342860D01*
X172082214Y-70342863D01*
X171942863Y-70482214D01*
X171942860Y-70482218D01*
X171833371Y-70646079D01*
X171833364Y-70646092D01*
X171757950Y-70828160D01*
X171757947Y-70828170D01*
X171719500Y-71021456D01*
X171719500Y-71021459D01*
X171719500Y-71218541D01*
X171719500Y-71218543D01*
X171719499Y-71218543D01*
X171180500Y-71218543D01*
X171180500Y-71021456D01*
X171142052Y-70828170D01*
X171142051Y-70828166D01*
X171142051Y-70828165D01*
X171092064Y-70707485D01*
X171066635Y-70646092D01*
X171066628Y-70646079D01*
X170957139Y-70482218D01*
X170957136Y-70482214D01*
X170817785Y-70342863D01*
X170817781Y-70342860D01*
X170653916Y-70233369D01*
X170653907Y-70233364D01*
X170471839Y-70157950D01*
X170471829Y-70157947D01*
X170278543Y-70119500D01*
X170278541Y-70119500D01*
X170081459Y-70119500D01*
X170081457Y-70119500D01*
X169888170Y-70157947D01*
X169888160Y-70157950D01*
X169706092Y-70233364D01*
X169706084Y-70233369D01*
X169542218Y-70342860D01*
X169542214Y-70342863D01*
X169402863Y-70482214D01*
X169402860Y-70482218D01*
X169293371Y-70646079D01*
X169293364Y-70646092D01*
X169217950Y-70828160D01*
X169217947Y-70828170D01*
X169179500Y-71021456D01*
X169179500Y-71021459D01*
X169179500Y-71218541D01*
X169179500Y-71218543D01*
X169179499Y-71218543D01*
X168640500Y-71218543D01*
X168640500Y-71021456D01*
X168602052Y-70828170D01*
X168602051Y-70828166D01*
X168602051Y-70828165D01*
X168552064Y-70707485D01*
X168526635Y-70646092D01*
X168526628Y-70646079D01*
X168417139Y-70482218D01*
X168417136Y-70482214D01*
X168277785Y-70342863D01*
X168277781Y-70342860D01*
X168113916Y-70233369D01*
X168113907Y-70233364D01*
X167931839Y-70157950D01*
X167931829Y-70157947D01*
X167738543Y-70119500D01*
X167738541Y-70119500D01*
X167541459Y-70119500D01*
X167541457Y-70119500D01*
X167348170Y-70157947D01*
X167348160Y-70157950D01*
X167166092Y-70233364D01*
X167166084Y-70233369D01*
X167002218Y-70342860D01*
X167002214Y-70342863D01*
X166862863Y-70482214D01*
X166862860Y-70482218D01*
X166753371Y-70646079D01*
X166753364Y-70646092D01*
X166677950Y-70828160D01*
X166677947Y-70828170D01*
X166639500Y-71021456D01*
X166639500Y-71021459D01*
X166639500Y-71218541D01*
X166639500Y-71218543D01*
X166639499Y-71218543D01*
X166100500Y-71218543D01*
X166100500Y-71021456D01*
X166062052Y-70828170D01*
X166062051Y-70828166D01*
X166062051Y-70828165D01*
X166012064Y-70707485D01*
X165986635Y-70646092D01*
X165986628Y-70646079D01*
X165877139Y-70482218D01*
X165877136Y-70482214D01*
X165737785Y-70342863D01*
X165737781Y-70342860D01*
X165573916Y-70233369D01*
X165573907Y-70233364D01*
X165391839Y-70157950D01*
X165391829Y-70157947D01*
X165198543Y-70119500D01*
X165198541Y-70119500D01*
X165001459Y-70119500D01*
X165001457Y-70119500D01*
X164808170Y-70157947D01*
X164808160Y-70157950D01*
X164626092Y-70233364D01*
X164626084Y-70233369D01*
X164462218Y-70342860D01*
X164462214Y-70342863D01*
X164322863Y-70482214D01*
X164322860Y-70482218D01*
X164213371Y-70646079D01*
X164213364Y-70646092D01*
X164137950Y-70828160D01*
X164137947Y-70828170D01*
X164099500Y-71021456D01*
X164099500Y-71021459D01*
X164099500Y-71218541D01*
X164099500Y-71218543D01*
X164099499Y-71218543D01*
X163560500Y-71218543D01*
X163560500Y-71021456D01*
X163522052Y-70828170D01*
X163522051Y-70828166D01*
X163522051Y-70828165D01*
X163472064Y-70707485D01*
X163446635Y-70646092D01*
X163446628Y-70646079D01*
X163337139Y-70482218D01*
X163337136Y-70482214D01*
X163197785Y-70342863D01*
X163197781Y-70342860D01*
X163033916Y-70233369D01*
X163033907Y-70233364D01*
X162851839Y-70157950D01*
X162851829Y-70157947D01*
X162658543Y-70119500D01*
X162658541Y-70119500D01*
X162461459Y-70119500D01*
X162461457Y-70119500D01*
X162268170Y-70157947D01*
X162268160Y-70157950D01*
X162086092Y-70233364D01*
X162086084Y-70233369D01*
X161922218Y-70342860D01*
X161922214Y-70342863D01*
X161782863Y-70482214D01*
X161782860Y-70482218D01*
X161673371Y-70646079D01*
X161673364Y-70646092D01*
X161597950Y-70828160D01*
X161597947Y-70828170D01*
X161559500Y-71021456D01*
X161559500Y-71021459D01*
X161559500Y-71218541D01*
X161559500Y-71218543D01*
X161559499Y-71218543D01*
X161020500Y-71218543D01*
X161020500Y-71021456D01*
X160982052Y-70828170D01*
X160982051Y-70828166D01*
X160982051Y-70828165D01*
X160932064Y-70707485D01*
X160906635Y-70646092D01*
X160906628Y-70646079D01*
X160797139Y-70482218D01*
X160797136Y-70482214D01*
X160657785Y-70342863D01*
X160657781Y-70342860D01*
X160493916Y-70233369D01*
X160493907Y-70233364D01*
X160311839Y-70157950D01*
X160311829Y-70157947D01*
X160118543Y-70119500D01*
X160118541Y-70119500D01*
X159921459Y-70119500D01*
X159921457Y-70119500D01*
X159728170Y-70157947D01*
X159728160Y-70157950D01*
X159546092Y-70233364D01*
X159546084Y-70233369D01*
X159382218Y-70342860D01*
X159382214Y-70342863D01*
X159242863Y-70482214D01*
X159242860Y-70482218D01*
X159133371Y-70646079D01*
X159133364Y-70646092D01*
X159057950Y-70828160D01*
X159057947Y-70828170D01*
X159019500Y-71021456D01*
X159019500Y-71021459D01*
X159019500Y-71218541D01*
X159019500Y-71218543D01*
X159019499Y-71218543D01*
X158480500Y-71218543D01*
X158480500Y-71021456D01*
X158442052Y-70828170D01*
X158442051Y-70828166D01*
X158442051Y-70828165D01*
X158392064Y-70707485D01*
X158366635Y-70646092D01*
X158366628Y-70646079D01*
X158257139Y-70482218D01*
X158257136Y-70482214D01*
X158117785Y-70342863D01*
X158117781Y-70342860D01*
X157953916Y-70233369D01*
X157953907Y-70233364D01*
X157771839Y-70157950D01*
X157771829Y-70157947D01*
X157578543Y-70119500D01*
X157578541Y-70119500D01*
X157381459Y-70119500D01*
X157381457Y-70119500D01*
X157188170Y-70157947D01*
X157188160Y-70157950D01*
X157006092Y-70233364D01*
X157006084Y-70233369D01*
X156842218Y-70342860D01*
X156842214Y-70342863D01*
X156702863Y-70482214D01*
X156702860Y-70482218D01*
X156593371Y-70646079D01*
X156593364Y-70646092D01*
X156517950Y-70828160D01*
X156517947Y-70828170D01*
X156479500Y-71021456D01*
X156479500Y-71021459D01*
X156479500Y-71218541D01*
X156479500Y-71218543D01*
X156479499Y-71218543D01*
X155940500Y-71218543D01*
X155940500Y-71021456D01*
X155902052Y-70828170D01*
X155902051Y-70828166D01*
X155902051Y-70828165D01*
X155852064Y-70707485D01*
X155826635Y-70646092D01*
X155826628Y-70646079D01*
X155717139Y-70482218D01*
X155717136Y-70482214D01*
X155577785Y-70342863D01*
X155577781Y-70342860D01*
X155413916Y-70233369D01*
X155413907Y-70233364D01*
X155231839Y-70157950D01*
X155231829Y-70157947D01*
X155038543Y-70119500D01*
X155038541Y-70119500D01*
X154841459Y-70119500D01*
X154841457Y-70119500D01*
X154648171Y-70157947D01*
X154648163Y-70157949D01*
X154601297Y-70177362D01*
X154531827Y-70184831D01*
X154469348Y-70153555D01*
X154466164Y-70150482D01*
X151435213Y-67119531D01*
X151435208Y-67119527D01*
X151355290Y-67073387D01*
X151355289Y-67073386D01*
X151355288Y-67073386D01*
X151266144Y-67049500D01*
X138453856Y-67049500D01*
X138364712Y-67073386D01*
X138364709Y-67073387D01*
X138284791Y-67119527D01*
X138284786Y-67119531D01*
X136469531Y-68934786D01*
X136469529Y-68934789D01*
X136439068Y-68987549D01*
X136439067Y-68987552D01*
X136432169Y-68999500D01*
X136423386Y-69014712D01*
X136399500Y-69103856D01*
X130160500Y-69103856D01*
X130160500Y-56014108D01*
X130126392Y-55886814D01*
X130060500Y-55772686D01*
X129967314Y-55679500D01*
X129910250Y-55646554D01*
X129853187Y-55613608D01*
X129789539Y-55596554D01*
X129725892Y-55579500D01*
X58605892Y-55579500D01*
X58474108Y-55579500D01*
X58346812Y-55613608D01*
X58232686Y-55679500D01*
X58232683Y-55679502D01*
X58139502Y-55772683D01*
X58139500Y-55772686D01*
X58073608Y-55886812D01*
X58039500Y-56014108D01*
X57500500Y-56014108D01*
X57500500Y-54641519D01*
X57509144Y-54612078D01*
X57515668Y-54582092D01*
X57519422Y-54577076D01*
X57520185Y-54574480D01*
X57536819Y-54553838D01*
X57653838Y-54436819D01*
X57715161Y-54403334D01*
X57741519Y-54400500D01*
X138858481Y-54400500D01*
X138925520Y-54420185D01*
X138946162Y-54436819D01*
X138963181Y-54453838D01*
X138996666Y-54515161D01*
X138999500Y-54541519D01*
X138999500Y-55114216D01*
X138979815Y-55181255D01*
X138963181Y-55201897D01*
X138922863Y-55242214D01*
X138922860Y-55242218D01*
X138813371Y-55406079D01*
X138813364Y-55406092D01*
X138737950Y-55588160D01*
X138737947Y-55588170D01*
X138699500Y-55781456D01*
X138699500Y-55781459D01*
X138699500Y-55978541D01*
X138699500Y-55978543D01*
X138699499Y-55978543D01*
X138737947Y-56171829D01*
X138737950Y-56171839D01*
X138813364Y-56353907D01*
X138813371Y-56353920D01*
X138922860Y-56517781D01*
X138922863Y-56517785D01*
X139062214Y-56657136D01*
X139062218Y-56657139D01*
X139226079Y-56766628D01*
X139226092Y-56766635D01*
X139408160Y-56842049D01*
X139408165Y-56842051D01*
X139408169Y-56842051D01*
X139408170Y-56842052D01*
X139601456Y-56880500D01*
X139601459Y-56880500D01*
X139798543Y-56880500D01*
X139928582Y-56854632D01*
X139991835Y-56842051D01*
X140173914Y-56766632D01*
X140337782Y-56657139D01*
X140477139Y-56517782D01*
X140586632Y-56353914D01*
X140662051Y-56171835D01*
X140698034Y-55990937D01*
X140730419Y-55929027D01*
X140791134Y-55894453D01*
X140860904Y-55898192D01*
X140917576Y-55939059D01*
X140942124Y-55995731D01*
X140972009Y-56184417D01*
X141035244Y-56379031D01*
X141128140Y-56561349D01*
X141248417Y-56726894D01*
X141248417Y-56726895D01*
X141393104Y-56871582D01*
X141558650Y-56991859D01*
X141740968Y-57084754D01*
X141935578Y-57147988D01*
X141990000Y-57156607D01*
X141990000Y-56313012D01*
X142047007Y-56345925D01*
X142174174Y-56380000D01*
X142305826Y-56380000D01*
X142432993Y-56345925D01*
X142490000Y-56313012D01*
X142490000Y-57156606D01*
X142544421Y-57147988D01*
X142739031Y-57084754D01*
X142921349Y-56991859D01*
X143086894Y-56871582D01*
X143086895Y-56871582D01*
X143231582Y-56726895D01*
X143231582Y-56726894D01*
X143351859Y-56561349D01*
X143444755Y-56379031D01*
X143507990Y-56184417D01*
X143537875Y-55995731D01*
X143567804Y-55932596D01*
X143627116Y-55895665D01*
X143696978Y-55896663D01*
X143755211Y-55935273D01*
X143781965Y-55990937D01*
X143817947Y-56171829D01*
X143817950Y-56171839D01*
X143893364Y-56353907D01*
X143893371Y-56353920D01*
X144002860Y-56517781D01*
X144002863Y-56517785D01*
X144142214Y-56657136D01*
X144142218Y-56657139D01*
X144306079Y-56766628D01*
X144306092Y-56766635D01*
X144488160Y-56842049D01*
X144488165Y-56842051D01*
X144488169Y-56842051D01*
X144488170Y-56842052D01*
X144681456Y-56880500D01*
X144681459Y-56880500D01*
X144878543Y-56880500D01*
X145008582Y-56854632D01*
X145071835Y-56842051D01*
X145253914Y-56766632D01*
X145417782Y-56657139D01*
X145557139Y-56517782D01*
X145666632Y-56353914D01*
X145742051Y-56171835D01*
X145778034Y-55990938D01*
X145780500Y-55978543D01*
X146319499Y-55978543D01*
X146357947Y-56171829D01*
X146357950Y-56171839D01*
X146433364Y-56353907D01*
X146433371Y-56353920D01*
X146542860Y-56517781D01*
X146542863Y-56517785D01*
X146682214Y-56657136D01*
X146682218Y-56657139D01*
X146846079Y-56766628D01*
X146846092Y-56766635D01*
X147028160Y-56842049D01*
X147028165Y-56842051D01*
X147028169Y-56842051D01*
X147028170Y-56842052D01*
X147221456Y-56880500D01*
X147221459Y-56880500D01*
X147418543Y-56880500D01*
X147548582Y-56854632D01*
X147611835Y-56842051D01*
X147793914Y-56766632D01*
X147957782Y-56657139D01*
X148097139Y-56517782D01*
X148206632Y-56353914D01*
X148282051Y-56171835D01*
X148318034Y-55990938D01*
X148320500Y-55978543D01*
X148859499Y-55978543D01*
X148897947Y-56171829D01*
X148897950Y-56171839D01*
X148973364Y-56353907D01*
X148973371Y-56353920D01*
X149082860Y-56517781D01*
X149082863Y-56517785D01*
X149222214Y-56657136D01*
X149222218Y-56657139D01*
X149386079Y-56766628D01*
X149386092Y-56766635D01*
X149568160Y-56842049D01*
X149568165Y-56842051D01*
X149568169Y-56842051D01*
X149568170Y-56842052D01*
X149761456Y-56880500D01*
X149761459Y-56880500D01*
X149958543Y-56880500D01*
X150088582Y-56854632D01*
X150151835Y-56842051D01*
X150333914Y-56766632D01*
X150497782Y-56657139D01*
X150637139Y-56517782D01*
X150746632Y-56353914D01*
X150822051Y-56171835D01*
X150858034Y-55990938D01*
X150860500Y-55978543D01*
X151399499Y-55978543D01*
X151437947Y-56171829D01*
X151437950Y-56171839D01*
X151513364Y-56353907D01*
X151513371Y-56353920D01*
X151622860Y-56517781D01*
X151622863Y-56517785D01*
X151762214Y-56657136D01*
X151762218Y-56657139D01*
X151926079Y-56766628D01*
X151926092Y-56766635D01*
X152108160Y-56842049D01*
X152108165Y-56842051D01*
X152108169Y-56842051D01*
X152108170Y-56842052D01*
X152301456Y-56880500D01*
X152301459Y-56880500D01*
X152498543Y-56880500D01*
X152628582Y-56854632D01*
X152691835Y-56842051D01*
X152873914Y-56766632D01*
X153037782Y-56657139D01*
X153177139Y-56517782D01*
X153286632Y-56353914D01*
X153362051Y-56171835D01*
X153398034Y-55990938D01*
X153400500Y-55978543D01*
X153939499Y-55978543D01*
X153977947Y-56171829D01*
X153977950Y-56171839D01*
X154053364Y-56353907D01*
X154053371Y-56353920D01*
X154162860Y-56517781D01*
X154162863Y-56517785D01*
X154302214Y-56657136D01*
X154302218Y-56657139D01*
X154466079Y-56766628D01*
X154466092Y-56766635D01*
X154648160Y-56842049D01*
X154648165Y-56842051D01*
X154648169Y-56842051D01*
X154648170Y-56842052D01*
X154841456Y-56880500D01*
X154841459Y-56880500D01*
X155038543Y-56880500D01*
X155168582Y-56854632D01*
X155231835Y-56842051D01*
X155413914Y-56766632D01*
X155577782Y-56657139D01*
X155717139Y-56517782D01*
X155826632Y-56353914D01*
X155902051Y-56171835D01*
X155938034Y-55990938D01*
X155940500Y-55978543D01*
X156479499Y-55978543D01*
X156517947Y-56171829D01*
X156517950Y-56171839D01*
X156593364Y-56353907D01*
X156593371Y-56353920D01*
X156702860Y-56517781D01*
X156702863Y-56517785D01*
X156842214Y-56657136D01*
X156842218Y-56657139D01*
X157006079Y-56766628D01*
X157006092Y-56766635D01*
X157188160Y-56842049D01*
X157188165Y-56842051D01*
X157188169Y-56842051D01*
X157188170Y-56842052D01*
X157381456Y-56880500D01*
X157381459Y-56880500D01*
X157578543Y-56880500D01*
X157708582Y-56854632D01*
X157771835Y-56842051D01*
X157953914Y-56766632D01*
X158117782Y-56657139D01*
X158257139Y-56517782D01*
X158366632Y-56353914D01*
X158442051Y-56171835D01*
X158478034Y-55990938D01*
X158480500Y-55978543D01*
X159019499Y-55978543D01*
X159057947Y-56171829D01*
X159057950Y-56171839D01*
X159133364Y-56353907D01*
X159133371Y-56353920D01*
X159242860Y-56517781D01*
X159242863Y-56517785D01*
X159382214Y-56657136D01*
X159382218Y-56657139D01*
X159546079Y-56766628D01*
X159546092Y-56766635D01*
X159728160Y-56842049D01*
X159728165Y-56842051D01*
X159728169Y-56842051D01*
X159728170Y-56842052D01*
X159921456Y-56880500D01*
X159921459Y-56880500D01*
X160118543Y-56880500D01*
X160248582Y-56854632D01*
X160311835Y-56842051D01*
X160493914Y-56766632D01*
X160657782Y-56657139D01*
X160797139Y-56517782D01*
X160906632Y-56353914D01*
X160982051Y-56171835D01*
X161018034Y-55990938D01*
X161020500Y-55978543D01*
X161559499Y-55978543D01*
X161597947Y-56171829D01*
X161597950Y-56171839D01*
X161673364Y-56353907D01*
X161673371Y-56353920D01*
X161782860Y-56517781D01*
X161782863Y-56517785D01*
X161922214Y-56657136D01*
X161922218Y-56657139D01*
X162086079Y-56766628D01*
X162086092Y-56766635D01*
X162268160Y-56842049D01*
X162268165Y-56842051D01*
X162268169Y-56842051D01*
X162268170Y-56842052D01*
X162461456Y-56880500D01*
X162461459Y-56880500D01*
X162658543Y-56880500D01*
X162788582Y-56854632D01*
X162851835Y-56842051D01*
X163033914Y-56766632D01*
X163197782Y-56657139D01*
X163337139Y-56517782D01*
X163446632Y-56353914D01*
X163522051Y-56171835D01*
X163558034Y-55990938D01*
X163560500Y-55978543D01*
X164099499Y-55978543D01*
X164137947Y-56171829D01*
X164137950Y-56171839D01*
X164213364Y-56353907D01*
X164213371Y-56353920D01*
X164322860Y-56517781D01*
X164322863Y-56517785D01*
X164462214Y-56657136D01*
X164462218Y-56657139D01*
X164626079Y-56766628D01*
X164626092Y-56766635D01*
X164808160Y-56842049D01*
X164808165Y-56842051D01*
X164808169Y-56842051D01*
X164808170Y-56842052D01*
X165001456Y-56880500D01*
X165001459Y-56880500D01*
X165198543Y-56880500D01*
X165328582Y-56854632D01*
X165391835Y-56842051D01*
X165573914Y-56766632D01*
X165737782Y-56657139D01*
X165877139Y-56517782D01*
X165986632Y-56353914D01*
X166062051Y-56171835D01*
X166098034Y-55990938D01*
X166100500Y-55978543D01*
X166639499Y-55978543D01*
X166677947Y-56171829D01*
X166677950Y-56171839D01*
X166753364Y-56353907D01*
X166753371Y-56353920D01*
X166862860Y-56517781D01*
X166862863Y-56517785D01*
X167002214Y-56657136D01*
X167002218Y-56657139D01*
X167166079Y-56766628D01*
X167166092Y-56766635D01*
X167348160Y-56842049D01*
X167348165Y-56842051D01*
X167348169Y-56842051D01*
X167348170Y-56842052D01*
X167541456Y-56880500D01*
X167541459Y-56880500D01*
X167738543Y-56880500D01*
X167868582Y-56854632D01*
X167931835Y-56842051D01*
X168113914Y-56766632D01*
X168277782Y-56657139D01*
X168417139Y-56517782D01*
X168526632Y-56353914D01*
X168602051Y-56171835D01*
X168638034Y-55990938D01*
X168640500Y-55978543D01*
X169179499Y-55978543D01*
X169217947Y-56171829D01*
X169217950Y-56171839D01*
X169293364Y-56353907D01*
X169293371Y-56353920D01*
X169402860Y-56517781D01*
X169402863Y-56517785D01*
X169542214Y-56657136D01*
X169542218Y-56657139D01*
X169706079Y-56766628D01*
X169706092Y-56766635D01*
X169888160Y-56842049D01*
X169888165Y-56842051D01*
X169888169Y-56842051D01*
X169888170Y-56842052D01*
X170081456Y-56880500D01*
X170081459Y-56880500D01*
X170278543Y-56880500D01*
X170408582Y-56854632D01*
X170471835Y-56842051D01*
X170653914Y-56766632D01*
X170817782Y-56657139D01*
X170957139Y-56517782D01*
X171066632Y-56353914D01*
X171142051Y-56171835D01*
X171178034Y-55990938D01*
X171180500Y-55978543D01*
X171180500Y-55781456D01*
X171142052Y-55588170D01*
X171142051Y-55588169D01*
X171142051Y-55588165D01*
X171097207Y-55479901D01*
X171066635Y-55406092D01*
X171066628Y-55406079D01*
X170957139Y-55242218D01*
X170957136Y-55242214D01*
X170817785Y-55102863D01*
X170817781Y-55102860D01*
X170653920Y-54993371D01*
X170653907Y-54993364D01*
X170471839Y-54917950D01*
X170471829Y-54917947D01*
X170278543Y-54879500D01*
X170278541Y-54879500D01*
X170081459Y-54879500D01*
X170081457Y-54879500D01*
X169888170Y-54917947D01*
X169888160Y-54917950D01*
X169706092Y-54993364D01*
X169706079Y-54993371D01*
X169542218Y-55102860D01*
X169542214Y-55102863D01*
X169402863Y-55242214D01*
X169402860Y-55242218D01*
X169293371Y-55406079D01*
X169293364Y-55406092D01*
X169217950Y-55588160D01*
X169217947Y-55588170D01*
X169179500Y-55781456D01*
X169179500Y-55781459D01*
X169179500Y-55978541D01*
X169179500Y-55978543D01*
X169179499Y-55978543D01*
X168640500Y-55978543D01*
X168640500Y-55781456D01*
X168602052Y-55588170D01*
X168602051Y-55588169D01*
X168602051Y-55588165D01*
X168557207Y-55479901D01*
X168526635Y-55406092D01*
X168526628Y-55406079D01*
X168417139Y-55242218D01*
X168417136Y-55242214D01*
X168277785Y-55102863D01*
X168277781Y-55102860D01*
X168113920Y-54993371D01*
X168113907Y-54993364D01*
X167931839Y-54917950D01*
X167931829Y-54917947D01*
X167738543Y-54879500D01*
X167738541Y-54879500D01*
X167541459Y-54879500D01*
X167541457Y-54879500D01*
X167348170Y-54917947D01*
X167348160Y-54917950D01*
X167166092Y-54993364D01*
X167166079Y-54993371D01*
X167002218Y-55102860D01*
X167002214Y-55102863D01*
X166862863Y-55242214D01*
X166862860Y-55242218D01*
X166753371Y-55406079D01*
X166753364Y-55406092D01*
X166677950Y-55588160D01*
X166677947Y-55588170D01*
X166639500Y-55781456D01*
X166639500Y-55781459D01*
X166639500Y-55978541D01*
X166639500Y-55978543D01*
X166639499Y-55978543D01*
X166100500Y-55978543D01*
X166100500Y-55781456D01*
X166062052Y-55588170D01*
X166062051Y-55588169D01*
X166062051Y-55588165D01*
X166017207Y-55479901D01*
X165986635Y-55406092D01*
X165986628Y-55406079D01*
X165877139Y-55242218D01*
X165877136Y-55242214D01*
X165737785Y-55102863D01*
X165737781Y-55102860D01*
X165573920Y-54993371D01*
X165573907Y-54993364D01*
X165391839Y-54917950D01*
X165391829Y-54917947D01*
X165198543Y-54879500D01*
X165198541Y-54879500D01*
X165001459Y-54879500D01*
X165001457Y-54879500D01*
X164808170Y-54917947D01*
X164808160Y-54917950D01*
X164626092Y-54993364D01*
X164626079Y-54993371D01*
X164462218Y-55102860D01*
X164462214Y-55102863D01*
X164322863Y-55242214D01*
X164322860Y-55242218D01*
X164213371Y-55406079D01*
X164213364Y-55406092D01*
X164137950Y-55588160D01*
X164137947Y-55588170D01*
X164099500Y-55781456D01*
X164099500Y-55781459D01*
X164099500Y-55978541D01*
X164099500Y-55978543D01*
X164099499Y-55978543D01*
X163560500Y-55978543D01*
X163560500Y-55781456D01*
X163522052Y-55588170D01*
X163522051Y-55588169D01*
X163522051Y-55588165D01*
X163477207Y-55479901D01*
X163446635Y-55406092D01*
X163446628Y-55406079D01*
X163337139Y-55242218D01*
X163337136Y-55242214D01*
X163197785Y-55102863D01*
X163197781Y-55102860D01*
X163033920Y-54993371D01*
X163033907Y-54993364D01*
X162851839Y-54917950D01*
X162851829Y-54917947D01*
X162658543Y-54879500D01*
X162658541Y-54879500D01*
X162461459Y-54879500D01*
X162461457Y-54879500D01*
X162268170Y-54917947D01*
X162268160Y-54917950D01*
X162086092Y-54993364D01*
X162086079Y-54993371D01*
X161922218Y-55102860D01*
X161922214Y-55102863D01*
X161782863Y-55242214D01*
X161782860Y-55242218D01*
X161673371Y-55406079D01*
X161673364Y-55406092D01*
X161597950Y-55588160D01*
X161597947Y-55588170D01*
X161559500Y-55781456D01*
X161559500Y-55781459D01*
X161559500Y-55978541D01*
X161559500Y-55978543D01*
X161559499Y-55978543D01*
X161020500Y-55978543D01*
X161020500Y-55781456D01*
X160982052Y-55588170D01*
X160982051Y-55588169D01*
X160982051Y-55588165D01*
X160937207Y-55479901D01*
X160906635Y-55406092D01*
X160906628Y-55406079D01*
X160797139Y-55242218D01*
X160797136Y-55242214D01*
X160657785Y-55102863D01*
X160657781Y-55102860D01*
X160493920Y-54993371D01*
X160493907Y-54993364D01*
X160311839Y-54917950D01*
X160311829Y-54917947D01*
X160118543Y-54879500D01*
X160118541Y-54879500D01*
X159921459Y-54879500D01*
X159921457Y-54879500D01*
X159728170Y-54917947D01*
X159728160Y-54917950D01*
X159546092Y-54993364D01*
X159546079Y-54993371D01*
X159382218Y-55102860D01*
X159382214Y-55102863D01*
X159242863Y-55242214D01*
X159242860Y-55242218D01*
X159133371Y-55406079D01*
X159133364Y-55406092D01*
X159057950Y-55588160D01*
X159057947Y-55588170D01*
X159019500Y-55781456D01*
X159019500Y-55781459D01*
X159019500Y-55978541D01*
X159019500Y-55978543D01*
X159019499Y-55978543D01*
X158480500Y-55978543D01*
X158480500Y-55781456D01*
X158442052Y-55588170D01*
X158442051Y-55588169D01*
X158442051Y-55588165D01*
X158397207Y-55479901D01*
X158366635Y-55406092D01*
X158366628Y-55406079D01*
X158257139Y-55242218D01*
X158257136Y-55242214D01*
X158117785Y-55102863D01*
X158117781Y-55102860D01*
X157953920Y-54993371D01*
X157953907Y-54993364D01*
X157771839Y-54917950D01*
X157771829Y-54917947D01*
X157578543Y-54879500D01*
X157578541Y-54879500D01*
X157381459Y-54879500D01*
X157381457Y-54879500D01*
X157188170Y-54917947D01*
X157188160Y-54917950D01*
X157006092Y-54993364D01*
X157006079Y-54993371D01*
X156842218Y-55102860D01*
X156842214Y-55102863D01*
X156702863Y-55242214D01*
X156702860Y-55242218D01*
X156593371Y-55406079D01*
X156593364Y-55406092D01*
X156517950Y-55588160D01*
X156517947Y-55588170D01*
X156479500Y-55781456D01*
X156479500Y-55781459D01*
X156479500Y-55978541D01*
X156479500Y-55978543D01*
X156479499Y-55978543D01*
X155940500Y-55978543D01*
X155940500Y-55781456D01*
X155902052Y-55588170D01*
X155902051Y-55588169D01*
X155902051Y-55588165D01*
X155857207Y-55479901D01*
X155826635Y-55406092D01*
X155826628Y-55406079D01*
X155717139Y-55242218D01*
X155717136Y-55242214D01*
X155577785Y-55102863D01*
X155577781Y-55102860D01*
X155413920Y-54993371D01*
X155413907Y-54993364D01*
X155231839Y-54917950D01*
X155231829Y-54917947D01*
X155038543Y-54879500D01*
X155038541Y-54879500D01*
X154841459Y-54879500D01*
X154841457Y-54879500D01*
X154648170Y-54917947D01*
X154648160Y-54917950D01*
X154466092Y-54993364D01*
X154466079Y-54993371D01*
X154302218Y-55102860D01*
X154302214Y-55102863D01*
X154162863Y-55242214D01*
X154162860Y-55242218D01*
X154053371Y-55406079D01*
X154053364Y-55406092D01*
X153977950Y-55588160D01*
X153977947Y-55588170D01*
X153939500Y-55781456D01*
X153939500Y-55781459D01*
X153939500Y-55978541D01*
X153939500Y-55978543D01*
X153939499Y-55978543D01*
X153400500Y-55978543D01*
X153400500Y-55781456D01*
X153362052Y-55588170D01*
X153362051Y-55588169D01*
X153362051Y-55588165D01*
X153317207Y-55479901D01*
X153286635Y-55406092D01*
X153286628Y-55406079D01*
X153177139Y-55242218D01*
X153177136Y-55242214D01*
X153037785Y-55102863D01*
X153037781Y-55102860D01*
X152873920Y-54993371D01*
X152873907Y-54993364D01*
X152691839Y-54917950D01*
X152691829Y-54917947D01*
X152498543Y-54879500D01*
X152498541Y-54879500D01*
X152301459Y-54879500D01*
X152301457Y-54879500D01*
X152108170Y-54917947D01*
X152108160Y-54917950D01*
X151926092Y-54993364D01*
X151926079Y-54993371D01*
X151762218Y-55102860D01*
X151762214Y-55102863D01*
X151622863Y-55242214D01*
X151622860Y-55242218D01*
X151513371Y-55406079D01*
X151513364Y-55406092D01*
X151437950Y-55588160D01*
X151437947Y-55588170D01*
X151399500Y-55781456D01*
X151399500Y-55781459D01*
X151399500Y-55978541D01*
X151399500Y-55978543D01*
X151399499Y-55978543D01*
X150860500Y-55978543D01*
X150860500Y-55781456D01*
X150822052Y-55588170D01*
X150822051Y-55588169D01*
X150822051Y-55588165D01*
X150777207Y-55479901D01*
X150746635Y-55406092D01*
X150746628Y-55406079D01*
X150637139Y-55242218D01*
X150637136Y-55242214D01*
X150497785Y-55102863D01*
X150497781Y-55102860D01*
X150333920Y-54993371D01*
X150333907Y-54993364D01*
X150151839Y-54917950D01*
X150151829Y-54917947D01*
X149958543Y-54879500D01*
X149958541Y-54879500D01*
X149761459Y-54879500D01*
X149761457Y-54879500D01*
X149568170Y-54917947D01*
X149568160Y-54917950D01*
X149386092Y-54993364D01*
X149386079Y-54993371D01*
X149222218Y-55102860D01*
X149222214Y-55102863D01*
X149082863Y-55242214D01*
X149082860Y-55242218D01*
X148973371Y-55406079D01*
X148973364Y-55406092D01*
X148897950Y-55588160D01*
X148897947Y-55588170D01*
X148859500Y-55781456D01*
X148859500Y-55781459D01*
X148859500Y-55978541D01*
X148859500Y-55978543D01*
X148859499Y-55978543D01*
X148320500Y-55978543D01*
X148320500Y-55781456D01*
X148282052Y-55588170D01*
X148282051Y-55588169D01*
X148282051Y-55588165D01*
X148237207Y-55479901D01*
X148206635Y-55406092D01*
X148206628Y-55406079D01*
X148097139Y-55242218D01*
X148097136Y-55242214D01*
X147957785Y-55102863D01*
X147957781Y-55102860D01*
X147793920Y-54993371D01*
X147793907Y-54993364D01*
X147611839Y-54917950D01*
X147611829Y-54917947D01*
X147418543Y-54879500D01*
X147418541Y-54879500D01*
X147221459Y-54879500D01*
X147221457Y-54879500D01*
X147028170Y-54917947D01*
X147028160Y-54917950D01*
X146846092Y-54993364D01*
X146846079Y-54993371D01*
X146682218Y-55102860D01*
X146682214Y-55102863D01*
X146542863Y-55242214D01*
X146542860Y-55242218D01*
X146433371Y-55406079D01*
X146433364Y-55406092D01*
X146357950Y-55588160D01*
X146357947Y-55588170D01*
X146319500Y-55781456D01*
X146319500Y-55781459D01*
X146319500Y-55978541D01*
X146319500Y-55978543D01*
X146319499Y-55978543D01*
X145780500Y-55978543D01*
X145780500Y-55781456D01*
X145742052Y-55588170D01*
X145742051Y-55588169D01*
X145742051Y-55588165D01*
X145697207Y-55479901D01*
X145666635Y-55406092D01*
X145666628Y-55406079D01*
X145557139Y-55242218D01*
X145557136Y-55242214D01*
X145417785Y-55102863D01*
X145417781Y-55102860D01*
X145253920Y-54993371D01*
X145253907Y-54993364D01*
X145071839Y-54917950D01*
X145071829Y-54917947D01*
X144878543Y-54879500D01*
X144878541Y-54879500D01*
X144681459Y-54879500D01*
X144681457Y-54879500D01*
X144488170Y-54917947D01*
X144488160Y-54917950D01*
X144306092Y-54993364D01*
X144306079Y-54993371D01*
X144142218Y-55102860D01*
X144142214Y-55102863D01*
X144002863Y-55242214D01*
X144002860Y-55242218D01*
X143893371Y-55406079D01*
X143893364Y-55406092D01*
X143817950Y-55588160D01*
X143817947Y-55588170D01*
X143781965Y-55769062D01*
X143749580Y-55830973D01*
X143688864Y-55865547D01*
X143619094Y-55861806D01*
X143562423Y-55820940D01*
X143537875Y-55764268D01*
X143507990Y-55575582D01*
X143444755Y-55380968D01*
X143351859Y-55198650D01*
X143231582Y-55033105D01*
X143231582Y-55033104D01*
X143086895Y-54888417D01*
X142921349Y-54768140D01*
X142739029Y-54675244D01*
X142544413Y-54612009D01*
X142490000Y-54603390D01*
X142490000Y-55446988D01*
X142432993Y-55414075D01*
X142305826Y-55380000D01*
X142174174Y-55380000D01*
X142047007Y-55414075D01*
X141990000Y-55446988D01*
X141990000Y-54603390D01*
X141935586Y-54612009D01*
X141740970Y-54675244D01*
X141558650Y-54768140D01*
X141393105Y-54888417D01*
X141393104Y-54888417D01*
X141248417Y-55033104D01*
X141248417Y-55033105D01*
X141128140Y-55198650D01*
X141035244Y-55380968D01*
X140972010Y-55575581D01*
X140942124Y-55764269D01*
X140912194Y-55827403D01*
X140852883Y-55864334D01*
X140783020Y-55863336D01*
X140724788Y-55824726D01*
X140698034Y-55769061D01*
X140662052Y-55588172D01*
X140662052Y-55588170D01*
X140662051Y-55588165D01*
X140617207Y-55479901D01*
X140586635Y-55406092D01*
X140586628Y-55406079D01*
X140477139Y-55242218D01*
X140477136Y-55242214D01*
X140436819Y-55201897D01*
X140403334Y-55140574D01*
X140400500Y-55114216D01*
X140400500Y-54131006D01*
X140393471Y-54095673D01*
X140393471Y-54095670D01*
X140373581Y-53995679D01*
X140373580Y-53995672D01*
X140346292Y-53929792D01*
X140320777Y-53868192D01*
X140244112Y-53753454D01*
X139646545Y-53155887D01*
X139531807Y-53079222D01*
X139404332Y-53026421D01*
X139404322Y-53026418D01*
X139268996Y-52999500D01*
X139268994Y-52999500D01*
X139268993Y-52999500D01*
X57331007Y-52999500D01*
X57331003Y-52999500D01*
X57222590Y-53021065D01*
X57222589Y-53021065D01*
X57195681Y-53026418D01*
X57195671Y-53026420D01*
X57068190Y-53079224D01*
X56953454Y-53155887D01*
X56255890Y-53853451D01*
X56255884Y-53853458D01*
X56221895Y-53904328D01*
X56221895Y-53904329D01*
X56204885Y-53929786D01*
X56179225Y-53968188D01*
X56179221Y-53968195D01*
X56126421Y-54095667D01*
X56126418Y-54095677D01*
X56099500Y-54231004D01*
X56099500Y-69758481D01*
X56079815Y-69825520D01*
X56063181Y-69846162D01*
X53159569Y-72749773D01*
X53098246Y-72783258D01*
X53028554Y-72778274D01*
X52972621Y-72736402D01*
X52955707Y-72705426D01*
X52945410Y-72677819D01*
X52861616Y-72565884D01*
X52749681Y-72482090D01*
X52749680Y-72482089D01*
X52749678Y-72482088D01*
X52618676Y-72433228D01*
X52618675Y-72433227D01*
X52618673Y-72433227D01*
X52560755Y-72427000D01*
X52560745Y-72427000D01*
X49039247Y-72427000D01*
X49039241Y-72427001D01*
X48981326Y-72433226D01*
X48850321Y-72482088D01*
X48850319Y-72482089D01*
X48784975Y-72531006D01*
X48738384Y-72565884D01*
X48738383Y-72565885D01*
X48738382Y-72565886D01*
X48671766Y-72654873D01*
X48615832Y-72696744D01*
X48546141Y-72701728D01*
X48484818Y-72668242D01*
X48451334Y-72606919D01*
X48448500Y-72580562D01*
X48448500Y-69998688D01*
X48468185Y-69931649D01*
X48520989Y-69885894D01*
X48590147Y-69875950D01*
X48638473Y-69893695D01*
X48742667Y-69959165D01*
X48909803Y-70017648D01*
X49041615Y-70032499D01*
X49041619Y-70032500D01*
X49087500Y-70032500D01*
X49087500Y-70032499D01*
X49701051Y-70032499D01*
X49701052Y-70032500D01*
X51898948Y-70032500D01*
X51898948Y-70032499D01*
X50800000Y-68933552D01*
X49701051Y-70032499D01*
X49087500Y-70032499D01*
X49095510Y-70013161D01*
X49094920Y-70012081D01*
X49099904Y-69942389D01*
X49128405Y-69898042D01*
X50446447Y-68579999D01*
X51153552Y-68579999D01*
X51153552Y-68580000D01*
X52471594Y-69898042D01*
X52505079Y-69959365D01*
X52501711Y-70006453D01*
X52512500Y-70032500D01*
X52558381Y-70032500D01*
X52558384Y-70032499D01*
X52690196Y-70017648D01*
X52857330Y-69959166D01*
X53007257Y-69864960D01*
X53132460Y-69739757D01*
X53226666Y-69589830D01*
X53285148Y-69422696D01*
X53299999Y-69290884D01*
X53300000Y-69290880D01*
X53300000Y-67869119D01*
X53299999Y-67869115D01*
X53285148Y-67737303D01*
X53226666Y-67570169D01*
X53132460Y-67420242D01*
X53007257Y-67295039D01*
X52857330Y-67200833D01*
X52690196Y-67142351D01*
X52558384Y-67127500D01*
X52512500Y-67127500D01*
X52504489Y-67146838D01*
X52505079Y-67147918D01*
X52500095Y-67217610D01*
X52471594Y-67261957D01*
X51153552Y-68579999D01*
X50446447Y-68579999D01*
X49128405Y-67261957D01*
X49124066Y-67254011D01*
X49116817Y-67248584D01*
X49107583Y-67223824D01*
X49094920Y-67200634D01*
X49095565Y-67191602D01*
X49092402Y-67183119D01*
X49098019Y-67157299D01*
X49098287Y-67153544D01*
X49087500Y-67127500D01*
X49701051Y-67127500D01*
X50800000Y-68226448D01*
X51898948Y-67127500D01*
X49701051Y-67127500D01*
X49087500Y-67127500D01*
X49041615Y-67127500D01*
X48909803Y-67142351D01*
X48742669Y-67200833D01*
X48638472Y-67266305D01*
X48571235Y-67285305D01*
X48504400Y-67264937D01*
X48459186Y-67211669D01*
X48448500Y-67161311D01*
X48448500Y-52943713D01*
X49549500Y-52943713D01*
X49549500Y-53156286D01*
X49582753Y-53366239D01*
X49648444Y-53568414D01*
X49744951Y-53757820D01*
X49869890Y-53929786D01*
X50020213Y-54080109D01*
X50192179Y-54205048D01*
X50192181Y-54205049D01*
X50192184Y-54205051D01*
X50381588Y-54301557D01*
X50583757Y-54367246D01*
X50793713Y-54400500D01*
X50793714Y-54400500D01*
X51006286Y-54400500D01*
X51006287Y-54400500D01*
X51216243Y-54367246D01*
X51418412Y-54301557D01*
X51607816Y-54205051D01*
X51709731Y-54131006D01*
X51779786Y-54080109D01*
X51779788Y-54080106D01*
X51779792Y-54080104D01*
X51930104Y-53929792D01*
X51930106Y-53929788D01*
X51930109Y-53929786D01*
X52055048Y-53757820D01*
X52055047Y-53757820D01*
X52055051Y-53757816D01*
X52151557Y-53568412D01*
X52217246Y-53366243D01*
X52250500Y-53156287D01*
X52250500Y-52943713D01*
X52217246Y-52733757D01*
X52151557Y-52531588D01*
X52055051Y-52342184D01*
X52055049Y-52342181D01*
X52055048Y-52342179D01*
X51930109Y-52170213D01*
X51779786Y-52019890D01*
X51607820Y-51894951D01*
X51418414Y-51798444D01*
X51418413Y-51798443D01*
X51418412Y-51798443D01*
X51216243Y-51732754D01*
X51216241Y-51732753D01*
X51216240Y-51732753D01*
X51054957Y-51707208D01*
X51006287Y-51699500D01*
X50793713Y-51699500D01*
X50745042Y-51707208D01*
X50583760Y-51732753D01*
X50381585Y-51798444D01*
X50192179Y-51894951D01*
X50020213Y-52019890D01*
X49869890Y-52170213D01*
X49744951Y-52342179D01*
X49648444Y-52531585D01*
X49582753Y-52733760D01*
X49549500Y-52943713D01*
X48448500Y-52943713D01*
X48448500Y-52089427D01*
X48448816Y-52080581D01*
X48459318Y-51933748D01*
X48463131Y-51880434D01*
X48465646Y-51862938D01*
X48507356Y-51671199D01*
X48512333Y-51654248D01*
X48580911Y-51470385D01*
X48588259Y-51454298D01*
X48650815Y-51339734D01*
X48682291Y-51282089D01*
X48691845Y-51267221D01*
X48809448Y-51110123D01*
X48821020Y-51096769D01*
X48959769Y-50958020D01*
X48973123Y-50946448D01*
X49130221Y-50828845D01*
X49145089Y-50819291D01*
X49317298Y-50725258D01*
X49333385Y-50717911D01*
X49517248Y-50649333D01*
X49534199Y-50644356D01*
X49725938Y-50602646D01*
X49743436Y-50600130D01*
X49943582Y-50585816D01*
X49952428Y-50585500D01*
X50013892Y-50585500D01*
X180904108Y-50585500D01*
X180965572Y-50585500D01*
X180974418Y-50585816D01*
G37*
%TD.AperFunction*%
%TD*%
M02*
