%TF.GenerationSoftware,KiCad,Pcbnew,9.0.0*%
%TF.CreationDate,2025-10-26T20:42:14-07:00*%
%TF.ProjectId,Control_Dock,436f6e74-726f-46c5-9f44-6f636b2e6b69,1.0*%
%TF.SameCoordinates,Original*%
%TF.FileFunction,Legend,Top*%
%TF.FilePolarity,Positive*%
%FSLAX46Y46*%
G04 Gerber Fmt 4.6, Leading zero omitted, Abs format (unit mm)*
G04 Created by KiCad (PCBNEW 9.0.0) date 2025-10-26 20:42:14*
%MOMM*%
%LPD*%
G01*
G04 APERTURE LIST*
%ADD10C,0.100000*%
%ADD11C,0.150000*%
%ADD12C,0.120000*%
G04 APERTURE END LIST*
D10*
X130677580Y-76853884D02*
X131677580Y-76853884D01*
X131677580Y-76853884D02*
X131677580Y-77091979D01*
X131677580Y-77091979D02*
X131629961Y-77234836D01*
X131629961Y-77234836D02*
X131534723Y-77330074D01*
X131534723Y-77330074D02*
X131439485Y-77377693D01*
X131439485Y-77377693D02*
X131249009Y-77425312D01*
X131249009Y-77425312D02*
X131106152Y-77425312D01*
X131106152Y-77425312D02*
X130915676Y-77377693D01*
X130915676Y-77377693D02*
X130820438Y-77330074D01*
X130820438Y-77330074D02*
X130725200Y-77234836D01*
X130725200Y-77234836D02*
X130677580Y-77091979D01*
X130677580Y-77091979D02*
X130677580Y-76853884D01*
X130725200Y-78234836D02*
X130677580Y-78139598D01*
X130677580Y-78139598D02*
X130677580Y-77949122D01*
X130677580Y-77949122D02*
X130725200Y-77853884D01*
X130725200Y-77853884D02*
X130820438Y-77806265D01*
X130820438Y-77806265D02*
X131201390Y-77806265D01*
X131201390Y-77806265D02*
X131296628Y-77853884D01*
X131296628Y-77853884D02*
X131344247Y-77949122D01*
X131344247Y-77949122D02*
X131344247Y-78139598D01*
X131344247Y-78139598D02*
X131296628Y-78234836D01*
X131296628Y-78234836D02*
X131201390Y-78282455D01*
X131201390Y-78282455D02*
X131106152Y-78282455D01*
X131106152Y-78282455D02*
X131010914Y-77806265D01*
X130677580Y-79139598D02*
X131677580Y-79139598D01*
X130725200Y-79139598D02*
X130677580Y-79044360D01*
X130677580Y-79044360D02*
X130677580Y-78853884D01*
X130677580Y-78853884D02*
X130725200Y-78758646D01*
X130725200Y-78758646D02*
X130772819Y-78711027D01*
X130772819Y-78711027D02*
X130868057Y-78663408D01*
X130868057Y-78663408D02*
X131153771Y-78663408D01*
X131153771Y-78663408D02*
X131249009Y-78711027D01*
X131249009Y-78711027D02*
X131296628Y-78758646D01*
X131296628Y-78758646D02*
X131344247Y-78853884D01*
X131344247Y-78853884D02*
X131344247Y-79044360D01*
X131344247Y-79044360D02*
X131296628Y-79139598D01*
X130677580Y-79615789D02*
X131344247Y-79615789D01*
X131677580Y-79615789D02*
X131629961Y-79568170D01*
X131629961Y-79568170D02*
X131582342Y-79615789D01*
X131582342Y-79615789D02*
X131629961Y-79663408D01*
X131629961Y-79663408D02*
X131677580Y-79615789D01*
X131677580Y-79615789D02*
X131582342Y-79615789D01*
X130725200Y-80520550D02*
X130677580Y-80425312D01*
X130677580Y-80425312D02*
X130677580Y-80234836D01*
X130677580Y-80234836D02*
X130725200Y-80139598D01*
X130725200Y-80139598D02*
X130772819Y-80091979D01*
X130772819Y-80091979D02*
X130868057Y-80044360D01*
X130868057Y-80044360D02*
X131153771Y-80044360D01*
X131153771Y-80044360D02*
X131249009Y-80091979D01*
X131249009Y-80091979D02*
X131296628Y-80139598D01*
X131296628Y-80139598D02*
X131344247Y-80234836D01*
X131344247Y-80234836D02*
X131344247Y-80425312D01*
X131344247Y-80425312D02*
X131296628Y-80520550D01*
X130677580Y-81377693D02*
X131201390Y-81377693D01*
X131201390Y-81377693D02*
X131296628Y-81330074D01*
X131296628Y-81330074D02*
X131344247Y-81234836D01*
X131344247Y-81234836D02*
X131344247Y-81044360D01*
X131344247Y-81044360D02*
X131296628Y-80949122D01*
X130725200Y-81377693D02*
X130677580Y-81282455D01*
X130677580Y-81282455D02*
X130677580Y-81044360D01*
X130677580Y-81044360D02*
X130725200Y-80949122D01*
X130725200Y-80949122D02*
X130820438Y-80901503D01*
X130820438Y-80901503D02*
X130915676Y-80901503D01*
X130915676Y-80901503D02*
X131010914Y-80949122D01*
X131010914Y-80949122D02*
X131058533Y-81044360D01*
X131058533Y-81044360D02*
X131058533Y-81282455D01*
X131058533Y-81282455D02*
X131106152Y-81377693D01*
X131344247Y-81711027D02*
X131344247Y-82091979D01*
X131677580Y-81853884D02*
X130820438Y-81853884D01*
X130820438Y-81853884D02*
X130725200Y-81901503D01*
X130725200Y-81901503D02*
X130677580Y-81996741D01*
X130677580Y-81996741D02*
X130677580Y-82091979D01*
X130725200Y-82806265D02*
X130677580Y-82711027D01*
X130677580Y-82711027D02*
X130677580Y-82520551D01*
X130677580Y-82520551D02*
X130725200Y-82425313D01*
X130725200Y-82425313D02*
X130820438Y-82377694D01*
X130820438Y-82377694D02*
X131201390Y-82377694D01*
X131201390Y-82377694D02*
X131296628Y-82425313D01*
X131296628Y-82425313D02*
X131344247Y-82520551D01*
X131344247Y-82520551D02*
X131344247Y-82711027D01*
X131344247Y-82711027D02*
X131296628Y-82806265D01*
X131296628Y-82806265D02*
X131201390Y-82853884D01*
X131201390Y-82853884D02*
X131106152Y-82853884D01*
X131106152Y-82853884D02*
X131010914Y-82377694D01*
X130677580Y-83711027D02*
X131677580Y-83711027D01*
X130725200Y-83711027D02*
X130677580Y-83615789D01*
X130677580Y-83615789D02*
X130677580Y-83425313D01*
X130677580Y-83425313D02*
X130725200Y-83330075D01*
X130725200Y-83330075D02*
X130772819Y-83282456D01*
X130772819Y-83282456D02*
X130868057Y-83234837D01*
X130868057Y-83234837D02*
X131153771Y-83234837D01*
X131153771Y-83234837D02*
X131249009Y-83282456D01*
X131249009Y-83282456D02*
X131296628Y-83330075D01*
X131296628Y-83330075D02*
X131344247Y-83425313D01*
X131344247Y-83425313D02*
X131344247Y-83615789D01*
X131344247Y-83615789D02*
X131296628Y-83711027D01*
X131344247Y-84806266D02*
X131344247Y-85187218D01*
X131677580Y-84949123D02*
X130820438Y-84949123D01*
X130820438Y-84949123D02*
X130725200Y-84996742D01*
X130725200Y-84996742D02*
X130677580Y-85091980D01*
X130677580Y-85091980D02*
X130677580Y-85187218D01*
X130677580Y-85663409D02*
X130725200Y-85568171D01*
X130725200Y-85568171D02*
X130772819Y-85520552D01*
X130772819Y-85520552D02*
X130868057Y-85472933D01*
X130868057Y-85472933D02*
X131153771Y-85472933D01*
X131153771Y-85472933D02*
X131249009Y-85520552D01*
X131249009Y-85520552D02*
X131296628Y-85568171D01*
X131296628Y-85568171D02*
X131344247Y-85663409D01*
X131344247Y-85663409D02*
X131344247Y-85806266D01*
X131344247Y-85806266D02*
X131296628Y-85901504D01*
X131296628Y-85901504D02*
X131249009Y-85949123D01*
X131249009Y-85949123D02*
X131153771Y-85996742D01*
X131153771Y-85996742D02*
X130868057Y-85996742D01*
X130868057Y-85996742D02*
X130772819Y-85949123D01*
X130772819Y-85949123D02*
X130725200Y-85901504D01*
X130725200Y-85901504D02*
X130677580Y-85806266D01*
X130677580Y-85806266D02*
X130677580Y-85663409D01*
X130677580Y-87187219D02*
X131677580Y-87187219D01*
X131201390Y-87187219D02*
X131201390Y-87758647D01*
X130677580Y-87758647D02*
X131677580Y-87758647D01*
X130677580Y-88663409D02*
X131201390Y-88663409D01*
X131201390Y-88663409D02*
X131296628Y-88615790D01*
X131296628Y-88615790D02*
X131344247Y-88520552D01*
X131344247Y-88520552D02*
X131344247Y-88330076D01*
X131344247Y-88330076D02*
X131296628Y-88234838D01*
X130725200Y-88663409D02*
X130677580Y-88568171D01*
X130677580Y-88568171D02*
X130677580Y-88330076D01*
X130677580Y-88330076D02*
X130725200Y-88234838D01*
X130725200Y-88234838D02*
X130820438Y-88187219D01*
X130820438Y-88187219D02*
X130915676Y-88187219D01*
X130915676Y-88187219D02*
X131010914Y-88234838D01*
X131010914Y-88234838D02*
X131058533Y-88330076D01*
X131058533Y-88330076D02*
X131058533Y-88568171D01*
X131058533Y-88568171D02*
X131106152Y-88663409D01*
X130677580Y-89568171D02*
X131677580Y-89568171D01*
X130725200Y-89568171D02*
X130677580Y-89472933D01*
X130677580Y-89472933D02*
X130677580Y-89282457D01*
X130677580Y-89282457D02*
X130725200Y-89187219D01*
X130725200Y-89187219D02*
X130772819Y-89139600D01*
X130772819Y-89139600D02*
X130868057Y-89091981D01*
X130868057Y-89091981D02*
X131153771Y-89091981D01*
X131153771Y-89091981D02*
X131249009Y-89139600D01*
X131249009Y-89139600D02*
X131296628Y-89187219D01*
X131296628Y-89187219D02*
X131344247Y-89282457D01*
X131344247Y-89282457D02*
X131344247Y-89472933D01*
X131344247Y-89472933D02*
X131296628Y-89568171D01*
X131344247Y-89949124D02*
X130677580Y-90139600D01*
X130677580Y-90139600D02*
X131153771Y-90330076D01*
X131153771Y-90330076D02*
X130677580Y-90520552D01*
X130677580Y-90520552D02*
X131344247Y-90711028D01*
X130677580Y-91520552D02*
X131201390Y-91520552D01*
X131201390Y-91520552D02*
X131296628Y-91472933D01*
X131296628Y-91472933D02*
X131344247Y-91377695D01*
X131344247Y-91377695D02*
X131344247Y-91187219D01*
X131344247Y-91187219D02*
X131296628Y-91091981D01*
X130725200Y-91520552D02*
X130677580Y-91425314D01*
X130677580Y-91425314D02*
X130677580Y-91187219D01*
X130677580Y-91187219D02*
X130725200Y-91091981D01*
X130725200Y-91091981D02*
X130820438Y-91044362D01*
X130820438Y-91044362D02*
X130915676Y-91044362D01*
X130915676Y-91044362D02*
X131010914Y-91091981D01*
X131010914Y-91091981D02*
X131058533Y-91187219D01*
X131058533Y-91187219D02*
X131058533Y-91425314D01*
X131058533Y-91425314D02*
X131106152Y-91520552D01*
X131344247Y-93520553D02*
X131058533Y-92758648D01*
X131058533Y-92758648D02*
X130772819Y-93520553D01*
X131677580Y-93901505D02*
X131677580Y-94520552D01*
X131677580Y-94520552D02*
X131296628Y-94187219D01*
X131296628Y-94187219D02*
X131296628Y-94330076D01*
X131296628Y-94330076D02*
X131249009Y-94425314D01*
X131249009Y-94425314D02*
X131201390Y-94472933D01*
X131201390Y-94472933D02*
X131106152Y-94520552D01*
X131106152Y-94520552D02*
X130868057Y-94520552D01*
X130868057Y-94520552D02*
X130772819Y-94472933D01*
X130772819Y-94472933D02*
X130725200Y-94425314D01*
X130725200Y-94425314D02*
X130677580Y-94330076D01*
X130677580Y-94330076D02*
X130677580Y-94044362D01*
X130677580Y-94044362D02*
X130725200Y-93949124D01*
X130725200Y-93949124D02*
X130772819Y-93901505D01*
X130725200Y-94996743D02*
X130677580Y-94996743D01*
X130677580Y-94996743D02*
X130582342Y-94949124D01*
X130582342Y-94949124D02*
X130534723Y-94901505D01*
X130677580Y-96187219D02*
X131344247Y-96187219D01*
X131249009Y-96187219D02*
X131296628Y-96234838D01*
X131296628Y-96234838D02*
X131344247Y-96330076D01*
X131344247Y-96330076D02*
X131344247Y-96472933D01*
X131344247Y-96472933D02*
X131296628Y-96568171D01*
X131296628Y-96568171D02*
X131201390Y-96615790D01*
X131201390Y-96615790D02*
X130677580Y-96615790D01*
X131201390Y-96615790D02*
X131296628Y-96663409D01*
X131296628Y-96663409D02*
X131344247Y-96758647D01*
X131344247Y-96758647D02*
X131344247Y-96901504D01*
X131344247Y-96901504D02*
X131296628Y-96996743D01*
X131296628Y-96996743D02*
X131201390Y-97044362D01*
X131201390Y-97044362D02*
X130677580Y-97044362D01*
X131344247Y-97425314D02*
X130677580Y-97663409D01*
X131344247Y-97901504D02*
X130677580Y-97663409D01*
X130677580Y-97663409D02*
X130439485Y-97568171D01*
X130439485Y-97568171D02*
X130391866Y-97520552D01*
X130391866Y-97520552D02*
X130344247Y-97425314D01*
X130677580Y-99044362D02*
X131677580Y-99044362D01*
X131296628Y-99044362D02*
X131344247Y-99139600D01*
X131344247Y-99139600D02*
X131344247Y-99330076D01*
X131344247Y-99330076D02*
X131296628Y-99425314D01*
X131296628Y-99425314D02*
X131249009Y-99472933D01*
X131249009Y-99472933D02*
X131153771Y-99520552D01*
X131153771Y-99520552D02*
X130868057Y-99520552D01*
X130868057Y-99520552D02*
X130772819Y-99472933D01*
X130772819Y-99472933D02*
X130725200Y-99425314D01*
X130725200Y-99425314D02*
X130677580Y-99330076D01*
X130677580Y-99330076D02*
X130677580Y-99139600D01*
X130677580Y-99139600D02*
X130725200Y-99044362D01*
X130725200Y-100330076D02*
X130677580Y-100234838D01*
X130677580Y-100234838D02*
X130677580Y-100044362D01*
X130677580Y-100044362D02*
X130725200Y-99949124D01*
X130725200Y-99949124D02*
X130820438Y-99901505D01*
X130820438Y-99901505D02*
X131201390Y-99901505D01*
X131201390Y-99901505D02*
X131296628Y-99949124D01*
X131296628Y-99949124D02*
X131344247Y-100044362D01*
X131344247Y-100044362D02*
X131344247Y-100234838D01*
X131344247Y-100234838D02*
X131296628Y-100330076D01*
X131296628Y-100330076D02*
X131201390Y-100377695D01*
X131201390Y-100377695D02*
X131106152Y-100377695D01*
X131106152Y-100377695D02*
X131010914Y-99901505D01*
X130677580Y-100949124D02*
X130725200Y-100853886D01*
X130725200Y-100853886D02*
X130820438Y-100806267D01*
X130820438Y-100806267D02*
X131677580Y-100806267D01*
X130677580Y-101472934D02*
X130725200Y-101377696D01*
X130725200Y-101377696D02*
X130772819Y-101330077D01*
X130772819Y-101330077D02*
X130868057Y-101282458D01*
X130868057Y-101282458D02*
X131153771Y-101282458D01*
X131153771Y-101282458D02*
X131249009Y-101330077D01*
X131249009Y-101330077D02*
X131296628Y-101377696D01*
X131296628Y-101377696D02*
X131344247Y-101472934D01*
X131344247Y-101472934D02*
X131344247Y-101615791D01*
X131344247Y-101615791D02*
X131296628Y-101711029D01*
X131296628Y-101711029D02*
X131249009Y-101758648D01*
X131249009Y-101758648D02*
X131153771Y-101806267D01*
X131153771Y-101806267D02*
X130868057Y-101806267D01*
X130868057Y-101806267D02*
X130772819Y-101758648D01*
X130772819Y-101758648D02*
X130725200Y-101711029D01*
X130725200Y-101711029D02*
X130677580Y-101615791D01*
X130677580Y-101615791D02*
X130677580Y-101472934D01*
X131344247Y-102139601D02*
X130677580Y-102377696D01*
X130677580Y-102377696D02*
X131344247Y-102615791D01*
X130725200Y-103377696D02*
X130677580Y-103282458D01*
X130677580Y-103282458D02*
X130677580Y-103091982D01*
X130677580Y-103091982D02*
X130725200Y-102996744D01*
X130725200Y-102996744D02*
X130820438Y-102949125D01*
X130820438Y-102949125D02*
X131201390Y-102949125D01*
X131201390Y-102949125D02*
X131296628Y-102996744D01*
X131296628Y-102996744D02*
X131344247Y-103091982D01*
X131344247Y-103091982D02*
X131344247Y-103282458D01*
X131344247Y-103282458D02*
X131296628Y-103377696D01*
X131296628Y-103377696D02*
X131201390Y-103425315D01*
X131201390Y-103425315D02*
X131106152Y-103425315D01*
X131106152Y-103425315D02*
X131010914Y-102949125D01*
X130677580Y-104282458D02*
X131677580Y-104282458D01*
X130725200Y-104282458D02*
X130677580Y-104187220D01*
X130677580Y-104187220D02*
X130677580Y-103996744D01*
X130677580Y-103996744D02*
X130725200Y-103901506D01*
X130725200Y-103901506D02*
X130772819Y-103853887D01*
X130772819Y-103853887D02*
X130868057Y-103806268D01*
X130868057Y-103806268D02*
X131153771Y-103806268D01*
X131153771Y-103806268D02*
X131249009Y-103853887D01*
X131249009Y-103853887D02*
X131296628Y-103901506D01*
X131296628Y-103901506D02*
X131344247Y-103996744D01*
X131344247Y-103996744D02*
X131344247Y-104187220D01*
X131344247Y-104187220D02*
X131296628Y-104282458D01*
X132272819Y-77375312D02*
X132225200Y-77327693D01*
X132225200Y-77327693D02*
X132177580Y-77184836D01*
X132177580Y-77184836D02*
X132177580Y-77089598D01*
X132177580Y-77089598D02*
X132225200Y-76946741D01*
X132225200Y-76946741D02*
X132320438Y-76851503D01*
X132320438Y-76851503D02*
X132415676Y-76803884D01*
X132415676Y-76803884D02*
X132606152Y-76756265D01*
X132606152Y-76756265D02*
X132749009Y-76756265D01*
X132749009Y-76756265D02*
X132939485Y-76803884D01*
X132939485Y-76803884D02*
X133034723Y-76851503D01*
X133034723Y-76851503D02*
X133129961Y-76946741D01*
X133129961Y-76946741D02*
X133177580Y-77089598D01*
X133177580Y-77089598D02*
X133177580Y-77184836D01*
X133177580Y-77184836D02*
X133129961Y-77327693D01*
X133129961Y-77327693D02*
X133082342Y-77375312D01*
X132177580Y-77946741D02*
X132225200Y-77851503D01*
X132225200Y-77851503D02*
X132272819Y-77803884D01*
X132272819Y-77803884D02*
X132368057Y-77756265D01*
X132368057Y-77756265D02*
X132653771Y-77756265D01*
X132653771Y-77756265D02*
X132749009Y-77803884D01*
X132749009Y-77803884D02*
X132796628Y-77851503D01*
X132796628Y-77851503D02*
X132844247Y-77946741D01*
X132844247Y-77946741D02*
X132844247Y-78089598D01*
X132844247Y-78089598D02*
X132796628Y-78184836D01*
X132796628Y-78184836D02*
X132749009Y-78232455D01*
X132749009Y-78232455D02*
X132653771Y-78280074D01*
X132653771Y-78280074D02*
X132368057Y-78280074D01*
X132368057Y-78280074D02*
X132272819Y-78232455D01*
X132272819Y-78232455D02*
X132225200Y-78184836D01*
X132225200Y-78184836D02*
X132177580Y-78089598D01*
X132177580Y-78089598D02*
X132177580Y-77946741D01*
X132844247Y-78708646D02*
X132177580Y-78708646D01*
X132749009Y-78708646D02*
X132796628Y-78756265D01*
X132796628Y-78756265D02*
X132844247Y-78851503D01*
X132844247Y-78851503D02*
X132844247Y-78994360D01*
X132844247Y-78994360D02*
X132796628Y-79089598D01*
X132796628Y-79089598D02*
X132701390Y-79137217D01*
X132701390Y-79137217D02*
X132177580Y-79137217D01*
X132844247Y-79470551D02*
X132844247Y-79851503D01*
X133177580Y-79613408D02*
X132320438Y-79613408D01*
X132320438Y-79613408D02*
X132225200Y-79661027D01*
X132225200Y-79661027D02*
X132177580Y-79756265D01*
X132177580Y-79756265D02*
X132177580Y-79851503D01*
X132177580Y-80184837D02*
X132844247Y-80184837D01*
X132653771Y-80184837D02*
X132749009Y-80232456D01*
X132749009Y-80232456D02*
X132796628Y-80280075D01*
X132796628Y-80280075D02*
X132844247Y-80375313D01*
X132844247Y-80375313D02*
X132844247Y-80470551D01*
X132177580Y-80946742D02*
X132225200Y-80851504D01*
X132225200Y-80851504D02*
X132272819Y-80803885D01*
X132272819Y-80803885D02*
X132368057Y-80756266D01*
X132368057Y-80756266D02*
X132653771Y-80756266D01*
X132653771Y-80756266D02*
X132749009Y-80803885D01*
X132749009Y-80803885D02*
X132796628Y-80851504D01*
X132796628Y-80851504D02*
X132844247Y-80946742D01*
X132844247Y-80946742D02*
X132844247Y-81089599D01*
X132844247Y-81089599D02*
X132796628Y-81184837D01*
X132796628Y-81184837D02*
X132749009Y-81232456D01*
X132749009Y-81232456D02*
X132653771Y-81280075D01*
X132653771Y-81280075D02*
X132368057Y-81280075D01*
X132368057Y-81280075D02*
X132272819Y-81232456D01*
X132272819Y-81232456D02*
X132225200Y-81184837D01*
X132225200Y-81184837D02*
X132177580Y-81089599D01*
X132177580Y-81089599D02*
X132177580Y-80946742D01*
X132177580Y-81851504D02*
X132225200Y-81756266D01*
X132225200Y-81756266D02*
X132320438Y-81708647D01*
X132320438Y-81708647D02*
X133177580Y-81708647D01*
X132082342Y-81994362D02*
X132082342Y-82756266D01*
X132177580Y-82994362D02*
X133177580Y-82994362D01*
X133177580Y-82994362D02*
X133177580Y-83232457D01*
X133177580Y-83232457D02*
X133129961Y-83375314D01*
X133129961Y-83375314D02*
X133034723Y-83470552D01*
X133034723Y-83470552D02*
X132939485Y-83518171D01*
X132939485Y-83518171D02*
X132749009Y-83565790D01*
X132749009Y-83565790D02*
X132606152Y-83565790D01*
X132606152Y-83565790D02*
X132415676Y-83518171D01*
X132415676Y-83518171D02*
X132320438Y-83470552D01*
X132320438Y-83470552D02*
X132225200Y-83375314D01*
X132225200Y-83375314D02*
X132177580Y-83232457D01*
X132177580Y-83232457D02*
X132177580Y-82994362D01*
X132177580Y-84137219D02*
X132225200Y-84041981D01*
X132225200Y-84041981D02*
X132272819Y-83994362D01*
X132272819Y-83994362D02*
X132368057Y-83946743D01*
X132368057Y-83946743D02*
X132653771Y-83946743D01*
X132653771Y-83946743D02*
X132749009Y-83994362D01*
X132749009Y-83994362D02*
X132796628Y-84041981D01*
X132796628Y-84041981D02*
X132844247Y-84137219D01*
X132844247Y-84137219D02*
X132844247Y-84280076D01*
X132844247Y-84280076D02*
X132796628Y-84375314D01*
X132796628Y-84375314D02*
X132749009Y-84422933D01*
X132749009Y-84422933D02*
X132653771Y-84470552D01*
X132653771Y-84470552D02*
X132368057Y-84470552D01*
X132368057Y-84470552D02*
X132272819Y-84422933D01*
X132272819Y-84422933D02*
X132225200Y-84375314D01*
X132225200Y-84375314D02*
X132177580Y-84280076D01*
X132177580Y-84280076D02*
X132177580Y-84137219D01*
X132225200Y-85327695D02*
X132177580Y-85232457D01*
X132177580Y-85232457D02*
X132177580Y-85041981D01*
X132177580Y-85041981D02*
X132225200Y-84946743D01*
X132225200Y-84946743D02*
X132272819Y-84899124D01*
X132272819Y-84899124D02*
X132368057Y-84851505D01*
X132368057Y-84851505D02*
X132653771Y-84851505D01*
X132653771Y-84851505D02*
X132749009Y-84899124D01*
X132749009Y-84899124D02*
X132796628Y-84946743D01*
X132796628Y-84946743D02*
X132844247Y-85041981D01*
X132844247Y-85041981D02*
X132844247Y-85232457D01*
X132844247Y-85232457D02*
X132796628Y-85327695D01*
X132177580Y-85756267D02*
X133177580Y-85756267D01*
X132558533Y-85851505D02*
X132177580Y-86137219D01*
X132844247Y-86137219D02*
X132463295Y-85756267D01*
X132225200Y-86613410D02*
X132177580Y-86613410D01*
X132177580Y-86613410D02*
X132082342Y-86565791D01*
X132082342Y-86565791D02*
X132034723Y-86518172D01*
X133177580Y-87661029D02*
X132177580Y-87994362D01*
X132177580Y-87994362D02*
X133177580Y-88327695D01*
X132177580Y-89184838D02*
X132177580Y-88613410D01*
X132177580Y-88899124D02*
X133177580Y-88899124D01*
X133177580Y-88899124D02*
X133034723Y-88803886D01*
X133034723Y-88803886D02*
X132939485Y-88708648D01*
X132939485Y-88708648D02*
X132891866Y-88613410D01*
X132272819Y-89613410D02*
X132225200Y-89661029D01*
X132225200Y-89661029D02*
X132177580Y-89613410D01*
X132177580Y-89613410D02*
X132225200Y-89565791D01*
X132225200Y-89565791D02*
X132272819Y-89613410D01*
X132272819Y-89613410D02*
X132177580Y-89613410D01*
X133177580Y-90280076D02*
X133177580Y-90375314D01*
X133177580Y-90375314D02*
X133129961Y-90470552D01*
X133129961Y-90470552D02*
X133082342Y-90518171D01*
X133082342Y-90518171D02*
X132987104Y-90565790D01*
X132987104Y-90565790D02*
X132796628Y-90613409D01*
X132796628Y-90613409D02*
X132558533Y-90613409D01*
X132558533Y-90613409D02*
X132368057Y-90565790D01*
X132368057Y-90565790D02*
X132272819Y-90518171D01*
X132272819Y-90518171D02*
X132225200Y-90470552D01*
X132225200Y-90470552D02*
X132177580Y-90375314D01*
X132177580Y-90375314D02*
X132177580Y-90280076D01*
X132177580Y-90280076D02*
X132225200Y-90184838D01*
X132225200Y-90184838D02*
X132272819Y-90137219D01*
X132272819Y-90137219D02*
X132368057Y-90089600D01*
X132368057Y-90089600D02*
X132558533Y-90041981D01*
X132558533Y-90041981D02*
X132796628Y-90041981D01*
X132796628Y-90041981D02*
X132987104Y-90089600D01*
X132987104Y-90089600D02*
X133082342Y-90137219D01*
X133082342Y-90137219D02*
X133129961Y-90184838D01*
X133129961Y-90184838D02*
X133177580Y-90280076D01*
X55127693Y-127020038D02*
X55032455Y-126972419D01*
X55032455Y-126972419D02*
X54889598Y-126972419D01*
X54889598Y-126972419D02*
X54746741Y-127020038D01*
X54746741Y-127020038D02*
X54651503Y-127115276D01*
X54651503Y-127115276D02*
X54603884Y-127210514D01*
X54603884Y-127210514D02*
X54556265Y-127400990D01*
X54556265Y-127400990D02*
X54556265Y-127543847D01*
X54556265Y-127543847D02*
X54603884Y-127734323D01*
X54603884Y-127734323D02*
X54651503Y-127829561D01*
X54651503Y-127829561D02*
X54746741Y-127924800D01*
X54746741Y-127924800D02*
X54889598Y-127972419D01*
X54889598Y-127972419D02*
X54984836Y-127972419D01*
X54984836Y-127972419D02*
X55127693Y-127924800D01*
X55127693Y-127924800D02*
X55175312Y-127877180D01*
X55175312Y-127877180D02*
X55175312Y-127543847D01*
X55175312Y-127543847D02*
X54984836Y-127543847D01*
X55603884Y-127972419D02*
X55603884Y-126972419D01*
X55603884Y-126972419D02*
X56175312Y-127972419D01*
X56175312Y-127972419D02*
X56175312Y-126972419D01*
X56651503Y-127972419D02*
X56651503Y-126972419D01*
X56651503Y-126972419D02*
X56889598Y-126972419D01*
X56889598Y-126972419D02*
X57032455Y-127020038D01*
X57032455Y-127020038D02*
X57127693Y-127115276D01*
X57127693Y-127115276D02*
X57175312Y-127210514D01*
X57175312Y-127210514D02*
X57222931Y-127400990D01*
X57222931Y-127400990D02*
X57222931Y-127543847D01*
X57222931Y-127543847D02*
X57175312Y-127734323D01*
X57175312Y-127734323D02*
X57127693Y-127829561D01*
X57127693Y-127829561D02*
X57032455Y-127924800D01*
X57032455Y-127924800D02*
X56889598Y-127972419D01*
X56889598Y-127972419D02*
X56651503Y-127972419D01*
D11*
X169350000Y-130754819D02*
X169350000Y-129754819D01*
X169350000Y-129754819D02*
X169588095Y-129754819D01*
X169588095Y-129754819D02*
X169730952Y-129802438D01*
X169730952Y-129802438D02*
X169826190Y-129897676D01*
X169826190Y-129897676D02*
X169873809Y-129992914D01*
X169873809Y-129992914D02*
X169921428Y-130183390D01*
X169921428Y-130183390D02*
X169921428Y-130326247D01*
X169921428Y-130326247D02*
X169873809Y-130516723D01*
X169873809Y-130516723D02*
X169826190Y-130611961D01*
X169826190Y-130611961D02*
X169730952Y-130707200D01*
X169730952Y-130707200D02*
X169588095Y-130754819D01*
X169588095Y-130754819D02*
X169350000Y-130754819D01*
X170492857Y-130754819D02*
X170397619Y-130707200D01*
X170397619Y-130707200D02*
X170350000Y-130659580D01*
X170350000Y-130659580D02*
X170302381Y-130564342D01*
X170302381Y-130564342D02*
X170302381Y-130278628D01*
X170302381Y-130278628D02*
X170350000Y-130183390D01*
X170350000Y-130183390D02*
X170397619Y-130135771D01*
X170397619Y-130135771D02*
X170492857Y-130088152D01*
X170492857Y-130088152D02*
X170635714Y-130088152D01*
X170635714Y-130088152D02*
X170730952Y-130135771D01*
X170730952Y-130135771D02*
X170778571Y-130183390D01*
X170778571Y-130183390D02*
X170826190Y-130278628D01*
X170826190Y-130278628D02*
X170826190Y-130564342D01*
X170826190Y-130564342D02*
X170778571Y-130659580D01*
X170778571Y-130659580D02*
X170730952Y-130707200D01*
X170730952Y-130707200D02*
X170635714Y-130754819D01*
X170635714Y-130754819D02*
X170492857Y-130754819D01*
X171159524Y-130088152D02*
X171350000Y-130754819D01*
X171350000Y-130754819D02*
X171540476Y-130278628D01*
X171540476Y-130278628D02*
X171730952Y-130754819D01*
X171730952Y-130754819D02*
X171921428Y-130088152D01*
X172302381Y-130088152D02*
X172302381Y-130754819D01*
X172302381Y-130183390D02*
X172350000Y-130135771D01*
X172350000Y-130135771D02*
X172445238Y-130088152D01*
X172445238Y-130088152D02*
X172588095Y-130088152D01*
X172588095Y-130088152D02*
X172683333Y-130135771D01*
X172683333Y-130135771D02*
X172730952Y-130231009D01*
X172730952Y-130231009D02*
X172730952Y-130754819D01*
X174540476Y-130754819D02*
X174207143Y-130278628D01*
X173969048Y-130754819D02*
X173969048Y-129754819D01*
X173969048Y-129754819D02*
X174350000Y-129754819D01*
X174350000Y-129754819D02*
X174445238Y-129802438D01*
X174445238Y-129802438D02*
X174492857Y-129850057D01*
X174492857Y-129850057D02*
X174540476Y-129945295D01*
X174540476Y-129945295D02*
X174540476Y-130088152D01*
X174540476Y-130088152D02*
X174492857Y-130183390D01*
X174492857Y-130183390D02*
X174445238Y-130231009D01*
X174445238Y-130231009D02*
X174350000Y-130278628D01*
X174350000Y-130278628D02*
X173969048Y-130278628D01*
X174969048Y-130754819D02*
X174969048Y-130088152D01*
X174969048Y-129754819D02*
X174921429Y-129802438D01*
X174921429Y-129802438D02*
X174969048Y-129850057D01*
X174969048Y-129850057D02*
X175016667Y-129802438D01*
X175016667Y-129802438D02*
X174969048Y-129754819D01*
X174969048Y-129754819D02*
X174969048Y-129850057D01*
X175873809Y-130088152D02*
X175873809Y-130897676D01*
X175873809Y-130897676D02*
X175826190Y-130992914D01*
X175826190Y-130992914D02*
X175778571Y-131040533D01*
X175778571Y-131040533D02*
X175683333Y-131088152D01*
X175683333Y-131088152D02*
X175540476Y-131088152D01*
X175540476Y-131088152D02*
X175445238Y-131040533D01*
X175873809Y-130707200D02*
X175778571Y-130754819D01*
X175778571Y-130754819D02*
X175588095Y-130754819D01*
X175588095Y-130754819D02*
X175492857Y-130707200D01*
X175492857Y-130707200D02*
X175445238Y-130659580D01*
X175445238Y-130659580D02*
X175397619Y-130564342D01*
X175397619Y-130564342D02*
X175397619Y-130278628D01*
X175397619Y-130278628D02*
X175445238Y-130183390D01*
X175445238Y-130183390D02*
X175492857Y-130135771D01*
X175492857Y-130135771D02*
X175588095Y-130088152D01*
X175588095Y-130088152D02*
X175778571Y-130088152D01*
X175778571Y-130088152D02*
X175873809Y-130135771D01*
X176350000Y-130754819D02*
X176350000Y-129754819D01*
X176778571Y-130754819D02*
X176778571Y-130231009D01*
X176778571Y-130231009D02*
X176730952Y-130135771D01*
X176730952Y-130135771D02*
X176635714Y-130088152D01*
X176635714Y-130088152D02*
X176492857Y-130088152D01*
X176492857Y-130088152D02*
X176397619Y-130135771D01*
X176397619Y-130135771D02*
X176350000Y-130183390D01*
X177111905Y-130088152D02*
X177492857Y-130088152D01*
X177254762Y-129754819D02*
X177254762Y-130611961D01*
X177254762Y-130611961D02*
X177302381Y-130707200D01*
X177302381Y-130707200D02*
X177397619Y-130754819D01*
X177397619Y-130754819D02*
X177492857Y-130754819D01*
D10*
X145916667Y-122909800D02*
X146059524Y-122957419D01*
X146059524Y-122957419D02*
X146297619Y-122957419D01*
X146297619Y-122957419D02*
X146392857Y-122909800D01*
X146392857Y-122909800D02*
X146440476Y-122862180D01*
X146440476Y-122862180D02*
X146488095Y-122766942D01*
X146488095Y-122766942D02*
X146488095Y-122671704D01*
X146488095Y-122671704D02*
X146440476Y-122576466D01*
X146440476Y-122576466D02*
X146392857Y-122528847D01*
X146392857Y-122528847D02*
X146297619Y-122481228D01*
X146297619Y-122481228D02*
X146107143Y-122433609D01*
X146107143Y-122433609D02*
X146011905Y-122385990D01*
X146011905Y-122385990D02*
X145964286Y-122338371D01*
X145964286Y-122338371D02*
X145916667Y-122243133D01*
X145916667Y-122243133D02*
X145916667Y-122147895D01*
X145916667Y-122147895D02*
X145964286Y-122052657D01*
X145964286Y-122052657D02*
X146011905Y-122005038D01*
X146011905Y-122005038D02*
X146107143Y-121957419D01*
X146107143Y-121957419D02*
X146345238Y-121957419D01*
X146345238Y-121957419D02*
X146488095Y-122005038D01*
X146821429Y-121957419D02*
X147059524Y-122957419D01*
X147059524Y-122957419D02*
X147250000Y-122243133D01*
X147250000Y-122243133D02*
X147440476Y-122957419D01*
X147440476Y-122957419D02*
X147678572Y-121957419D01*
X148011905Y-122052657D02*
X148059524Y-122005038D01*
X148059524Y-122005038D02*
X148154762Y-121957419D01*
X148154762Y-121957419D02*
X148392857Y-121957419D01*
X148392857Y-121957419D02*
X148488095Y-122005038D01*
X148488095Y-122005038D02*
X148535714Y-122052657D01*
X148535714Y-122052657D02*
X148583333Y-122147895D01*
X148583333Y-122147895D02*
X148583333Y-122243133D01*
X148583333Y-122243133D02*
X148535714Y-122385990D01*
X148535714Y-122385990D02*
X147964286Y-122957419D01*
X147964286Y-122957419D02*
X148583333Y-122957419D01*
D11*
X172284819Y-124766666D02*
X171808628Y-125099999D01*
X172284819Y-125338094D02*
X171284819Y-125338094D01*
X171284819Y-125338094D02*
X171284819Y-124957142D01*
X171284819Y-124957142D02*
X171332438Y-124861904D01*
X171332438Y-124861904D02*
X171380057Y-124814285D01*
X171380057Y-124814285D02*
X171475295Y-124766666D01*
X171475295Y-124766666D02*
X171618152Y-124766666D01*
X171618152Y-124766666D02*
X171713390Y-124814285D01*
X171713390Y-124814285D02*
X171761009Y-124861904D01*
X171761009Y-124861904D02*
X171808628Y-124957142D01*
X171808628Y-124957142D02*
X171808628Y-125338094D01*
X172284819Y-124290475D02*
X172284819Y-124099999D01*
X172284819Y-124099999D02*
X172237200Y-124004761D01*
X172237200Y-124004761D02*
X172189580Y-123957142D01*
X172189580Y-123957142D02*
X172046723Y-123861904D01*
X172046723Y-123861904D02*
X171856247Y-123814285D01*
X171856247Y-123814285D02*
X171475295Y-123814285D01*
X171475295Y-123814285D02*
X171380057Y-123861904D01*
X171380057Y-123861904D02*
X171332438Y-123909523D01*
X171332438Y-123909523D02*
X171284819Y-124004761D01*
X171284819Y-124004761D02*
X171284819Y-124195237D01*
X171284819Y-124195237D02*
X171332438Y-124290475D01*
X171332438Y-124290475D02*
X171380057Y-124338094D01*
X171380057Y-124338094D02*
X171475295Y-124385713D01*
X171475295Y-124385713D02*
X171713390Y-124385713D01*
X171713390Y-124385713D02*
X171808628Y-124338094D01*
X171808628Y-124338094D02*
X171856247Y-124290475D01*
X171856247Y-124290475D02*
X171903866Y-124195237D01*
X171903866Y-124195237D02*
X171903866Y-124004761D01*
X171903866Y-124004761D02*
X171856247Y-123909523D01*
X171856247Y-123909523D02*
X171808628Y-123861904D01*
X171808628Y-123861904D02*
X171713390Y-123814285D01*
X165433333Y-77859580D02*
X165385714Y-77907200D01*
X165385714Y-77907200D02*
X165242857Y-77954819D01*
X165242857Y-77954819D02*
X165147619Y-77954819D01*
X165147619Y-77954819D02*
X165004762Y-77907200D01*
X165004762Y-77907200D02*
X164909524Y-77811961D01*
X164909524Y-77811961D02*
X164861905Y-77716723D01*
X164861905Y-77716723D02*
X164814286Y-77526247D01*
X164814286Y-77526247D02*
X164814286Y-77383390D01*
X164814286Y-77383390D02*
X164861905Y-77192914D01*
X164861905Y-77192914D02*
X164909524Y-77097676D01*
X164909524Y-77097676D02*
X165004762Y-77002438D01*
X165004762Y-77002438D02*
X165147619Y-76954819D01*
X165147619Y-76954819D02*
X165242857Y-76954819D01*
X165242857Y-76954819D02*
X165385714Y-77002438D01*
X165385714Y-77002438D02*
X165433333Y-77050057D01*
X165766667Y-76954819D02*
X166385714Y-76954819D01*
X166385714Y-76954819D02*
X166052381Y-77335771D01*
X166052381Y-77335771D02*
X166195238Y-77335771D01*
X166195238Y-77335771D02*
X166290476Y-77383390D01*
X166290476Y-77383390D02*
X166338095Y-77431009D01*
X166338095Y-77431009D02*
X166385714Y-77526247D01*
X166385714Y-77526247D02*
X166385714Y-77764342D01*
X166385714Y-77764342D02*
X166338095Y-77859580D01*
X166338095Y-77859580D02*
X166290476Y-77907200D01*
X166290476Y-77907200D02*
X166195238Y-77954819D01*
X166195238Y-77954819D02*
X165909524Y-77954819D01*
X165909524Y-77954819D02*
X165814286Y-77907200D01*
X165814286Y-77907200D02*
X165766667Y-77859580D01*
X154433333Y-77954819D02*
X154100000Y-77478628D01*
X153861905Y-77954819D02*
X153861905Y-76954819D01*
X153861905Y-76954819D02*
X154242857Y-76954819D01*
X154242857Y-76954819D02*
X154338095Y-77002438D01*
X154338095Y-77002438D02*
X154385714Y-77050057D01*
X154385714Y-77050057D02*
X154433333Y-77145295D01*
X154433333Y-77145295D02*
X154433333Y-77288152D01*
X154433333Y-77288152D02*
X154385714Y-77383390D01*
X154385714Y-77383390D02*
X154338095Y-77431009D01*
X154338095Y-77431009D02*
X154242857Y-77478628D01*
X154242857Y-77478628D02*
X153861905Y-77478628D01*
X155290476Y-76954819D02*
X155100000Y-76954819D01*
X155100000Y-76954819D02*
X155004762Y-77002438D01*
X155004762Y-77002438D02*
X154957143Y-77050057D01*
X154957143Y-77050057D02*
X154861905Y-77192914D01*
X154861905Y-77192914D02*
X154814286Y-77383390D01*
X154814286Y-77383390D02*
X154814286Y-77764342D01*
X154814286Y-77764342D02*
X154861905Y-77859580D01*
X154861905Y-77859580D02*
X154909524Y-77907200D01*
X154909524Y-77907200D02*
X155004762Y-77954819D01*
X155004762Y-77954819D02*
X155195238Y-77954819D01*
X155195238Y-77954819D02*
X155290476Y-77907200D01*
X155290476Y-77907200D02*
X155338095Y-77859580D01*
X155338095Y-77859580D02*
X155385714Y-77764342D01*
X155385714Y-77764342D02*
X155385714Y-77526247D01*
X155385714Y-77526247D02*
X155338095Y-77431009D01*
X155338095Y-77431009D02*
X155290476Y-77383390D01*
X155290476Y-77383390D02*
X155195238Y-77335771D01*
X155195238Y-77335771D02*
X155004762Y-77335771D01*
X155004762Y-77335771D02*
X154909524Y-77383390D01*
X154909524Y-77383390D02*
X154861905Y-77431009D01*
X154861905Y-77431009D02*
X154814286Y-77526247D01*
X141533333Y-115504819D02*
X141200000Y-115028628D01*
X140961905Y-115504819D02*
X140961905Y-114504819D01*
X140961905Y-114504819D02*
X141342857Y-114504819D01*
X141342857Y-114504819D02*
X141438095Y-114552438D01*
X141438095Y-114552438D02*
X141485714Y-114600057D01*
X141485714Y-114600057D02*
X141533333Y-114695295D01*
X141533333Y-114695295D02*
X141533333Y-114838152D01*
X141533333Y-114838152D02*
X141485714Y-114933390D01*
X141485714Y-114933390D02*
X141438095Y-114981009D01*
X141438095Y-114981009D02*
X141342857Y-115028628D01*
X141342857Y-115028628D02*
X140961905Y-115028628D01*
X142485714Y-115504819D02*
X141914286Y-115504819D01*
X142200000Y-115504819D02*
X142200000Y-114504819D01*
X142200000Y-114504819D02*
X142104762Y-114647676D01*
X142104762Y-114647676D02*
X142009524Y-114742914D01*
X142009524Y-114742914D02*
X141914286Y-114790533D01*
X140369819Y-108103094D02*
X139369819Y-108103094D01*
X139369819Y-108103094D02*
X139369819Y-107864999D01*
X139369819Y-107864999D02*
X139417438Y-107722142D01*
X139417438Y-107722142D02*
X139512676Y-107626904D01*
X139512676Y-107626904D02*
X139607914Y-107579285D01*
X139607914Y-107579285D02*
X139798390Y-107531666D01*
X139798390Y-107531666D02*
X139941247Y-107531666D01*
X139941247Y-107531666D02*
X140131723Y-107579285D01*
X140131723Y-107579285D02*
X140226961Y-107626904D01*
X140226961Y-107626904D02*
X140322200Y-107722142D01*
X140322200Y-107722142D02*
X140369819Y-107864999D01*
X140369819Y-107864999D02*
X140369819Y-108103094D01*
X140369819Y-106579285D02*
X140369819Y-107150713D01*
X140369819Y-106864999D02*
X139369819Y-106864999D01*
X139369819Y-106864999D02*
X139512676Y-106960237D01*
X139512676Y-106960237D02*
X139607914Y-107055475D01*
X139607914Y-107055475D02*
X139655533Y-107150713D01*
X48478571Y-55754819D02*
X48478571Y-56564342D01*
X48478571Y-56564342D02*
X48526190Y-56659580D01*
X48526190Y-56659580D02*
X48573809Y-56707200D01*
X48573809Y-56707200D02*
X48669047Y-56754819D01*
X48669047Y-56754819D02*
X48859523Y-56754819D01*
X48859523Y-56754819D02*
X48954761Y-56707200D01*
X48954761Y-56707200D02*
X49002380Y-56659580D01*
X49002380Y-56659580D02*
X49049999Y-56564342D01*
X49049999Y-56564342D02*
X49049999Y-55754819D01*
X49526190Y-56754819D02*
X49526190Y-55754819D01*
X49526190Y-55754819D02*
X49907142Y-55754819D01*
X49907142Y-55754819D02*
X50002380Y-55802438D01*
X50002380Y-55802438D02*
X50049999Y-55850057D01*
X50049999Y-55850057D02*
X50097618Y-55945295D01*
X50097618Y-55945295D02*
X50097618Y-56088152D01*
X50097618Y-56088152D02*
X50049999Y-56183390D01*
X50049999Y-56183390D02*
X50002380Y-56231009D01*
X50002380Y-56231009D02*
X49907142Y-56278628D01*
X49907142Y-56278628D02*
X49526190Y-56278628D01*
X51764285Y-56754819D02*
X51288095Y-56754819D01*
X51288095Y-56754819D02*
X51288095Y-55754819D01*
X52478571Y-56707200D02*
X52383333Y-56754819D01*
X52383333Y-56754819D02*
X52192857Y-56754819D01*
X52192857Y-56754819D02*
X52097619Y-56707200D01*
X52097619Y-56707200D02*
X52050000Y-56611961D01*
X52050000Y-56611961D02*
X52050000Y-56231009D01*
X52050000Y-56231009D02*
X52097619Y-56135771D01*
X52097619Y-56135771D02*
X52192857Y-56088152D01*
X52192857Y-56088152D02*
X52383333Y-56088152D01*
X52383333Y-56088152D02*
X52478571Y-56135771D01*
X52478571Y-56135771D02*
X52526190Y-56231009D01*
X52526190Y-56231009D02*
X52526190Y-56326247D01*
X52526190Y-56326247D02*
X52050000Y-56421485D01*
X52811905Y-56088152D02*
X53192857Y-56088152D01*
X52954762Y-56754819D02*
X52954762Y-55897676D01*
X52954762Y-55897676D02*
X53002381Y-55802438D01*
X53002381Y-55802438D02*
X53097619Y-55754819D01*
X53097619Y-55754819D02*
X53192857Y-55754819D01*
X53383334Y-56088152D02*
X53764286Y-56088152D01*
X53526191Y-55754819D02*
X53526191Y-56611961D01*
X53526191Y-56611961D02*
X53573810Y-56707200D01*
X53573810Y-56707200D02*
X53669048Y-56754819D01*
X53669048Y-56754819D02*
X53764286Y-56754819D01*
X153933333Y-115704819D02*
X153600000Y-115228628D01*
X153361905Y-115704819D02*
X153361905Y-114704819D01*
X153361905Y-114704819D02*
X153742857Y-114704819D01*
X153742857Y-114704819D02*
X153838095Y-114752438D01*
X153838095Y-114752438D02*
X153885714Y-114800057D01*
X153885714Y-114800057D02*
X153933333Y-114895295D01*
X153933333Y-114895295D02*
X153933333Y-115038152D01*
X153933333Y-115038152D02*
X153885714Y-115133390D01*
X153885714Y-115133390D02*
X153838095Y-115181009D01*
X153838095Y-115181009D02*
X153742857Y-115228628D01*
X153742857Y-115228628D02*
X153361905Y-115228628D01*
X154314286Y-114800057D02*
X154361905Y-114752438D01*
X154361905Y-114752438D02*
X154457143Y-114704819D01*
X154457143Y-114704819D02*
X154695238Y-114704819D01*
X154695238Y-114704819D02*
X154790476Y-114752438D01*
X154790476Y-114752438D02*
X154838095Y-114800057D01*
X154838095Y-114800057D02*
X154885714Y-114895295D01*
X154885714Y-114895295D02*
X154885714Y-114990533D01*
X154885714Y-114990533D02*
X154838095Y-115133390D01*
X154838095Y-115133390D02*
X154266667Y-115704819D01*
X154266667Y-115704819D02*
X154885714Y-115704819D01*
X150104819Y-94254166D02*
X149628628Y-94587499D01*
X150104819Y-94825594D02*
X149104819Y-94825594D01*
X149104819Y-94825594D02*
X149104819Y-94444642D01*
X149104819Y-94444642D02*
X149152438Y-94349404D01*
X149152438Y-94349404D02*
X149200057Y-94301785D01*
X149200057Y-94301785D02*
X149295295Y-94254166D01*
X149295295Y-94254166D02*
X149438152Y-94254166D01*
X149438152Y-94254166D02*
X149533390Y-94301785D01*
X149533390Y-94301785D02*
X149581009Y-94349404D01*
X149581009Y-94349404D02*
X149628628Y-94444642D01*
X149628628Y-94444642D02*
X149628628Y-94825594D01*
X149438152Y-93397023D02*
X150104819Y-93397023D01*
X149057200Y-93635118D02*
X149771485Y-93873213D01*
X149771485Y-93873213D02*
X149771485Y-93254166D01*
D10*
X166386667Y-122609800D02*
X166529524Y-122657419D01*
X166529524Y-122657419D02*
X166767619Y-122657419D01*
X166767619Y-122657419D02*
X166862857Y-122609800D01*
X166862857Y-122609800D02*
X166910476Y-122562180D01*
X166910476Y-122562180D02*
X166958095Y-122466942D01*
X166958095Y-122466942D02*
X166958095Y-122371704D01*
X166958095Y-122371704D02*
X166910476Y-122276466D01*
X166910476Y-122276466D02*
X166862857Y-122228847D01*
X166862857Y-122228847D02*
X166767619Y-122181228D01*
X166767619Y-122181228D02*
X166577143Y-122133609D01*
X166577143Y-122133609D02*
X166481905Y-122085990D01*
X166481905Y-122085990D02*
X166434286Y-122038371D01*
X166434286Y-122038371D02*
X166386667Y-121943133D01*
X166386667Y-121943133D02*
X166386667Y-121847895D01*
X166386667Y-121847895D02*
X166434286Y-121752657D01*
X166434286Y-121752657D02*
X166481905Y-121705038D01*
X166481905Y-121705038D02*
X166577143Y-121657419D01*
X166577143Y-121657419D02*
X166815238Y-121657419D01*
X166815238Y-121657419D02*
X166958095Y-121705038D01*
X167291429Y-121657419D02*
X167529524Y-122657419D01*
X167529524Y-122657419D02*
X167720000Y-121943133D01*
X167720000Y-121943133D02*
X167910476Y-122657419D01*
X167910476Y-122657419D02*
X168148572Y-121657419D01*
X168958095Y-121990752D02*
X168958095Y-122657419D01*
X168720000Y-121609800D02*
X168481905Y-122324085D01*
X168481905Y-122324085D02*
X169100952Y-122324085D01*
D11*
X150039580Y-97866666D02*
X150087200Y-97914285D01*
X150087200Y-97914285D02*
X150134819Y-98057142D01*
X150134819Y-98057142D02*
X150134819Y-98152380D01*
X150134819Y-98152380D02*
X150087200Y-98295237D01*
X150087200Y-98295237D02*
X149991961Y-98390475D01*
X149991961Y-98390475D02*
X149896723Y-98438094D01*
X149896723Y-98438094D02*
X149706247Y-98485713D01*
X149706247Y-98485713D02*
X149563390Y-98485713D01*
X149563390Y-98485713D02*
X149372914Y-98438094D01*
X149372914Y-98438094D02*
X149277676Y-98390475D01*
X149277676Y-98390475D02*
X149182438Y-98295237D01*
X149182438Y-98295237D02*
X149134819Y-98152380D01*
X149134819Y-98152380D02*
X149134819Y-98057142D01*
X149134819Y-98057142D02*
X149182438Y-97914285D01*
X149182438Y-97914285D02*
X149230057Y-97866666D01*
X149230057Y-97485713D02*
X149182438Y-97438094D01*
X149182438Y-97438094D02*
X149134819Y-97342856D01*
X149134819Y-97342856D02*
X149134819Y-97104761D01*
X149134819Y-97104761D02*
X149182438Y-97009523D01*
X149182438Y-97009523D02*
X149230057Y-96961904D01*
X149230057Y-96961904D02*
X149325295Y-96914285D01*
X149325295Y-96914285D02*
X149420533Y-96914285D01*
X149420533Y-96914285D02*
X149563390Y-96961904D01*
X149563390Y-96961904D02*
X150134819Y-97533332D01*
X150134819Y-97533332D02*
X150134819Y-96914285D01*
X165669819Y-108473094D02*
X164669819Y-108473094D01*
X164669819Y-108473094D02*
X164669819Y-108234999D01*
X164669819Y-108234999D02*
X164717438Y-108092142D01*
X164717438Y-108092142D02*
X164812676Y-107996904D01*
X164812676Y-107996904D02*
X164907914Y-107949285D01*
X164907914Y-107949285D02*
X165098390Y-107901666D01*
X165098390Y-107901666D02*
X165241247Y-107901666D01*
X165241247Y-107901666D02*
X165431723Y-107949285D01*
X165431723Y-107949285D02*
X165526961Y-107996904D01*
X165526961Y-107996904D02*
X165622200Y-108092142D01*
X165622200Y-108092142D02*
X165669819Y-108234999D01*
X165669819Y-108234999D02*
X165669819Y-108473094D01*
X164669819Y-107568332D02*
X164669819Y-106949285D01*
X164669819Y-106949285D02*
X165050771Y-107282618D01*
X165050771Y-107282618D02*
X165050771Y-107139761D01*
X165050771Y-107139761D02*
X165098390Y-107044523D01*
X165098390Y-107044523D02*
X165146009Y-106996904D01*
X165146009Y-106996904D02*
X165241247Y-106949285D01*
X165241247Y-106949285D02*
X165479342Y-106949285D01*
X165479342Y-106949285D02*
X165574580Y-106996904D01*
X165574580Y-106996904D02*
X165622200Y-107044523D01*
X165622200Y-107044523D02*
X165669819Y-107139761D01*
X165669819Y-107139761D02*
X165669819Y-107425475D01*
X165669819Y-107425475D02*
X165622200Y-107520713D01*
X165622200Y-107520713D02*
X165574580Y-107568332D01*
D10*
X52554285Y-125433609D02*
X52697142Y-125481228D01*
X52697142Y-125481228D02*
X52744761Y-125528847D01*
X52744761Y-125528847D02*
X52792380Y-125624085D01*
X52792380Y-125624085D02*
X52792380Y-125766942D01*
X52792380Y-125766942D02*
X52744761Y-125862180D01*
X52744761Y-125862180D02*
X52697142Y-125909800D01*
X52697142Y-125909800D02*
X52601904Y-125957419D01*
X52601904Y-125957419D02*
X52220952Y-125957419D01*
X52220952Y-125957419D02*
X52220952Y-124957419D01*
X52220952Y-124957419D02*
X52554285Y-124957419D01*
X52554285Y-124957419D02*
X52649523Y-125005038D01*
X52649523Y-125005038D02*
X52697142Y-125052657D01*
X52697142Y-125052657D02*
X52744761Y-125147895D01*
X52744761Y-125147895D02*
X52744761Y-125243133D01*
X52744761Y-125243133D02*
X52697142Y-125338371D01*
X52697142Y-125338371D02*
X52649523Y-125385990D01*
X52649523Y-125385990D02*
X52554285Y-125433609D01*
X52554285Y-125433609D02*
X52220952Y-125433609D01*
X53078095Y-124957419D02*
X53649523Y-124957419D01*
X53363809Y-125957419D02*
X53363809Y-124957419D01*
X54506666Y-125957419D02*
X53935238Y-125957419D01*
X54220952Y-125957419D02*
X54220952Y-124957419D01*
X54220952Y-124957419D02*
X54125714Y-125100276D01*
X54125714Y-125100276D02*
X54030476Y-125195514D01*
X54030476Y-125195514D02*
X53935238Y-125243133D01*
D11*
X168939580Y-97766666D02*
X168987200Y-97814285D01*
X168987200Y-97814285D02*
X169034819Y-97957142D01*
X169034819Y-97957142D02*
X169034819Y-98052380D01*
X169034819Y-98052380D02*
X168987200Y-98195237D01*
X168987200Y-98195237D02*
X168891961Y-98290475D01*
X168891961Y-98290475D02*
X168796723Y-98338094D01*
X168796723Y-98338094D02*
X168606247Y-98385713D01*
X168606247Y-98385713D02*
X168463390Y-98385713D01*
X168463390Y-98385713D02*
X168272914Y-98338094D01*
X168272914Y-98338094D02*
X168177676Y-98290475D01*
X168177676Y-98290475D02*
X168082438Y-98195237D01*
X168082438Y-98195237D02*
X168034819Y-98052380D01*
X168034819Y-98052380D02*
X168034819Y-97957142D01*
X168034819Y-97957142D02*
X168082438Y-97814285D01*
X168082438Y-97814285D02*
X168130057Y-97766666D01*
X169034819Y-96814285D02*
X169034819Y-97385713D01*
X169034819Y-97099999D02*
X168034819Y-97099999D01*
X168034819Y-97099999D02*
X168177676Y-97195237D01*
X168177676Y-97195237D02*
X168272914Y-97290475D01*
X168272914Y-97290475D02*
X168320533Y-97385713D01*
X152769819Y-108333094D02*
X151769819Y-108333094D01*
X151769819Y-108333094D02*
X151769819Y-108094999D01*
X151769819Y-108094999D02*
X151817438Y-107952142D01*
X151817438Y-107952142D02*
X151912676Y-107856904D01*
X151912676Y-107856904D02*
X152007914Y-107809285D01*
X152007914Y-107809285D02*
X152198390Y-107761666D01*
X152198390Y-107761666D02*
X152341247Y-107761666D01*
X152341247Y-107761666D02*
X152531723Y-107809285D01*
X152531723Y-107809285D02*
X152626961Y-107856904D01*
X152626961Y-107856904D02*
X152722200Y-107952142D01*
X152722200Y-107952142D02*
X152769819Y-108094999D01*
X152769819Y-108094999D02*
X152769819Y-108333094D01*
X151865057Y-107380713D02*
X151817438Y-107333094D01*
X151817438Y-107333094D02*
X151769819Y-107237856D01*
X151769819Y-107237856D02*
X151769819Y-106999761D01*
X151769819Y-106999761D02*
X151817438Y-106904523D01*
X151817438Y-106904523D02*
X151865057Y-106856904D01*
X151865057Y-106856904D02*
X151960295Y-106809285D01*
X151960295Y-106809285D02*
X152055533Y-106809285D01*
X152055533Y-106809285D02*
X152198390Y-106856904D01*
X152198390Y-106856904D02*
X152769819Y-107428332D01*
X152769819Y-107428332D02*
X152769819Y-106809285D01*
X166833333Y-115904819D02*
X166500000Y-115428628D01*
X166261905Y-115904819D02*
X166261905Y-114904819D01*
X166261905Y-114904819D02*
X166642857Y-114904819D01*
X166642857Y-114904819D02*
X166738095Y-114952438D01*
X166738095Y-114952438D02*
X166785714Y-115000057D01*
X166785714Y-115000057D02*
X166833333Y-115095295D01*
X166833333Y-115095295D02*
X166833333Y-115238152D01*
X166833333Y-115238152D02*
X166785714Y-115333390D01*
X166785714Y-115333390D02*
X166738095Y-115381009D01*
X166738095Y-115381009D02*
X166642857Y-115428628D01*
X166642857Y-115428628D02*
X166261905Y-115428628D01*
X167166667Y-114904819D02*
X167785714Y-114904819D01*
X167785714Y-114904819D02*
X167452381Y-115285771D01*
X167452381Y-115285771D02*
X167595238Y-115285771D01*
X167595238Y-115285771D02*
X167690476Y-115333390D01*
X167690476Y-115333390D02*
X167738095Y-115381009D01*
X167738095Y-115381009D02*
X167785714Y-115476247D01*
X167785714Y-115476247D02*
X167785714Y-115714342D01*
X167785714Y-115714342D02*
X167738095Y-115809580D01*
X167738095Y-115809580D02*
X167690476Y-115857200D01*
X167690476Y-115857200D02*
X167595238Y-115904819D01*
X167595238Y-115904819D02*
X167309524Y-115904819D01*
X167309524Y-115904819D02*
X167214286Y-115857200D01*
X167214286Y-115857200D02*
X167166667Y-115809580D01*
X169004819Y-94154166D02*
X168528628Y-94487499D01*
X169004819Y-94725594D02*
X168004819Y-94725594D01*
X168004819Y-94725594D02*
X168004819Y-94344642D01*
X168004819Y-94344642D02*
X168052438Y-94249404D01*
X168052438Y-94249404D02*
X168100057Y-94201785D01*
X168100057Y-94201785D02*
X168195295Y-94154166D01*
X168195295Y-94154166D02*
X168338152Y-94154166D01*
X168338152Y-94154166D02*
X168433390Y-94201785D01*
X168433390Y-94201785D02*
X168481009Y-94249404D01*
X168481009Y-94249404D02*
X168528628Y-94344642D01*
X168528628Y-94344642D02*
X168528628Y-94725594D01*
X168004819Y-93249404D02*
X168004819Y-93725594D01*
X168004819Y-93725594D02*
X168481009Y-93773213D01*
X168481009Y-93773213D02*
X168433390Y-93725594D01*
X168433390Y-93725594D02*
X168385771Y-93630356D01*
X168385771Y-93630356D02*
X168385771Y-93392261D01*
X168385771Y-93392261D02*
X168433390Y-93297023D01*
X168433390Y-93297023D02*
X168481009Y-93249404D01*
X168481009Y-93249404D02*
X168576247Y-93201785D01*
X168576247Y-93201785D02*
X168814342Y-93201785D01*
X168814342Y-93201785D02*
X168909580Y-93249404D01*
X168909580Y-93249404D02*
X168957200Y-93297023D01*
X168957200Y-93297023D02*
X169004819Y-93392261D01*
X169004819Y-93392261D02*
X169004819Y-93630356D01*
X169004819Y-93630356D02*
X168957200Y-93725594D01*
X168957200Y-93725594D02*
X168909580Y-93773213D01*
D10*
X49566667Y-71709800D02*
X49709524Y-71757419D01*
X49709524Y-71757419D02*
X49947619Y-71757419D01*
X49947619Y-71757419D02*
X50042857Y-71709800D01*
X50042857Y-71709800D02*
X50090476Y-71662180D01*
X50090476Y-71662180D02*
X50138095Y-71566942D01*
X50138095Y-71566942D02*
X50138095Y-71471704D01*
X50138095Y-71471704D02*
X50090476Y-71376466D01*
X50090476Y-71376466D02*
X50042857Y-71328847D01*
X50042857Y-71328847D02*
X49947619Y-71281228D01*
X49947619Y-71281228D02*
X49757143Y-71233609D01*
X49757143Y-71233609D02*
X49661905Y-71185990D01*
X49661905Y-71185990D02*
X49614286Y-71138371D01*
X49614286Y-71138371D02*
X49566667Y-71043133D01*
X49566667Y-71043133D02*
X49566667Y-70947895D01*
X49566667Y-70947895D02*
X49614286Y-70852657D01*
X49614286Y-70852657D02*
X49661905Y-70805038D01*
X49661905Y-70805038D02*
X49757143Y-70757419D01*
X49757143Y-70757419D02*
X49995238Y-70757419D01*
X49995238Y-70757419D02*
X50138095Y-70805038D01*
X50471429Y-70757419D02*
X50709524Y-71757419D01*
X50709524Y-71757419D02*
X50900000Y-71043133D01*
X50900000Y-71043133D02*
X51090476Y-71757419D01*
X51090476Y-71757419D02*
X51328572Y-70757419D01*
X52233333Y-71757419D02*
X51661905Y-71757419D01*
X51947619Y-71757419D02*
X51947619Y-70757419D01*
X51947619Y-70757419D02*
X51852381Y-70900276D01*
X51852381Y-70900276D02*
X51757143Y-70995514D01*
X51757143Y-70995514D02*
X51661905Y-71043133D01*
D11*
X150054819Y-85171428D02*
X149578628Y-85504761D01*
X150054819Y-85742856D02*
X149054819Y-85742856D01*
X149054819Y-85742856D02*
X149054819Y-85361904D01*
X149054819Y-85361904D02*
X149102438Y-85266666D01*
X149102438Y-85266666D02*
X149150057Y-85219047D01*
X149150057Y-85219047D02*
X149245295Y-85171428D01*
X149245295Y-85171428D02*
X149388152Y-85171428D01*
X149388152Y-85171428D02*
X149483390Y-85219047D01*
X149483390Y-85219047D02*
X149531009Y-85266666D01*
X149531009Y-85266666D02*
X149578628Y-85361904D01*
X149578628Y-85361904D02*
X149578628Y-85742856D01*
X149054819Y-84552380D02*
X149054819Y-84361904D01*
X149054819Y-84361904D02*
X149102438Y-84266666D01*
X149102438Y-84266666D02*
X149197676Y-84171428D01*
X149197676Y-84171428D02*
X149388152Y-84123809D01*
X149388152Y-84123809D02*
X149721485Y-84123809D01*
X149721485Y-84123809D02*
X149911961Y-84171428D01*
X149911961Y-84171428D02*
X150007200Y-84266666D01*
X150007200Y-84266666D02*
X150054819Y-84361904D01*
X150054819Y-84361904D02*
X150054819Y-84552380D01*
X150054819Y-84552380D02*
X150007200Y-84647618D01*
X150007200Y-84647618D02*
X149911961Y-84742856D01*
X149911961Y-84742856D02*
X149721485Y-84790475D01*
X149721485Y-84790475D02*
X149388152Y-84790475D01*
X149388152Y-84790475D02*
X149197676Y-84742856D01*
X149197676Y-84742856D02*
X149102438Y-84647618D01*
X149102438Y-84647618D02*
X149054819Y-84552380D01*
X149054819Y-83838094D02*
X149054819Y-83266666D01*
X150054819Y-83552380D02*
X149054819Y-83552380D01*
X150054819Y-82409523D02*
X150054819Y-82980951D01*
X150054819Y-82695237D02*
X149054819Y-82695237D01*
X149054819Y-82695237D02*
X149197676Y-82790475D01*
X149197676Y-82790475D02*
X149292914Y-82885713D01*
X149292914Y-82885713D02*
X149340533Y-82980951D01*
D10*
X156116667Y-122709800D02*
X156259524Y-122757419D01*
X156259524Y-122757419D02*
X156497619Y-122757419D01*
X156497619Y-122757419D02*
X156592857Y-122709800D01*
X156592857Y-122709800D02*
X156640476Y-122662180D01*
X156640476Y-122662180D02*
X156688095Y-122566942D01*
X156688095Y-122566942D02*
X156688095Y-122471704D01*
X156688095Y-122471704D02*
X156640476Y-122376466D01*
X156640476Y-122376466D02*
X156592857Y-122328847D01*
X156592857Y-122328847D02*
X156497619Y-122281228D01*
X156497619Y-122281228D02*
X156307143Y-122233609D01*
X156307143Y-122233609D02*
X156211905Y-122185990D01*
X156211905Y-122185990D02*
X156164286Y-122138371D01*
X156164286Y-122138371D02*
X156116667Y-122043133D01*
X156116667Y-122043133D02*
X156116667Y-121947895D01*
X156116667Y-121947895D02*
X156164286Y-121852657D01*
X156164286Y-121852657D02*
X156211905Y-121805038D01*
X156211905Y-121805038D02*
X156307143Y-121757419D01*
X156307143Y-121757419D02*
X156545238Y-121757419D01*
X156545238Y-121757419D02*
X156688095Y-121805038D01*
X157021429Y-121757419D02*
X157259524Y-122757419D01*
X157259524Y-122757419D02*
X157450000Y-122043133D01*
X157450000Y-122043133D02*
X157640476Y-122757419D01*
X157640476Y-122757419D02*
X157878572Y-121757419D01*
X158164286Y-121757419D02*
X158783333Y-121757419D01*
X158783333Y-121757419D02*
X158450000Y-122138371D01*
X158450000Y-122138371D02*
X158592857Y-122138371D01*
X158592857Y-122138371D02*
X158688095Y-122185990D01*
X158688095Y-122185990D02*
X158735714Y-122233609D01*
X158735714Y-122233609D02*
X158783333Y-122328847D01*
X158783333Y-122328847D02*
X158783333Y-122566942D01*
X158783333Y-122566942D02*
X158735714Y-122662180D01*
X158735714Y-122662180D02*
X158688095Y-122709800D01*
X158688095Y-122709800D02*
X158592857Y-122757419D01*
X158592857Y-122757419D02*
X158307143Y-122757419D01*
X158307143Y-122757419D02*
X158211905Y-122709800D01*
X158211905Y-122709800D02*
X158164286Y-122662180D01*
D11*
X151964819Y-124719166D02*
X151488628Y-125052499D01*
X151964819Y-125290594D02*
X150964819Y-125290594D01*
X150964819Y-125290594D02*
X150964819Y-124909642D01*
X150964819Y-124909642D02*
X151012438Y-124814404D01*
X151012438Y-124814404D02*
X151060057Y-124766785D01*
X151060057Y-124766785D02*
X151155295Y-124719166D01*
X151155295Y-124719166D02*
X151298152Y-124719166D01*
X151298152Y-124719166D02*
X151393390Y-124766785D01*
X151393390Y-124766785D02*
X151441009Y-124814404D01*
X151441009Y-124814404D02*
X151488628Y-124909642D01*
X151488628Y-124909642D02*
X151488628Y-125290594D01*
X150964819Y-124385832D02*
X150964819Y-123719166D01*
X150964819Y-123719166D02*
X151964819Y-124147737D01*
X135074819Y-67428571D02*
X134074819Y-67428571D01*
X134074819Y-67428571D02*
X134074819Y-67047619D01*
X134074819Y-67047619D02*
X134122438Y-66952381D01*
X134122438Y-66952381D02*
X134170057Y-66904762D01*
X134170057Y-66904762D02*
X134265295Y-66857143D01*
X134265295Y-66857143D02*
X134408152Y-66857143D01*
X134408152Y-66857143D02*
X134503390Y-66904762D01*
X134503390Y-66904762D02*
X134551009Y-66952381D01*
X134551009Y-66952381D02*
X134598628Y-67047619D01*
X134598628Y-67047619D02*
X134598628Y-67428571D01*
X135074819Y-66428571D02*
X134408152Y-66428571D01*
X134598628Y-66428571D02*
X134503390Y-66380952D01*
X134503390Y-66380952D02*
X134455771Y-66333333D01*
X134455771Y-66333333D02*
X134408152Y-66238095D01*
X134408152Y-66238095D02*
X134408152Y-66142857D01*
X135074819Y-65666666D02*
X135027200Y-65761904D01*
X135027200Y-65761904D02*
X134979580Y-65809523D01*
X134979580Y-65809523D02*
X134884342Y-65857142D01*
X134884342Y-65857142D02*
X134598628Y-65857142D01*
X134598628Y-65857142D02*
X134503390Y-65809523D01*
X134503390Y-65809523D02*
X134455771Y-65761904D01*
X134455771Y-65761904D02*
X134408152Y-65666666D01*
X134408152Y-65666666D02*
X134408152Y-65523809D01*
X134408152Y-65523809D02*
X134455771Y-65428571D01*
X134455771Y-65428571D02*
X134503390Y-65380952D01*
X134503390Y-65380952D02*
X134598628Y-65333333D01*
X134598628Y-65333333D02*
X134884342Y-65333333D01*
X134884342Y-65333333D02*
X134979580Y-65380952D01*
X134979580Y-65380952D02*
X135027200Y-65428571D01*
X135027200Y-65428571D02*
X135074819Y-65523809D01*
X135074819Y-65523809D02*
X135074819Y-65666666D01*
X135027200Y-64476190D02*
X135074819Y-64571428D01*
X135074819Y-64571428D02*
X135074819Y-64761904D01*
X135074819Y-64761904D02*
X135027200Y-64857142D01*
X135027200Y-64857142D02*
X134979580Y-64904761D01*
X134979580Y-64904761D02*
X134884342Y-64952380D01*
X134884342Y-64952380D02*
X134598628Y-64952380D01*
X134598628Y-64952380D02*
X134503390Y-64904761D01*
X134503390Y-64904761D02*
X134455771Y-64857142D01*
X134455771Y-64857142D02*
X134408152Y-64761904D01*
X134408152Y-64761904D02*
X134408152Y-64571428D01*
X134408152Y-64571428D02*
X134455771Y-64476190D01*
X135027200Y-63666666D02*
X135074819Y-63761904D01*
X135074819Y-63761904D02*
X135074819Y-63952380D01*
X135074819Y-63952380D02*
X135027200Y-64047618D01*
X135027200Y-64047618D02*
X134931961Y-64095237D01*
X134931961Y-64095237D02*
X134551009Y-64095237D01*
X134551009Y-64095237D02*
X134455771Y-64047618D01*
X134455771Y-64047618D02*
X134408152Y-63952380D01*
X134408152Y-63952380D02*
X134408152Y-63761904D01*
X134408152Y-63761904D02*
X134455771Y-63666666D01*
X134455771Y-63666666D02*
X134551009Y-63619047D01*
X134551009Y-63619047D02*
X134646247Y-63619047D01*
X134646247Y-63619047D02*
X134741485Y-64095237D01*
X135027200Y-63238094D02*
X135074819Y-63142856D01*
X135074819Y-63142856D02*
X135074819Y-62952380D01*
X135074819Y-62952380D02*
X135027200Y-62857142D01*
X135027200Y-62857142D02*
X134931961Y-62809523D01*
X134931961Y-62809523D02*
X134884342Y-62809523D01*
X134884342Y-62809523D02*
X134789104Y-62857142D01*
X134789104Y-62857142D02*
X134741485Y-62952380D01*
X134741485Y-62952380D02*
X134741485Y-63095237D01*
X134741485Y-63095237D02*
X134693866Y-63190475D01*
X134693866Y-63190475D02*
X134598628Y-63238094D01*
X134598628Y-63238094D02*
X134551009Y-63238094D01*
X134551009Y-63238094D02*
X134455771Y-63190475D01*
X134455771Y-63190475D02*
X134408152Y-63095237D01*
X134408152Y-63095237D02*
X134408152Y-62952380D01*
X134408152Y-62952380D02*
X134455771Y-62857142D01*
X135027200Y-62428570D02*
X135074819Y-62333332D01*
X135074819Y-62333332D02*
X135074819Y-62142856D01*
X135074819Y-62142856D02*
X135027200Y-62047618D01*
X135027200Y-62047618D02*
X134931961Y-61999999D01*
X134931961Y-61999999D02*
X134884342Y-61999999D01*
X134884342Y-61999999D02*
X134789104Y-62047618D01*
X134789104Y-62047618D02*
X134741485Y-62142856D01*
X134741485Y-62142856D02*
X134741485Y-62285713D01*
X134741485Y-62285713D02*
X134693866Y-62380951D01*
X134693866Y-62380951D02*
X134598628Y-62428570D01*
X134598628Y-62428570D02*
X134551009Y-62428570D01*
X134551009Y-62428570D02*
X134455771Y-62380951D01*
X134455771Y-62380951D02*
X134408152Y-62285713D01*
X134408152Y-62285713D02*
X134408152Y-62142856D01*
X134408152Y-62142856D02*
X134455771Y-62047618D01*
X135074819Y-61428570D02*
X135027200Y-61523808D01*
X135027200Y-61523808D02*
X134979580Y-61571427D01*
X134979580Y-61571427D02*
X134884342Y-61619046D01*
X134884342Y-61619046D02*
X134598628Y-61619046D01*
X134598628Y-61619046D02*
X134503390Y-61571427D01*
X134503390Y-61571427D02*
X134455771Y-61523808D01*
X134455771Y-61523808D02*
X134408152Y-61428570D01*
X134408152Y-61428570D02*
X134408152Y-61285713D01*
X134408152Y-61285713D02*
X134455771Y-61190475D01*
X134455771Y-61190475D02*
X134503390Y-61142856D01*
X134503390Y-61142856D02*
X134598628Y-61095237D01*
X134598628Y-61095237D02*
X134884342Y-61095237D01*
X134884342Y-61095237D02*
X134979580Y-61142856D01*
X134979580Y-61142856D02*
X135027200Y-61190475D01*
X135027200Y-61190475D02*
X135074819Y-61285713D01*
X135074819Y-61285713D02*
X135074819Y-61428570D01*
X135074819Y-60666665D02*
X134408152Y-60666665D01*
X134598628Y-60666665D02*
X134503390Y-60619046D01*
X134503390Y-60619046D02*
X134455771Y-60571427D01*
X134455771Y-60571427D02*
X134408152Y-60476189D01*
X134408152Y-60476189D02*
X134408152Y-60380951D01*
X135074819Y-59523808D02*
X135074819Y-60095236D01*
X135074819Y-59809522D02*
X134074819Y-59809522D01*
X134074819Y-59809522D02*
X134217676Y-59904760D01*
X134217676Y-59904760D02*
X134312914Y-59999998D01*
X134312914Y-59999998D02*
X134360533Y-60095236D01*
X174714819Y-64761904D02*
X175524342Y-64761904D01*
X175524342Y-64761904D02*
X175619580Y-64714285D01*
X175619580Y-64714285D02*
X175667200Y-64666666D01*
X175667200Y-64666666D02*
X175714819Y-64571428D01*
X175714819Y-64571428D02*
X175714819Y-64380952D01*
X175714819Y-64380952D02*
X175667200Y-64285714D01*
X175667200Y-64285714D02*
X175619580Y-64238095D01*
X175619580Y-64238095D02*
X175524342Y-64190476D01*
X175524342Y-64190476D02*
X174714819Y-64190476D01*
X175667200Y-63761904D02*
X175714819Y-63619047D01*
X175714819Y-63619047D02*
X175714819Y-63380952D01*
X175714819Y-63380952D02*
X175667200Y-63285714D01*
X175667200Y-63285714D02*
X175619580Y-63238095D01*
X175619580Y-63238095D02*
X175524342Y-63190476D01*
X175524342Y-63190476D02*
X175429104Y-63190476D01*
X175429104Y-63190476D02*
X175333866Y-63238095D01*
X175333866Y-63238095D02*
X175286247Y-63285714D01*
X175286247Y-63285714D02*
X175238628Y-63380952D01*
X175238628Y-63380952D02*
X175191009Y-63571428D01*
X175191009Y-63571428D02*
X175143390Y-63666666D01*
X175143390Y-63666666D02*
X175095771Y-63714285D01*
X175095771Y-63714285D02*
X175000533Y-63761904D01*
X175000533Y-63761904D02*
X174905295Y-63761904D01*
X174905295Y-63761904D02*
X174810057Y-63714285D01*
X174810057Y-63714285D02*
X174762438Y-63666666D01*
X174762438Y-63666666D02*
X174714819Y-63571428D01*
X174714819Y-63571428D02*
X174714819Y-63333333D01*
X174714819Y-63333333D02*
X174762438Y-63190476D01*
X175191009Y-62428571D02*
X175238628Y-62285714D01*
X175238628Y-62285714D02*
X175286247Y-62238095D01*
X175286247Y-62238095D02*
X175381485Y-62190476D01*
X175381485Y-62190476D02*
X175524342Y-62190476D01*
X175524342Y-62190476D02*
X175619580Y-62238095D01*
X175619580Y-62238095D02*
X175667200Y-62285714D01*
X175667200Y-62285714D02*
X175714819Y-62380952D01*
X175714819Y-62380952D02*
X175714819Y-62761904D01*
X175714819Y-62761904D02*
X174714819Y-62761904D01*
X174714819Y-62761904D02*
X174714819Y-62428571D01*
X174714819Y-62428571D02*
X174762438Y-62333333D01*
X174762438Y-62333333D02*
X174810057Y-62285714D01*
X174810057Y-62285714D02*
X174905295Y-62238095D01*
X174905295Y-62238095D02*
X175000533Y-62238095D01*
X175000533Y-62238095D02*
X175095771Y-62285714D01*
X175095771Y-62285714D02*
X175143390Y-62333333D01*
X175143390Y-62333333D02*
X175191009Y-62428571D01*
X175191009Y-62428571D02*
X175191009Y-62761904D01*
X162124819Y-124754166D02*
X161648628Y-125087499D01*
X162124819Y-125325594D02*
X161124819Y-125325594D01*
X161124819Y-125325594D02*
X161124819Y-124944642D01*
X161124819Y-124944642D02*
X161172438Y-124849404D01*
X161172438Y-124849404D02*
X161220057Y-124801785D01*
X161220057Y-124801785D02*
X161315295Y-124754166D01*
X161315295Y-124754166D02*
X161458152Y-124754166D01*
X161458152Y-124754166D02*
X161553390Y-124801785D01*
X161553390Y-124801785D02*
X161601009Y-124849404D01*
X161601009Y-124849404D02*
X161648628Y-124944642D01*
X161648628Y-124944642D02*
X161648628Y-125325594D01*
X161553390Y-124182737D02*
X161505771Y-124277975D01*
X161505771Y-124277975D02*
X161458152Y-124325594D01*
X161458152Y-124325594D02*
X161362914Y-124373213D01*
X161362914Y-124373213D02*
X161315295Y-124373213D01*
X161315295Y-124373213D02*
X161220057Y-124325594D01*
X161220057Y-124325594D02*
X161172438Y-124277975D01*
X161172438Y-124277975D02*
X161124819Y-124182737D01*
X161124819Y-124182737D02*
X161124819Y-123992261D01*
X161124819Y-123992261D02*
X161172438Y-123897023D01*
X161172438Y-123897023D02*
X161220057Y-123849404D01*
X161220057Y-123849404D02*
X161315295Y-123801785D01*
X161315295Y-123801785D02*
X161362914Y-123801785D01*
X161362914Y-123801785D02*
X161458152Y-123849404D01*
X161458152Y-123849404D02*
X161505771Y-123897023D01*
X161505771Y-123897023D02*
X161553390Y-123992261D01*
X161553390Y-123992261D02*
X161553390Y-124182737D01*
X161553390Y-124182737D02*
X161601009Y-124277975D01*
X161601009Y-124277975D02*
X161648628Y-124325594D01*
X161648628Y-124325594D02*
X161743866Y-124373213D01*
X161743866Y-124373213D02*
X161934342Y-124373213D01*
X161934342Y-124373213D02*
X162029580Y-124325594D01*
X162029580Y-124325594D02*
X162077200Y-124277975D01*
X162077200Y-124277975D02*
X162124819Y-124182737D01*
X162124819Y-124182737D02*
X162124819Y-123992261D01*
X162124819Y-123992261D02*
X162077200Y-123897023D01*
X162077200Y-123897023D02*
X162029580Y-123849404D01*
X162029580Y-123849404D02*
X161934342Y-123801785D01*
X161934342Y-123801785D02*
X161743866Y-123801785D01*
X161743866Y-123801785D02*
X161648628Y-123849404D01*
X161648628Y-123849404D02*
X161601009Y-123897023D01*
X161601009Y-123897023D02*
X161553390Y-123992261D01*
D12*
%TO.C,R9*%
X169445000Y-124372936D02*
X169445000Y-124827064D01*
X170915000Y-124372936D02*
X170915000Y-124827064D01*
%TO.C,C3*%
X162738748Y-76765000D02*
X163261252Y-76765000D01*
X162738748Y-78235000D02*
X163261252Y-78235000D01*
%TO.C,R6*%
X156960436Y-76765000D02*
X157414564Y-76765000D01*
X156960436Y-78235000D02*
X157414564Y-78235000D01*
%TO.C,R1*%
X141927064Y-112665000D02*
X141472936Y-112665000D01*
X141927064Y-114135000D02*
X141472936Y-114135000D01*
%TO.C,D1*%
X142739000Y-111640000D02*
X147021000Y-111640000D01*
X142738855Y-111640000D02*
G75*
G02*
X144880000Y-102990000I2141145J4060000D01*
G01*
X144880000Y-102990000D02*
G75*
G02*
X147021145Y-111640000I0J-4590000D01*
G01*
X148880000Y-107580000D02*
G75*
G02*
X140880000Y-107580000I-4000000J0D01*
G01*
X140880000Y-107580000D02*
G75*
G02*
X148880000Y-107580000I4000000J0D01*
G01*
%TO.C,R2*%
X154327064Y-112865000D02*
X153872936Y-112865000D01*
X154327064Y-114335000D02*
X153872936Y-114335000D01*
%TO.C,R4*%
X147265000Y-93860436D02*
X147265000Y-94314564D01*
X148735000Y-93860436D02*
X148735000Y-94314564D01*
%TO.C,C2*%
X147265000Y-97438748D02*
X147265000Y-97961252D01*
X148735000Y-97438748D02*
X148735000Y-97961252D01*
%TO.C,D3*%
X168039000Y-112010000D02*
X172321000Y-112010000D01*
X168038855Y-112010000D02*
G75*
G02*
X170180000Y-103360000I2141145J4060000D01*
G01*
X170180000Y-103360000D02*
G75*
G02*
X172321145Y-112010000I0J-4590000D01*
G01*
X174180000Y-107950000D02*
G75*
G02*
X166180000Y-107950000I-4000000J0D01*
G01*
X166180000Y-107950000D02*
G75*
G02*
X174180000Y-107950000I4000000J0D01*
G01*
%TO.C,C1*%
X166165000Y-97338748D02*
X166165000Y-97861252D01*
X167635000Y-97338748D02*
X167635000Y-97861252D01*
%TO.C,D2*%
X155139000Y-111870000D02*
X159421000Y-111870000D01*
X155138855Y-111870000D02*
G75*
G02*
X157280000Y-103220000I2141145J4060000D01*
G01*
X157280000Y-103220000D02*
G75*
G02*
X159421145Y-111870000I0J-4590000D01*
G01*
X161280000Y-107810000D02*
G75*
G02*
X153280000Y-107810000I-4000000J0D01*
G01*
X153280000Y-107810000D02*
G75*
G02*
X161280000Y-107810000I4000000J0D01*
G01*
%TO.C,R3*%
X167227064Y-113065000D02*
X166772936Y-113065000D01*
X167227064Y-114535000D02*
X166772936Y-114535000D01*
%TO.C,R5*%
X166165000Y-93760436D02*
X166165000Y-94214564D01*
X167635000Y-93760436D02*
X167635000Y-94214564D01*
%TO.C,ROT1*%
X151540000Y-82180000D02*
X153940000Y-82180000D01*
X151540000Y-86280000D02*
X151540000Y-82180000D01*
X151540000Y-90280000D02*
X151540000Y-94380000D01*
X151540000Y-94380000D02*
X163340000Y-94380000D01*
X153340000Y-95480000D02*
X153640000Y-95780000D01*
X153340000Y-96080000D02*
X153340000Y-95480000D01*
X153640000Y-95780000D02*
X153340000Y-96080000D01*
X156140000Y-82180000D02*
X158740000Y-82180000D01*
X160940000Y-82180000D02*
X163340000Y-82180000D01*
X163340000Y-82180000D02*
X163340000Y-86280000D01*
X163340000Y-90280000D02*
X163340000Y-94380000D01*
X160440000Y-88280000D02*
G75*
G02*
X154440000Y-88280000I-3000000J0D01*
G01*
X154440000Y-88280000D02*
G75*
G02*
X160440000Y-88280000I3000000J0D01*
G01*
%TO.C,R7*%
X149125000Y-124325436D02*
X149125000Y-124779564D01*
X150595000Y-124325436D02*
X150595000Y-124779564D01*
%TO.C,Processor1*%
X135760000Y-54480000D02*
X135760000Y-72520000D01*
X135760000Y-72520000D02*
X138430000Y-72520000D01*
X138430000Y-57150000D02*
X138430000Y-54480000D01*
X138430000Y-57150000D02*
X176530000Y-57150000D01*
X138430000Y-69850000D02*
X138430000Y-72520000D01*
X140970000Y-69850000D02*
X138430000Y-69850000D01*
X140970000Y-69850000D02*
X140970000Y-72520000D01*
X140970000Y-69850000D02*
X176530000Y-69850000D01*
X140970000Y-72520000D02*
X179200000Y-72520000D01*
X171320000Y-59560000D02*
X181740000Y-59560000D01*
X171320000Y-67440000D02*
X171320000Y-59560000D01*
X176530000Y-57150000D02*
X176530000Y-54480000D01*
X176530000Y-69850000D02*
X176530000Y-72520000D01*
X179200000Y-54480000D02*
X135760000Y-54480000D01*
X179200000Y-54480000D02*
X179200000Y-59560000D01*
X179200000Y-72520000D02*
X179200000Y-67440000D01*
X181740000Y-59560000D02*
X181740000Y-67440000D01*
X181740000Y-67440000D02*
X171320000Y-67440000D01*
%TO.C,R8*%
X159285000Y-124360436D02*
X159285000Y-124814564D01*
X160755000Y-124360436D02*
X160755000Y-124814564D01*
%TD*%
M02*
