%TF.GenerationSoftware,KiCad,Pcbnew,9.0.0*%
%TF.CreationDate,2025-10-26T20:42:14-07:00*%
%TF.ProjectId,Control_Dock,436f6e74-726f-46c5-9f44-6f636b2e6b69,1.0*%
%TF.SameCoordinates,Original*%
%TF.FileFunction,Copper,L2,Bot*%
%TF.FilePolarity,Positive*%
%FSLAX46Y46*%
G04 Gerber Fmt 4.6, Leading zero omitted, Abs format (unit mm)*
G04 Created by KiCad (PCBNEW 9.0.0) date 2025-10-26 20:42:14*
%MOMM*%
%LPD*%
G01*
G04 APERTURE LIST*
%TA.AperFunction,ComponentPad*%
%ADD10R,1.800000X1.800000*%
%TD*%
%TA.AperFunction,ComponentPad*%
%ADD11C,1.800000*%
%TD*%
%TA.AperFunction,ComponentPad*%
%ADD12R,2.000000X2.000000*%
%TD*%
%TA.AperFunction,ComponentPad*%
%ADD13C,2.000000*%
%TD*%
%TA.AperFunction,ComponentPad*%
%ADD14R,2.000000X3.200000*%
%TD*%
%TA.AperFunction,ComponentPad*%
%ADD15R,1.600000X1.600000*%
%TD*%
%TA.AperFunction,ComponentPad*%
%ADD16O,1.600000X1.600000*%
%TD*%
%TA.AperFunction,ViaPad*%
%ADD17C,0.600000*%
%TD*%
%TA.AperFunction,Conductor*%
%ADD18C,0.200000*%
%TD*%
G04 APERTURE END LIST*
D10*
%TO.P,D1,1,K*%
%TO.N,Net-(D1-K)*%
X144880000Y-108850000D03*
D11*
%TO.P,D1,2,A*%
%TO.N,/L3*%
X144880000Y-106310000D03*
%TD*%
D10*
%TO.P,D3,1,K*%
%TO.N,Net-(D3-K)*%
X170180000Y-109220000D03*
D11*
%TO.P,D3,2,A*%
%TO.N,/L1*%
X170180000Y-106680000D03*
%TD*%
D10*
%TO.P,D2,1,K*%
%TO.N,Net-(D2-K)*%
X157280000Y-109080000D03*
D11*
%TO.P,D2,2,A*%
%TO.N,/L2*%
X157280000Y-106540000D03*
%TD*%
D12*
%TO.P,ROT1,A,A*%
%TO.N,ROT1_A*%
X154940000Y-95780000D03*
D13*
%TO.P,ROT1,B,B*%
%TO.N,ROT1_B*%
X159940000Y-95780000D03*
%TO.P,ROT1,C,C*%
%TO.N,GND*%
X157440000Y-95780000D03*
D14*
%TO.P,ROT1,MP,MP*%
X151840000Y-88280000D03*
X163040000Y-88280000D03*
D13*
%TO.P,ROT1,S1,S1*%
%TO.N,ROT1_Sw*%
X159940000Y-81280000D03*
%TO.P,ROT1,S2,S2*%
%TO.N,GND*%
X154940000Y-81280000D03*
%TD*%
D15*
%TO.P,Processor1,1,D1/TX*%
%TO.N,unconnected-(Processor1-D1{slash}TX-Pad1)*%
X139700000Y-71120000D03*
D16*
%TO.P,Processor1,2,D0/RX*%
%TO.N,unconnected-(Processor1-D0{slash}RX-Pad2)*%
X142240000Y-71120000D03*
%TO.P,Processor1,3,~{RESET}*%
%TO.N,unconnected-(Processor1-~{RESET}-Pad3)*%
X144780000Y-71120000D03*
%TO.P,Processor1,4,GND*%
%TO.N,GND*%
X147320000Y-71120000D03*
%TO.P,Processor1,5,D2*%
%TO.N,/L1*%
X149860000Y-71120000D03*
%TO.P,Processor1,6,D3*%
%TO.N,/L2*%
X152400000Y-71120000D03*
%TO.P,Processor1,7,D4*%
%TO.N,/L3*%
X154940000Y-71120000D03*
%TO.P,Processor1,8,D5*%
%TO.N,ROT1_Sw*%
X157480000Y-71120000D03*
%TO.P,Processor1,9,D6*%
%TO.N,unconnected-(Processor1-D6-Pad9)*%
X160020000Y-71120000D03*
%TO.P,Processor1,10,D7*%
%TO.N,unconnected-(Processor1-D7-Pad10)*%
X162560000Y-71120000D03*
%TO.P,Processor1,11,D8*%
%TO.N,ROT1_A*%
X165100000Y-71120000D03*
%TO.P,Processor1,12,D9*%
%TO.N,ROT1_B*%
X167640000Y-71120000D03*
%TO.P,Processor1,13,D10/CS*%
%TO.N,unconnected-(Processor1-D10{slash}CS-Pad13)*%
X170180000Y-71120000D03*
%TO.P,Processor1,14,D11/COPI*%
%TO.N,unconnected-(Processor1-D11{slash}COPI-Pad14)*%
X172720000Y-71120000D03*
%TO.P,Processor1,15,D12/CIPO*%
%TO.N,unconnected-(Processor1-D12{slash}CIPO-Pad15)*%
X175260000Y-71120000D03*
%TO.P,Processor1,16,D13/SCK*%
%TO.N,unconnected-(Processor1-D13{slash}SCK-Pad16)*%
X175260000Y-55880000D03*
%TO.P,Processor1,17,3V3*%
%TO.N,+3.3V*%
X172720000Y-55880000D03*
%TO.P,Processor1,18,B0*%
%TO.N,unconnected-(Processor1-B0-Pad18)*%
X170180000Y-55880000D03*
%TO.P,Processor1,19,A0*%
%TO.N,unconnected-(Processor1-A0-Pad19)*%
X167640000Y-55880000D03*
%TO.P,Processor1,20,A1*%
%TO.N,/a1*%
X165100000Y-55880000D03*
%TO.P,Processor1,21,A2*%
%TO.N,/a2*%
X162560000Y-55880000D03*
%TO.P,Processor1,22,A3*%
%TO.N,/a3*%
X160020000Y-55880000D03*
%TO.P,Processor1,23,SDA/A4*%
%TO.N,unconnected-(Processor1-SDA{slash}A4-Pad23)*%
X157480000Y-55880000D03*
%TO.P,Processor1,24,SCL/A5*%
%TO.N,unconnected-(Processor1-SCL{slash}A5-Pad24)*%
X154940000Y-55880000D03*
%TO.P,Processor1,25,A6*%
%TO.N,unconnected-(Processor1-A6-Pad25)*%
X152400000Y-55880000D03*
%TO.P,Processor1,26,A7*%
%TO.N,unconnected-(Processor1-A7-Pad26)*%
X149860000Y-55880000D03*
%TO.P,Processor1,27,VUSB/5V*%
%TO.N,unconnected-(Processor1-VUSB{slash}5V-Pad27)*%
X147320000Y-55880000D03*
%TO.P,Processor1,28,B1*%
%TO.N,unconnected-(Processor1-B1-Pad28)*%
X144780000Y-55880000D03*
%TO.P,Processor1,29,GND*%
%TO.N,GND*%
X142240000Y-55880000D03*
%TO.P,Processor1,30,VIN*%
%TO.N,+12V*%
X139700000Y-55880000D03*
%TD*%
D17*
%TO.N,GND*%
X176500000Y-52100000D03*
X169700000Y-52000000D03*
X159700000Y-52000000D03*
X152200000Y-52000000D03*
X142200000Y-52000000D03*
X181600000Y-102500000D03*
X181600000Y-112500000D03*
X55000000Y-55000000D03*
X55000000Y-65000000D03*
X55000000Y-75000000D03*
X55000000Y-85000000D03*
X55000000Y-95000000D03*
X55000000Y-105000000D03*
X55000000Y-115000000D03*
X55000000Y-125000000D03*
X180000000Y-55000000D03*
X180000000Y-60000000D03*
X180000000Y-75000000D03*
X180000000Y-85000000D03*
X180000000Y-95000000D03*
X180000000Y-120000000D03*
X175000000Y-125000000D03*
X170000000Y-130000000D03*
X160000000Y-130000000D03*
X150000000Y-130000000D03*
X140000000Y-130000000D03*
X130000000Y-130000000D03*
X120000000Y-130000000D03*
X110000000Y-130000000D03*
X100000000Y-130000000D03*
X90000000Y-130000000D03*
X80000000Y-130000000D03*
X70000000Y-130000000D03*
X60000000Y-130000000D03*
X160300000Y-78100000D03*
X150700000Y-77300000D03*
X152700000Y-79200000D03*
X160600000Y-97500000D03*
X153800000Y-97500000D03*
X169400000Y-121300000D03*
X159200000Y-121400000D03*
X149200000Y-121100000D03*
%TO.N,ROT1_B*%
X161500000Y-97300000D03*
%TO.N,ROT1_A*%
X152800000Y-97400000D03*
%TO.N,ROT1_Sw*%
X159950000Y-79050000D03*
X151450000Y-76900000D03*
X153550000Y-79000000D03*
%TO.N,/a3*%
X168500000Y-121100000D03*
%TO.N,/a2*%
X158100000Y-121300000D03*
%TO.N,/a1*%
X148000000Y-121200000D03*
%TD*%
D18*
%TO.N,ROT1_B*%
X167640000Y-79960000D02*
X167640000Y-71120000D01*
X165100000Y-93700000D02*
X165100000Y-82500000D01*
X165100000Y-82500000D02*
X167640000Y-79960000D01*
X161500000Y-97300000D02*
X165100000Y-93700000D01*
%TO.N,ROT1_A*%
X150000000Y-80300000D02*
X156400000Y-73900000D01*
X150000000Y-94600000D02*
X150000000Y-80300000D01*
X156400000Y-73900000D02*
X162320000Y-73900000D01*
X152800000Y-97400000D02*
X150000000Y-94600000D01*
X162320000Y-73900000D02*
X165100000Y-71120000D01*
%TO.N,ROT1_Sw*%
X152500000Y-73450000D02*
X155150000Y-73450000D01*
X153600000Y-79050000D02*
X153550000Y-79000000D01*
X155150000Y-73450000D02*
X157480000Y-71120000D01*
X151450000Y-74500000D02*
X152500000Y-73450000D01*
X151450000Y-76900000D02*
X151450000Y-74500000D01*
X159950000Y-79050000D02*
X153600000Y-79050000D01*
%TO.N,/a3*%
X141100000Y-77300000D02*
X136800000Y-73000000D01*
X147600000Y-122300000D02*
X141100000Y-115800000D01*
X156500000Y-59400000D02*
X160020000Y-55880000D01*
X141100000Y-115800000D02*
X141100000Y-77300000D01*
X168500000Y-121100000D02*
X167300000Y-122300000D01*
X167300000Y-122300000D02*
X147600000Y-122300000D01*
X136800000Y-70400000D02*
X147800000Y-59400000D01*
X136800000Y-73000000D02*
X136800000Y-70400000D01*
X147800000Y-59400000D02*
X156500000Y-59400000D01*
%TO.N,/a2*%
X147751057Y-121801000D02*
X141600000Y-115649943D01*
X141600000Y-115649943D02*
X141600000Y-77100000D01*
X157599000Y-121801000D02*
X147751057Y-121801000D01*
X137300000Y-70600000D02*
X148000000Y-59900000D01*
X148000000Y-59900000D02*
X158540000Y-59900000D01*
X158540000Y-59900000D02*
X162560000Y-55880000D01*
X137300000Y-72800000D02*
X137300000Y-70600000D01*
X141600000Y-77100000D02*
X137300000Y-72800000D01*
X158100000Y-121300000D02*
X157599000Y-121801000D01*
%TO.N,/a1*%
X142100000Y-115300000D02*
X142100000Y-76900000D01*
X148218000Y-60400000D02*
X162200000Y-60400000D01*
X137800000Y-72600000D02*
X137800000Y-70818000D01*
X142100000Y-76900000D02*
X137800000Y-72600000D01*
X148000000Y-121200000D02*
X142100000Y-115300000D01*
X162200000Y-60400000D02*
X165100000Y-57500000D01*
X165100000Y-57500000D02*
X165100000Y-55880000D01*
X137800000Y-70818000D02*
X148218000Y-60400000D01*
%TD*%
%TA.AperFunction,Conductor*%
%TO.N,GND*%
G36*
X180974418Y-50585816D02*
G01*
X181174561Y-50600130D01*
X181192063Y-50602647D01*
X181383797Y-50644355D01*
X181400755Y-50649334D01*
X181584609Y-50717909D01*
X181600701Y-50725259D01*
X181772904Y-50819288D01*
X181787784Y-50828849D01*
X181944867Y-50946441D01*
X181958237Y-50958027D01*
X182096972Y-51096762D01*
X182108558Y-51110132D01*
X182226146Y-51267210D01*
X182235711Y-51282095D01*
X182329740Y-51454298D01*
X182337090Y-51470390D01*
X182405662Y-51654236D01*
X182410646Y-51671212D01*
X182452351Y-51862931D01*
X182454869Y-51880442D01*
X182469184Y-52080580D01*
X182469500Y-52089427D01*
X182469500Y-129670572D01*
X182469184Y-129679419D01*
X182454869Y-129879557D01*
X182452351Y-129897068D01*
X182410646Y-130088787D01*
X182405662Y-130105763D01*
X182337090Y-130289609D01*
X182329740Y-130305701D01*
X182235711Y-130477904D01*
X182226146Y-130492789D01*
X182108558Y-130649867D01*
X182096972Y-130663237D01*
X181958237Y-130801972D01*
X181944867Y-130813558D01*
X181787789Y-130931146D01*
X181772904Y-130940711D01*
X181600701Y-131034740D01*
X181584609Y-131042090D01*
X181400763Y-131110662D01*
X181383787Y-131115646D01*
X181192068Y-131157351D01*
X181174557Y-131159869D01*
X180993779Y-131172799D01*
X180974417Y-131174184D01*
X180965572Y-131174500D01*
X49952428Y-131174500D01*
X49943582Y-131174184D01*
X49921622Y-131172613D01*
X49743442Y-131159869D01*
X49725931Y-131157351D01*
X49534212Y-131115646D01*
X49517236Y-131110662D01*
X49333390Y-131042090D01*
X49317298Y-131034740D01*
X49145095Y-130940711D01*
X49130210Y-130931146D01*
X48973132Y-130813558D01*
X48959762Y-130801972D01*
X48821027Y-130663237D01*
X48809441Y-130649867D01*
X48691849Y-130492784D01*
X48682288Y-130477904D01*
X48588259Y-130305701D01*
X48580909Y-130289609D01*
X48520091Y-130126551D01*
X48512334Y-130105755D01*
X48507355Y-130088797D01*
X48465647Y-129897063D01*
X48463130Y-129879556D01*
X48461377Y-129855051D01*
X48448816Y-129679418D01*
X48448500Y-129670572D01*
X48448500Y-128593713D01*
X178649500Y-128593713D01*
X178649500Y-128806286D01*
X178682753Y-129016239D01*
X178748444Y-129218414D01*
X178844951Y-129407820D01*
X178969890Y-129579786D01*
X179120213Y-129730109D01*
X179292179Y-129855048D01*
X179292181Y-129855049D01*
X179292184Y-129855051D01*
X179481588Y-129951557D01*
X179683757Y-130017246D01*
X179893713Y-130050500D01*
X179893714Y-130050500D01*
X180106286Y-130050500D01*
X180106287Y-130050500D01*
X180316243Y-130017246D01*
X180518412Y-129951557D01*
X180707816Y-129855051D01*
X180747455Y-129826252D01*
X180879786Y-129730109D01*
X180879788Y-129730106D01*
X180879792Y-129730104D01*
X181030104Y-129579792D01*
X181030106Y-129579788D01*
X181030109Y-129579786D01*
X181155048Y-129407820D01*
X181155047Y-129407820D01*
X181155051Y-129407816D01*
X181251557Y-129218412D01*
X181317246Y-129016243D01*
X181350500Y-128806287D01*
X181350500Y-128593713D01*
X181317246Y-128383757D01*
X181251557Y-128181588D01*
X181155051Y-127992184D01*
X181155049Y-127992181D01*
X181155048Y-127992179D01*
X181030109Y-127820213D01*
X180879786Y-127669890D01*
X180707820Y-127544951D01*
X180518414Y-127448444D01*
X180518413Y-127448443D01*
X180518412Y-127448443D01*
X180316243Y-127382754D01*
X180316241Y-127382753D01*
X180316240Y-127382753D01*
X180154957Y-127357208D01*
X180106287Y-127349500D01*
X179893713Y-127349500D01*
X179845042Y-127357208D01*
X179683760Y-127382753D01*
X179481585Y-127448444D01*
X179292179Y-127544951D01*
X179120213Y-127669890D01*
X178969890Y-127820213D01*
X178844951Y-127992179D01*
X178748444Y-128181585D01*
X178682753Y-128383760D01*
X178649500Y-128593713D01*
X48448500Y-128593713D01*
X48448500Y-56014108D01*
X58039500Y-56014108D01*
X58039500Y-126765891D01*
X58073608Y-126893187D01*
X58106554Y-126950250D01*
X58139500Y-127007314D01*
X58232686Y-127100500D01*
X58346814Y-127166392D01*
X58474108Y-127200500D01*
X58474110Y-127200500D01*
X129725890Y-127200500D01*
X129725892Y-127200500D01*
X129853186Y-127166392D01*
X129967314Y-127100500D01*
X130060500Y-127007314D01*
X130126392Y-126893186D01*
X130160500Y-126765892D01*
X130160500Y-70360438D01*
X136499500Y-70360438D01*
X136499500Y-73039562D01*
X136513152Y-73090513D01*
X136519979Y-73115990D01*
X136519980Y-73115991D01*
X136551150Y-73169979D01*
X136551151Y-73169981D01*
X136559537Y-73184507D01*
X136559541Y-73184512D01*
X140763181Y-77388152D01*
X140796666Y-77449475D01*
X140799500Y-77475833D01*
X140799500Y-115839562D01*
X140817559Y-115906960D01*
X140819980Y-115915993D01*
X140819981Y-115915994D01*
X140839870Y-115950442D01*
X140839871Y-115950443D01*
X140859540Y-115984511D01*
X147359540Y-122484511D01*
X147415489Y-122540460D01*
X147415491Y-122540461D01*
X147415495Y-122540464D01*
X147484004Y-122580017D01*
X147484011Y-122580021D01*
X147560438Y-122600500D01*
X147560440Y-122600500D01*
X167339560Y-122600500D01*
X167339562Y-122600500D01*
X167415989Y-122580021D01*
X167484511Y-122540460D01*
X167540460Y-122484511D01*
X168388151Y-121636818D01*
X168449474Y-121603334D01*
X168475832Y-121600500D01*
X168565890Y-121600500D01*
X168565892Y-121600500D01*
X168693186Y-121566392D01*
X168807314Y-121500500D01*
X168900500Y-121407314D01*
X168966392Y-121293186D01*
X169000500Y-121165892D01*
X169000500Y-121034108D01*
X168966392Y-120906814D01*
X168900500Y-120792686D01*
X168807314Y-120699500D01*
X168744408Y-120663181D01*
X168693187Y-120633608D01*
X168629539Y-120616554D01*
X168565892Y-120599500D01*
X168434108Y-120599500D01*
X168306812Y-120633608D01*
X168192686Y-120699500D01*
X168192683Y-120699502D01*
X168099502Y-120792683D01*
X168099500Y-120792686D01*
X168033608Y-120906812D01*
X167999500Y-121034108D01*
X167999500Y-121124166D01*
X167979815Y-121191205D01*
X167963181Y-121211847D01*
X167211848Y-121963181D01*
X167150525Y-121996666D01*
X167124167Y-121999500D01*
X158352206Y-121999500D01*
X158285167Y-121979815D01*
X158239412Y-121927011D01*
X158229468Y-121857853D01*
X158258493Y-121794297D01*
X158290206Y-121768113D01*
X158362087Y-121726611D01*
X158407314Y-121700500D01*
X158500500Y-121607314D01*
X158566392Y-121493186D01*
X158600500Y-121365892D01*
X158600500Y-121234108D01*
X158566392Y-121106814D01*
X158500500Y-120992686D01*
X158407314Y-120899500D01*
X158350250Y-120866554D01*
X158293187Y-120833608D01*
X158229539Y-120816554D01*
X158165892Y-120799500D01*
X158034108Y-120799500D01*
X157906812Y-120833608D01*
X157792686Y-120899500D01*
X157792683Y-120899502D01*
X157699502Y-120992683D01*
X157699500Y-120992686D01*
X157633608Y-121106812D01*
X157599500Y-121234108D01*
X157599500Y-121324165D01*
X157590856Y-121353601D01*
X157584333Y-121383591D01*
X157580577Y-121388607D01*
X157579815Y-121391204D01*
X157563182Y-121411845D01*
X157510848Y-121464180D01*
X157449525Y-121497666D01*
X157423166Y-121500500D01*
X148599237Y-121500500D01*
X148532198Y-121480815D01*
X148486443Y-121428011D01*
X148476499Y-121358853D01*
X148479462Y-121344407D01*
X148500500Y-121265892D01*
X148500500Y-121134108D01*
X148466392Y-121006814D01*
X148400500Y-120892686D01*
X148307314Y-120799500D01*
X148250250Y-120766554D01*
X148193187Y-120733608D01*
X148129539Y-120716554D01*
X148065892Y-120699500D01*
X147975833Y-120699500D01*
X147908794Y-120679815D01*
X147888152Y-120663181D01*
X142436819Y-115211848D01*
X142403334Y-115150525D01*
X142400500Y-115124167D01*
X142400500Y-107930247D01*
X143779500Y-107930247D01*
X143779500Y-109769752D01*
X143791131Y-109828229D01*
X143791132Y-109828230D01*
X143835447Y-109894552D01*
X143901769Y-109938867D01*
X143901770Y-109938868D01*
X143960247Y-109950499D01*
X143960250Y-109950500D01*
X143960252Y-109950500D01*
X145799750Y-109950500D01*
X145799751Y-109950499D01*
X145814568Y-109947552D01*
X145858229Y-109938868D01*
X145858229Y-109938867D01*
X145858231Y-109938867D01*
X145924552Y-109894552D01*
X145968867Y-109828231D01*
X145968867Y-109828229D01*
X145968868Y-109828229D01*
X145980499Y-109769752D01*
X145980500Y-109769750D01*
X145980500Y-108160247D01*
X156179500Y-108160247D01*
X156179500Y-109999752D01*
X156191131Y-110058229D01*
X156191132Y-110058230D01*
X156235447Y-110124552D01*
X156301769Y-110168867D01*
X156301770Y-110168868D01*
X156360247Y-110180499D01*
X156360250Y-110180500D01*
X156360252Y-110180500D01*
X158199750Y-110180500D01*
X158199751Y-110180499D01*
X158214568Y-110177552D01*
X158258229Y-110168868D01*
X158258229Y-110168867D01*
X158258231Y-110168867D01*
X158324552Y-110124552D01*
X158368867Y-110058231D01*
X158368867Y-110058229D01*
X158368868Y-110058229D01*
X158380499Y-109999752D01*
X158380500Y-109999750D01*
X158380500Y-108300247D01*
X169079500Y-108300247D01*
X169079500Y-110139752D01*
X169091131Y-110198229D01*
X169091132Y-110198230D01*
X169135447Y-110264552D01*
X169201769Y-110308867D01*
X169201770Y-110308868D01*
X169260247Y-110320499D01*
X169260250Y-110320500D01*
X169260252Y-110320500D01*
X171099750Y-110320500D01*
X171099751Y-110320499D01*
X171114568Y-110317552D01*
X171158229Y-110308868D01*
X171158229Y-110308867D01*
X171158231Y-110308867D01*
X171224552Y-110264552D01*
X171268867Y-110198231D01*
X171268867Y-110198229D01*
X171268868Y-110198229D01*
X171280499Y-110139752D01*
X171280500Y-110139750D01*
X171280500Y-108300249D01*
X171280499Y-108300247D01*
X171268868Y-108241770D01*
X171268867Y-108241769D01*
X171224552Y-108175447D01*
X171158230Y-108131132D01*
X171158229Y-108131131D01*
X171099752Y-108119500D01*
X171099748Y-108119500D01*
X169260252Y-108119500D01*
X169260247Y-108119500D01*
X169201770Y-108131131D01*
X169201769Y-108131132D01*
X169135447Y-108175447D01*
X169091132Y-108241769D01*
X169091131Y-108241770D01*
X169079500Y-108300247D01*
X158380500Y-108300247D01*
X158380500Y-108160249D01*
X158380499Y-108160247D01*
X158368868Y-108101770D01*
X158368867Y-108101769D01*
X158324552Y-108035447D01*
X158258230Y-107991132D01*
X158258229Y-107991131D01*
X158199752Y-107979500D01*
X158199748Y-107979500D01*
X156360252Y-107979500D01*
X156360247Y-107979500D01*
X156301770Y-107991131D01*
X156301769Y-107991132D01*
X156235447Y-108035447D01*
X156191132Y-108101769D01*
X156191131Y-108101770D01*
X156179500Y-108160247D01*
X145980500Y-108160247D01*
X145980500Y-107930249D01*
X145980499Y-107930247D01*
X145968868Y-107871770D01*
X145968867Y-107871769D01*
X145924552Y-107805447D01*
X145858230Y-107761132D01*
X145858229Y-107761131D01*
X145799752Y-107749500D01*
X145799748Y-107749500D01*
X143960252Y-107749500D01*
X143960247Y-107749500D01*
X143901770Y-107761131D01*
X143901769Y-107761132D01*
X143835447Y-107805447D01*
X143791132Y-107871769D01*
X143791131Y-107871770D01*
X143779500Y-107930247D01*
X142400500Y-107930247D01*
X142400500Y-106223389D01*
X143779500Y-106223389D01*
X143779500Y-106396610D01*
X143806597Y-106567697D01*
X143806597Y-106567699D01*
X143806598Y-106567701D01*
X143860127Y-106732445D01*
X143938768Y-106886788D01*
X144040586Y-107026928D01*
X144163072Y-107149414D01*
X144303212Y-107251232D01*
X144457555Y-107329873D01*
X144622299Y-107383402D01*
X144793389Y-107410500D01*
X144793390Y-107410500D01*
X144966610Y-107410500D01*
X144966611Y-107410500D01*
X145137701Y-107383402D01*
X145302445Y-107329873D01*
X145456788Y-107251232D01*
X145596928Y-107149414D01*
X145719414Y-107026928D01*
X145821232Y-106886788D01*
X145899873Y-106732445D01*
X145953402Y-106567701D01*
X145971507Y-106453389D01*
X156179500Y-106453389D01*
X156179500Y-106626610D01*
X156201673Y-106766610D01*
X156206598Y-106797701D01*
X156260127Y-106962445D01*
X156338768Y-107116788D01*
X156440586Y-107256928D01*
X156563072Y-107379414D01*
X156703212Y-107481232D01*
X156857555Y-107559873D01*
X157022299Y-107613402D01*
X157193389Y-107640500D01*
X157193390Y-107640500D01*
X157366610Y-107640500D01*
X157366611Y-107640500D01*
X157537701Y-107613402D01*
X157702445Y-107559873D01*
X157856788Y-107481232D01*
X157996928Y-107379414D01*
X158119414Y-107256928D01*
X158221232Y-107116788D01*
X158299873Y-106962445D01*
X158353402Y-106797701D01*
X158380500Y-106626611D01*
X158380500Y-106593389D01*
X169079500Y-106593389D01*
X169079500Y-106766611D01*
X169106598Y-106937701D01*
X169160127Y-107102445D01*
X169238768Y-107256788D01*
X169340586Y-107396928D01*
X169463072Y-107519414D01*
X169603212Y-107621232D01*
X169757555Y-107699873D01*
X169922299Y-107753402D01*
X170093389Y-107780500D01*
X170093390Y-107780500D01*
X170266610Y-107780500D01*
X170266611Y-107780500D01*
X170437701Y-107753402D01*
X170602445Y-107699873D01*
X170756788Y-107621232D01*
X170896928Y-107519414D01*
X171019414Y-107396928D01*
X171121232Y-107256788D01*
X171199873Y-107102445D01*
X171253402Y-106937701D01*
X171280500Y-106766611D01*
X171280500Y-106593389D01*
X171253402Y-106422299D01*
X171199873Y-106257555D01*
X171121232Y-106103212D01*
X171019414Y-105963072D01*
X170896928Y-105840586D01*
X170756788Y-105738768D01*
X170602445Y-105660127D01*
X170437701Y-105606598D01*
X170437699Y-105606597D01*
X170437698Y-105606597D01*
X170306271Y-105585781D01*
X170266611Y-105579500D01*
X170093389Y-105579500D01*
X170053728Y-105585781D01*
X169922302Y-105606597D01*
X169757552Y-105660128D01*
X169603211Y-105738768D01*
X169523256Y-105796859D01*
X169463072Y-105840586D01*
X169463070Y-105840588D01*
X169463069Y-105840588D01*
X169340588Y-105963069D01*
X169340588Y-105963070D01*
X169340586Y-105963072D01*
X169296859Y-106023256D01*
X169238768Y-106103211D01*
X169160128Y-106257552D01*
X169106597Y-106422302D01*
X169083569Y-106567697D01*
X169079500Y-106593389D01*
X158380500Y-106593389D01*
X158380500Y-106453389D01*
X158353402Y-106282299D01*
X158299873Y-106117555D01*
X158221232Y-105963212D01*
X158119414Y-105823072D01*
X157996928Y-105700586D01*
X157856788Y-105598768D01*
X157702445Y-105520127D01*
X157537701Y-105466598D01*
X157537699Y-105466597D01*
X157537698Y-105466597D01*
X157406271Y-105445781D01*
X157366611Y-105439500D01*
X157193389Y-105439500D01*
X157153728Y-105445781D01*
X157022302Y-105466597D01*
X156857552Y-105520128D01*
X156703211Y-105598768D01*
X156623256Y-105656859D01*
X156563072Y-105700586D01*
X156563070Y-105700588D01*
X156563069Y-105700588D01*
X156440588Y-105823069D01*
X156440588Y-105823070D01*
X156440586Y-105823072D01*
X156427860Y-105840588D01*
X156338768Y-105963211D01*
X156260128Y-106117552D01*
X156206597Y-106282302D01*
X156179500Y-106453389D01*
X145971507Y-106453389D01*
X145980500Y-106396611D01*
X145980500Y-106223389D01*
X145953402Y-106052299D01*
X145899873Y-105887555D01*
X145821232Y-105733212D01*
X145719414Y-105593072D01*
X145596928Y-105470586D01*
X145456788Y-105368768D01*
X145302445Y-105290127D01*
X145137701Y-105236598D01*
X145137699Y-105236597D01*
X145137698Y-105236597D01*
X145006271Y-105215781D01*
X144966611Y-105209500D01*
X144793389Y-105209500D01*
X144753728Y-105215781D01*
X144622302Y-105236597D01*
X144457552Y-105290128D01*
X144303211Y-105368768D01*
X144223256Y-105426859D01*
X144163072Y-105470586D01*
X144163070Y-105470588D01*
X144163069Y-105470588D01*
X144040588Y-105593069D01*
X144040588Y-105593070D01*
X144040586Y-105593072D01*
X144030759Y-105606598D01*
X143938768Y-105733211D01*
X143860128Y-105887552D01*
X143806597Y-106052302D01*
X143779500Y-106223389D01*
X142400500Y-106223389D01*
X142400500Y-80260438D01*
X149699500Y-80260438D01*
X149699500Y-94639562D01*
X149706974Y-94667453D01*
X149719979Y-94715990D01*
X149741484Y-94753236D01*
X149741485Y-94753240D01*
X149741486Y-94753240D01*
X149759539Y-94784509D01*
X149759541Y-94784512D01*
X152263181Y-97288152D01*
X152296666Y-97349475D01*
X152299500Y-97375833D01*
X152299500Y-97465891D01*
X152333608Y-97593187D01*
X152341766Y-97607316D01*
X152399500Y-97707314D01*
X152492686Y-97800500D01*
X152606814Y-97866392D01*
X152734108Y-97900500D01*
X152734110Y-97900500D01*
X152865890Y-97900500D01*
X152865892Y-97900500D01*
X152993186Y-97866392D01*
X153107314Y-97800500D01*
X153200500Y-97707314D01*
X153266392Y-97593186D01*
X153300500Y-97465892D01*
X153300500Y-97334108D01*
X153266392Y-97206814D01*
X153200500Y-97092686D01*
X153107314Y-96999500D01*
X153023206Y-96950940D01*
X152993187Y-96933608D01*
X152929539Y-96916554D01*
X152865892Y-96899500D01*
X152775833Y-96899500D01*
X152708794Y-96879815D01*
X152688152Y-96863181D01*
X150585218Y-94760247D01*
X153739500Y-94760247D01*
X153739500Y-96799752D01*
X153751131Y-96858229D01*
X153751132Y-96858230D01*
X153795447Y-96924552D01*
X153861769Y-96968867D01*
X153861770Y-96968868D01*
X153920247Y-96980499D01*
X153920250Y-96980500D01*
X153920252Y-96980500D01*
X155959750Y-96980500D01*
X155959751Y-96980499D01*
X155974568Y-96977552D01*
X156018229Y-96968868D01*
X156018229Y-96968867D01*
X156018231Y-96968867D01*
X156084552Y-96924552D01*
X156128867Y-96858231D01*
X156140500Y-96799748D01*
X156140500Y-96759666D01*
X156145362Y-96742819D01*
X156155082Y-96727537D01*
X156160185Y-96710161D01*
X156173443Y-96698672D01*
X156178350Y-96690958D01*
X156176919Y-96689527D01*
X156957037Y-95909408D01*
X156974075Y-95972993D01*
X157039901Y-96087007D01*
X157132993Y-96180099D01*
X157247007Y-96245925D01*
X157310590Y-96262962D01*
X156570893Y-97002658D01*
X156653828Y-97062914D01*
X156864197Y-97170102D01*
X157088752Y-97243065D01*
X157088751Y-97243065D01*
X157321948Y-97280000D01*
X157558052Y-97280000D01*
X157791247Y-97243065D01*
X157818814Y-97234108D01*
X160999500Y-97234108D01*
X160999500Y-97365891D01*
X161033608Y-97493187D01*
X161066554Y-97550250D01*
X161099500Y-97607314D01*
X161192686Y-97700500D01*
X161306814Y-97766392D01*
X161434108Y-97800500D01*
X161434110Y-97800500D01*
X161565890Y-97800500D01*
X161565892Y-97800500D01*
X161693186Y-97766392D01*
X161807314Y-97700500D01*
X161900500Y-97607314D01*
X161966392Y-97493186D01*
X162000500Y-97365892D01*
X162000500Y-97275832D01*
X162020185Y-97208793D01*
X162036819Y-97188151D01*
X163637963Y-95587007D01*
X165340460Y-93884511D01*
X165380021Y-93815989D01*
X165400500Y-93739562D01*
X165400500Y-82675833D01*
X165420185Y-82608794D01*
X165436819Y-82588152D01*
X166650490Y-81374481D01*
X167880460Y-80144511D01*
X167897216Y-80115489D01*
X167920021Y-80075989D01*
X167940500Y-79999562D01*
X167940500Y-72161315D01*
X167960185Y-72094276D01*
X168012989Y-72048521D01*
X168017002Y-72046773D01*
X168113914Y-72006632D01*
X168277782Y-71897139D01*
X168417139Y-71757782D01*
X168526632Y-71593914D01*
X168602051Y-71411835D01*
X168638034Y-71230938D01*
X168640500Y-71218543D01*
X169179499Y-71218543D01*
X169217947Y-71411829D01*
X169217950Y-71411839D01*
X169293364Y-71593907D01*
X169293371Y-71593920D01*
X169402860Y-71757781D01*
X169402863Y-71757785D01*
X169542214Y-71897136D01*
X169542218Y-71897139D01*
X169706079Y-72006628D01*
X169706092Y-72006635D01*
X169845918Y-72064552D01*
X169888165Y-72082051D01*
X169888169Y-72082051D01*
X169888170Y-72082052D01*
X170081456Y-72120500D01*
X170081459Y-72120500D01*
X170278543Y-72120500D01*
X170428887Y-72090594D01*
X170471835Y-72082051D01*
X170653914Y-72006632D01*
X170817782Y-71897139D01*
X170957139Y-71757782D01*
X171066632Y-71593914D01*
X171142051Y-71411835D01*
X171178034Y-71230938D01*
X171180500Y-71218543D01*
X171719499Y-71218543D01*
X171757947Y-71411829D01*
X171757950Y-71411839D01*
X171833364Y-71593907D01*
X171833371Y-71593920D01*
X171942860Y-71757781D01*
X171942863Y-71757785D01*
X172082214Y-71897136D01*
X172082218Y-71897139D01*
X172246079Y-72006628D01*
X172246092Y-72006635D01*
X172385918Y-72064552D01*
X172428165Y-72082051D01*
X172428169Y-72082051D01*
X172428170Y-72082052D01*
X172621456Y-72120500D01*
X172621459Y-72120500D01*
X172818543Y-72120500D01*
X172968887Y-72090594D01*
X173011835Y-72082051D01*
X173193914Y-72006632D01*
X173357782Y-71897139D01*
X173497139Y-71757782D01*
X173606632Y-71593914D01*
X173682051Y-71411835D01*
X173718034Y-71230938D01*
X173720500Y-71218543D01*
X174259499Y-71218543D01*
X174297947Y-71411829D01*
X174297950Y-71411839D01*
X174373364Y-71593907D01*
X174373371Y-71593920D01*
X174482860Y-71757781D01*
X174482863Y-71757785D01*
X174622214Y-71897136D01*
X174622218Y-71897139D01*
X174786079Y-72006628D01*
X174786092Y-72006635D01*
X174925918Y-72064552D01*
X174968165Y-72082051D01*
X174968169Y-72082051D01*
X174968170Y-72082052D01*
X175161456Y-72120500D01*
X175161459Y-72120500D01*
X175358543Y-72120500D01*
X175508887Y-72090594D01*
X175551835Y-72082051D01*
X175733914Y-72006632D01*
X175897782Y-71897139D01*
X176037139Y-71757782D01*
X176146632Y-71593914D01*
X176222051Y-71411835D01*
X176258034Y-71230938D01*
X176260500Y-71218543D01*
X176260500Y-71021456D01*
X176222052Y-70828170D01*
X176222051Y-70828169D01*
X176222051Y-70828165D01*
X176177207Y-70719901D01*
X176146635Y-70646092D01*
X176146628Y-70646079D01*
X176037139Y-70482218D01*
X176037136Y-70482214D01*
X175897785Y-70342863D01*
X175897781Y-70342860D01*
X175733920Y-70233371D01*
X175733907Y-70233364D01*
X175551839Y-70157950D01*
X175551829Y-70157947D01*
X175358543Y-70119500D01*
X175358541Y-70119500D01*
X175161459Y-70119500D01*
X175161457Y-70119500D01*
X174968170Y-70157947D01*
X174968160Y-70157950D01*
X174786092Y-70233364D01*
X174786079Y-70233371D01*
X174622218Y-70342860D01*
X174622214Y-70342863D01*
X174482863Y-70482214D01*
X174482860Y-70482218D01*
X174373371Y-70646079D01*
X174373364Y-70646092D01*
X174297950Y-70828160D01*
X174297947Y-70828170D01*
X174259500Y-71021456D01*
X174259500Y-71021459D01*
X174259500Y-71218541D01*
X174259500Y-71218543D01*
X174259499Y-71218543D01*
X173720500Y-71218543D01*
X173720500Y-71021456D01*
X173682052Y-70828170D01*
X173682051Y-70828169D01*
X173682051Y-70828165D01*
X173637207Y-70719901D01*
X173606635Y-70646092D01*
X173606628Y-70646079D01*
X173497139Y-70482218D01*
X173497136Y-70482214D01*
X173357785Y-70342863D01*
X173357781Y-70342860D01*
X173193920Y-70233371D01*
X173193907Y-70233364D01*
X173011839Y-70157950D01*
X173011829Y-70157947D01*
X172818543Y-70119500D01*
X172818541Y-70119500D01*
X172621459Y-70119500D01*
X172621457Y-70119500D01*
X172428170Y-70157947D01*
X172428160Y-70157950D01*
X172246092Y-70233364D01*
X172246079Y-70233371D01*
X172082218Y-70342860D01*
X172082214Y-70342863D01*
X171942863Y-70482214D01*
X171942860Y-70482218D01*
X171833371Y-70646079D01*
X171833364Y-70646092D01*
X171757950Y-70828160D01*
X171757947Y-70828170D01*
X171719500Y-71021456D01*
X171719500Y-71021459D01*
X171719500Y-71218541D01*
X171719500Y-71218543D01*
X171719499Y-71218543D01*
X171180500Y-71218543D01*
X171180500Y-71021456D01*
X171142052Y-70828170D01*
X171142051Y-70828169D01*
X171142051Y-70828165D01*
X171097207Y-70719901D01*
X171066635Y-70646092D01*
X171066628Y-70646079D01*
X170957139Y-70482218D01*
X170957136Y-70482214D01*
X170817785Y-70342863D01*
X170817781Y-70342860D01*
X170653920Y-70233371D01*
X170653907Y-70233364D01*
X170471839Y-70157950D01*
X170471829Y-70157947D01*
X170278543Y-70119500D01*
X170278541Y-70119500D01*
X170081459Y-70119500D01*
X170081457Y-70119500D01*
X169888170Y-70157947D01*
X169888160Y-70157950D01*
X169706092Y-70233364D01*
X169706079Y-70233371D01*
X169542218Y-70342860D01*
X169542214Y-70342863D01*
X169402863Y-70482214D01*
X169402860Y-70482218D01*
X169293371Y-70646079D01*
X169293364Y-70646092D01*
X169217950Y-70828160D01*
X169217947Y-70828170D01*
X169179500Y-71021456D01*
X169179500Y-71021459D01*
X169179500Y-71218541D01*
X169179500Y-71218543D01*
X169179499Y-71218543D01*
X168640500Y-71218543D01*
X168640500Y-71021456D01*
X168602052Y-70828170D01*
X168602051Y-70828169D01*
X168602051Y-70828165D01*
X168557207Y-70719901D01*
X168526635Y-70646092D01*
X168526628Y-70646079D01*
X168417139Y-70482218D01*
X168417136Y-70482214D01*
X168277785Y-70342863D01*
X168277781Y-70342860D01*
X168113920Y-70233371D01*
X168113907Y-70233364D01*
X167931839Y-70157950D01*
X167931829Y-70157947D01*
X167738543Y-70119500D01*
X167738541Y-70119500D01*
X167541459Y-70119500D01*
X167541457Y-70119500D01*
X167348170Y-70157947D01*
X167348160Y-70157950D01*
X167166092Y-70233364D01*
X167166079Y-70233371D01*
X167002218Y-70342860D01*
X167002214Y-70342863D01*
X166862863Y-70482214D01*
X166862860Y-70482218D01*
X166753371Y-70646079D01*
X166753364Y-70646092D01*
X166677950Y-70828160D01*
X166677947Y-70828170D01*
X166639500Y-71021456D01*
X166639500Y-71021459D01*
X166639500Y-71218541D01*
X166639500Y-71218543D01*
X166639499Y-71218543D01*
X166677947Y-71411829D01*
X166677950Y-71411839D01*
X166753364Y-71593907D01*
X166753371Y-71593920D01*
X166862860Y-71757781D01*
X166862863Y-71757785D01*
X167002217Y-71897139D01*
X167153513Y-71998231D01*
X167166086Y-72006632D01*
X167262953Y-72046755D01*
X167317355Y-72090594D01*
X167339421Y-72156888D01*
X167339500Y-72161315D01*
X167339500Y-79784167D01*
X167319815Y-79851206D01*
X167303181Y-79871848D01*
X164859541Y-82315487D01*
X164859535Y-82315495D01*
X164819982Y-82384004D01*
X164819979Y-82384009D01*
X164799500Y-82460439D01*
X164799500Y-93524166D01*
X164779815Y-93591205D01*
X164763181Y-93611847D01*
X161611847Y-96763181D01*
X161550524Y-96796666D01*
X161524166Y-96799500D01*
X161434108Y-96799500D01*
X161306812Y-96833608D01*
X161192686Y-96899500D01*
X161192683Y-96899502D01*
X161099502Y-96992683D01*
X161099500Y-96992686D01*
X161033608Y-97106812D01*
X160999500Y-97234108D01*
X157818814Y-97234108D01*
X158015802Y-97170102D01*
X158122975Y-97115496D01*
X158226163Y-97062918D01*
X158226169Y-97062914D01*
X158309104Y-97002658D01*
X158309105Y-97002658D01*
X157569408Y-96262962D01*
X157632993Y-96245925D01*
X157747007Y-96180099D01*
X157840099Y-96087007D01*
X157905925Y-95972993D01*
X157922962Y-95909409D01*
X158662658Y-96649105D01*
X158662658Y-96649104D01*
X158722914Y-96566169D01*
X158722921Y-96566159D01*
X158756516Y-96500224D01*
X158804489Y-96449428D01*
X158872310Y-96432632D01*
X158938445Y-96455169D01*
X158967319Y-96483632D01*
X159024310Y-96562073D01*
X159157927Y-96695690D01*
X159310801Y-96806760D01*
X159390347Y-96847290D01*
X159479163Y-96892545D01*
X159479165Y-96892545D01*
X159479168Y-96892547D01*
X159575497Y-96923846D01*
X159658881Y-96950940D01*
X159845514Y-96980500D01*
X159845519Y-96980500D01*
X160034486Y-96980500D01*
X160221118Y-96950940D01*
X160400832Y-96892547D01*
X160569199Y-96806760D01*
X160722073Y-96695690D01*
X160855690Y-96562073D01*
X160966760Y-96409199D01*
X161052547Y-96240832D01*
X161110940Y-96061118D01*
X161140500Y-95874486D01*
X161140500Y-95685513D01*
X161110940Y-95498881D01*
X161052545Y-95319163D01*
X160966759Y-95150800D01*
X160943679Y-95119033D01*
X160855690Y-94997927D01*
X160722073Y-94864310D01*
X160569199Y-94753240D01*
X160496090Y-94715989D01*
X160400836Y-94667454D01*
X160221118Y-94609059D01*
X160034486Y-94579500D01*
X160034481Y-94579500D01*
X159845519Y-94579500D01*
X159845514Y-94579500D01*
X159658881Y-94609059D01*
X159479163Y-94667454D01*
X159310800Y-94753240D01*
X159223579Y-94816610D01*
X159157927Y-94864310D01*
X159157925Y-94864312D01*
X159157924Y-94864312D01*
X159024309Y-94997927D01*
X158967318Y-95076368D01*
X158911988Y-95119033D01*
X158842374Y-95125011D01*
X158780580Y-95092404D01*
X158756516Y-95059775D01*
X158722916Y-94993830D01*
X158662658Y-94910894D01*
X158662658Y-94910893D01*
X157922962Y-95650590D01*
X157905925Y-95587007D01*
X157840099Y-95472993D01*
X157747007Y-95379901D01*
X157632993Y-95314075D01*
X157569409Y-95297037D01*
X158309105Y-94557340D01*
X158309104Y-94557338D01*
X158226174Y-94497087D01*
X158015802Y-94389897D01*
X157791248Y-94316934D01*
X157787307Y-94315988D01*
X157726718Y-94281194D01*
X157694558Y-94219165D01*
X157701038Y-94149597D01*
X157744101Y-94094576D01*
X157768805Y-94080857D01*
X157882188Y-94033892D01*
X157937594Y-94010943D01*
X157937595Y-94010942D01*
X157937598Y-94010941D01*
X158109655Y-93895977D01*
X158255977Y-93749655D01*
X158370941Y-93577598D01*
X158450130Y-93386420D01*
X158490500Y-93183465D01*
X158490500Y-92376535D01*
X158450130Y-92173580D01*
X158370941Y-91982402D01*
X158255977Y-91810345D01*
X158255975Y-91810342D01*
X158109657Y-91664024D01*
X158023626Y-91606541D01*
X157937598Y-91549059D01*
X157746420Y-91469870D01*
X157746412Y-91469868D01*
X157543469Y-91429500D01*
X157543465Y-91429500D01*
X157336535Y-91429500D01*
X157336530Y-91429500D01*
X157133587Y-91469868D01*
X157133579Y-91469870D01*
X156942403Y-91549058D01*
X156770342Y-91664024D01*
X156624024Y-91810342D01*
X156509058Y-91982403D01*
X156429870Y-92173579D01*
X156429868Y-92173587D01*
X156389500Y-92376530D01*
X156389500Y-93183469D01*
X156429868Y-93386412D01*
X156429870Y-93386420D01*
X156509058Y-93577596D01*
X156624024Y-93749657D01*
X156770342Y-93895975D01*
X156942405Y-94010943D01*
X157064693Y-94061595D01*
X157111189Y-94080855D01*
X157165593Y-94124696D01*
X157187658Y-94190990D01*
X157170379Y-94258689D01*
X157119242Y-94306300D01*
X157092695Y-94315987D01*
X157088756Y-94316932D01*
X156864197Y-94389897D01*
X156653830Y-94497084D01*
X156570894Y-94557340D01*
X157310591Y-95297037D01*
X157247007Y-95314075D01*
X157132993Y-95379901D01*
X157039901Y-95472993D01*
X156974075Y-95587007D01*
X156957037Y-95650591D01*
X156176918Y-94870472D01*
X156180416Y-94866973D01*
X156155620Y-94842137D01*
X156140500Y-94782798D01*
X156140500Y-94760249D01*
X156140499Y-94760247D01*
X156128868Y-94701770D01*
X156128867Y-94701769D01*
X156084552Y-94635447D01*
X156018230Y-94591132D01*
X156018229Y-94591131D01*
X155959752Y-94579500D01*
X155959748Y-94579500D01*
X153920252Y-94579500D01*
X153920247Y-94579500D01*
X153861770Y-94591131D01*
X153861769Y-94591132D01*
X153795447Y-94635447D01*
X153751132Y-94701769D01*
X153751131Y-94701770D01*
X153739500Y-94760247D01*
X150585218Y-94760247D01*
X150336819Y-94511848D01*
X150303334Y-94450525D01*
X150300500Y-94424167D01*
X150300500Y-90348433D01*
X150320185Y-90281394D01*
X150372989Y-90235639D01*
X150442147Y-90225695D01*
X150498811Y-90249167D01*
X150597906Y-90323350D01*
X150597913Y-90323354D01*
X150732620Y-90373596D01*
X150732627Y-90373598D01*
X150792155Y-90379999D01*
X150792172Y-90380000D01*
X151590000Y-90380000D01*
X151590000Y-89638240D01*
X151621233Y-89651178D01*
X151766131Y-89680000D01*
X151913869Y-89680000D01*
X152058767Y-89651178D01*
X152090000Y-89638240D01*
X152090000Y-90380000D01*
X152887828Y-90380000D01*
X152887844Y-90379999D01*
X152947372Y-90373598D01*
X152947379Y-90373596D01*
X153082086Y-90323354D01*
X153082093Y-90323350D01*
X153197187Y-90237190D01*
X153197190Y-90237187D01*
X153283350Y-90122093D01*
X153283354Y-90122086D01*
X153333596Y-89987379D01*
X153333598Y-89987372D01*
X153339999Y-89927844D01*
X153340000Y-89927827D01*
X153340000Y-88530000D01*
X152590000Y-88530000D01*
X152590000Y-88177648D01*
X156139500Y-88177648D01*
X156139500Y-88382351D01*
X156171522Y-88584534D01*
X156234781Y-88779223D01*
X156327715Y-88961613D01*
X156448028Y-89127213D01*
X156592786Y-89271971D01*
X156747749Y-89384556D01*
X156758390Y-89392287D01*
X156874607Y-89451503D01*
X156940776Y-89485218D01*
X156940778Y-89485218D01*
X156940781Y-89485220D01*
X157024934Y-89512563D01*
X157135465Y-89548477D01*
X157236557Y-89564488D01*
X157337648Y-89580500D01*
X157337649Y-89580500D01*
X157542351Y-89580500D01*
X157542352Y-89580500D01*
X157744534Y-89548477D01*
X157939219Y-89485220D01*
X158121610Y-89392287D01*
X158214590Y-89324732D01*
X158287213Y-89271971D01*
X158287215Y-89271968D01*
X158287219Y-89271966D01*
X158431966Y-89127219D01*
X158431968Y-89127215D01*
X158431971Y-89127213D01*
X158521584Y-89003869D01*
X158552287Y-88961610D01*
X158645220Y-88779219D01*
X158708477Y-88584534D01*
X158728322Y-88459240D01*
X158740500Y-88382351D01*
X158740500Y-88177648D01*
X158708477Y-87975465D01*
X158645218Y-87780776D01*
X158611503Y-87714607D01*
X158552287Y-87598390D01*
X158544556Y-87587749D01*
X158431971Y-87432786D01*
X158287213Y-87288028D01*
X158121613Y-87167715D01*
X158121612Y-87167714D01*
X158121610Y-87167713D01*
X158064653Y-87138691D01*
X157939223Y-87074781D01*
X157744534Y-87011522D01*
X157569995Y-86983878D01*
X157542352Y-86979500D01*
X157337648Y-86979500D01*
X157313329Y-86983351D01*
X157135465Y-87011522D01*
X156940776Y-87074781D01*
X156758386Y-87167715D01*
X156592786Y-87288028D01*
X156448028Y-87432786D01*
X156327715Y-87598386D01*
X156234781Y-87780776D01*
X156171522Y-87975465D01*
X156139500Y-88177648D01*
X152590000Y-88177648D01*
X152590000Y-88030000D01*
X153340000Y-88030000D01*
X153340000Y-86632172D01*
X153339999Y-86632155D01*
X161540000Y-86632155D01*
X161540000Y-88030000D01*
X162290000Y-88030000D01*
X162290000Y-88530000D01*
X161540000Y-88530000D01*
X161540000Y-89927844D01*
X161546401Y-89987372D01*
X161546403Y-89987379D01*
X161596645Y-90122086D01*
X161596649Y-90122093D01*
X161682809Y-90237187D01*
X161682812Y-90237190D01*
X161797906Y-90323350D01*
X161797913Y-90323354D01*
X161932620Y-90373596D01*
X161932627Y-90373598D01*
X161992155Y-90379999D01*
X161992172Y-90380000D01*
X162790000Y-90380000D01*
X162790000Y-89638240D01*
X162821233Y-89651178D01*
X162966131Y-89680000D01*
X163113869Y-89680000D01*
X163258767Y-89651178D01*
X163290000Y-89638240D01*
X163290000Y-90380000D01*
X164087828Y-90380000D01*
X164087844Y-90379999D01*
X164147372Y-90373598D01*
X164147379Y-90373596D01*
X164282086Y-90323354D01*
X164282093Y-90323350D01*
X164397187Y-90237190D01*
X164397190Y-90237187D01*
X164483350Y-90122093D01*
X164483354Y-90122086D01*
X164533596Y-89987379D01*
X164533598Y-89987372D01*
X164539999Y-89927844D01*
X164540000Y-89927827D01*
X164540000Y-88530000D01*
X163790000Y-88530000D01*
X163790000Y-88030000D01*
X164540000Y-88030000D01*
X164540000Y-86632172D01*
X164539999Y-86632155D01*
X164533598Y-86572627D01*
X164533596Y-86572620D01*
X164483354Y-86437913D01*
X164483350Y-86437906D01*
X164397190Y-86322812D01*
X164397187Y-86322809D01*
X164282093Y-86236649D01*
X164282086Y-86236645D01*
X164147379Y-86186403D01*
X164147372Y-86186401D01*
X164087844Y-86180000D01*
X163290000Y-86180000D01*
X163290000Y-86921759D01*
X163258767Y-86908822D01*
X163113869Y-86880000D01*
X162966131Y-86880000D01*
X162821233Y-86908822D01*
X162790000Y-86921759D01*
X162790000Y-86180000D01*
X161992155Y-86180000D01*
X161932627Y-86186401D01*
X161932620Y-86186403D01*
X161797913Y-86236645D01*
X161797906Y-86236649D01*
X161682812Y-86322809D01*
X161682809Y-86322812D01*
X161596649Y-86437906D01*
X161596645Y-86437913D01*
X161546403Y-86572620D01*
X161546401Y-86572627D01*
X161540000Y-86632155D01*
X153339999Y-86632155D01*
X153333598Y-86572627D01*
X153333596Y-86572620D01*
X153283354Y-86437913D01*
X153283350Y-86437906D01*
X153197190Y-86322812D01*
X153197187Y-86322809D01*
X153082093Y-86236649D01*
X153082086Y-86236645D01*
X152947379Y-86186403D01*
X152947372Y-86186401D01*
X152887844Y-86180000D01*
X152090000Y-86180000D01*
X152090000Y-86921759D01*
X152058767Y-86908822D01*
X151913869Y-86880000D01*
X151766131Y-86880000D01*
X151621233Y-86908822D01*
X151590000Y-86921759D01*
X151590000Y-86180000D01*
X150792155Y-86180000D01*
X150732627Y-86186401D01*
X150732620Y-86186403D01*
X150597913Y-86236645D01*
X150597910Y-86236647D01*
X150498811Y-86310833D01*
X150433347Y-86335250D01*
X150365074Y-86320398D01*
X150315668Y-86270993D01*
X150300500Y-86211566D01*
X150300500Y-81161947D01*
X153440000Y-81161947D01*
X153440000Y-81398052D01*
X153476934Y-81631247D01*
X153549897Y-81855802D01*
X153657087Y-82066174D01*
X153717338Y-82149104D01*
X153717340Y-82149105D01*
X154457037Y-81409408D01*
X154474075Y-81472993D01*
X154539901Y-81587007D01*
X154632993Y-81680099D01*
X154747007Y-81745925D01*
X154810590Y-81762962D01*
X154070893Y-82502658D01*
X154153828Y-82562914D01*
X154364197Y-82670102D01*
X154588752Y-82743065D01*
X154588751Y-82743065D01*
X154821948Y-82780000D01*
X155058052Y-82780000D01*
X155291247Y-82743065D01*
X155515802Y-82670102D01*
X155726163Y-82562918D01*
X155726169Y-82562914D01*
X155809104Y-82502658D01*
X155809105Y-82502658D01*
X155069408Y-81762962D01*
X155132993Y-81745925D01*
X155247007Y-81680099D01*
X155340099Y-81587007D01*
X155405925Y-81472993D01*
X155422962Y-81409408D01*
X156162658Y-82149105D01*
X156162658Y-82149104D01*
X156222914Y-82066169D01*
X156222918Y-82066163D01*
X156330102Y-81855802D01*
X156403065Y-81631247D01*
X156440000Y-81398052D01*
X156440000Y-81185513D01*
X158739500Y-81185513D01*
X158739500Y-81374486D01*
X158769059Y-81561118D01*
X158827454Y-81740836D01*
X158886033Y-81855802D01*
X158913240Y-81909199D01*
X159024310Y-82062073D01*
X159157927Y-82195690D01*
X159310801Y-82306760D01*
X159390347Y-82347290D01*
X159479163Y-82392545D01*
X159479165Y-82392545D01*
X159479168Y-82392547D01*
X159575497Y-82423846D01*
X159658881Y-82450940D01*
X159845514Y-82480500D01*
X159845519Y-82480500D01*
X160034486Y-82480500D01*
X160221118Y-82450940D01*
X160400832Y-82392547D01*
X160569199Y-82306760D01*
X160722073Y-82195690D01*
X160855690Y-82062073D01*
X160966760Y-81909199D01*
X161052547Y-81740832D01*
X161110940Y-81561118D01*
X161140500Y-81374486D01*
X161140500Y-81185513D01*
X161110940Y-80998881D01*
X161052545Y-80819163D01*
X161007290Y-80730347D01*
X160966760Y-80650801D01*
X160855690Y-80497927D01*
X160722073Y-80364310D01*
X160569199Y-80253240D01*
X160400836Y-80167454D01*
X160221118Y-80109059D01*
X160034486Y-80079500D01*
X160034481Y-80079500D01*
X159845519Y-80079500D01*
X159845514Y-80079500D01*
X159658881Y-80109059D01*
X159479163Y-80167454D01*
X159310800Y-80253240D01*
X159300892Y-80260439D01*
X159157927Y-80364310D01*
X159157925Y-80364312D01*
X159157924Y-80364312D01*
X159024312Y-80497924D01*
X159024312Y-80497925D01*
X159024310Y-80497927D01*
X158976610Y-80563579D01*
X158913240Y-80650800D01*
X158827454Y-80819163D01*
X158769059Y-80998881D01*
X158739500Y-81185513D01*
X156440000Y-81185513D01*
X156440000Y-81161947D01*
X156403065Y-80928752D01*
X156330102Y-80704197D01*
X156222914Y-80493828D01*
X156162658Y-80410894D01*
X156162658Y-80410893D01*
X155422962Y-81150590D01*
X155405925Y-81087007D01*
X155340099Y-80972993D01*
X155247007Y-80879901D01*
X155132993Y-80814075D01*
X155069409Y-80797037D01*
X155809105Y-80057340D01*
X155809104Y-80057338D01*
X155726174Y-79997087D01*
X155515802Y-79889897D01*
X155291247Y-79816934D01*
X155291248Y-79816934D01*
X155058052Y-79780000D01*
X154821948Y-79780000D01*
X154588752Y-79816934D01*
X154364197Y-79889897D01*
X154153830Y-79997084D01*
X154070894Y-80057340D01*
X154810591Y-80797037D01*
X154747007Y-80814075D01*
X154632993Y-80879901D01*
X154539901Y-80972993D01*
X154474075Y-81087007D01*
X154457037Y-81150591D01*
X153717340Y-80410894D01*
X153657084Y-80493830D01*
X153549897Y-80704197D01*
X153476934Y-80928752D01*
X153440000Y-81161947D01*
X150300500Y-81161947D01*
X150300500Y-80475833D01*
X150320185Y-80408794D01*
X150336819Y-80388152D01*
X151790863Y-78934108D01*
X153049500Y-78934108D01*
X153049500Y-79065891D01*
X153083608Y-79193187D01*
X153112476Y-79243186D01*
X153149500Y-79307314D01*
X153242686Y-79400500D01*
X153356814Y-79466392D01*
X153484108Y-79500500D01*
X153484110Y-79500500D01*
X153615890Y-79500500D01*
X153615892Y-79500500D01*
X153743186Y-79466392D01*
X153857314Y-79400500D01*
X153870995Y-79386819D01*
X153932318Y-79353334D01*
X153958676Y-79350500D01*
X159491324Y-79350500D01*
X159558363Y-79370185D01*
X159579005Y-79386819D01*
X159642686Y-79450500D01*
X159756814Y-79516392D01*
X159884108Y-79550500D01*
X159884110Y-79550500D01*
X160015890Y-79550500D01*
X160015892Y-79550500D01*
X160143186Y-79516392D01*
X160257314Y-79450500D01*
X160350500Y-79357314D01*
X160416392Y-79243186D01*
X160450500Y-79115892D01*
X160450500Y-78984108D01*
X160416392Y-78856814D01*
X160350500Y-78742686D01*
X160257314Y-78649500D01*
X160200250Y-78616554D01*
X160143187Y-78583608D01*
X160079539Y-78566554D01*
X160015892Y-78549500D01*
X159884108Y-78549500D01*
X159756812Y-78583608D01*
X159642686Y-78649500D01*
X159642683Y-78649502D01*
X159579005Y-78713181D01*
X159517682Y-78746666D01*
X159491324Y-78749500D01*
X154054893Y-78749500D01*
X153987854Y-78729815D01*
X153957267Y-78697739D01*
X153955448Y-78699135D01*
X153950502Y-78692689D01*
X153950500Y-78692686D01*
X153857314Y-78599500D01*
X153770712Y-78549500D01*
X153743187Y-78533608D01*
X153679539Y-78516554D01*
X153615892Y-78499500D01*
X153484108Y-78499500D01*
X153356812Y-78533608D01*
X153242686Y-78599500D01*
X153242683Y-78599502D01*
X153149502Y-78692683D01*
X153149500Y-78692686D01*
X153083608Y-78806812D01*
X153049500Y-78934108D01*
X151790863Y-78934108D01*
X156488152Y-74236819D01*
X156549475Y-74203334D01*
X156575833Y-74200500D01*
X162359560Y-74200500D01*
X162359562Y-74200500D01*
X162435989Y-74180021D01*
X162504511Y-74140460D01*
X162560460Y-74084511D01*
X164576165Y-72068804D01*
X164637486Y-72035321D01*
X164707178Y-72040305D01*
X164711254Y-72041909D01*
X164808165Y-72082051D01*
X164808169Y-72082051D01*
X164808170Y-72082052D01*
X165001456Y-72120500D01*
X165001459Y-72120500D01*
X165198543Y-72120500D01*
X165348887Y-72090594D01*
X165391835Y-72082051D01*
X165573914Y-72006632D01*
X165737782Y-71897139D01*
X165877139Y-71757782D01*
X165986632Y-71593914D01*
X166062051Y-71411835D01*
X166098034Y-71230938D01*
X166100500Y-71218543D01*
X166100500Y-71021456D01*
X166062052Y-70828170D01*
X166062051Y-70828169D01*
X166062051Y-70828165D01*
X166017207Y-70719901D01*
X165986635Y-70646092D01*
X165986628Y-70646079D01*
X165877139Y-70482218D01*
X165877136Y-70482214D01*
X165737785Y-70342863D01*
X165737781Y-70342860D01*
X165573920Y-70233371D01*
X165573907Y-70233364D01*
X165391839Y-70157950D01*
X165391829Y-70157947D01*
X165198543Y-70119500D01*
X165198541Y-70119500D01*
X165001459Y-70119500D01*
X165001457Y-70119500D01*
X164808170Y-70157947D01*
X164808160Y-70157950D01*
X164626092Y-70233364D01*
X164626079Y-70233371D01*
X164462218Y-70342860D01*
X164462214Y-70342863D01*
X164322863Y-70482214D01*
X164322860Y-70482218D01*
X164213371Y-70646079D01*
X164213364Y-70646092D01*
X164137950Y-70828160D01*
X164137947Y-70828170D01*
X164099500Y-71021456D01*
X164099500Y-71021459D01*
X164099500Y-71218541D01*
X164099500Y-71218543D01*
X164099499Y-71218543D01*
X164137947Y-71411829D01*
X164137950Y-71411839D01*
X164178072Y-71508702D01*
X164185541Y-71578171D01*
X164154266Y-71640650D01*
X164151192Y-71643835D01*
X162231848Y-73563181D01*
X162170525Y-73596666D01*
X162144167Y-73599500D01*
X156360438Y-73599500D01*
X156322224Y-73609739D01*
X156284009Y-73619979D01*
X156261816Y-73632793D01*
X156258841Y-73634511D01*
X156245960Y-73641947D01*
X156215489Y-73659539D01*
X149759541Y-80115487D01*
X149759535Y-80115495D01*
X149719982Y-80184004D01*
X149719979Y-80184009D01*
X149706326Y-80234962D01*
X149699500Y-80260438D01*
X142400500Y-80260438D01*
X142400500Y-76860441D01*
X142400500Y-76860438D01*
X142393445Y-76834108D01*
X150949500Y-76834108D01*
X150949500Y-76965891D01*
X150983608Y-77093187D01*
X151016554Y-77150250D01*
X151049500Y-77207314D01*
X151142686Y-77300500D01*
X151256814Y-77366392D01*
X151384108Y-77400500D01*
X151384110Y-77400500D01*
X151515890Y-77400500D01*
X151515892Y-77400500D01*
X151643186Y-77366392D01*
X151757314Y-77300500D01*
X151850500Y-77207314D01*
X151916392Y-77093186D01*
X151950500Y-76965892D01*
X151950500Y-76834108D01*
X151916392Y-76706814D01*
X151850500Y-76592686D01*
X151786818Y-76529004D01*
X151753334Y-76467680D01*
X151750500Y-76441323D01*
X151750500Y-74675833D01*
X151770185Y-74608794D01*
X151786819Y-74588152D01*
X152588152Y-73786819D01*
X152649475Y-73753334D01*
X152675833Y-73750500D01*
X155189560Y-73750500D01*
X155189562Y-73750500D01*
X155265989Y-73730021D01*
X155334511Y-73690460D01*
X155390460Y-73634511D01*
X156956165Y-72068804D01*
X157017486Y-72035321D01*
X157087177Y-72040305D01*
X157091254Y-72041909D01*
X157188165Y-72082051D01*
X157188169Y-72082051D01*
X157188170Y-72082052D01*
X157381456Y-72120500D01*
X157381459Y-72120500D01*
X157578543Y-72120500D01*
X157728887Y-72090594D01*
X157771835Y-72082051D01*
X157953914Y-72006632D01*
X158117782Y-71897139D01*
X158257139Y-71757782D01*
X158366632Y-71593914D01*
X158442051Y-71411835D01*
X158478034Y-71230938D01*
X158480500Y-71218543D01*
X159019499Y-71218543D01*
X159057947Y-71411829D01*
X159057950Y-71411839D01*
X159133364Y-71593907D01*
X159133371Y-71593920D01*
X159242860Y-71757781D01*
X159242863Y-71757785D01*
X159382214Y-71897136D01*
X159382218Y-71897139D01*
X159546079Y-72006628D01*
X159546092Y-72006635D01*
X159685918Y-72064552D01*
X159728165Y-72082051D01*
X159728169Y-72082051D01*
X159728170Y-72082052D01*
X159921456Y-72120500D01*
X159921459Y-72120500D01*
X160118543Y-72120500D01*
X160268887Y-72090594D01*
X160311835Y-72082051D01*
X160493914Y-72006632D01*
X160657782Y-71897139D01*
X160797139Y-71757782D01*
X160906632Y-71593914D01*
X160982051Y-71411835D01*
X161018034Y-71230938D01*
X161020500Y-71218543D01*
X161559499Y-71218543D01*
X161597947Y-71411829D01*
X161597950Y-71411839D01*
X161673364Y-71593907D01*
X161673371Y-71593920D01*
X161782860Y-71757781D01*
X161782863Y-71757785D01*
X161922214Y-71897136D01*
X161922218Y-71897139D01*
X162086079Y-72006628D01*
X162086092Y-72006635D01*
X162225918Y-72064552D01*
X162268165Y-72082051D01*
X162268169Y-72082051D01*
X162268170Y-72082052D01*
X162461456Y-72120500D01*
X162461459Y-72120500D01*
X162658543Y-72120500D01*
X162808887Y-72090594D01*
X162851835Y-72082051D01*
X163033914Y-72006632D01*
X163197782Y-71897139D01*
X163337139Y-71757782D01*
X163446632Y-71593914D01*
X163522051Y-71411835D01*
X163558034Y-71230938D01*
X163560500Y-71218543D01*
X163560500Y-71021456D01*
X163522052Y-70828170D01*
X163522051Y-70828169D01*
X163522051Y-70828165D01*
X163477207Y-70719901D01*
X163446635Y-70646092D01*
X163446628Y-70646079D01*
X163337139Y-70482218D01*
X163337136Y-70482214D01*
X163197785Y-70342863D01*
X163197781Y-70342860D01*
X163033920Y-70233371D01*
X163033907Y-70233364D01*
X162851839Y-70157950D01*
X162851829Y-70157947D01*
X162658543Y-70119500D01*
X162658541Y-70119500D01*
X162461459Y-70119500D01*
X162461457Y-70119500D01*
X162268170Y-70157947D01*
X162268160Y-70157950D01*
X162086092Y-70233364D01*
X162086079Y-70233371D01*
X161922218Y-70342860D01*
X161922214Y-70342863D01*
X161782863Y-70482214D01*
X161782860Y-70482218D01*
X161673371Y-70646079D01*
X161673364Y-70646092D01*
X161597950Y-70828160D01*
X161597947Y-70828170D01*
X161559500Y-71021456D01*
X161559500Y-71021459D01*
X161559500Y-71218541D01*
X161559500Y-71218543D01*
X161559499Y-71218543D01*
X161020500Y-71218543D01*
X161020500Y-71021456D01*
X160982052Y-70828170D01*
X160982051Y-70828169D01*
X160982051Y-70828165D01*
X160937207Y-70719901D01*
X160906635Y-70646092D01*
X160906628Y-70646079D01*
X160797139Y-70482218D01*
X160797136Y-70482214D01*
X160657785Y-70342863D01*
X160657781Y-70342860D01*
X160493920Y-70233371D01*
X160493907Y-70233364D01*
X160311839Y-70157950D01*
X160311829Y-70157947D01*
X160118543Y-70119500D01*
X160118541Y-70119500D01*
X159921459Y-70119500D01*
X159921457Y-70119500D01*
X159728170Y-70157947D01*
X159728160Y-70157950D01*
X159546092Y-70233364D01*
X159546079Y-70233371D01*
X159382218Y-70342860D01*
X159382214Y-70342863D01*
X159242863Y-70482214D01*
X159242860Y-70482218D01*
X159133371Y-70646079D01*
X159133364Y-70646092D01*
X159057950Y-70828160D01*
X159057947Y-70828170D01*
X159019500Y-71021456D01*
X159019500Y-71021459D01*
X159019500Y-71218541D01*
X159019500Y-71218543D01*
X159019499Y-71218543D01*
X158480500Y-71218543D01*
X158480500Y-71021456D01*
X158442052Y-70828170D01*
X158442051Y-70828169D01*
X158442051Y-70828165D01*
X158397207Y-70719901D01*
X158366635Y-70646092D01*
X158366628Y-70646079D01*
X158257139Y-70482218D01*
X158257136Y-70482214D01*
X158117785Y-70342863D01*
X158117781Y-70342860D01*
X157953920Y-70233371D01*
X157953907Y-70233364D01*
X157771839Y-70157950D01*
X157771829Y-70157947D01*
X157578543Y-70119500D01*
X157578541Y-70119500D01*
X157381459Y-70119500D01*
X157381457Y-70119500D01*
X157188170Y-70157947D01*
X157188160Y-70157950D01*
X157006092Y-70233364D01*
X157006079Y-70233371D01*
X156842218Y-70342860D01*
X156842214Y-70342863D01*
X156702863Y-70482214D01*
X156702860Y-70482218D01*
X156593371Y-70646079D01*
X156593364Y-70646092D01*
X156517950Y-70828160D01*
X156517947Y-70828170D01*
X156479500Y-71021456D01*
X156479500Y-71021459D01*
X156479500Y-71218541D01*
X156479500Y-71218543D01*
X156479499Y-71218543D01*
X156517947Y-71411829D01*
X156517950Y-71411839D01*
X156558072Y-71508702D01*
X156565541Y-71578171D01*
X156534266Y-71640650D01*
X156531192Y-71643835D01*
X155061848Y-73113181D01*
X155000525Y-73146666D01*
X154974167Y-73149500D01*
X152460438Y-73149500D01*
X152422224Y-73159739D01*
X152384009Y-73169979D01*
X152361816Y-73182793D01*
X152358841Y-73184511D01*
X152345960Y-73191947D01*
X152315489Y-73209539D01*
X151209541Y-74315487D01*
X151209535Y-74315495D01*
X151169982Y-74384004D01*
X151169979Y-74384009D01*
X151149500Y-74460439D01*
X151149500Y-76441323D01*
X151129815Y-76508362D01*
X151113182Y-76529004D01*
X151049500Y-76592686D01*
X150983608Y-76706812D01*
X150949500Y-76834108D01*
X142393445Y-76834108D01*
X142380021Y-76784011D01*
X142380017Y-76784004D01*
X142340464Y-76715495D01*
X142340458Y-76715487D01*
X138136819Y-72511848D01*
X138103334Y-72450525D01*
X138100500Y-72424167D01*
X138100500Y-70993833D01*
X138120185Y-70926794D01*
X138136819Y-70906152D01*
X138487819Y-70555152D01*
X138549142Y-70521667D01*
X138618834Y-70526651D01*
X138674767Y-70568523D01*
X138699184Y-70633987D01*
X138699500Y-70642833D01*
X138699500Y-71939752D01*
X138711131Y-71998229D01*
X138711132Y-71998230D01*
X138755447Y-72064552D01*
X138821769Y-72108867D01*
X138821770Y-72108868D01*
X138880247Y-72120499D01*
X138880250Y-72120500D01*
X138880252Y-72120500D01*
X140519750Y-72120500D01*
X140519751Y-72120499D01*
X140534568Y-72117552D01*
X140578229Y-72108868D01*
X140578229Y-72108867D01*
X140578231Y-72108867D01*
X140644552Y-72064552D01*
X140688867Y-71998231D01*
X140688867Y-71998229D01*
X140688868Y-71998229D01*
X140700499Y-71939752D01*
X140700500Y-71939750D01*
X140700500Y-71218543D01*
X141239499Y-71218543D01*
X141277947Y-71411829D01*
X141277950Y-71411839D01*
X141353364Y-71593907D01*
X141353371Y-71593920D01*
X141462860Y-71757781D01*
X141462863Y-71757785D01*
X141602214Y-71897136D01*
X141602218Y-71897139D01*
X141766079Y-72006628D01*
X141766092Y-72006635D01*
X141905918Y-72064552D01*
X141948165Y-72082051D01*
X141948169Y-72082051D01*
X141948170Y-72082052D01*
X142141456Y-72120500D01*
X142141459Y-72120500D01*
X142338543Y-72120500D01*
X142488887Y-72090594D01*
X142531835Y-72082051D01*
X142713914Y-72006632D01*
X142877782Y-71897139D01*
X143017139Y-71757782D01*
X143126632Y-71593914D01*
X143202051Y-71411835D01*
X143238034Y-71230938D01*
X143240500Y-71218543D01*
X143779499Y-71218543D01*
X143817947Y-71411829D01*
X143817950Y-71411839D01*
X143893364Y-71593907D01*
X143893371Y-71593920D01*
X144002860Y-71757781D01*
X144002863Y-71757785D01*
X144142214Y-71897136D01*
X144142218Y-71897139D01*
X144306079Y-72006628D01*
X144306092Y-72006635D01*
X144445918Y-72064552D01*
X144488165Y-72082051D01*
X144488169Y-72082051D01*
X144488170Y-72082052D01*
X144681456Y-72120500D01*
X144681459Y-72120500D01*
X144878543Y-72120500D01*
X145028887Y-72090594D01*
X145071835Y-72082051D01*
X145253914Y-72006632D01*
X145417782Y-71897139D01*
X145557139Y-71757782D01*
X145666632Y-71593914D01*
X145742051Y-71411835D01*
X145778034Y-71230937D01*
X145810419Y-71169027D01*
X145871134Y-71134453D01*
X145940904Y-71138192D01*
X145997576Y-71179059D01*
X146022124Y-71235731D01*
X146052009Y-71424417D01*
X146115244Y-71619031D01*
X146208140Y-71801349D01*
X146328417Y-71966894D01*
X146328417Y-71966895D01*
X146473104Y-72111582D01*
X146638650Y-72231859D01*
X146820968Y-72324754D01*
X147015578Y-72387988D01*
X147070000Y-72396607D01*
X147070000Y-71553012D01*
X147127007Y-71585925D01*
X147254174Y-71620000D01*
X147385826Y-71620000D01*
X147512993Y-71585925D01*
X147570000Y-71553012D01*
X147570000Y-72396606D01*
X147624421Y-72387988D01*
X147819031Y-72324754D01*
X148001349Y-72231859D01*
X148166894Y-72111582D01*
X148166895Y-72111582D01*
X148311582Y-71966895D01*
X148311582Y-71966894D01*
X148431859Y-71801349D01*
X148524755Y-71619031D01*
X148587990Y-71424417D01*
X148617875Y-71235731D01*
X148647804Y-71172596D01*
X148707116Y-71135665D01*
X148776978Y-71136663D01*
X148835211Y-71175273D01*
X148861965Y-71230937D01*
X148897947Y-71411829D01*
X148897950Y-71411839D01*
X148973364Y-71593907D01*
X148973371Y-71593920D01*
X149082860Y-71757781D01*
X149082863Y-71757785D01*
X149222214Y-71897136D01*
X149222218Y-71897139D01*
X149386079Y-72006628D01*
X149386092Y-72006635D01*
X149525918Y-72064552D01*
X149568165Y-72082051D01*
X149568169Y-72082051D01*
X149568170Y-72082052D01*
X149761456Y-72120500D01*
X149761459Y-72120500D01*
X149958543Y-72120500D01*
X150108887Y-72090594D01*
X150151835Y-72082051D01*
X150333914Y-72006632D01*
X150497782Y-71897139D01*
X150637139Y-71757782D01*
X150746632Y-71593914D01*
X150822051Y-71411835D01*
X150858034Y-71230938D01*
X150860500Y-71218543D01*
X151399499Y-71218543D01*
X151437947Y-71411829D01*
X151437950Y-71411839D01*
X151513364Y-71593907D01*
X151513371Y-71593920D01*
X151622860Y-71757781D01*
X151622863Y-71757785D01*
X151762214Y-71897136D01*
X151762218Y-71897139D01*
X151926079Y-72006628D01*
X151926092Y-72006635D01*
X152065918Y-72064552D01*
X152108165Y-72082051D01*
X152108169Y-72082051D01*
X152108170Y-72082052D01*
X152301456Y-72120500D01*
X152301459Y-72120500D01*
X152498543Y-72120500D01*
X152648887Y-72090594D01*
X152691835Y-72082051D01*
X152873914Y-72006632D01*
X153037782Y-71897139D01*
X153177139Y-71757782D01*
X153286632Y-71593914D01*
X153362051Y-71411835D01*
X153398034Y-71230938D01*
X153400500Y-71218543D01*
X153939499Y-71218543D01*
X153977947Y-71411829D01*
X153977950Y-71411839D01*
X154053364Y-71593907D01*
X154053371Y-71593920D01*
X154162860Y-71757781D01*
X154162863Y-71757785D01*
X154302214Y-71897136D01*
X154302218Y-71897139D01*
X154466079Y-72006628D01*
X154466092Y-72006635D01*
X154605918Y-72064552D01*
X154648165Y-72082051D01*
X154648169Y-72082051D01*
X154648170Y-72082052D01*
X154841456Y-72120500D01*
X154841459Y-72120500D01*
X155038543Y-72120500D01*
X155188887Y-72090594D01*
X155231835Y-72082051D01*
X155413914Y-72006632D01*
X155577782Y-71897139D01*
X155717139Y-71757782D01*
X155826632Y-71593914D01*
X155902051Y-71411835D01*
X155938034Y-71230938D01*
X155940500Y-71218543D01*
X155940500Y-71021456D01*
X155902052Y-70828170D01*
X155902051Y-70828169D01*
X155902051Y-70828165D01*
X155857207Y-70719901D01*
X155826635Y-70646092D01*
X155826628Y-70646079D01*
X155717139Y-70482218D01*
X155717136Y-70482214D01*
X155577785Y-70342863D01*
X155577781Y-70342860D01*
X155413920Y-70233371D01*
X155413907Y-70233364D01*
X155231839Y-70157950D01*
X155231829Y-70157947D01*
X155038543Y-70119500D01*
X155038541Y-70119500D01*
X154841459Y-70119500D01*
X154841457Y-70119500D01*
X154648170Y-70157947D01*
X154648160Y-70157950D01*
X154466092Y-70233364D01*
X154466079Y-70233371D01*
X154302218Y-70342860D01*
X154302214Y-70342863D01*
X154162863Y-70482214D01*
X154162860Y-70482218D01*
X154053371Y-70646079D01*
X154053364Y-70646092D01*
X153977950Y-70828160D01*
X153977947Y-70828170D01*
X153939500Y-71021456D01*
X153939500Y-71021459D01*
X153939500Y-71218541D01*
X153939500Y-71218543D01*
X153939499Y-71218543D01*
X153400500Y-71218543D01*
X153400500Y-71021456D01*
X153362052Y-70828170D01*
X153362051Y-70828169D01*
X153362051Y-70828165D01*
X153317207Y-70719901D01*
X153286635Y-70646092D01*
X153286628Y-70646079D01*
X153177139Y-70482218D01*
X153177136Y-70482214D01*
X153037785Y-70342863D01*
X153037781Y-70342860D01*
X152873920Y-70233371D01*
X152873907Y-70233364D01*
X152691839Y-70157950D01*
X152691829Y-70157947D01*
X152498543Y-70119500D01*
X152498541Y-70119500D01*
X152301459Y-70119500D01*
X152301457Y-70119500D01*
X152108170Y-70157947D01*
X152108160Y-70157950D01*
X151926092Y-70233364D01*
X151926079Y-70233371D01*
X151762218Y-70342860D01*
X151762214Y-70342863D01*
X151622863Y-70482214D01*
X151622860Y-70482218D01*
X151513371Y-70646079D01*
X151513364Y-70646092D01*
X151437950Y-70828160D01*
X151437947Y-70828170D01*
X151399500Y-71021456D01*
X151399500Y-71021459D01*
X151399500Y-71218541D01*
X151399500Y-71218543D01*
X151399499Y-71218543D01*
X150860500Y-71218543D01*
X150860500Y-71021456D01*
X150822052Y-70828170D01*
X150822051Y-70828169D01*
X150822051Y-70828165D01*
X150777207Y-70719901D01*
X150746635Y-70646092D01*
X150746628Y-70646079D01*
X150637139Y-70482218D01*
X150637136Y-70482214D01*
X150497785Y-70342863D01*
X150497781Y-70342860D01*
X150333920Y-70233371D01*
X150333907Y-70233364D01*
X150151839Y-70157950D01*
X150151829Y-70157947D01*
X149958543Y-70119500D01*
X149958541Y-70119500D01*
X149761459Y-70119500D01*
X149761457Y-70119500D01*
X149568170Y-70157947D01*
X149568160Y-70157950D01*
X149386092Y-70233364D01*
X149386079Y-70233371D01*
X149222218Y-70342860D01*
X149222214Y-70342863D01*
X149082863Y-70482214D01*
X149082860Y-70482218D01*
X148973371Y-70646079D01*
X148973364Y-70646092D01*
X148897950Y-70828160D01*
X148897947Y-70828170D01*
X148861965Y-71009062D01*
X148829580Y-71070973D01*
X148768864Y-71105547D01*
X148699094Y-71101806D01*
X148642423Y-71060940D01*
X148617875Y-71004268D01*
X148587990Y-70815582D01*
X148524755Y-70620968D01*
X148431859Y-70438650D01*
X148311582Y-70273105D01*
X148311582Y-70273104D01*
X148166895Y-70128417D01*
X148001349Y-70008140D01*
X147819029Y-69915244D01*
X147624413Y-69852009D01*
X147570000Y-69843390D01*
X147570000Y-70686988D01*
X147512993Y-70654075D01*
X147385826Y-70620000D01*
X147254174Y-70620000D01*
X147127007Y-70654075D01*
X147070000Y-70686988D01*
X147070000Y-69843390D01*
X147015586Y-69852009D01*
X146820970Y-69915244D01*
X146638650Y-70008140D01*
X146473105Y-70128417D01*
X146473104Y-70128417D01*
X146328417Y-70273104D01*
X146328417Y-70273105D01*
X146208140Y-70438650D01*
X146115244Y-70620968D01*
X146052010Y-70815581D01*
X146022124Y-71004269D01*
X145992194Y-71067403D01*
X145932883Y-71104334D01*
X145863020Y-71103336D01*
X145804788Y-71064726D01*
X145778034Y-71009061D01*
X145742052Y-70828172D01*
X145742052Y-70828170D01*
X145742051Y-70828165D01*
X145697207Y-70719901D01*
X145666635Y-70646092D01*
X145666628Y-70646079D01*
X145557139Y-70482218D01*
X145557136Y-70482214D01*
X145417785Y-70342863D01*
X145417781Y-70342860D01*
X145253920Y-70233371D01*
X145253907Y-70233364D01*
X145071839Y-70157950D01*
X145071829Y-70157947D01*
X144878543Y-70119500D01*
X144878541Y-70119500D01*
X144681459Y-70119500D01*
X144681457Y-70119500D01*
X144488170Y-70157947D01*
X144488160Y-70157950D01*
X144306092Y-70233364D01*
X144306079Y-70233371D01*
X144142218Y-70342860D01*
X144142214Y-70342863D01*
X144002863Y-70482214D01*
X144002860Y-70482218D01*
X143893371Y-70646079D01*
X143893364Y-70646092D01*
X143817950Y-70828160D01*
X143817947Y-70828170D01*
X143779500Y-71021456D01*
X143779500Y-71021459D01*
X143779500Y-71218541D01*
X143779500Y-71218543D01*
X143779499Y-71218543D01*
X143240500Y-71218543D01*
X143240500Y-71021456D01*
X143202052Y-70828170D01*
X143202051Y-70828169D01*
X143202051Y-70828165D01*
X143157207Y-70719901D01*
X143126635Y-70646092D01*
X143126628Y-70646079D01*
X143017139Y-70482218D01*
X143017136Y-70482214D01*
X142877785Y-70342863D01*
X142877781Y-70342860D01*
X142713920Y-70233371D01*
X142713907Y-70233364D01*
X142531839Y-70157950D01*
X142531829Y-70157947D01*
X142338543Y-70119500D01*
X142338541Y-70119500D01*
X142141459Y-70119500D01*
X142141457Y-70119500D01*
X141948170Y-70157947D01*
X141948160Y-70157950D01*
X141766092Y-70233364D01*
X141766079Y-70233371D01*
X141602218Y-70342860D01*
X141602214Y-70342863D01*
X141462863Y-70482214D01*
X141462860Y-70482218D01*
X141353371Y-70646079D01*
X141353364Y-70646092D01*
X141277950Y-70828160D01*
X141277947Y-70828170D01*
X141239500Y-71021456D01*
X141239500Y-71021459D01*
X141239500Y-71218541D01*
X141239500Y-71218543D01*
X141239499Y-71218543D01*
X140700500Y-71218543D01*
X140700500Y-70300249D01*
X140700499Y-70300247D01*
X140688868Y-70241770D01*
X140688867Y-70241769D01*
X140644552Y-70175447D01*
X140578230Y-70131132D01*
X140578229Y-70131131D01*
X140519752Y-70119500D01*
X140519748Y-70119500D01*
X139222833Y-70119500D01*
X139155794Y-70099815D01*
X139110039Y-70047011D01*
X139100095Y-69977853D01*
X139129120Y-69914297D01*
X139135152Y-69907819D01*
X148306152Y-60736819D01*
X148367475Y-60703334D01*
X148393833Y-60700500D01*
X162239560Y-60700500D01*
X162239562Y-60700500D01*
X162315989Y-60680021D01*
X162384511Y-60640460D01*
X162440460Y-60584511D01*
X165340460Y-57684511D01*
X165380021Y-57615989D01*
X165400500Y-57539562D01*
X165400500Y-56921315D01*
X165420185Y-56854276D01*
X165472989Y-56808521D01*
X165477002Y-56806773D01*
X165573914Y-56766632D01*
X165737782Y-56657139D01*
X165877139Y-56517782D01*
X165986632Y-56353914D01*
X166062051Y-56171835D01*
X166098034Y-55990938D01*
X166100500Y-55978543D01*
X166639499Y-55978543D01*
X166677947Y-56171829D01*
X166677950Y-56171839D01*
X166753364Y-56353907D01*
X166753371Y-56353920D01*
X166862860Y-56517781D01*
X166862863Y-56517785D01*
X167002214Y-56657136D01*
X167002218Y-56657139D01*
X167166079Y-56766628D01*
X167166092Y-56766635D01*
X167316188Y-56828806D01*
X167348165Y-56842051D01*
X167348169Y-56842051D01*
X167348170Y-56842052D01*
X167541456Y-56880500D01*
X167541459Y-56880500D01*
X167738543Y-56880500D01*
X167888887Y-56850594D01*
X167931835Y-56842051D01*
X168113914Y-56766632D01*
X168277782Y-56657139D01*
X168417139Y-56517782D01*
X168526632Y-56353914D01*
X168602051Y-56171835D01*
X168638034Y-55990938D01*
X168640500Y-55978543D01*
X169179499Y-55978543D01*
X169217947Y-56171829D01*
X169217950Y-56171839D01*
X169293364Y-56353907D01*
X169293371Y-56353920D01*
X169402860Y-56517781D01*
X169402863Y-56517785D01*
X169542214Y-56657136D01*
X169542218Y-56657139D01*
X169706079Y-56766628D01*
X169706092Y-56766635D01*
X169856188Y-56828806D01*
X169888165Y-56842051D01*
X169888169Y-56842051D01*
X169888170Y-56842052D01*
X170081456Y-56880500D01*
X170081459Y-56880500D01*
X170278543Y-56880500D01*
X170428887Y-56850594D01*
X170471835Y-56842051D01*
X170653914Y-56766632D01*
X170817782Y-56657139D01*
X170957139Y-56517782D01*
X171066632Y-56353914D01*
X171142051Y-56171835D01*
X171178034Y-55990938D01*
X171180500Y-55978543D01*
X171719499Y-55978543D01*
X171757947Y-56171829D01*
X171757950Y-56171839D01*
X171833364Y-56353907D01*
X171833371Y-56353920D01*
X171942860Y-56517781D01*
X171942863Y-56517785D01*
X172082214Y-56657136D01*
X172082218Y-56657139D01*
X172246079Y-56766628D01*
X172246092Y-56766635D01*
X172396188Y-56828806D01*
X172428165Y-56842051D01*
X172428169Y-56842051D01*
X172428170Y-56842052D01*
X172621456Y-56880500D01*
X172621459Y-56880500D01*
X172818543Y-56880500D01*
X172968887Y-56850594D01*
X173011835Y-56842051D01*
X173193914Y-56766632D01*
X173357782Y-56657139D01*
X173497139Y-56517782D01*
X173606632Y-56353914D01*
X173682051Y-56171835D01*
X173718034Y-55990938D01*
X173720500Y-55978543D01*
X174259499Y-55978543D01*
X174297947Y-56171829D01*
X174297950Y-56171839D01*
X174373364Y-56353907D01*
X174373371Y-56353920D01*
X174482860Y-56517781D01*
X174482863Y-56517785D01*
X174622214Y-56657136D01*
X174622218Y-56657139D01*
X174786079Y-56766628D01*
X174786092Y-56766635D01*
X174936188Y-56828806D01*
X174968165Y-56842051D01*
X174968169Y-56842051D01*
X174968170Y-56842052D01*
X175161456Y-56880500D01*
X175161459Y-56880500D01*
X175358543Y-56880500D01*
X175508887Y-56850594D01*
X175551835Y-56842051D01*
X175733914Y-56766632D01*
X175897782Y-56657139D01*
X176037139Y-56517782D01*
X176146632Y-56353914D01*
X176222051Y-56171835D01*
X176258034Y-55990938D01*
X176260500Y-55978543D01*
X176260500Y-55781456D01*
X176222052Y-55588170D01*
X176222051Y-55588169D01*
X176222051Y-55588165D01*
X176177207Y-55479901D01*
X176146635Y-55406092D01*
X176146628Y-55406079D01*
X176037139Y-55242218D01*
X176037136Y-55242214D01*
X175897785Y-55102863D01*
X175897781Y-55102860D01*
X175733920Y-54993371D01*
X175733907Y-54993364D01*
X175551839Y-54917950D01*
X175551829Y-54917947D01*
X175358543Y-54879500D01*
X175358541Y-54879500D01*
X175161459Y-54879500D01*
X175161457Y-54879500D01*
X174968170Y-54917947D01*
X174968160Y-54917950D01*
X174786092Y-54993364D01*
X174786079Y-54993371D01*
X174622218Y-55102860D01*
X174622214Y-55102863D01*
X174482863Y-55242214D01*
X174482860Y-55242218D01*
X174373371Y-55406079D01*
X174373364Y-55406092D01*
X174297950Y-55588160D01*
X174297947Y-55588170D01*
X174259500Y-55781456D01*
X174259500Y-55781459D01*
X174259500Y-55978541D01*
X174259500Y-55978543D01*
X174259499Y-55978543D01*
X173720500Y-55978543D01*
X173720500Y-55781456D01*
X173682052Y-55588170D01*
X173682051Y-55588169D01*
X173682051Y-55588165D01*
X173637207Y-55479901D01*
X173606635Y-55406092D01*
X173606628Y-55406079D01*
X173497139Y-55242218D01*
X173497136Y-55242214D01*
X173357785Y-55102863D01*
X173357781Y-55102860D01*
X173193920Y-54993371D01*
X173193907Y-54993364D01*
X173011839Y-54917950D01*
X173011829Y-54917947D01*
X172818543Y-54879500D01*
X172818541Y-54879500D01*
X172621459Y-54879500D01*
X172621457Y-54879500D01*
X172428170Y-54917947D01*
X172428160Y-54917950D01*
X172246092Y-54993364D01*
X172246079Y-54993371D01*
X172082218Y-55102860D01*
X172082214Y-55102863D01*
X171942863Y-55242214D01*
X171942860Y-55242218D01*
X171833371Y-55406079D01*
X171833364Y-55406092D01*
X171757950Y-55588160D01*
X171757947Y-55588170D01*
X171719500Y-55781456D01*
X171719500Y-55781459D01*
X171719500Y-55978541D01*
X171719500Y-55978543D01*
X171719499Y-55978543D01*
X171180500Y-55978543D01*
X171180500Y-55781456D01*
X171142052Y-55588170D01*
X171142051Y-55588169D01*
X171142051Y-55588165D01*
X171097207Y-55479901D01*
X171066635Y-55406092D01*
X171066628Y-55406079D01*
X170957139Y-55242218D01*
X170957136Y-55242214D01*
X170817785Y-55102863D01*
X170817781Y-55102860D01*
X170653920Y-54993371D01*
X170653907Y-54993364D01*
X170471839Y-54917950D01*
X170471829Y-54917947D01*
X170278543Y-54879500D01*
X170278541Y-54879500D01*
X170081459Y-54879500D01*
X170081457Y-54879500D01*
X169888170Y-54917947D01*
X169888160Y-54917950D01*
X169706092Y-54993364D01*
X169706079Y-54993371D01*
X169542218Y-55102860D01*
X169542214Y-55102863D01*
X169402863Y-55242214D01*
X169402860Y-55242218D01*
X169293371Y-55406079D01*
X169293364Y-55406092D01*
X169217950Y-55588160D01*
X169217947Y-55588170D01*
X169179500Y-55781456D01*
X169179500Y-55781459D01*
X169179500Y-55978541D01*
X169179500Y-55978543D01*
X169179499Y-55978543D01*
X168640500Y-55978543D01*
X168640500Y-55781456D01*
X168602052Y-55588170D01*
X168602051Y-55588169D01*
X168602051Y-55588165D01*
X168557207Y-55479901D01*
X168526635Y-55406092D01*
X168526628Y-55406079D01*
X168417139Y-55242218D01*
X168417136Y-55242214D01*
X168277785Y-55102863D01*
X168277781Y-55102860D01*
X168113920Y-54993371D01*
X168113907Y-54993364D01*
X167931839Y-54917950D01*
X167931829Y-54917947D01*
X167738543Y-54879500D01*
X167738541Y-54879500D01*
X167541459Y-54879500D01*
X167541457Y-54879500D01*
X167348170Y-54917947D01*
X167348160Y-54917950D01*
X167166092Y-54993364D01*
X167166079Y-54993371D01*
X167002218Y-55102860D01*
X167002214Y-55102863D01*
X166862863Y-55242214D01*
X166862860Y-55242218D01*
X166753371Y-55406079D01*
X166753364Y-55406092D01*
X166677950Y-55588160D01*
X166677947Y-55588170D01*
X166639500Y-55781456D01*
X166639500Y-55781459D01*
X166639500Y-55978541D01*
X166639500Y-55978543D01*
X166639499Y-55978543D01*
X166100500Y-55978543D01*
X166100500Y-55781456D01*
X166062052Y-55588170D01*
X166062051Y-55588169D01*
X166062051Y-55588165D01*
X166017207Y-55479901D01*
X165986635Y-55406092D01*
X165986628Y-55406079D01*
X165877139Y-55242218D01*
X165877136Y-55242214D01*
X165737785Y-55102863D01*
X165737781Y-55102860D01*
X165573920Y-54993371D01*
X165573907Y-54993364D01*
X165391839Y-54917950D01*
X165391829Y-54917947D01*
X165198543Y-54879500D01*
X165198541Y-54879500D01*
X165001459Y-54879500D01*
X165001457Y-54879500D01*
X164808170Y-54917947D01*
X164808160Y-54917950D01*
X164626092Y-54993364D01*
X164626079Y-54993371D01*
X164462218Y-55102860D01*
X164462214Y-55102863D01*
X164322863Y-55242214D01*
X164322860Y-55242218D01*
X164213371Y-55406079D01*
X164213364Y-55406092D01*
X164137950Y-55588160D01*
X164137947Y-55588170D01*
X164099500Y-55781456D01*
X164099500Y-55781459D01*
X164099500Y-55978541D01*
X164099500Y-55978543D01*
X164099499Y-55978543D01*
X164137947Y-56171829D01*
X164137950Y-56171839D01*
X164213364Y-56353907D01*
X164213371Y-56353920D01*
X164322860Y-56517781D01*
X164322863Y-56517785D01*
X164462217Y-56657139D01*
X164566615Y-56726895D01*
X164626086Y-56766632D01*
X164722953Y-56806755D01*
X164777355Y-56850594D01*
X164799421Y-56916888D01*
X164799500Y-56921315D01*
X164799500Y-57324167D01*
X164779815Y-57391206D01*
X164763181Y-57411848D01*
X162111848Y-60063181D01*
X162050525Y-60096666D01*
X162024167Y-60099500D01*
X159064833Y-60099500D01*
X158997794Y-60079815D01*
X158952039Y-60027011D01*
X158942095Y-59957853D01*
X158971120Y-59894297D01*
X158977152Y-59887819D01*
X159705436Y-59159535D01*
X162036165Y-56828804D01*
X162097486Y-56795321D01*
X162167178Y-56800305D01*
X162171254Y-56801909D01*
X162268165Y-56842051D01*
X162268169Y-56842051D01*
X162268170Y-56842052D01*
X162461456Y-56880500D01*
X162461459Y-56880500D01*
X162658543Y-56880500D01*
X162808887Y-56850594D01*
X162851835Y-56842051D01*
X163033914Y-56766632D01*
X163197782Y-56657139D01*
X163337139Y-56517782D01*
X163446632Y-56353914D01*
X163522051Y-56171835D01*
X163558034Y-55990938D01*
X163560500Y-55978543D01*
X163560500Y-55781456D01*
X163522052Y-55588170D01*
X163522051Y-55588169D01*
X163522051Y-55588165D01*
X163477207Y-55479901D01*
X163446635Y-55406092D01*
X163446628Y-55406079D01*
X163337139Y-55242218D01*
X163337136Y-55242214D01*
X163197785Y-55102863D01*
X163197781Y-55102860D01*
X163033920Y-54993371D01*
X163033907Y-54993364D01*
X162851839Y-54917950D01*
X162851829Y-54917947D01*
X162658543Y-54879500D01*
X162658541Y-54879500D01*
X162461459Y-54879500D01*
X162461457Y-54879500D01*
X162268170Y-54917947D01*
X162268160Y-54917950D01*
X162086092Y-54993364D01*
X162086079Y-54993371D01*
X161922218Y-55102860D01*
X161922214Y-55102863D01*
X161782863Y-55242214D01*
X161782860Y-55242218D01*
X161673371Y-55406079D01*
X161673364Y-55406092D01*
X161597950Y-55588160D01*
X161597947Y-55588170D01*
X161559500Y-55781456D01*
X161559500Y-55781459D01*
X161559500Y-55978541D01*
X161559500Y-55978543D01*
X161559499Y-55978543D01*
X161597947Y-56171829D01*
X161597950Y-56171839D01*
X161638072Y-56268702D01*
X161645541Y-56338171D01*
X161614266Y-56400650D01*
X161611192Y-56403835D01*
X158451848Y-59563181D01*
X158390525Y-59596666D01*
X158364167Y-59599500D01*
X157024833Y-59599500D01*
X156957794Y-59579815D01*
X156912039Y-59527011D01*
X156902095Y-59457853D01*
X156931120Y-59394297D01*
X156937152Y-59387819D01*
X158785410Y-57539560D01*
X159496165Y-56828804D01*
X159557486Y-56795321D01*
X159627178Y-56800305D01*
X159631254Y-56801909D01*
X159728165Y-56842051D01*
X159728169Y-56842051D01*
X159728170Y-56842052D01*
X159921456Y-56880500D01*
X159921459Y-56880500D01*
X160118543Y-56880500D01*
X160268887Y-56850594D01*
X160311835Y-56842051D01*
X160493914Y-56766632D01*
X160657782Y-56657139D01*
X160797139Y-56517782D01*
X160906632Y-56353914D01*
X160982051Y-56171835D01*
X161018034Y-55990938D01*
X161020500Y-55978543D01*
X161020500Y-55781456D01*
X160982052Y-55588170D01*
X160982051Y-55588169D01*
X160982051Y-55588165D01*
X160937207Y-55479901D01*
X160906635Y-55406092D01*
X160906628Y-55406079D01*
X160797139Y-55242218D01*
X160797136Y-55242214D01*
X160657785Y-55102863D01*
X160657781Y-55102860D01*
X160493920Y-54993371D01*
X160493907Y-54993364D01*
X160311839Y-54917950D01*
X160311829Y-54917947D01*
X160118543Y-54879500D01*
X160118541Y-54879500D01*
X159921459Y-54879500D01*
X159921457Y-54879500D01*
X159728170Y-54917947D01*
X159728160Y-54917950D01*
X159546092Y-54993364D01*
X159546079Y-54993371D01*
X159382218Y-55102860D01*
X159382214Y-55102863D01*
X159242863Y-55242214D01*
X159242860Y-55242218D01*
X159133371Y-55406079D01*
X159133364Y-55406092D01*
X159057950Y-55588160D01*
X159057947Y-55588170D01*
X159019500Y-55781456D01*
X159019500Y-55781459D01*
X159019500Y-55978541D01*
X159019500Y-55978543D01*
X159019499Y-55978543D01*
X159057947Y-56171829D01*
X159057950Y-56171839D01*
X159098072Y-56268702D01*
X159105541Y-56338171D01*
X159074266Y-56400650D01*
X159071192Y-56403835D01*
X156411848Y-59063181D01*
X156350525Y-59096666D01*
X156324167Y-59099500D01*
X147760438Y-59099500D01*
X147722224Y-59109739D01*
X147684009Y-59119979D01*
X147684004Y-59119982D01*
X147615495Y-59159535D01*
X147615487Y-59159541D01*
X136559541Y-70215487D01*
X136559535Y-70215495D01*
X136519982Y-70284004D01*
X136519979Y-70284009D01*
X136515628Y-70300247D01*
X136499500Y-70360438D01*
X130160500Y-70360438D01*
X130160500Y-56014108D01*
X130150970Y-55978543D01*
X138699499Y-55978543D01*
X138737947Y-56171829D01*
X138737950Y-56171839D01*
X138813364Y-56353907D01*
X138813371Y-56353920D01*
X138922860Y-56517781D01*
X138922863Y-56517785D01*
X139062214Y-56657136D01*
X139062218Y-56657139D01*
X139226079Y-56766628D01*
X139226092Y-56766635D01*
X139376188Y-56828806D01*
X139408165Y-56842051D01*
X139408169Y-56842051D01*
X139408170Y-56842052D01*
X139601456Y-56880500D01*
X139601459Y-56880500D01*
X139798543Y-56880500D01*
X139948887Y-56850594D01*
X139991835Y-56842051D01*
X140173914Y-56766632D01*
X140337782Y-56657139D01*
X140477139Y-56517782D01*
X140586632Y-56353914D01*
X140662051Y-56171835D01*
X140698034Y-55990937D01*
X140730419Y-55929027D01*
X140791134Y-55894453D01*
X140860904Y-55898192D01*
X140917576Y-55939059D01*
X140942124Y-55995731D01*
X140972009Y-56184417D01*
X141035244Y-56379031D01*
X141128140Y-56561349D01*
X141248417Y-56726894D01*
X141248417Y-56726895D01*
X141393104Y-56871582D01*
X141558650Y-56991859D01*
X141740968Y-57084754D01*
X141935578Y-57147988D01*
X141990000Y-57156607D01*
X141990000Y-56313012D01*
X142047007Y-56345925D01*
X142174174Y-56380000D01*
X142305826Y-56380000D01*
X142432993Y-56345925D01*
X142490000Y-56313012D01*
X142490000Y-57156606D01*
X142544421Y-57147988D01*
X142739031Y-57084754D01*
X142921349Y-56991859D01*
X143086894Y-56871582D01*
X143086895Y-56871582D01*
X143231582Y-56726895D01*
X143231582Y-56726894D01*
X143351859Y-56561349D01*
X143444755Y-56379031D01*
X143507990Y-56184417D01*
X143537875Y-55995731D01*
X143567804Y-55932596D01*
X143627116Y-55895665D01*
X143696978Y-55896663D01*
X143755211Y-55935273D01*
X143781965Y-55990937D01*
X143817947Y-56171829D01*
X143817950Y-56171839D01*
X143893364Y-56353907D01*
X143893371Y-56353920D01*
X144002860Y-56517781D01*
X144002863Y-56517785D01*
X144142214Y-56657136D01*
X144142218Y-56657139D01*
X144306079Y-56766628D01*
X144306092Y-56766635D01*
X144456188Y-56828806D01*
X144488165Y-56842051D01*
X144488169Y-56842051D01*
X144488170Y-56842052D01*
X144681456Y-56880500D01*
X144681459Y-56880500D01*
X144878543Y-56880500D01*
X145028887Y-56850594D01*
X145071835Y-56842051D01*
X145253914Y-56766632D01*
X145417782Y-56657139D01*
X145557139Y-56517782D01*
X145666632Y-56353914D01*
X145742051Y-56171835D01*
X145778034Y-55990938D01*
X145780500Y-55978543D01*
X146319499Y-55978543D01*
X146357947Y-56171829D01*
X146357950Y-56171839D01*
X146433364Y-56353907D01*
X146433371Y-56353920D01*
X146542860Y-56517781D01*
X146542863Y-56517785D01*
X146682214Y-56657136D01*
X146682218Y-56657139D01*
X146846079Y-56766628D01*
X146846092Y-56766635D01*
X146996188Y-56828806D01*
X147028165Y-56842051D01*
X147028169Y-56842051D01*
X147028170Y-56842052D01*
X147221456Y-56880500D01*
X147221459Y-56880500D01*
X147418543Y-56880500D01*
X147568887Y-56850594D01*
X147611835Y-56842051D01*
X147793914Y-56766632D01*
X147957782Y-56657139D01*
X148097139Y-56517782D01*
X148206632Y-56353914D01*
X148282051Y-56171835D01*
X148318034Y-55990938D01*
X148320500Y-55978543D01*
X148859499Y-55978543D01*
X148897947Y-56171829D01*
X148897950Y-56171839D01*
X148973364Y-56353907D01*
X148973371Y-56353920D01*
X149082860Y-56517781D01*
X149082863Y-56517785D01*
X149222214Y-56657136D01*
X149222218Y-56657139D01*
X149386079Y-56766628D01*
X149386092Y-56766635D01*
X149536188Y-56828806D01*
X149568165Y-56842051D01*
X149568169Y-56842051D01*
X149568170Y-56842052D01*
X149761456Y-56880500D01*
X149761459Y-56880500D01*
X149958543Y-56880500D01*
X150108887Y-56850594D01*
X150151835Y-56842051D01*
X150333914Y-56766632D01*
X150497782Y-56657139D01*
X150637139Y-56517782D01*
X150746632Y-56353914D01*
X150822051Y-56171835D01*
X150858034Y-55990938D01*
X150860500Y-55978543D01*
X151399499Y-55978543D01*
X151437947Y-56171829D01*
X151437950Y-56171839D01*
X151513364Y-56353907D01*
X151513371Y-56353920D01*
X151622860Y-56517781D01*
X151622863Y-56517785D01*
X151762214Y-56657136D01*
X151762218Y-56657139D01*
X151926079Y-56766628D01*
X151926092Y-56766635D01*
X152076188Y-56828806D01*
X152108165Y-56842051D01*
X152108169Y-56842051D01*
X152108170Y-56842052D01*
X152301456Y-56880500D01*
X152301459Y-56880500D01*
X152498543Y-56880500D01*
X152648887Y-56850594D01*
X152691835Y-56842051D01*
X152873914Y-56766632D01*
X153037782Y-56657139D01*
X153177139Y-56517782D01*
X153286632Y-56353914D01*
X153362051Y-56171835D01*
X153398034Y-55990938D01*
X153400500Y-55978543D01*
X153939499Y-55978543D01*
X153977947Y-56171829D01*
X153977950Y-56171839D01*
X154053364Y-56353907D01*
X154053371Y-56353920D01*
X154162860Y-56517781D01*
X154162863Y-56517785D01*
X154302214Y-56657136D01*
X154302218Y-56657139D01*
X154466079Y-56766628D01*
X154466092Y-56766635D01*
X154616188Y-56828806D01*
X154648165Y-56842051D01*
X154648169Y-56842051D01*
X154648170Y-56842052D01*
X154841456Y-56880500D01*
X154841459Y-56880500D01*
X155038543Y-56880500D01*
X155188887Y-56850594D01*
X155231835Y-56842051D01*
X155413914Y-56766632D01*
X155577782Y-56657139D01*
X155717139Y-56517782D01*
X155826632Y-56353914D01*
X155902051Y-56171835D01*
X155938034Y-55990938D01*
X155940500Y-55978543D01*
X156479499Y-55978543D01*
X156517947Y-56171829D01*
X156517950Y-56171839D01*
X156593364Y-56353907D01*
X156593371Y-56353920D01*
X156702860Y-56517781D01*
X156702863Y-56517785D01*
X156842214Y-56657136D01*
X156842218Y-56657139D01*
X157006079Y-56766628D01*
X157006092Y-56766635D01*
X157156188Y-56828806D01*
X157188165Y-56842051D01*
X157188169Y-56842051D01*
X157188170Y-56842052D01*
X157381456Y-56880500D01*
X157381459Y-56880500D01*
X157578543Y-56880500D01*
X157728887Y-56850594D01*
X157771835Y-56842051D01*
X157953914Y-56766632D01*
X158117782Y-56657139D01*
X158257139Y-56517782D01*
X158366632Y-56353914D01*
X158442051Y-56171835D01*
X158478034Y-55990938D01*
X158480500Y-55978543D01*
X158480500Y-55781456D01*
X158442052Y-55588170D01*
X158442051Y-55588169D01*
X158442051Y-55588165D01*
X158397207Y-55479901D01*
X158366635Y-55406092D01*
X158366628Y-55406079D01*
X158257139Y-55242218D01*
X158257136Y-55242214D01*
X158117785Y-55102863D01*
X158117781Y-55102860D01*
X157953920Y-54993371D01*
X157953907Y-54993364D01*
X157771839Y-54917950D01*
X157771829Y-54917947D01*
X157578543Y-54879500D01*
X157578541Y-54879500D01*
X157381459Y-54879500D01*
X157381457Y-54879500D01*
X157188170Y-54917947D01*
X157188160Y-54917950D01*
X157006092Y-54993364D01*
X157006079Y-54993371D01*
X156842218Y-55102860D01*
X156842214Y-55102863D01*
X156702863Y-55242214D01*
X156702860Y-55242218D01*
X156593371Y-55406079D01*
X156593364Y-55406092D01*
X156517950Y-55588160D01*
X156517947Y-55588170D01*
X156479500Y-55781456D01*
X156479500Y-55781459D01*
X156479500Y-55978541D01*
X156479500Y-55978543D01*
X156479499Y-55978543D01*
X155940500Y-55978543D01*
X155940500Y-55781456D01*
X155902052Y-55588170D01*
X155902051Y-55588169D01*
X155902051Y-55588165D01*
X155857207Y-55479901D01*
X155826635Y-55406092D01*
X155826628Y-55406079D01*
X155717139Y-55242218D01*
X155717136Y-55242214D01*
X155577785Y-55102863D01*
X155577781Y-55102860D01*
X155413920Y-54993371D01*
X155413907Y-54993364D01*
X155231839Y-54917950D01*
X155231829Y-54917947D01*
X155038543Y-54879500D01*
X155038541Y-54879500D01*
X154841459Y-54879500D01*
X154841457Y-54879500D01*
X154648170Y-54917947D01*
X154648160Y-54917950D01*
X154466092Y-54993364D01*
X154466079Y-54993371D01*
X154302218Y-55102860D01*
X154302214Y-55102863D01*
X154162863Y-55242214D01*
X154162860Y-55242218D01*
X154053371Y-55406079D01*
X154053364Y-55406092D01*
X153977950Y-55588160D01*
X153977947Y-55588170D01*
X153939500Y-55781456D01*
X153939500Y-55781459D01*
X153939500Y-55978541D01*
X153939500Y-55978543D01*
X153939499Y-55978543D01*
X153400500Y-55978543D01*
X153400500Y-55781456D01*
X153362052Y-55588170D01*
X153362051Y-55588169D01*
X153362051Y-55588165D01*
X153317207Y-55479901D01*
X153286635Y-55406092D01*
X153286628Y-55406079D01*
X153177139Y-55242218D01*
X153177136Y-55242214D01*
X153037785Y-55102863D01*
X153037781Y-55102860D01*
X152873920Y-54993371D01*
X152873907Y-54993364D01*
X152691839Y-54917950D01*
X152691829Y-54917947D01*
X152498543Y-54879500D01*
X152498541Y-54879500D01*
X152301459Y-54879500D01*
X152301457Y-54879500D01*
X152108170Y-54917947D01*
X152108160Y-54917950D01*
X151926092Y-54993364D01*
X151926079Y-54993371D01*
X151762218Y-55102860D01*
X151762214Y-55102863D01*
X151622863Y-55242214D01*
X151622860Y-55242218D01*
X151513371Y-55406079D01*
X151513364Y-55406092D01*
X151437950Y-55588160D01*
X151437947Y-55588170D01*
X151399500Y-55781456D01*
X151399500Y-55781459D01*
X151399500Y-55978541D01*
X151399500Y-55978543D01*
X151399499Y-55978543D01*
X150860500Y-55978543D01*
X150860500Y-55781456D01*
X150822052Y-55588170D01*
X150822051Y-55588169D01*
X150822051Y-55588165D01*
X150777207Y-55479901D01*
X150746635Y-55406092D01*
X150746628Y-55406079D01*
X150637139Y-55242218D01*
X150637136Y-55242214D01*
X150497785Y-55102863D01*
X150497781Y-55102860D01*
X150333920Y-54993371D01*
X150333907Y-54993364D01*
X150151839Y-54917950D01*
X150151829Y-54917947D01*
X149958543Y-54879500D01*
X149958541Y-54879500D01*
X149761459Y-54879500D01*
X149761457Y-54879500D01*
X149568170Y-54917947D01*
X149568160Y-54917950D01*
X149386092Y-54993364D01*
X149386079Y-54993371D01*
X149222218Y-55102860D01*
X149222214Y-55102863D01*
X149082863Y-55242214D01*
X149082860Y-55242218D01*
X148973371Y-55406079D01*
X148973364Y-55406092D01*
X148897950Y-55588160D01*
X148897947Y-55588170D01*
X148859500Y-55781456D01*
X148859500Y-55781459D01*
X148859500Y-55978541D01*
X148859500Y-55978543D01*
X148859499Y-55978543D01*
X148320500Y-55978543D01*
X148320500Y-55781456D01*
X148282052Y-55588170D01*
X148282051Y-55588169D01*
X148282051Y-55588165D01*
X148237207Y-55479901D01*
X148206635Y-55406092D01*
X148206628Y-55406079D01*
X148097139Y-55242218D01*
X148097136Y-55242214D01*
X147957785Y-55102863D01*
X147957781Y-55102860D01*
X147793920Y-54993371D01*
X147793907Y-54993364D01*
X147611839Y-54917950D01*
X147611829Y-54917947D01*
X147418543Y-54879500D01*
X147418541Y-54879500D01*
X147221459Y-54879500D01*
X147221457Y-54879500D01*
X147028170Y-54917947D01*
X147028160Y-54917950D01*
X146846092Y-54993364D01*
X146846079Y-54993371D01*
X146682218Y-55102860D01*
X146682214Y-55102863D01*
X146542863Y-55242214D01*
X146542860Y-55242218D01*
X146433371Y-55406079D01*
X146433364Y-55406092D01*
X146357950Y-55588160D01*
X146357947Y-55588170D01*
X146319500Y-55781456D01*
X146319500Y-55781459D01*
X146319500Y-55978541D01*
X146319500Y-55978543D01*
X146319499Y-55978543D01*
X145780500Y-55978543D01*
X145780500Y-55781456D01*
X145742052Y-55588170D01*
X145742051Y-55588169D01*
X145742051Y-55588165D01*
X145697207Y-55479901D01*
X145666635Y-55406092D01*
X145666628Y-55406079D01*
X145557139Y-55242218D01*
X145557136Y-55242214D01*
X145417785Y-55102863D01*
X145417781Y-55102860D01*
X145253920Y-54993371D01*
X145253907Y-54993364D01*
X145071839Y-54917950D01*
X145071829Y-54917947D01*
X144878543Y-54879500D01*
X144878541Y-54879500D01*
X144681459Y-54879500D01*
X144681457Y-54879500D01*
X144488170Y-54917947D01*
X144488160Y-54917950D01*
X144306092Y-54993364D01*
X144306079Y-54993371D01*
X144142218Y-55102860D01*
X144142214Y-55102863D01*
X144002863Y-55242214D01*
X144002860Y-55242218D01*
X143893371Y-55406079D01*
X143893364Y-55406092D01*
X143817950Y-55588160D01*
X143817947Y-55588170D01*
X143781965Y-55769062D01*
X143749580Y-55830973D01*
X143688864Y-55865547D01*
X143619094Y-55861806D01*
X143562423Y-55820940D01*
X143537875Y-55764268D01*
X143507990Y-55575582D01*
X143444755Y-55380968D01*
X143351859Y-55198650D01*
X143231582Y-55033105D01*
X143231582Y-55033104D01*
X143086895Y-54888417D01*
X142921349Y-54768140D01*
X142739029Y-54675244D01*
X142544413Y-54612009D01*
X142490000Y-54603390D01*
X142490000Y-55446988D01*
X142432993Y-55414075D01*
X142305826Y-55380000D01*
X142174174Y-55380000D01*
X142047007Y-55414075D01*
X141990000Y-55446988D01*
X141990000Y-54603390D01*
X141935586Y-54612009D01*
X141740970Y-54675244D01*
X141558650Y-54768140D01*
X141393105Y-54888417D01*
X141393104Y-54888417D01*
X141248417Y-55033104D01*
X141248417Y-55033105D01*
X141128140Y-55198650D01*
X141035244Y-55380968D01*
X140972010Y-55575581D01*
X140942124Y-55764269D01*
X140912194Y-55827403D01*
X140852883Y-55864334D01*
X140783020Y-55863336D01*
X140724788Y-55824726D01*
X140698034Y-55769061D01*
X140662052Y-55588172D01*
X140662052Y-55588170D01*
X140662051Y-55588165D01*
X140617207Y-55479901D01*
X140586635Y-55406092D01*
X140586628Y-55406079D01*
X140477139Y-55242218D01*
X140477136Y-55242214D01*
X140337785Y-55102863D01*
X140337781Y-55102860D01*
X140173920Y-54993371D01*
X140173907Y-54993364D01*
X139991839Y-54917950D01*
X139991829Y-54917947D01*
X139798543Y-54879500D01*
X139798541Y-54879500D01*
X139601459Y-54879500D01*
X139601457Y-54879500D01*
X139408170Y-54917947D01*
X139408160Y-54917950D01*
X139226092Y-54993364D01*
X139226079Y-54993371D01*
X139062218Y-55102860D01*
X139062214Y-55102863D01*
X138922863Y-55242214D01*
X138922860Y-55242218D01*
X138813371Y-55406079D01*
X138813364Y-55406092D01*
X138737950Y-55588160D01*
X138737947Y-55588170D01*
X138699500Y-55781456D01*
X138699500Y-55781459D01*
X138699500Y-55978541D01*
X138699500Y-55978543D01*
X138699499Y-55978543D01*
X130150970Y-55978543D01*
X130126392Y-55886814D01*
X130065565Y-55781459D01*
X130060502Y-55772689D01*
X130060497Y-55772683D01*
X129967316Y-55679502D01*
X129967314Y-55679500D01*
X129910250Y-55646554D01*
X129853187Y-55613608D01*
X129789539Y-55596554D01*
X129725892Y-55579500D01*
X58605892Y-55579500D01*
X58474108Y-55579500D01*
X58346812Y-55613608D01*
X58232686Y-55679500D01*
X58232683Y-55679502D01*
X58139502Y-55772683D01*
X58139500Y-55772686D01*
X58073608Y-55886812D01*
X58039500Y-56014108D01*
X48448500Y-56014108D01*
X48448500Y-52943713D01*
X49549500Y-52943713D01*
X49549500Y-53156286D01*
X49582753Y-53366239D01*
X49648444Y-53568414D01*
X49744951Y-53757820D01*
X49869890Y-53929786D01*
X50020213Y-54080109D01*
X50192179Y-54205048D01*
X50192181Y-54205049D01*
X50192184Y-54205051D01*
X50381588Y-54301557D01*
X50583757Y-54367246D01*
X50793713Y-54400500D01*
X50793714Y-54400500D01*
X51006286Y-54400500D01*
X51006287Y-54400500D01*
X51216243Y-54367246D01*
X51418412Y-54301557D01*
X51607816Y-54205051D01*
X51629789Y-54189086D01*
X51779786Y-54080109D01*
X51779788Y-54080106D01*
X51779792Y-54080104D01*
X51930104Y-53929792D01*
X51930106Y-53929788D01*
X51930109Y-53929786D01*
X52055048Y-53757820D01*
X52055047Y-53757820D01*
X52055051Y-53757816D01*
X52151557Y-53568412D01*
X52217246Y-53366243D01*
X52250500Y-53156287D01*
X52250500Y-52943713D01*
X52217246Y-52733757D01*
X52151557Y-52531588D01*
X52055051Y-52342184D01*
X52055049Y-52342181D01*
X52055048Y-52342179D01*
X51930109Y-52170213D01*
X51779786Y-52019890D01*
X51607820Y-51894951D01*
X51418414Y-51798444D01*
X51418413Y-51798443D01*
X51418412Y-51798443D01*
X51216243Y-51732754D01*
X51216241Y-51732753D01*
X51216240Y-51732753D01*
X51054957Y-51707208D01*
X51006287Y-51699500D01*
X50793713Y-51699500D01*
X50745042Y-51707208D01*
X50583760Y-51732753D01*
X50381585Y-51798444D01*
X50192179Y-51894951D01*
X50020213Y-52019890D01*
X49869890Y-52170213D01*
X49744951Y-52342179D01*
X49648444Y-52531585D01*
X49582753Y-52733760D01*
X49549500Y-52943713D01*
X48448500Y-52943713D01*
X48448500Y-52089427D01*
X48448816Y-52080581D01*
X48459318Y-51933748D01*
X48463131Y-51880434D01*
X48465646Y-51862938D01*
X48507356Y-51671199D01*
X48512333Y-51654248D01*
X48580911Y-51470385D01*
X48588259Y-51454298D01*
X48650815Y-51339734D01*
X48682291Y-51282089D01*
X48691845Y-51267221D01*
X48809448Y-51110123D01*
X48821020Y-51096769D01*
X48959769Y-50958020D01*
X48973123Y-50946448D01*
X49130221Y-50828845D01*
X49145089Y-50819291D01*
X49317298Y-50725258D01*
X49333385Y-50717911D01*
X49517248Y-50649333D01*
X49534199Y-50644356D01*
X49725938Y-50602646D01*
X49743436Y-50600130D01*
X49943582Y-50585816D01*
X49952428Y-50585500D01*
X50013892Y-50585500D01*
X180904108Y-50585500D01*
X180965572Y-50585500D01*
X180974418Y-50585816D01*
G37*
%TD.AperFunction*%
%TD*%
M02*
