M48
; DRILL file {KiCad 9.0.0} date 2025-10-26T20:40:55-0700
; FORMAT={-:-/ absolute / metric / decimal}
; #@! TF.CreationDate,2025-10-26T20:40:55-07:00
; #@! TF.GenerationSoftware,Kicad,Pcbnew,9.0.0
; #@! TF.FileFunction,Plated,1,2,PTH
FMAT,2
METRIC
; #@! TA.AperFunction,Plated,PTH,ViaDrill
T1C0.300
; #@! TA.AperFunction,Plated,PTH,ComponentDrill
T2C0.900
; #@! TA.AperFunction,Plated,PTH,ComponentDrill
T3C1.000
; #@! TA.AperFunction,Plated,PTH,ComponentDrill
T4C1.500
%
G90
G05
T1
X55.0Y-55.0
X55.0Y-65.0
X55.0Y-75.0
X55.0Y-85.0
X55.0Y-95.0
X55.0Y-105.0
X55.0Y-115.0
X55.0Y-125.0
X60.0Y-130.0
X70.0Y-130.0
X80.0Y-130.0
X90.0Y-130.0
X100.0Y-130.0
X110.0Y-130.0
X120.0Y-130.0
X130.0Y-130.0
X140.0Y-130.0
X142.2Y-52.0
X148.0Y-121.2
X149.2Y-121.1
X150.0Y-130.0
X150.7Y-77.3
X151.45Y-76.9
X152.2Y-52.0
X152.7Y-79.2
X152.8Y-97.4
X153.55Y-79.0
X153.8Y-97.5
X158.1Y-121.3
X159.2Y-121.4
X159.7Y-52.0
X159.95Y-79.05
X160.0Y-130.0
X160.3Y-78.1
X160.6Y-97.5
X161.5Y-97.3
X168.5Y-121.1
X169.4Y-121.3
X169.7Y-52.0
X170.0Y-130.0
X175.0Y-125.0
X176.5Y-52.1
X180.0Y-55.0
X180.0Y-60.0
X180.0Y-75.0
X180.0Y-85.0
X180.0Y-95.0
X180.0Y-120.0
X181.6Y-102.5
X181.6Y-112.5
T2
X144.88Y-106.31
X144.88Y-108.85
X157.28Y-106.54
X157.28Y-109.08
X170.18Y-106.68
X170.18Y-109.22
T3
X139.7Y-55.88
X139.7Y-71.12
X142.24Y-55.88
X142.24Y-71.12
X144.78Y-55.88
X144.78Y-71.12
X147.32Y-55.88
X147.32Y-71.12
X149.86Y-55.88
X149.86Y-71.12
X152.4Y-55.88
X152.4Y-71.12
X154.94Y-55.88
X154.94Y-71.12
X154.94Y-81.28
X154.94Y-95.78
X157.44Y-95.78
X157.48Y-55.88
X157.48Y-71.12
X159.94Y-81.28
X159.94Y-95.78
X160.02Y-55.88
X160.02Y-71.12
X162.56Y-55.88
X162.56Y-71.12
X165.1Y-55.88
X165.1Y-71.12
X167.64Y-55.88
X167.64Y-71.12
X170.18Y-55.88
X170.18Y-71.12
X172.72Y-55.88
X172.72Y-71.12
X175.26Y-55.88
X175.26Y-71.12
T4
G00X151.84Y-88.93
M15
G01X151.84Y-87.63
M16
G05
G00X163.04Y-88.93
M15
G01X163.04Y-87.63
M16
G05
M30
